<svg width="362" height="362" viewBox="0 0 362 362" fill="none" xmlns="http://www.w3.org/2000/svg">
<g filter="url(#filter0_d_39_468)">
<path d="M48 212C48 132.804 48 93.2061 72.603 68.603C97.2061 44 136.804 44 216 44H268C305.712 44 324.569 44 336.284 55.7157C348 67.4315 348 86.2876 348 124V188C348 261.539 348 298.309 325.154 321.154C302.309 344 265.539 344 192 344H128C90.2876 344 71.4315 344 59.7157 332.284C48 320.569 48 301.712 48 264V212Z" fill="white"/>
</g>
<mask id="path-2-inside-1_39_468" fill="white">
<path d="M286.487 166.163H294.013V159.744H287.6C287.607 158.342 287.465 156.944 287.176 155.572C286.494 152.469 285.054 149.583 282.984 147.174C280.914 144.764 278.28 142.905 275.317 141.764C272.354 140.622 269.155 140.234 266.005 140.633C262.855 141.032 259.853 142.206 257.268 144.051C256.765 144.406 256.165 144.597 255.549 144.597C254.934 144.597 254.333 144.406 253.831 144.051C251.732 142.547 249.35 141.484 246.829 140.925C244.309 140.366 241.701 140.324 239.164 140.801C236.627 141.278 234.212 142.264 232.065 143.699C229.919 145.135 228.085 146.99 226.674 149.154C225.26 146.995 223.425 145.144 221.279 143.713C219.133 142.281 216.72 141.299 214.185 140.825C211.65 140.35 209.045 140.393 206.527 140.952C204.01 141.51 201.63 142.572 199.533 144.073C199.03 144.429 198.43 144.62 197.814 144.62C197.199 144.62 196.598 144.429 196.095 144.073C193.998 142.571 191.619 141.508 189.101 140.949C186.583 140.391 183.978 140.347 181.443 140.822C178.907 141.296 176.494 142.279 174.348 143.711C172.202 145.143 170.367 146.994 168.954 149.154C167.541 146.995 165.706 145.144 163.56 143.713C161.414 142.281 159.001 141.299 156.466 140.825C153.931 140.35 151.326 140.393 148.808 140.952C146.29 141.51 143.911 142.572 141.814 144.073C141.311 144.429 140.71 144.62 140.095 144.62C139.479 144.62 138.879 144.429 138.376 144.073C135.793 142.227 132.792 141.051 129.644 140.65C126.495 140.248 123.296 140.635 120.332 141.774C117.369 142.913 114.735 144.77 112.664 147.178C110.593 149.586 109.152 152.47 108.468 155.572C108.179 156.944 108.037 158.342 108.045 159.744H101.615V166.163H109.141C109.886 168.264 110.99 170.218 112.406 171.939C112.566 172.135 112.701 172.366 112.854 172.581H104.822C103.971 172.581 103.156 172.919 102.554 173.521C101.953 174.123 101.615 174.939 101.615 175.791V227.139C101.615 227.99 101.953 228.806 102.554 229.408C103.156 230.01 103.971 230.348 104.822 230.348H290.806C291.657 230.348 292.472 230.01 293.074 229.408C293.675 228.806 294.013 227.99 294.013 227.139V175.791C294.013 174.939 293.675 174.123 293.074 173.521C292.472 172.919 291.657 172.581 290.806 172.581H282.79C282.947 172.376 283.078 172.145 283.239 171.939C284.648 170.217 285.747 168.262 286.487 166.163ZM168.954 170.351C169.317 170.906 169.707 171.441 170.125 171.956C170.285 172.151 170.42 172.382 170.574 172.597H167.351C167.508 172.392 167.64 172.161 167.8 171.956C168.212 171.441 168.597 170.905 168.954 170.351ZM175.073 167.867C174.659 167.328 174.288 166.759 173.963 166.163H188.194V169.372C188.194 170.223 188.532 171.04 189.133 171.641C189.735 172.243 190.55 172.581 191.401 172.581H204.227C205.078 172.581 205.893 172.243 206.495 171.641C207.096 171.04 207.434 170.223 207.434 169.372V166.163H221.665C221.34 166.759 220.969 167.328 220.555 167.867C217.444 171.813 215.368 176.475 214.517 181.429L211.651 195.999C211.529 196.624 211.198 197.188 210.713 197.598C210.228 198.009 209.617 198.242 208.982 198.259C208.346 198.275 207.724 198.074 207.219 197.689C206.713 197.304 206.353 196.758 206.199 196.141L204.035 187.476C203.686 186.089 202.885 184.859 201.758 183.98C200.632 183.101 199.244 182.624 197.816 182.624C196.387 182.624 195 183.101 193.873 183.98C192.746 184.859 191.945 186.089 191.596 187.476L189.429 196.141C189.275 196.758 188.915 197.304 188.41 197.689C187.904 198.074 187.282 198.275 186.647 198.259C186.011 198.242 185.4 198.009 184.915 197.598C184.43 197.188 184.099 196.624 183.977 195.999L181.111 181.432C180.26 176.477 178.185 171.814 175.073 167.867ZM225.503 171.939C225.921 171.425 226.311 170.89 226.674 170.335C227.036 170.89 227.427 171.425 227.844 171.939C228.004 172.135 228.139 172.366 228.293 172.581H225.054C225.212 172.376 225.343 172.145 225.503 171.939ZM232.792 167.857C232.379 167.322 232.008 166.755 231.682 166.163H245.914V169.372C245.914 170.223 246.251 171.04 246.853 171.641C247.454 172.243 248.27 172.581 249.12 172.581H261.947C262.797 172.581 263.613 172.243 264.214 171.641C264.815 171.04 265.153 170.223 265.153 169.372V166.163H279.384C279.059 166.759 278.688 167.328 278.275 167.867C275.163 171.813 273.088 176.475 272.237 181.429L269.37 195.999C269.248 196.624 268.918 197.188 268.432 197.598C267.947 198.009 267.336 198.242 266.701 198.259C266.066 198.275 265.444 198.074 264.938 197.689C264.432 197.304 264.073 196.758 263.919 196.141L261.754 187.476C261.406 186.089 260.604 184.859 259.478 183.98C258.351 183.101 256.963 182.624 255.535 182.624C254.107 182.624 252.719 183.101 251.592 183.98C250.466 184.859 249.664 186.089 249.316 187.476L247.148 196.141C246.994 196.758 246.635 197.304 246.129 197.689C245.623 198.074 245.001 198.275 244.366 198.259C243.73 198.242 243.12 198.009 242.635 197.598C242.149 197.188 241.818 196.624 241.697 195.999L238.83 181.432C237.98 176.477 235.904 171.814 232.792 167.867V167.857ZM240.302 147.125C241.992 146.805 243.729 146.831 245.409 147.201C247.089 147.571 248.676 148.278 250.076 149.279C251.665 150.42 253.571 151.034 255.527 151.034C257.483 151.034 259.389 150.42 260.978 149.279C262.379 148.28 263.966 147.574 265.646 147.204C267.325 146.834 269.062 146.807 270.752 147.125C273.213 147.581 275.485 148.752 277.285 150.492C279.085 152.233 280.332 154.465 280.872 156.91C281.074 157.842 281.179 158.791 281.186 159.744H265.153V156.535C265.153 155.684 264.815 154.868 264.214 154.266C263.613 153.664 262.797 153.326 261.947 153.326H249.12C248.27 153.326 247.454 153.664 246.853 154.266C246.251 154.868 245.914 155.684 245.914 156.535V159.744H229.88C229.88 158.793 229.978 157.845 230.172 156.914C230.712 154.466 231.961 152.233 233.763 150.492C235.565 148.751 237.839 147.58 240.302 147.125ZM182.583 147.125C184.273 146.805 186.01 146.831 187.69 147.201C189.369 147.572 190.957 148.278 192.356 149.279C193.945 150.42 195.852 151.034 197.808 151.034C199.763 151.034 201.67 150.42 203.259 149.279C204.659 148.28 206.247 147.574 207.926 147.204C209.606 146.834 211.343 146.807 213.033 147.125C215.494 147.581 217.766 148.752 219.566 150.492C221.365 152.233 222.613 154.465 223.153 156.91C223.355 157.842 223.46 158.791 223.467 159.744H207.434V156.535C207.434 155.684 207.096 154.868 206.495 154.266C205.893 153.664 205.078 153.326 204.227 153.326H191.401C190.55 153.326 189.735 153.664 189.133 154.266C188.532 154.868 188.194 155.684 188.194 156.535V159.744H172.161C172.161 158.793 172.259 157.845 172.453 156.914C172.993 154.466 174.242 152.233 176.044 150.492C177.845 148.751 180.12 147.58 182.583 147.125ZM114.743 156.914C115.204 154.855 116.166 152.943 117.543 151.346C118.921 149.75 120.671 148.519 122.639 147.763C124.607 147.008 126.731 146.75 128.822 147.015C130.913 147.279 132.906 148.057 134.624 149.279C136.213 150.42 138.12 151.034 140.076 151.034C142.031 151.034 143.938 150.42 145.527 149.279C146.927 148.28 148.515 147.574 150.194 147.204C151.874 146.834 153.611 146.807 155.301 147.125C157.761 147.581 160.034 148.752 161.833 150.492C163.633 152.233 164.881 154.465 165.421 156.91C165.627 157.841 165.737 158.791 165.748 159.744H149.715V156.535C149.715 155.684 149.377 154.868 148.775 154.266C148.174 153.664 147.358 153.326 146.508 153.326H133.682C132.831 153.326 132.015 153.664 131.414 154.266C130.813 154.868 130.475 155.684 130.475 156.535V159.744H114.442C114.445 158.793 114.546 157.844 114.743 156.914ZM130.475 166.163V169.372C130.475 170.223 130.813 171.04 131.414 171.641C132.015 172.243 132.831 172.581 133.682 172.581H146.508C147.358 172.581 148.174 172.243 148.775 171.641C149.377 171.04 149.715 170.223 149.715 169.372V166.163H163.946C163.62 166.759 163.249 167.328 162.836 167.867C159.725 171.813 157.649 176.475 156.798 181.429L153.931 195.999C153.81 196.624 153.479 197.188 152.994 197.598C152.508 198.009 151.898 198.242 151.262 198.259C150.627 198.275 150.005 198.074 149.499 197.689C148.993 197.304 148.634 196.758 148.48 196.141L146.316 187.476C145.967 186.089 145.166 184.859 144.039 183.98C142.912 183.101 141.525 182.624 140.096 182.624C138.668 182.624 137.28 183.101 136.154 183.98C135.027 184.859 134.226 186.089 133.877 187.476L131.709 196.141C131.556 196.758 131.196 197.304 130.69 197.689C130.184 198.074 129.563 198.275 128.927 198.259C128.292 198.242 127.681 198.009 127.196 197.598C126.711 197.188 126.38 196.624 126.258 195.999L123.391 181.432C122.541 176.477 120.465 171.814 117.353 167.867C116.94 167.328 116.569 166.759 116.244 166.163H130.475ZM287.6 179V223.93H108.028V179H116.125C116.521 180.203 116.842 181.429 117.087 182.671L119.954 197.241C120.362 199.293 121.455 201.145 123.054 202.492C124.653 203.84 126.662 204.603 128.752 204.655C130.841 204.708 132.887 204.047 134.551 202.782C136.216 201.517 137.401 199.723 137.911 197.694L140.079 189.029L142.246 197.694C142.757 199.723 143.942 201.517 145.606 202.782C147.271 204.047 149.316 204.708 151.406 204.655C153.495 204.603 155.505 203.84 157.104 202.492C158.703 201.145 159.796 199.293 160.204 197.241L163.07 182.668C163.315 181.427 163.636 180.202 164.032 179H173.812C174.208 180.203 174.53 181.429 174.774 182.671L177.641 197.241C178.049 199.293 179.142 201.145 180.741 202.492C182.34 203.84 184.349 204.603 186.439 204.655C188.529 204.708 190.574 204.047 192.238 202.782C193.903 201.517 195.088 199.723 195.598 197.694L197.766 189.029L199.934 197.694C200.444 199.723 201.629 201.517 203.294 202.782C204.958 204.047 207.003 204.708 209.093 204.655C211.183 204.603 213.192 203.84 214.791 202.492C216.39 201.145 217.483 199.293 217.891 197.241L220.758 182.668C221.002 181.427 221.324 180.202 221.719 179H231.5C231.896 180.203 232.217 181.429 232.462 182.671L235.328 197.241C235.736 199.293 236.829 201.145 238.428 202.492C240.027 203.84 242.037 204.603 244.126 204.655C246.216 204.708 248.261 204.047 249.926 202.782C251.59 201.517 252.775 199.723 253.286 197.694L255.453 189.029L257.621 197.694C258.131 199.723 259.316 201.517 260.981 202.782C262.645 204.047 264.691 204.708 266.78 204.655C268.87 204.603 270.879 203.84 272.478 202.492C274.077 201.145 275.17 199.293 275.578 197.241L278.445 182.668C278.69 181.427 279.011 180.202 279.407 179H287.6Z"/>
</mask>
<path d="M286.487 166.163H294.013V159.744H287.6C287.607 158.342 287.465 156.944 287.176 155.572C286.494 152.469 285.054 149.583 282.984 147.174C280.914 144.764 278.28 142.905 275.317 141.764C272.354 140.622 269.155 140.234 266.005 140.633C262.855 141.032 259.853 142.206 257.268 144.051C256.765 144.406 256.165 144.597 255.549 144.597C254.934 144.597 254.333 144.406 253.831 144.051C251.732 142.547 249.35 141.484 246.829 140.925C244.309 140.366 241.701 140.324 239.164 140.801C236.627 141.278 234.212 142.264 232.065 143.699C229.919 145.135 228.085 146.99 226.674 149.154C225.26 146.995 223.425 145.144 221.279 143.713C219.133 142.281 216.72 141.299 214.185 140.825C211.65 140.35 209.045 140.393 206.527 140.952C204.01 141.51 201.63 142.572 199.533 144.073C199.03 144.429 198.43 144.62 197.814 144.62C197.199 144.62 196.598 144.429 196.095 144.073C193.998 142.571 191.619 141.508 189.101 140.949C186.583 140.391 183.978 140.347 181.443 140.822C178.907 141.296 176.494 142.279 174.348 143.711C172.202 145.143 170.367 146.994 168.954 149.154C167.541 146.995 165.706 145.144 163.56 143.713C161.414 142.281 159.001 141.299 156.466 140.825C153.931 140.35 151.326 140.393 148.808 140.952C146.29 141.51 143.911 142.572 141.814 144.073C141.311 144.429 140.71 144.62 140.095 144.62C139.479 144.62 138.879 144.429 138.376 144.073C135.793 142.227 132.792 141.051 129.644 140.65C126.495 140.248 123.296 140.635 120.332 141.774C117.369 142.913 114.735 144.77 112.664 147.178C110.593 149.586 109.152 152.47 108.468 155.572C108.179 156.944 108.037 158.342 108.045 159.744H101.615V166.163H109.141C109.886 168.264 110.99 170.218 112.406 171.939C112.566 172.135 112.701 172.366 112.854 172.581H104.822C103.971 172.581 103.156 172.919 102.554 173.521C101.953 174.123 101.615 174.939 101.615 175.791V227.139C101.615 227.99 101.953 228.806 102.554 229.408C103.156 230.01 103.971 230.348 104.822 230.348H290.806C291.657 230.348 292.472 230.01 293.074 229.408C293.675 228.806 294.013 227.99 294.013 227.139V175.791C294.013 174.939 293.675 174.123 293.074 173.521C292.472 172.919 291.657 172.581 290.806 172.581H282.79C282.947 172.376 283.078 172.145 283.239 171.939C284.648 170.217 285.747 168.262 286.487 166.163ZM168.954 170.351C169.317 170.906 169.707 171.441 170.125 171.956C170.285 172.151 170.42 172.382 170.574 172.597H167.351C167.508 172.392 167.64 172.161 167.8 171.956C168.212 171.441 168.597 170.905 168.954 170.351ZM175.073 167.867C174.659 167.328 174.288 166.759 173.963 166.163H188.194V169.372C188.194 170.223 188.532 171.04 189.133 171.641C189.735 172.243 190.55 172.581 191.401 172.581H204.227C205.078 172.581 205.893 172.243 206.495 171.641C207.096 171.04 207.434 170.223 207.434 169.372V166.163H221.665C221.34 166.759 220.969 167.328 220.555 167.867C217.444 171.813 215.368 176.475 214.517 181.429L211.651 195.999C211.529 196.624 211.198 197.188 210.713 197.598C210.228 198.009 209.617 198.242 208.982 198.259C208.346 198.275 207.724 198.074 207.219 197.689C206.713 197.304 206.353 196.758 206.199 196.141L204.035 187.476C203.686 186.089 202.885 184.859 201.758 183.98C200.632 183.101 199.244 182.624 197.816 182.624C196.387 182.624 195 183.101 193.873 183.98C192.746 184.859 191.945 186.089 191.596 187.476L189.429 196.141C189.275 196.758 188.915 197.304 188.41 197.689C187.904 198.074 187.282 198.275 186.647 198.259C186.011 198.242 185.4 198.009 184.915 197.598C184.43 197.188 184.099 196.624 183.977 195.999L181.111 181.432C180.26 176.477 178.185 171.814 175.073 167.867ZM225.503 171.939C225.921 171.425 226.311 170.89 226.674 170.335C227.036 170.89 227.427 171.425 227.844 171.939C228.004 172.135 228.139 172.366 228.293 172.581H225.054C225.212 172.376 225.343 172.145 225.503 171.939ZM232.792 167.857C232.379 167.322 232.008 166.755 231.682 166.163H245.914V169.372C245.914 170.223 246.251 171.04 246.853 171.641C247.454 172.243 248.27 172.581 249.12 172.581H261.947C262.797 172.581 263.613 172.243 264.214 171.641C264.815 171.04 265.153 170.223 265.153 169.372V166.163H279.384C279.059 166.759 278.688 167.328 278.275 167.867C275.163 171.813 273.088 176.475 272.237 181.429L269.37 195.999C269.248 196.624 268.918 197.188 268.432 197.598C267.947 198.009 267.336 198.242 266.701 198.259C266.066 198.275 265.444 198.074 264.938 197.689C264.432 197.304 264.073 196.758 263.919 196.141L261.754 187.476C261.406 186.089 260.604 184.859 259.478 183.98C258.351 183.101 256.963 182.624 255.535 182.624C254.107 182.624 252.719 183.101 251.592 183.98C250.466 184.859 249.664 186.089 249.316 187.476L247.148 196.141C246.994 196.758 246.635 197.304 246.129 197.689C245.623 198.074 245.001 198.275 244.366 198.259C243.73 198.242 243.12 198.009 242.635 197.598C242.149 197.188 241.818 196.624 241.697 195.999L238.83 181.432C237.98 176.477 235.904 171.814 232.792 167.867V167.857ZM240.302 147.125C241.992 146.805 243.729 146.831 245.409 147.201C247.089 147.571 248.676 148.278 250.076 149.279C251.665 150.42 253.571 151.034 255.527 151.034C257.483 151.034 259.389 150.42 260.978 149.279C262.379 148.28 263.966 147.574 265.646 147.204C267.325 146.834 269.062 146.807 270.752 147.125C273.213 147.581 275.485 148.752 277.285 150.492C279.085 152.233 280.332 154.465 280.872 156.91C281.074 157.842 281.179 158.791 281.186 159.744H265.153V156.535C265.153 155.684 264.815 154.868 264.214 154.266C263.613 153.664 262.797 153.326 261.947 153.326H249.12C248.27 153.326 247.454 153.664 246.853 154.266C246.251 154.868 245.914 155.684 245.914 156.535V159.744H229.88C229.88 158.793 229.978 157.845 230.172 156.914C230.712 154.466 231.961 152.233 233.763 150.492C235.565 148.751 237.839 147.58 240.302 147.125ZM182.583 147.125C184.273 146.805 186.01 146.831 187.69 147.201C189.369 147.572 190.957 148.278 192.356 149.279C193.945 150.42 195.852 151.034 197.808 151.034C199.763 151.034 201.67 150.42 203.259 149.279C204.659 148.28 206.247 147.574 207.926 147.204C209.606 146.834 211.343 146.807 213.033 147.125C215.494 147.581 217.766 148.752 219.566 150.492C221.365 152.233 222.613 154.465 223.153 156.91C223.355 157.842 223.46 158.791 223.467 159.744H207.434V156.535C207.434 155.684 207.096 154.868 206.495 154.266C205.893 153.664 205.078 153.326 204.227 153.326H191.401C190.55 153.326 189.735 153.664 189.133 154.266C188.532 154.868 188.194 155.684 188.194 156.535V159.744H172.161C172.161 158.793 172.259 157.845 172.453 156.914C172.993 154.466 174.242 152.233 176.044 150.492C177.845 148.751 180.12 147.58 182.583 147.125ZM114.743 156.914C115.204 154.855 116.166 152.943 117.543 151.346C118.921 149.75 120.671 148.519 122.639 147.763C124.607 147.008 126.731 146.75 128.822 147.015C130.913 147.279 132.906 148.057 134.624 149.279C136.213 150.42 138.12 151.034 140.076 151.034C142.031 151.034 143.938 150.42 145.527 149.279C146.927 148.28 148.515 147.574 150.194 147.204C151.874 146.834 153.611 146.807 155.301 147.125C157.761 147.581 160.034 148.752 161.833 150.492C163.633 152.233 164.881 154.465 165.421 156.91C165.627 157.841 165.737 158.791 165.748 159.744H149.715V156.535C149.715 155.684 149.377 154.868 148.775 154.266C148.174 153.664 147.358 153.326 146.508 153.326H133.682C132.831 153.326 132.015 153.664 131.414 154.266C130.813 154.868 130.475 155.684 130.475 156.535V159.744H114.442C114.445 158.793 114.546 157.844 114.743 156.914ZM130.475 166.163V169.372C130.475 170.223 130.813 171.04 131.414 171.641C132.015 172.243 132.831 172.581 133.682 172.581H146.508C147.358 172.581 148.174 172.243 148.775 171.641C149.377 171.04 149.715 170.223 149.715 169.372V166.163H163.946C163.62 166.759 163.249 167.328 162.836 167.867C159.725 171.813 157.649 176.475 156.798 181.429L153.931 195.999C153.81 196.624 153.479 197.188 152.994 197.598C152.508 198.009 151.898 198.242 151.262 198.259C150.627 198.275 150.005 198.074 149.499 197.689C148.993 197.304 148.634 196.758 148.48 196.141L146.316 187.476C145.967 186.089 145.166 184.859 144.039 183.98C142.912 183.101 141.525 182.624 140.096 182.624C138.668 182.624 137.28 183.101 136.154 183.98C135.027 184.859 134.226 186.089 133.877 187.476L131.709 196.141C131.556 196.758 131.196 197.304 130.69 197.689C130.184 198.074 129.563 198.275 128.927 198.259C128.292 198.242 127.681 198.009 127.196 197.598C126.711 197.188 126.38 196.624 126.258 195.999L123.391 181.432C122.541 176.477 120.465 171.814 117.353 167.867C116.94 167.328 116.569 166.759 116.244 166.163H130.475ZM287.6 179V223.93H108.028V179H116.125C116.521 180.203 116.842 181.429 117.087 182.671L119.954 197.241C120.362 199.293 121.455 201.145 123.054 202.492C124.653 203.84 126.662 204.603 128.752 204.655C130.841 204.708 132.887 204.047 134.551 202.782C136.216 201.517 137.401 199.723 137.911 197.694L140.079 189.029L142.246 197.694C142.757 199.723 143.942 201.517 145.606 202.782C147.271 204.047 149.316 204.708 151.406 204.655C153.495 204.603 155.505 203.84 157.104 202.492C158.703 201.145 159.796 199.293 160.204 197.241L163.07 182.668C163.315 181.427 163.636 180.202 164.032 179H173.812C174.208 180.203 174.53 181.429 174.774 182.671L177.641 197.241C178.049 199.293 179.142 201.145 180.741 202.492C182.34 203.84 184.349 204.603 186.439 204.655C188.529 204.708 190.574 204.047 192.238 202.782C193.903 201.517 195.088 199.723 195.598 197.694L197.766 189.029L199.934 197.694C200.444 199.723 201.629 201.517 203.294 202.782C204.958 204.047 207.003 204.708 209.093 204.655C211.183 204.603 213.192 203.84 214.791 202.492C216.39 201.145 217.483 199.293 217.891 197.241L220.758 182.668C221.002 181.427 221.324 180.202 221.719 179H231.5C231.896 180.203 232.217 181.429 232.462 182.671L235.328 197.241C235.736 199.293 236.829 201.145 238.428 202.492C240.027 203.84 242.037 204.603 244.126 204.655C246.216 204.708 248.261 204.047 249.926 202.782C251.59 201.517 252.775 199.723 253.286 197.694L255.453 189.029L257.621 197.694C258.131 199.723 259.316 201.517 260.981 202.782C262.645 204.047 264.691 204.708 266.78 204.655C268.87 204.603 270.879 203.84 272.478 202.492C274.077 201.145 275.17 199.293 275.578 197.241L278.445 182.668C278.69 181.427 279.011 180.202 279.407 179H287.6Z" fill="#007CC1" stroke="white" stroke-width="4" mask="url(#path-2-inside-1_39_468)"/>
<rect x="82.6738" y="121.531" width="230.653" height="127.319" stroke="white" stroke-width="2"/>
<path d="M71.8725 293.771C71.5845 293.771 71.3605 293.715 71.2005 293.603C71.0565 293.507 70.9605 293.363 70.9125 293.171C70.8645 292.963 70.8405 292.739 70.8405 292.499V278.243C70.8405 278.003 70.8645 277.795 70.9125 277.619C70.9765 277.427 71.0805 277.283 71.2245 277.187C71.3845 277.075 71.6085 277.019 71.8965 277.019H78.5925C79.4885 277.019 80.2725 277.219 80.9445 277.619C81.6325 278.019 82.1685 278.563 82.5525 279.251C82.9365 279.939 83.1205 280.691 83.1045 281.507C83.1205 281.923 83.0725 282.331 82.9605 282.731C82.8485 283.131 82.6805 283.507 82.4565 283.859C82.2485 284.195 81.9845 284.475 81.6645 284.699C82.0965 284.971 82.4645 285.323 82.7685 285.755C83.0725 286.187 83.3045 286.667 83.4645 287.195C83.6245 287.723 83.7045 288.275 83.7045 288.851C83.6885 289.539 83.5605 290.187 83.3205 290.795C83.0805 291.387 82.7365 291.907 82.2885 292.355C81.8405 292.803 81.3205 293.155 80.7285 293.411C80.1365 293.651 79.5045 293.771 78.8325 293.771H71.8725ZM73.0005 291.707H78.5925C79.2165 291.707 79.7525 291.587 80.2005 291.347C80.6485 291.107 80.9925 290.755 81.2325 290.291C81.4725 289.827 81.5925 289.259 81.5925 288.587C81.5925 288.011 81.5125 287.547 81.3525 287.195C81.1925 286.843 80.9765 286.579 80.7045 286.403C80.4325 286.211 80.1365 286.075 79.8165 285.995C79.5125 285.915 79.2085 285.875 78.9045 285.875C78.6165 285.859 78.3525 285.851 78.1125 285.851H76.6485C76.3285 285.851 76.0965 285.771 75.9525 285.611C75.8085 285.451 75.7365 285.195 75.7365 284.843C75.7365 284.507 75.8085 284.267 75.9525 284.123C76.1125 283.979 76.3525 283.907 76.6725 283.907H78.1365C78.3925 283.907 78.6805 283.899 79.0005 283.883C79.3205 283.867 79.6325 283.803 79.9365 283.691C80.2565 283.579 80.5125 283.371 80.7045 283.067C80.9125 282.747 81.0165 282.299 81.0165 281.723C81.0165 280.827 80.7765 280.171 80.2965 279.755C79.8165 279.323 79.0245 279.107 77.9205 279.107H73.0005V291.707ZM87.6812 293.771C87.3772 293.771 87.1452 293.723 86.9852 293.627C86.8252 293.547 86.7212 293.427 86.6732 293.267C86.6412 293.091 86.6252 292.891 86.6252 292.667V278.075C86.6252 277.867 86.6492 277.691 86.6972 277.547C86.7612 277.387 86.8652 277.259 87.0092 277.163C87.1692 277.067 87.4012 277.019 87.7052 277.019H93.0092C93.7932 277.019 94.5052 277.139 95.1452 277.379C95.8012 277.603 96.3692 277.939 96.8492 278.387C97.3292 278.835 97.6972 279.403 97.9532 280.091C98.2252 280.763 98.3612 281.547 98.3612 282.443C98.3612 283.003 98.2732 283.587 98.0972 284.195C97.9212 284.787 97.6492 285.347 97.2812 285.875C96.9292 286.403 96.4732 286.843 95.9132 287.195C95.3532 287.547 94.6732 287.747 93.8732 287.795H88.7852V292.691C88.7852 292.915 88.7532 293.107 88.6892 293.267C88.6412 293.427 88.5372 293.547 88.3772 293.627C88.2332 293.723 88.0012 293.771 87.6812 293.771ZM97.9772 293.507C97.6412 293.731 97.3532 293.803 97.1132 293.723C96.8892 293.643 96.6732 293.451 96.4652 293.147L92.6252 287.003L95.0012 286.643L98.3132 291.923C98.4732 292.179 98.5692 292.395 98.6012 292.571C98.6492 292.747 98.6172 292.907 98.5052 293.051C98.4092 293.195 98.2332 293.347 97.9772 293.507ZM88.7852 285.683H93.5372C93.9052 285.683 94.2492 285.619 94.5692 285.491C94.8892 285.347 95.1692 285.139 95.4092 284.867C95.6492 284.595 95.8412 284.259 95.9852 283.859C96.1292 283.459 96.2012 282.979 96.2012 282.419C96.2012 281.731 96.0732 281.147 95.8172 280.667C95.5772 280.187 95.2172 279.827 94.7372 279.587C94.2572 279.331 93.6652 279.203 92.9612 279.203H88.7852V285.683ZM115.982 292.235C116.11 292.475 116.174 292.683 116.174 292.859C116.19 293.019 116.142 293.171 116.03 293.315C115.918 293.443 115.742 293.563 115.502 293.675C115.118 293.851 114.814 293.891 114.59 293.795C114.382 293.699 114.19 293.467 114.014 293.099L108.014 280.331L102.062 293.075C101.886 293.443 101.686 293.675 101.462 293.771C101.254 293.867 100.95 293.827 100.55 293.651C100.31 293.555 100.134 293.435 100.022 293.291C99.9263 293.147 99.8863 292.971 99.9023 292.763C99.9343 292.555 100.014 292.315 100.142 292.043L107.03 277.667C107.126 277.475 107.262 277.323 107.438 277.211C107.63 277.083 107.83 277.019 108.038 277.019C108.182 277.019 108.318 277.043 108.446 277.091C108.574 277.139 108.686 277.211 108.782 277.307C108.878 277.403 108.958 277.531 109.022 277.691L115.982 292.235ZM103.502 288.995L104.318 287.147H111.758L112.55 288.995H103.502ZM126.065 293.819C125.201 293.819 124.361 293.691 123.545 293.435C122.729 293.179 121.969 292.811 121.265 292.331C120.561 291.851 119.937 291.259 119.393 290.555C118.865 289.835 118.449 289.035 118.145 288.155C117.841 287.259 117.689 286.275 117.689 285.203C117.689 284.179 117.841 283.235 118.145 282.371C118.449 281.491 118.865 280.715 119.393 280.043C119.921 279.371 120.537 278.803 121.241 278.339C121.961 277.859 122.729 277.499 123.545 277.259C124.377 277.003 125.225 276.875 126.089 276.875C126.889 276.875 127.577 276.955 128.153 277.115C128.729 277.275 129.201 277.451 129.569 277.643C129.937 277.819 130.185 277.955 130.313 278.051C130.537 278.179 130.753 278.331 130.961 278.507C131.169 278.683 131.281 278.891 131.297 279.131C131.329 279.307 131.313 279.451 131.249 279.563C131.201 279.675 131.137 279.795 131.057 279.923C130.929 280.115 130.793 280.259 130.649 280.355C130.521 280.435 130.377 280.475 130.217 280.475C130.057 280.475 129.913 280.427 129.785 280.331C129.657 280.235 129.489 280.123 129.281 279.995C129.185 279.931 128.993 279.827 128.705 279.683C128.417 279.539 128.049 279.403 127.601 279.275C127.153 279.131 126.609 279.059 125.969 279.059C125.153 279.059 124.369 279.211 123.617 279.515C122.881 279.803 122.233 280.219 121.673 280.763C121.113 281.307 120.673 281.963 120.353 282.731C120.033 283.499 119.873 284.363 119.873 285.323C119.873 286.299 120.033 287.179 120.353 287.963C120.673 288.731 121.113 289.387 121.673 289.931C122.249 290.475 122.905 290.891 123.641 291.179C124.377 291.467 125.153 291.611 125.969 291.611C126.577 291.611 127.105 291.547 127.553 291.419C128.017 291.291 128.393 291.155 128.681 291.011C128.985 290.851 129.193 290.731 129.305 290.651C129.481 290.555 129.633 290.459 129.761 290.363C129.905 290.267 130.057 290.219 130.217 290.219C130.377 290.219 130.521 290.267 130.649 290.363C130.793 290.443 130.929 290.579 131.057 290.771C131.137 290.883 131.201 291.011 131.249 291.155C131.313 291.283 131.329 291.427 131.297 291.587C131.281 291.827 131.169 292.035 130.961 292.211C130.753 292.371 130.537 292.523 130.313 292.667C130.169 292.731 129.913 292.867 129.545 293.075C129.193 293.267 128.729 293.435 128.153 293.579C127.577 293.739 126.881 293.819 126.065 293.819ZM135.233 293.771C134.913 293.771 134.673 293.723 134.513 293.627C134.369 293.547 134.273 293.427 134.225 293.267C134.177 293.107 134.153 292.915 134.153 292.691V278.075C134.153 277.867 134.177 277.683 134.225 277.523C134.289 277.347 134.393 277.219 134.537 277.139C134.697 277.059 134.937 277.019 135.257 277.019C135.577 277.019 135.809 277.067 135.953 277.163C136.113 277.243 136.217 277.363 136.265 277.523C136.313 277.683 136.337 277.875 136.337 278.099V283.907L143.417 277.355C143.609 277.163 143.785 277.035 143.945 276.971C144.105 276.907 144.265 276.907 144.425 276.971C144.585 277.035 144.761 277.163 144.953 277.355C145.257 277.659 145.401 277.923 145.385 278.147C145.385 278.355 145.241 278.595 144.953 278.867L137.801 285.371L145.049 291.923C145.353 292.211 145.505 292.467 145.505 292.691C145.505 292.915 145.353 293.171 145.049 293.459C144.841 293.651 144.657 293.779 144.497 293.843C144.337 293.907 144.177 293.907 144.017 293.843C143.873 293.779 143.705 293.643 143.513 293.435L136.337 286.835V292.715C136.337 292.939 136.313 293.131 136.265 293.291C136.217 293.451 136.113 293.571 135.953 293.651C135.793 293.731 135.553 293.771 135.233 293.771ZM149.58 293.771C149.26 293.771 149.02 293.723 148.86 293.627C148.716 293.547 148.62 293.427 148.572 293.267C148.524 293.091 148.5 292.891 148.5 292.667V278.099C148.5 277.683 148.58 277.403 148.74 277.259C148.916 277.099 149.22 277.019 149.652 277.019H159.3C159.524 277.019 159.716 277.043 159.876 277.091C160.036 277.139 160.156 277.243 160.236 277.403C160.316 277.563 160.356 277.803 160.356 278.123C160.356 278.443 160.308 278.683 160.212 278.843C160.132 278.987 160.012 279.083 159.852 279.131C159.692 279.179 159.5 279.203 159.276 279.203H150.66V284.171H156.66C156.884 284.171 157.068 284.195 157.212 284.243C157.372 284.291 157.492 284.387 157.572 284.531C157.652 284.675 157.692 284.899 157.692 285.203C157.692 285.491 157.652 285.707 157.572 285.851C157.492 285.995 157.372 286.091 157.212 286.139C157.052 286.171 156.852 286.187 156.612 286.187H150.66V291.611H159.3C159.524 291.611 159.716 291.635 159.876 291.683C160.036 291.731 160.156 291.835 160.236 291.995C160.316 292.139 160.356 292.371 160.356 292.691C160.356 293.011 160.308 293.251 160.212 293.411C160.132 293.555 160.012 293.651 159.852 293.699C159.692 293.747 159.5 293.771 159.276 293.771H149.58ZM175.717 277.019C175.925 277.019 176.093 277.043 176.221 277.091C176.365 277.139 176.477 277.235 176.557 277.379C176.637 277.507 176.677 277.723 176.677 278.027C176.677 278.315 176.629 278.531 176.533 278.675C176.453 278.819 176.341 278.915 176.197 278.963C176.053 278.995 175.877 279.011 175.669 279.011H170.701V292.715C170.701 292.923 170.669 293.107 170.605 293.267C170.557 293.427 170.453 293.547 170.293 293.627C170.149 293.723 169.925 293.771 169.621 293.771C169.301 293.771 169.061 293.723 168.901 293.627C168.757 293.547 168.661 293.427 168.613 293.267C168.581 293.091 168.565 292.899 168.565 292.691V279.011H163.525C163.317 279.011 163.141 278.995 162.997 278.963C162.853 278.915 162.741 278.819 162.661 278.675C162.581 278.531 162.541 278.315 162.541 278.027C162.541 277.723 162.573 277.507 162.637 277.379C162.717 277.235 162.829 277.139 162.973 277.091C163.133 277.043 163.309 277.019 163.501 277.019H175.717ZM183.602 294.011C182.994 294.011 182.418 293.939 181.874 293.795C181.346 293.651 180.858 293.459 180.41 293.219C179.978 292.963 179.594 292.683 179.258 292.379C178.922 292.075 178.658 291.771 178.466 291.467C178.29 291.211 178.178 291.003 178.13 290.843C178.082 290.667 178.09 290.499 178.154 290.339C178.234 290.179 178.386 290.003 178.61 289.811C178.866 289.619 179.09 289.531 179.282 289.547C179.474 289.547 179.65 289.619 179.81 289.763C179.986 289.907 180.162 290.099 180.338 290.339C180.738 290.883 181.226 291.283 181.802 291.539C182.378 291.779 182.946 291.899 183.506 291.899C184.226 291.899 184.866 291.803 185.426 291.611C185.986 291.419 186.426 291.131 186.746 290.747C187.082 290.347 187.25 289.835 187.25 289.211C187.25 288.699 187.122 288.267 186.866 287.915C186.61 287.563 186.266 287.267 185.834 287.027C185.402 286.771 184.922 286.555 184.394 286.379C183.866 286.187 183.33 286.003 182.786 285.827C182.354 285.683 181.93 285.523 181.514 285.347C181.098 285.155 180.706 284.947 180.338 284.723C179.97 284.483 179.642 284.203 179.354 283.883C179.082 283.563 178.866 283.187 178.706 282.755C178.562 282.323 178.49 281.819 178.49 281.243C178.49 280.363 178.698 279.587 179.114 278.915C179.546 278.243 180.146 277.723 180.914 277.355C181.682 276.971 182.57 276.779 183.578 276.779C184.17 276.779 184.714 276.835 185.21 276.947C185.706 277.059 186.146 277.211 186.53 277.403C186.914 277.579 187.242 277.771 187.514 277.979C187.786 278.171 187.994 278.355 188.138 278.531C188.426 278.835 188.586 279.091 188.618 279.299C188.65 279.507 188.53 279.763 188.258 280.067C188.002 280.355 187.754 280.507 187.514 280.523C187.274 280.539 187.01 280.427 186.722 280.187C186.418 279.835 186.098 279.563 185.762 279.371C185.442 279.179 185.098 279.051 184.73 278.987C184.378 278.907 183.986 278.867 183.554 278.867C183.138 278.867 182.746 278.923 182.378 279.035C182.026 279.131 181.714 279.283 181.442 279.491C181.186 279.699 180.986 279.955 180.842 280.259C180.698 280.547 180.626 280.883 180.626 281.267C180.626 281.699 180.738 282.067 180.962 282.371C181.202 282.675 181.514 282.939 181.898 283.163C182.282 283.371 182.714 283.563 183.194 283.739C183.674 283.899 184.178 284.059 184.706 284.219C185.282 284.395 185.85 284.611 186.41 284.867C186.97 285.107 187.474 285.411 187.922 285.779C188.37 286.131 188.73 286.579 189.002 287.123C189.274 287.667 189.41 288.339 189.41 289.139C189.41 289.939 189.25 290.643 188.93 291.251C188.626 291.859 188.202 292.371 187.658 292.787C187.114 293.187 186.49 293.491 185.786 293.699C185.098 293.907 184.37 294.011 183.602 294.011ZM199.217 293.771C198.929 293.771 198.705 293.723 198.545 293.627C198.401 293.531 198.297 293.403 198.233 293.243C198.169 293.067 198.137 292.875 198.137 292.667V278.075C198.137 277.867 198.169 277.691 198.233 277.547C198.297 277.387 198.409 277.259 198.569 277.163C198.729 277.067 198.961 277.019 199.265 277.019C199.505 277.019 199.697 277.035 199.841 277.067C199.985 277.099 200.097 277.147 200.177 277.211C200.273 277.259 200.369 277.339 200.465 277.451L206.729 286.523H205.985L212.321 277.379C212.417 277.267 212.513 277.187 212.609 277.139C212.705 277.091 212.825 277.059 212.969 277.043C213.129 277.027 213.313 277.019 213.521 277.019C213.825 277.019 214.049 277.067 214.193 277.163C214.353 277.259 214.465 277.395 214.529 277.571C214.593 277.731 214.625 277.915 214.625 278.123V292.715C214.625 292.907 214.593 293.083 214.529 293.243C214.465 293.403 214.353 293.531 214.193 293.627C214.033 293.723 213.801 293.771 213.497 293.771C213.209 293.771 212.985 293.723 212.825 293.627C212.681 293.531 212.577 293.403 212.513 293.243C212.465 293.067 212.441 292.875 212.441 292.667V280.619L207.305 288.179C207.257 288.259 207.193 288.339 207.113 288.419C207.033 288.483 206.929 288.539 206.801 288.587C206.689 288.635 206.545 288.659 206.369 288.659C206.177 288.659 206.025 288.635 205.913 288.587C205.817 288.539 205.729 288.483 205.649 288.419C205.569 288.339 205.489 288.251 205.409 288.155L200.297 280.643V292.715C200.297 292.907 200.265 293.083 200.201 293.243C200.153 293.403 200.049 293.531 199.889 293.627C199.745 293.723 199.521 293.771 199.217 293.771ZM219.19 293.771C218.87 293.771 218.63 293.723 218.47 293.627C218.326 293.547 218.23 293.427 218.182 293.267C218.134 293.091 218.11 292.891 218.11 292.667V278.099C218.11 277.683 218.19 277.403 218.35 277.259C218.526 277.099 218.83 277.019 219.262 277.019H228.91C229.134 277.019 229.326 277.043 229.486 277.091C229.646 277.139 229.766 277.243 229.846 277.403C229.926 277.563 229.966 277.803 229.966 278.123C229.966 278.443 229.918 278.683 229.822 278.843C229.742 278.987 229.622 279.083 229.462 279.131C229.302 279.179 229.11 279.203 228.886 279.203H220.27V284.171H226.27C226.494 284.171 226.678 284.195 226.822 284.243C226.982 284.291 227.102 284.387 227.182 284.531C227.262 284.675 227.302 284.899 227.302 285.203C227.302 285.491 227.262 285.707 227.182 285.851C227.102 285.995 226.982 286.091 226.822 286.139C226.662 286.171 226.462 286.187 226.222 286.187H220.27V291.611H228.91C229.134 291.611 229.326 291.635 229.486 291.683C229.646 291.731 229.766 291.835 229.846 291.995C229.926 292.139 229.966 292.371 229.966 292.691C229.966 293.011 229.918 293.251 229.822 293.411C229.742 293.555 229.622 293.651 229.462 293.699C229.302 293.747 229.11 293.771 228.886 293.771H219.19ZM245.327 277.019C245.535 277.019 245.703 277.043 245.831 277.091C245.975 277.139 246.087 277.235 246.167 277.379C246.247 277.507 246.287 277.723 246.287 278.027C246.287 278.315 246.239 278.531 246.143 278.675C246.063 278.819 245.951 278.915 245.807 278.963C245.663 278.995 245.487 279.011 245.279 279.011H240.311V292.715C240.311 292.923 240.279 293.107 240.215 293.267C240.167 293.427 240.063 293.547 239.903 293.627C239.759 293.723 239.535 293.771 239.231 293.771C238.911 293.771 238.671 293.723 238.511 293.627C238.367 293.547 238.271 293.427 238.223 293.267C238.191 293.091 238.175 292.899 238.175 292.691V279.011H233.135C232.927 279.011 232.751 278.995 232.607 278.963C232.463 278.915 232.351 278.819 232.271 278.675C232.191 278.531 232.151 278.315 232.151 278.027C232.151 277.723 232.183 277.507 232.247 277.379C232.327 277.235 232.439 277.139 232.583 277.091C232.743 277.043 232.919 277.019 233.111 277.019H245.327ZM259.771 292.235C259.899 292.475 259.963 292.683 259.963 292.859C259.979 293.019 259.931 293.171 259.819 293.315C259.707 293.443 259.531 293.563 259.291 293.675C258.907 293.851 258.603 293.891 258.379 293.795C258.171 293.699 257.979 293.467 257.803 293.099L251.803 280.331L245.851 293.075C245.675 293.443 245.475 293.675 245.251 293.771C245.043 293.867 244.739 293.827 244.339 293.651C244.099 293.555 243.923 293.435 243.811 293.291C243.715 293.147 243.675 292.971 243.691 292.763C243.723 292.555 243.803 292.315 243.931 292.043L250.819 277.667C250.915 277.475 251.051 277.323 251.227 277.211C251.419 277.083 251.619 277.019 251.827 277.019C251.971 277.019 252.107 277.043 252.235 277.091C252.363 277.139 252.475 277.211 252.571 277.307C252.667 277.403 252.747 277.531 252.811 277.691L259.771 292.235ZM247.291 288.995L248.107 287.147H255.547L256.339 288.995H247.291ZM250.819 275.939C250.563 275.987 250.363 275.963 250.219 275.867C250.075 275.771 249.955 275.571 249.859 275.267C249.747 274.931 249.723 274.675 249.787 274.499C249.867 274.323 250.059 274.187 250.363 274.091L254.203 272.795C254.443 272.747 254.635 272.779 254.779 272.891C254.923 272.987 255.043 273.187 255.139 273.491C255.251 273.827 255.259 274.083 255.163 274.259C255.083 274.419 254.891 274.555 254.587 274.667L250.819 275.939ZM262.966 293.771C262.646 293.771 262.406 293.723 262.246 293.627C262.086 293.547 261.974 293.427 261.91 293.267C261.862 293.107 261.838 292.915 261.838 292.691V278.123C261.838 277.883 261.862 277.683 261.91 277.523C261.958 277.363 262.054 277.243 262.198 277.163C262.358 277.067 262.598 277.019 262.918 277.019C263.238 277.019 263.47 277.067 263.614 277.163C263.774 277.243 263.878 277.363 263.926 277.523C263.974 277.683 263.998 277.875 263.998 278.099V291.755H272.038C272.246 291.755 272.422 291.779 272.566 291.827C272.71 291.875 272.822 291.971 272.902 292.115C272.998 292.259 273.046 292.475 273.046 292.763C273.046 293.035 273.006 293.251 272.926 293.411C272.846 293.555 272.734 293.651 272.59 293.699C272.446 293.747 272.27 293.771 272.062 293.771H262.966ZM276.253 293.771C275.933 293.771 275.693 293.723 275.533 293.627C275.389 293.547 275.293 293.427 275.245 293.267C275.197 293.091 275.173 292.891 275.173 292.667V278.099C275.173 277.875 275.197 277.683 275.245 277.523C275.309 277.363 275.413 277.243 275.557 277.163C275.717 277.067 275.957 277.019 276.277 277.019C276.597 277.019 276.829 277.067 276.973 277.163C277.133 277.243 277.229 277.363 277.261 277.523C277.309 277.683 277.333 277.883 277.333 278.123V292.691C277.333 292.915 277.309 293.107 277.261 293.267C277.213 293.427 277.109 293.547 276.949 293.627C276.805 293.723 276.573 293.771 276.253 293.771ZM288.44 293.819C287.576 293.819 286.736 293.691 285.92 293.435C285.104 293.179 284.344 292.811 283.64 292.331C282.936 291.851 282.312 291.259 281.768 290.555C281.24 289.835 280.824 289.035 280.52 288.155C280.216 287.259 280.064 286.275 280.064 285.203C280.064 284.179 280.216 283.235 280.52 282.371C280.824 281.491 281.24 280.715 281.768 280.043C282.296 279.371 282.912 278.803 283.616 278.339C284.336 277.859 285.104 277.499 285.92 277.259C286.752 277.003 287.6 276.875 288.464 276.875C289.264 276.875 289.952 276.955 290.528 277.115C291.104 277.275 291.576 277.451 291.944 277.643C292.312 277.819 292.56 277.955 292.688 278.051C292.912 278.179 293.128 278.331 293.336 278.507C293.544 278.683 293.656 278.891 293.672 279.131C293.704 279.307 293.688 279.451 293.624 279.563C293.576 279.675 293.512 279.795 293.432 279.923C293.304 280.115 293.168 280.259 293.024 280.355C292.896 280.435 292.752 280.475 292.592 280.475C292.432 280.475 292.288 280.427 292.16 280.331C292.032 280.235 291.864 280.123 291.656 279.995C291.56 279.931 291.368 279.827 291.08 279.683C290.792 279.539 290.424 279.403 289.976 279.275C289.528 279.131 288.984 279.059 288.344 279.059C287.528 279.059 286.744 279.211 285.992 279.515C285.256 279.803 284.608 280.219 284.048 280.763C283.488 281.307 283.048 281.963 282.728 282.731C282.408 283.499 282.248 284.363 282.248 285.323C282.248 286.299 282.408 287.179 282.728 287.963C283.048 288.731 283.488 289.387 284.048 289.931C284.624 290.475 285.28 290.891 286.016 291.179C286.752 291.467 287.528 291.611 288.344 291.611C288.952 291.611 289.48 291.547 289.928 291.419C290.392 291.291 290.768 291.155 291.056 291.011C291.36 290.851 291.568 290.731 291.68 290.651C291.856 290.555 292.008 290.459 292.136 290.363C292.28 290.267 292.432 290.219 292.592 290.219C292.752 290.219 292.896 290.267 293.024 290.363C293.168 290.443 293.304 290.579 293.432 290.771C293.512 290.883 293.576 291.011 293.624 291.155C293.688 291.283 293.704 291.427 293.672 291.587C293.656 291.827 293.544 292.035 293.336 292.211C293.128 292.371 292.912 292.523 292.688 292.667C292.544 292.731 292.288 292.867 291.92 293.075C291.568 293.267 291.104 293.435 290.528 293.579C289.952 293.739 289.256 293.819 288.44 293.819ZM303.776 293.939C302.64 293.939 301.568 293.723 300.56 293.291C299.568 292.859 298.688 292.259 297.92 291.491C297.168 290.707 296.576 289.811 296.144 288.803C295.712 287.795 295.496 286.707 295.496 285.539C295.496 284.355 295.704 283.243 296.12 282.203C296.536 281.147 297.112 280.227 297.848 279.443C298.6 278.659 299.464 278.043 300.44 277.595C301.416 277.147 302.456 276.923 303.56 276.923C304.712 276.923 305.784 277.139 306.776 277.571C307.784 278.003 308.656 278.611 309.392 279.395C310.144 280.163 310.736 281.067 311.168 282.107C311.6 283.147 311.816 284.259 311.816 285.443C311.816 286.611 311.6 287.707 311.168 288.731C310.752 289.739 310.176 290.643 309.44 291.443C308.704 292.227 307.848 292.843 306.872 293.291C305.912 293.723 304.88 293.939 303.776 293.939ZM303.632 291.755C304.464 291.755 305.24 291.595 305.96 291.275C306.696 290.955 307.336 290.507 307.88 289.931C308.424 289.339 308.848 288.667 309.152 287.915C309.472 287.147 309.632 286.315 309.632 285.419C309.632 284.555 309.472 283.747 309.152 282.995C308.848 282.227 308.416 281.555 307.856 280.979C307.312 280.387 306.68 279.923 305.96 279.587C305.24 279.251 304.472 279.083 303.656 279.083C302.84 279.083 302.072 279.251 301.352 279.587C300.632 279.923 299.992 280.379 299.432 280.955C298.888 281.531 298.456 282.203 298.136 282.971C297.832 283.739 297.68 284.563 297.68 285.443C297.68 286.307 297.832 287.123 298.136 287.891C298.456 288.659 298.888 289.331 299.432 289.907C299.992 290.483 300.624 290.939 301.328 291.275C302.048 291.595 302.816 291.755 303.632 291.755ZM318.954 294.011C318.346 294.011 317.77 293.939 317.226 293.795C316.698 293.651 316.21 293.459 315.762 293.219C315.33 292.963 314.946 292.683 314.61 292.379C314.274 292.075 314.01 291.771 313.818 291.467C313.642 291.211 313.53 291.003 313.482 290.843C313.434 290.667 313.442 290.499 313.506 290.339C313.586 290.179 313.738 290.003 313.962 289.811C314.218 289.619 314.442 289.531 314.634 289.547C314.826 289.547 315.002 289.619 315.162 289.763C315.338 289.907 315.514 290.099 315.69 290.339C316.09 290.883 316.578 291.283 317.154 291.539C317.73 291.779 318.298 291.899 318.858 291.899C319.578 291.899 320.218 291.803 320.778 291.611C321.338 291.419 321.778 291.131 322.098 290.747C322.434 290.347 322.602 289.835 322.602 289.211C322.602 288.699 322.474 288.267 322.218 287.915C321.962 287.563 321.618 287.267 321.186 287.027C320.754 286.771 320.274 286.555 319.746 286.379C319.218 286.187 318.682 286.003 318.138 285.827C317.706 285.683 317.282 285.523 316.866 285.347C316.45 285.155 316.058 284.947 315.69 284.723C315.322 284.483 314.994 284.203 314.706 283.883C314.434 283.563 314.218 283.187 314.058 282.755C313.914 282.323 313.842 281.819 313.842 281.243C313.842 280.363 314.05 279.587 314.466 278.915C314.898 278.243 315.498 277.723 316.266 277.355C317.034 276.971 317.922 276.779 318.93 276.779C319.522 276.779 320.066 276.835 320.562 276.947C321.058 277.059 321.498 277.211 321.882 277.403C322.266 277.579 322.594 277.771 322.866 277.979C323.138 278.171 323.346 278.355 323.49 278.531C323.778 278.835 323.938 279.091 323.97 279.299C324.002 279.507 323.882 279.763 323.61 280.067C323.354 280.355 323.106 280.507 322.866 280.523C322.626 280.539 322.362 280.427 322.074 280.187C321.77 279.835 321.45 279.563 321.114 279.371C320.794 279.179 320.45 279.051 320.082 278.987C319.73 278.907 319.338 278.867 318.906 278.867C318.49 278.867 318.098 278.923 317.73 279.035C317.378 279.131 317.066 279.283 316.794 279.491C316.538 279.699 316.338 279.955 316.194 280.259C316.05 280.547 315.978 280.883 315.978 281.267C315.978 281.699 316.09 282.067 316.314 282.371C316.554 282.675 316.866 282.939 317.25 283.163C317.634 283.371 318.066 283.563 318.546 283.739C319.026 283.899 319.53 284.059 320.058 284.219C320.634 284.395 321.202 284.611 321.762 284.867C322.322 285.107 322.826 285.411 323.274 285.779C323.722 286.131 324.082 286.579 324.354 287.123C324.626 287.667 324.762 288.339 324.762 289.139C324.762 289.939 324.602 290.643 324.282 291.251C323.978 291.859 323.554 292.371 323.01 292.787C322.466 293.187 321.842 293.491 321.138 293.699C320.45 293.907 319.722 294.011 318.954 294.011Z" fill="#007CC1"/>
<defs>
<filter id="filter0_d_39_468" x="0.200001" y="0.200001" width="361.6" height="361.6" filterUnits="userSpaceOnUse" color-interpolation-filters="sRGB">
<feFlood flood-opacity="0" result="BackgroundImageFix"/>
<feColorMatrix in="SourceAlpha" type="matrix" values="0 0 0 0 0 0 0 0 0 0 0 0 0 0 0 0 0 0 127 0" result="hardAlpha"/>
<feOffset dx="-17" dy="-13"/>
<feGaussianBlur stdDeviation="15.4"/>
<feComposite in2="hardAlpha" operator="out"/>
<feColorMatrix type="matrix" values="0 0 0 0 0 0 0 0 0 0 0 0 0 0 0 0 0 0 0.07 0"/>
<feBlend mode="normal" in2="BackgroundImageFix" result="effect1_dropShadow_39_468"/>
<feBlend mode="normal" in="SourceGraphic" in2="effect1_dropShadow_39_468" result="shape"/>
</filter>
</defs>
</svg>
