<svg width="336" height="336" viewBox="0 0 336 336" fill="none" xmlns="http://www.w3.org/2000/svg">
<g filter="url(#filter0_d_39_494)">
<path d="M35 199C35 119.804 35 80.2061 59.603 55.603C84.2061 31 123.804 31 203 31H255C292.712 31 311.569 31 323.284 42.7157C335 54.4315 335 73.2876 335 111V175C335 248.539 335 285.309 312.154 308.154C289.309 331 252.539 331 179 331H115C77.2876 331 58.4315 331 46.7157 319.284C35 307.569 35 288.712 35 251V199Z" fill="white"/>
</g>
<rect x="69.6738" y="108.531" width="230.653" height="127.319" stroke="white" stroke-width="2"/>
<mask id="path-3-inside-1_39_494" fill="white">
<path d="M257.727 167.13H247.851C247.877 164.919 248.383 162.74 249.333 160.745C251.152 157.132 252.065 153.131 251.994 149.087C251.923 145.043 250.869 141.077 248.924 137.531C246.437 133.009 242.625 129.358 238.001 127.069C233.378 124.781 228.165 123.964 223.064 124.731C218.009 125.517 213.316 127.837 209.619 131.377C204.485 131.035 199.37 132.294 194.979 134.98C190.588 137.666 187.136 141.647 185.098 146.376C183.41 142.836 180.924 139.738 177.837 137.323C174.75 134.908 171.144 133.243 167.305 132.458C162.285 131.466 157.081 132.042 152.399 134.107C147.717 132.041 142.513 131.468 137.495 132.463C133.814 133.188 130.342 134.731 127.337 136.979C124.332 139.227 121.87 142.122 120.133 145.45C118.396 148.778 117.428 152.454 117.302 156.206C117.175 159.959 117.892 163.692 119.401 167.13H112.273C111.608 167.13 110.97 167.394 110.5 167.865C110.03 168.335 109.766 168.974 109.766 169.639V219.837C109.766 220.502 110.03 221.141 110.5 221.611C110.97 222.082 111.608 222.346 112.273 222.346H257.727C258.392 222.346 259.03 222.082 259.5 221.611C259.971 221.141 260.235 220.502 260.235 219.837V169.639C260.235 168.974 259.971 168.335 259.5 167.865C259.03 167.394 258.392 167.13 257.727 167.13ZM207.987 136.346C208.754 136.347 209.52 136.391 210.282 136.477C210.666 136.526 211.056 136.483 211.421 136.352C211.786 136.221 212.115 136.006 212.381 135.724C215.431 132.5 219.465 130.382 223.849 129.7C227.923 129.087 232.087 129.737 235.781 131.564C239.475 133.39 242.521 136.304 244.511 139.915C246.07 142.755 246.915 145.931 246.974 149.17C247.033 152.409 246.304 155.614 244.849 158.508C242.672 163.086 242.178 168.285 243.455 173.191C244.827 178.848 246.951 187.103 248.295 192.296C248.456 193.012 248.35 193.762 247.997 194.405C247.645 195.048 247.07 195.541 246.38 195.79C245.69 196.039 244.934 196.027 244.252 195.757C243.57 195.487 243.01 194.978 242.678 194.324L233.938 175.804C233.118 174.065 231.679 172.696 229.902 171.964C228.126 171.232 226.14 171.191 224.335 171.849C222.53 172.507 221.036 173.816 220.145 175.519C219.254 177.223 219.031 179.198 219.52 181.057L224.717 200.865C224.883 201.58 224.783 202.331 224.435 202.978C224.087 203.625 223.515 204.122 222.826 204.375C222.137 204.629 221.379 204.622 220.695 204.356C220.011 204.09 219.448 203.583 219.112 202.93C216.807 198.081 213.125 190.381 210.545 185.17C208.373 180.591 204.655 176.927 200.047 174.825C197.67 173.793 195.515 172.308 193.705 170.453C195.626 169.366 197.225 167.789 198.339 165.882C199.453 163.976 200.042 161.808 200.047 159.6C200.045 158.174 199.79 156.76 199.295 155.424C201.422 153.106 202.585 150.063 202.549 146.917C202.513 143.77 201.279 140.755 199.099 138.487C201.855 137.092 204.898 136.359 207.987 136.346ZM194.796 141.366C195.647 142.05 196.335 142.915 196.809 143.898C197.284 144.882 197.533 145.959 197.539 147.051C197.534 148.172 197.277 149.278 196.787 150.286C196.297 151.295 195.586 152.18 194.708 152.876C194.251 153.245 193.938 153.763 193.823 154.34C193.709 154.916 193.8 155.515 194.081 156.031C194.693 157.122 195.02 158.349 195.031 159.6C195.029 161.033 194.618 162.436 193.846 163.644C193.074 164.851 191.974 165.813 190.675 166.417C189.592 164.533 188.813 162.49 188.368 160.363C187.693 156.91 187.932 153.341 189.059 150.008C190.186 146.676 192.164 143.696 194.796 141.363V141.366ZM182.272 154.066C182.921 158.393 182.139 162.814 180.045 166.655C179.009 166.317 178.061 165.753 177.27 165.004C176.478 164.254 175.863 163.339 175.468 162.322C175.074 161.306 174.909 160.215 174.987 159.127C175.065 158.04 175.384 156.983 175.919 156.034C176.201 155.517 176.292 154.919 176.177 154.342C176.063 153.766 175.75 153.248 175.292 152.879C174.434 152.211 173.735 151.361 173.246 150.39C172.757 149.419 172.49 148.351 172.464 147.263C172.438 146.176 172.654 145.096 173.096 144.103C173.539 143.109 174.196 142.227 175.022 141.519C178.92 144.647 181.506 149.125 182.272 154.066ZM122.525 154.066C122.996 150.939 124.2 147.967 126.038 145.395C127.876 142.822 130.297 140.722 133.101 139.264C135.906 137.807 139.015 137.035 142.175 137.011C145.335 136.986 148.456 137.711 151.283 139.125C151.63 139.296 152.012 139.385 152.399 139.385C152.786 139.385 153.167 139.296 153.515 139.125C157.482 137.14 161.996 136.53 166.347 137.39C167.81 137.696 169.232 138.17 170.585 138.803C168.543 141.096 167.424 144.065 167.446 147.136C167.467 150.207 168.627 153.16 170.701 155.424C170.207 156.761 169.954 158.175 169.953 159.6C169.963 161.943 170.632 164.237 171.884 166.217C173.135 168.198 174.919 169.786 177.03 170.799C176.765 171.083 176.529 171.381 176.233 171.652C172.624 175.207 170.384 179.922 169.906 184.967C169.266 190.755 168.439 199.241 167.927 204.582C167.831 205.307 167.474 205.972 166.923 206.453C166.373 206.935 165.666 207.199 164.935 207.197C164.204 207.195 163.499 206.926 162.951 206.442C162.403 205.957 162.05 205.29 161.958 204.564L160.072 184.169C159.896 182.254 159.011 180.475 157.591 179.179C156.172 177.883 154.32 177.165 152.399 177.165C150.477 177.165 148.625 177.883 147.206 179.179C145.786 180.475 144.901 182.254 144.725 184.169L142.839 204.564C142.747 205.29 142.394 205.957 141.846 206.442C141.298 206.926 140.593 207.195 139.862 207.197C139.131 207.199 138.424 206.935 137.874 206.453C137.323 205.972 136.966 205.307 136.87 204.582C136.369 199.238 135.528 190.75 134.889 184.96C134.415 179.919 132.177 175.207 128.569 171.657C126.213 169.437 124.432 166.677 123.379 163.614C122.326 160.552 122.033 157.279 122.525 154.078V154.066ZM255.219 217.327H114.781V172.149H122.352C123.184 173.274 124.107 174.328 125.111 175.302C127.856 178.036 129.549 181.651 129.891 185.512C130.533 191.284 131.358 199.738 131.867 205.056C132.081 207.027 133.015 208.85 134.491 210.173C135.967 211.496 137.879 212.226 139.86 212.222C141.842 212.218 143.751 211.481 145.222 210.153C146.693 208.824 147.621 206.998 147.827 205.026L149.713 184.631C149.777 183.965 150.087 183.348 150.582 182.898C151.076 182.449 151.72 182.2 152.389 182.2C153.057 182.2 153.701 182.449 154.195 182.898C154.69 183.348 155 183.965 155.064 184.631L156.95 205.026C157.156 206.998 158.083 208.824 159.554 210.153C161.025 211.482 162.934 212.219 164.915 212.223C166.897 212.227 168.809 211.498 170.285 210.175C171.761 208.852 172.696 207.03 172.91 205.059C173.412 199.74 174.242 191.289 174.884 185.522C175.228 181.655 176.924 178.033 179.674 175.294C182.094 172.994 184.03 170.232 185.369 167.172C187.955 172.676 192.471 177.037 198.058 179.428C201.572 181.06 204.4 183.877 206.046 187.387C208.616 192.587 212.283 200.25 214.572 205.081C215.448 206.859 216.949 208.25 218.788 208.987C220.627 209.724 222.673 209.754 224.533 209.072C226.392 208.39 227.934 207.043 228.861 205.292C229.789 203.54 230.037 201.508 229.557 199.585L224.373 179.774C224.2 179.124 224.276 178.433 224.587 177.837C224.898 177.241 225.42 176.783 226.052 176.553C226.683 176.323 227.378 176.338 227.999 176.595C228.619 176.852 229.122 177.333 229.406 177.942L238.146 196.462C239.012 198.247 240.508 199.647 242.345 200.393C244.182 201.139 246.229 201.179 248.093 200.504C249.958 199.829 251.506 198.488 252.441 196.738C253.375 194.989 253.63 192.955 253.155 191.028C251.826 185.901 249.74 177.781 248.37 172.149H255.219V217.327Z"/>
</mask>
<path d="M257.727 167.13H247.851C247.877 164.919 248.383 162.74 249.333 160.745C251.152 157.132 252.065 153.131 251.994 149.087C251.923 145.043 250.869 141.077 248.924 137.531C246.437 133.009 242.625 129.358 238.001 127.069C233.378 124.781 228.165 123.964 223.064 124.731C218.009 125.517 213.316 127.837 209.619 131.377C204.485 131.035 199.37 132.294 194.979 134.98C190.588 137.666 187.136 141.647 185.098 146.376C183.41 142.836 180.924 139.738 177.837 137.323C174.75 134.908 171.144 133.243 167.305 132.458C162.285 131.466 157.081 132.042 152.399 134.107C147.717 132.041 142.513 131.468 137.495 132.463C133.814 133.188 130.342 134.731 127.337 136.979C124.332 139.227 121.87 142.122 120.133 145.45C118.396 148.778 117.428 152.454 117.302 156.206C117.175 159.959 117.892 163.692 119.401 167.13H112.273C111.608 167.13 110.97 167.394 110.5 167.865C110.03 168.335 109.766 168.974 109.766 169.639V219.837C109.766 220.502 110.03 221.141 110.5 221.611C110.97 222.082 111.608 222.346 112.273 222.346H257.727C258.392 222.346 259.03 222.082 259.5 221.611C259.971 221.141 260.235 220.502 260.235 219.837V169.639C260.235 168.974 259.971 168.335 259.5 167.865C259.03 167.394 258.392 167.13 257.727 167.13ZM207.987 136.346C208.754 136.347 209.52 136.391 210.282 136.477C210.666 136.526 211.056 136.483 211.421 136.352C211.786 136.221 212.115 136.006 212.381 135.724C215.431 132.5 219.465 130.382 223.849 129.7C227.923 129.087 232.087 129.737 235.781 131.564C239.475 133.39 242.521 136.304 244.511 139.915C246.07 142.755 246.915 145.931 246.974 149.17C247.033 152.409 246.304 155.614 244.849 158.508C242.672 163.086 242.178 168.285 243.455 173.191C244.827 178.848 246.951 187.103 248.295 192.296C248.456 193.012 248.35 193.762 247.997 194.405C247.645 195.048 247.07 195.541 246.38 195.79C245.69 196.039 244.934 196.027 244.252 195.757C243.57 195.487 243.01 194.978 242.678 194.324L233.938 175.804C233.118 174.065 231.679 172.696 229.902 171.964C228.126 171.232 226.14 171.191 224.335 171.849C222.53 172.507 221.036 173.816 220.145 175.519C219.254 177.223 219.031 179.198 219.52 181.057L224.717 200.865C224.883 201.58 224.783 202.331 224.435 202.978C224.087 203.625 223.515 204.122 222.826 204.375C222.137 204.629 221.379 204.622 220.695 204.356C220.011 204.09 219.448 203.583 219.112 202.93C216.807 198.081 213.125 190.381 210.545 185.17C208.373 180.591 204.655 176.927 200.047 174.825C197.67 173.793 195.515 172.308 193.705 170.453C195.626 169.366 197.225 167.789 198.339 165.882C199.453 163.976 200.042 161.808 200.047 159.6C200.045 158.174 199.79 156.76 199.295 155.424C201.422 153.106 202.585 150.063 202.549 146.917C202.513 143.77 201.279 140.755 199.099 138.487C201.855 137.092 204.898 136.359 207.987 136.346ZM194.796 141.366C195.647 142.05 196.335 142.915 196.809 143.898C197.284 144.882 197.533 145.959 197.539 147.051C197.534 148.172 197.277 149.278 196.787 150.286C196.297 151.295 195.586 152.18 194.708 152.876C194.251 153.245 193.938 153.763 193.823 154.34C193.709 154.916 193.8 155.515 194.081 156.031C194.693 157.122 195.02 158.349 195.031 159.6C195.029 161.033 194.618 162.436 193.846 163.644C193.074 164.851 191.974 165.813 190.675 166.417C189.592 164.533 188.813 162.49 188.368 160.363C187.693 156.91 187.932 153.341 189.059 150.008C190.186 146.676 192.164 143.696 194.796 141.363V141.366ZM182.272 154.066C182.921 158.393 182.139 162.814 180.045 166.655C179.009 166.317 178.061 165.753 177.27 165.004C176.478 164.254 175.863 163.339 175.468 162.322C175.074 161.306 174.909 160.215 174.987 159.127C175.065 158.04 175.384 156.983 175.919 156.034C176.201 155.517 176.292 154.919 176.177 154.342C176.063 153.766 175.75 153.248 175.292 152.879C174.434 152.211 173.735 151.361 173.246 150.39C172.757 149.419 172.49 148.351 172.464 147.263C172.438 146.176 172.654 145.096 173.096 144.103C173.539 143.109 174.196 142.227 175.022 141.519C178.92 144.647 181.506 149.125 182.272 154.066ZM122.525 154.066C122.996 150.939 124.2 147.967 126.038 145.395C127.876 142.822 130.297 140.722 133.101 139.264C135.906 137.807 139.015 137.035 142.175 137.011C145.335 136.986 148.456 137.711 151.283 139.125C151.63 139.296 152.012 139.385 152.399 139.385C152.786 139.385 153.167 139.296 153.515 139.125C157.482 137.14 161.996 136.53 166.347 137.39C167.81 137.696 169.232 138.17 170.585 138.803C168.543 141.096 167.424 144.065 167.446 147.136C167.467 150.207 168.627 153.16 170.701 155.424C170.207 156.761 169.954 158.175 169.953 159.6C169.963 161.943 170.632 164.237 171.884 166.217C173.135 168.198 174.919 169.786 177.03 170.799C176.765 171.083 176.529 171.381 176.233 171.652C172.624 175.207 170.384 179.922 169.906 184.967C169.266 190.755 168.439 199.241 167.927 204.582C167.831 205.307 167.474 205.972 166.923 206.453C166.373 206.935 165.666 207.199 164.935 207.197C164.204 207.195 163.499 206.926 162.951 206.442C162.403 205.957 162.05 205.29 161.958 204.564L160.072 184.169C159.896 182.254 159.011 180.475 157.591 179.179C156.172 177.883 154.32 177.165 152.399 177.165C150.477 177.165 148.625 177.883 147.206 179.179C145.786 180.475 144.901 182.254 144.725 184.169L142.839 204.564C142.747 205.29 142.394 205.957 141.846 206.442C141.298 206.926 140.593 207.195 139.862 207.197C139.131 207.199 138.424 206.935 137.874 206.453C137.323 205.972 136.966 205.307 136.87 204.582C136.369 199.238 135.528 190.75 134.889 184.96C134.415 179.919 132.177 175.207 128.569 171.657C126.213 169.437 124.432 166.677 123.379 163.614C122.326 160.552 122.033 157.279 122.525 154.078V154.066ZM255.219 217.327H114.781V172.149H122.352C123.184 173.274 124.107 174.328 125.111 175.302C127.856 178.036 129.549 181.651 129.891 185.512C130.533 191.284 131.358 199.738 131.867 205.056C132.081 207.027 133.015 208.85 134.491 210.173C135.967 211.496 137.879 212.226 139.86 212.222C141.842 212.218 143.751 211.481 145.222 210.153C146.693 208.824 147.621 206.998 147.827 205.026L149.713 184.631C149.777 183.965 150.087 183.348 150.582 182.898C151.076 182.449 151.72 182.2 152.389 182.2C153.057 182.2 153.701 182.449 154.195 182.898C154.69 183.348 155 183.965 155.064 184.631L156.95 205.026C157.156 206.998 158.083 208.824 159.554 210.153C161.025 211.482 162.934 212.219 164.915 212.223C166.897 212.227 168.809 211.498 170.285 210.175C171.761 208.852 172.696 207.03 172.91 205.059C173.412 199.74 174.242 191.289 174.884 185.522C175.228 181.655 176.924 178.033 179.674 175.294C182.094 172.994 184.03 170.232 185.369 167.172C187.955 172.676 192.471 177.037 198.058 179.428C201.572 181.06 204.4 183.877 206.046 187.387C208.616 192.587 212.283 200.25 214.572 205.081C215.448 206.859 216.949 208.25 218.788 208.987C220.627 209.724 222.673 209.754 224.533 209.072C226.392 208.39 227.934 207.043 228.861 205.292C229.789 203.54 230.037 201.508 229.557 199.585L224.373 179.774C224.2 179.124 224.276 178.433 224.587 177.837C224.898 177.241 225.42 176.783 226.052 176.553C226.683 176.323 227.378 176.338 227.999 176.595C228.619 176.852 229.122 177.333 229.406 177.942L238.146 196.462C239.012 198.247 240.508 199.647 242.345 200.393C244.182 201.139 246.229 201.179 248.093 200.504C249.958 199.829 251.506 198.488 252.441 196.738C253.375 194.989 253.63 192.955 253.155 191.028C251.826 185.901 249.74 177.781 248.37 172.149H255.219V217.327Z" fill="#007CC1" stroke="white" stroke-width="2" mask="url(#path-3-inside-1_39_494)"/>
<path d="M176.949 119.515L176.242 118.807L175.536 119.515L171.824 123.232L171.117 123.94L171.824 124.648L177.073 129.904L177.779 130.612L178.486 129.904L182.198 126.187L182.905 125.479L182.198 124.771L176.949 119.515Z" fill="#007CC1" stroke="white" stroke-width="2"/>
<path d="M194.238 119.513L193.531 118.806L192.825 119.513L187.576 124.77L186.869 125.477L187.576 126.185L191.288 129.903L191.994 130.61L192.701 129.903L197.95 124.646L198.657 123.938L197.95 123.231L194.238 119.513Z" fill="#007CC1" stroke="white" stroke-width="2"/>
<path d="M127.733 280.939C126.597 280.939 125.525 280.723 124.517 280.291C123.525 279.859 122.645 279.259 121.877 278.491C121.125 277.707 120.533 276.811 120.101 275.803C119.669 274.795 119.453 273.707 119.453 272.539C119.453 271.355 119.661 270.243 120.077 269.203C120.493 268.147 121.069 267.227 121.805 266.443C122.557 265.659 123.421 265.043 124.397 264.595C125.373 264.147 126.413 263.923 127.517 263.923C128.669 263.923 129.741 264.139 130.733 264.571C131.741 265.003 132.613 265.611 133.349 266.395C134.101 267.163 134.693 268.067 135.125 269.107C135.557 270.147 135.773 271.259 135.773 272.443C135.773 273.611 135.557 274.707 135.125 275.731C134.709 276.739 134.133 277.643 133.397 278.443C132.661 279.227 131.805 279.843 130.829 280.291C129.869 280.723 128.837 280.939 127.733 280.939ZM127.589 278.755C128.421 278.755 129.197 278.595 129.917 278.275C130.653 277.955 131.293 277.507 131.837 276.931C132.381 276.339 132.805 275.667 133.109 274.915C133.429 274.147 133.589 273.315 133.589 272.419C133.589 271.555 133.429 270.747 133.109 269.995C132.805 269.227 132.373 268.555 131.813 267.979C131.269 267.387 130.637 266.923 129.917 266.587C129.197 266.251 128.429 266.083 127.613 266.083C126.797 266.083 126.029 266.251 125.309 266.587C124.589 266.923 123.949 267.379 123.389 267.955C122.845 268.531 122.413 269.203 122.093 269.971C121.789 270.739 121.637 271.563 121.637 272.443C121.637 273.307 121.789 274.123 122.093 274.891C122.413 275.659 122.845 276.331 123.389 276.907C123.949 277.483 124.581 277.939 125.285 278.275C126.005 278.595 126.773 278.755 127.589 278.755ZM139.287 280.771C138.983 280.771 138.751 280.723 138.591 280.627C138.431 280.547 138.327 280.427 138.279 280.267C138.247 280.091 138.231 279.891 138.231 279.667V265.075C138.231 264.867 138.255 264.691 138.303 264.547C138.367 264.387 138.471 264.259 138.615 264.163C138.775 264.067 139.007 264.019 139.311 264.019H144.615C145.399 264.019 146.111 264.139 146.751 264.379C147.407 264.603 147.975 264.939 148.455 265.387C148.935 265.835 149.303 266.403 149.559 267.091C149.831 267.763 149.967 268.547 149.967 269.443C149.967 270.003 149.879 270.587 149.703 271.195C149.527 271.787 149.255 272.347 148.887 272.875C148.535 273.403 148.079 273.843 147.519 274.195C146.959 274.547 146.279 274.747 145.479 274.795H140.391V279.691C140.391 279.915 140.359 280.107 140.295 280.267C140.247 280.427 140.143 280.547 139.983 280.627C139.839 280.723 139.607 280.771 139.287 280.771ZM149.583 280.507C149.247 280.731 148.959 280.803 148.719 280.723C148.495 280.643 148.279 280.451 148.071 280.147L144.231 274.003L146.607 273.643L149.919 278.923C150.079 279.179 150.175 279.395 150.207 279.571C150.255 279.747 150.223 279.907 150.111 280.051C150.015 280.195 149.839 280.347 149.583 280.507ZM140.391 272.683H145.143C145.511 272.683 145.855 272.619 146.175 272.491C146.495 272.347 146.775 272.139 147.015 271.867C147.255 271.595 147.447 271.259 147.591 270.859C147.735 270.459 147.807 269.979 147.807 269.419C147.807 268.731 147.679 268.147 147.423 267.667C147.183 267.187 146.823 266.827 146.343 266.587C145.863 266.331 145.271 266.203 144.567 266.203H140.391V272.683ZM164.51 264.019C164.718 264.019 164.886 264.043 165.014 264.091C165.158 264.139 165.27 264.235 165.35 264.379C165.43 264.507 165.47 264.723 165.47 265.027C165.47 265.315 165.422 265.531 165.326 265.675C165.246 265.819 165.134 265.915 164.99 265.963C164.846 265.995 164.67 266.011 164.462 266.011H159.494V279.715C159.494 279.923 159.462 280.107 159.398 280.267C159.35 280.427 159.246 280.547 159.086 280.627C158.942 280.723 158.718 280.771 158.414 280.771C158.094 280.771 157.854 280.723 157.694 280.627C157.55 280.547 157.454 280.427 157.406 280.267C157.374 280.091 157.358 279.899 157.358 279.691V266.011H152.318C152.11 266.011 151.934 265.995 151.79 265.963C151.646 265.915 151.534 265.819 151.454 265.675C151.374 265.531 151.334 265.315 151.334 265.027C151.334 264.723 151.366 264.507 151.43 264.379C151.51 264.235 151.622 264.139 151.766 264.091C151.926 264.043 152.102 264.019 152.294 264.019H164.51ZM173.834 280.939C172.698 280.939 171.626 280.723 170.618 280.291C169.626 279.859 168.746 279.259 167.978 278.491C167.226 277.707 166.634 276.811 166.202 275.803C165.77 274.795 165.554 273.707 165.554 272.539C165.554 271.355 165.762 270.243 166.178 269.203C166.594 268.147 167.17 267.227 167.906 266.443C168.658 265.659 169.522 265.043 170.498 264.595C171.474 264.147 172.514 263.923 173.618 263.923C174.77 263.923 175.842 264.139 176.834 264.571C177.842 265.003 178.714 265.611 179.45 266.395C180.202 267.163 180.794 268.067 181.226 269.107C181.658 270.147 181.874 271.259 181.874 272.443C181.874 273.611 181.658 274.707 181.226 275.731C180.81 276.739 180.234 277.643 179.498 278.443C178.762 279.227 177.906 279.843 176.93 280.291C175.97 280.723 174.938 280.939 173.834 280.939ZM173.69 278.755C174.522 278.755 175.298 278.595 176.018 278.275C176.754 277.955 177.394 277.507 177.938 276.931C178.482 276.339 178.906 275.667 179.21 274.915C179.53 274.147 179.69 273.315 179.69 272.419C179.69 271.555 179.53 270.747 179.21 269.995C178.906 269.227 178.474 268.555 177.914 267.979C177.37 267.387 176.738 266.923 176.018 266.587C175.298 266.251 174.53 266.083 173.714 266.083C172.898 266.083 172.13 266.251 171.41 266.587C170.69 266.923 170.05 267.379 169.49 267.955C168.946 268.531 168.514 269.203 168.194 269.971C167.89 270.739 167.738 271.563 167.738 272.443C167.738 273.307 167.89 274.123 168.194 274.891C168.514 275.659 168.946 276.331 169.49 276.907C170.05 277.483 170.682 277.939 171.386 278.275C172.106 278.595 172.874 278.755 173.69 278.755ZM185.22 280.771C184.916 280.771 184.684 280.723 184.524 280.627C184.38 280.547 184.284 280.427 184.236 280.267C184.188 280.091 184.164 279.891 184.164 279.667V265.099C184.164 264.891 184.188 264.707 184.236 264.547C184.3 264.387 184.412 264.259 184.572 264.163C184.732 264.067 184.956 264.019 185.244 264.019H190.5C191.268 264.019 191.972 264.139 192.612 264.379C193.268 264.603 193.836 264.955 194.316 265.435C194.812 265.899 195.196 266.467 195.468 267.139C195.74 267.811 195.876 268.587 195.876 269.467C195.876 270.331 195.74 271.099 195.468 271.771C195.196 272.443 194.812 273.011 194.316 273.475C193.82 273.923 193.244 274.267 192.588 274.507C191.948 274.747 191.244 274.867 190.476 274.867H186.348V279.691C186.348 279.915 186.316 280.107 186.252 280.267C186.204 280.427 186.1 280.547 185.94 280.627C185.796 280.723 185.556 280.771 185.22 280.771ZM186.348 272.683H190.5C191.14 272.683 191.7 272.563 192.18 272.323C192.66 272.067 193.036 271.699 193.308 271.219C193.58 270.723 193.716 270.123 193.716 269.419C193.716 268.747 193.588 268.171 193.332 267.691C193.076 267.211 192.7 266.843 192.204 266.587C191.724 266.331 191.148 266.203 190.476 266.203H186.348V272.683ZM199.826 280.771C199.506 280.771 199.266 280.723 199.106 280.627C198.962 280.547 198.866 280.427 198.818 280.267C198.77 280.091 198.746 279.891 198.746 279.667V265.099C198.746 264.683 198.826 264.403 198.986 264.259C199.162 264.099 199.466 264.019 199.898 264.019H209.546C209.77 264.019 209.962 264.043 210.122 264.091C210.282 264.139 210.402 264.243 210.482 264.403C210.562 264.563 210.602 264.803 210.602 265.123C210.602 265.443 210.554 265.683 210.458 265.843C210.378 265.987 210.258 266.083 210.098 266.131C209.938 266.179 209.746 266.203 209.522 266.203H200.906V271.171H206.906C207.13 271.171 207.314 271.195 207.458 271.243C207.618 271.291 207.738 271.387 207.818 271.531C207.898 271.675 207.938 271.899 207.938 272.203C207.938 272.491 207.898 272.707 207.818 272.851C207.738 272.995 207.618 273.091 207.458 273.139C207.298 273.171 207.098 273.187 206.858 273.187H200.906V278.611H209.546C209.77 278.611 209.962 278.635 210.122 278.683C210.282 278.731 210.402 278.835 210.482 278.995C210.562 279.139 210.602 279.371 210.602 279.691C210.602 280.011 210.554 280.251 210.458 280.411C210.378 280.555 210.258 280.651 210.098 280.699C209.938 280.747 209.746 280.771 209.522 280.771H199.826ZM214.491 280.771C214.219 280.771 214.003 280.723 213.843 280.627C213.699 280.531 213.595 280.403 213.531 280.243C213.467 280.067 213.435 279.875 213.435 279.667V265.075C213.435 264.867 213.459 264.683 213.507 264.523C213.571 264.363 213.683 264.235 213.843 264.139C214.003 264.043 214.227 263.995 214.515 263.995L219.243 264.019C220.427 264.019 221.499 264.219 222.459 264.619C223.435 265.003 224.267 265.555 224.955 266.275C225.643 266.995 226.171 267.867 226.539 268.891C226.907 269.915 227.091 271.051 227.091 272.299C227.091 273.595 226.907 274.763 226.539 275.803C226.171 276.843 225.635 277.731 224.931 278.467C224.243 279.203 223.411 279.771 222.435 280.171C221.459 280.571 220.371 280.771 219.171 280.771H214.491ZM215.595 278.587H219.243C220.411 278.587 221.419 278.339 222.267 277.843C223.115 277.331 223.771 276.619 224.235 275.707C224.699 274.779 224.931 273.683 224.931 272.419C224.931 271.139 224.699 270.035 224.235 269.107C223.771 268.179 223.107 267.467 222.243 266.971C221.395 266.459 220.387 266.203 219.219 266.203H215.595V278.587ZM231.085 280.771C230.765 280.771 230.525 280.723 230.365 280.627C230.221 280.547 230.125 280.427 230.077 280.267C230.029 280.091 230.005 279.891 230.005 279.667V265.099C230.005 264.875 230.029 264.683 230.077 264.523C230.141 264.363 230.245 264.243 230.389 264.163C230.549 264.067 230.789 264.019 231.109 264.019C231.429 264.019 231.661 264.067 231.805 264.163C231.965 264.243 232.061 264.363 232.093 264.523C232.141 264.683 232.165 264.883 232.165 265.123V279.691C232.165 279.915 232.141 280.107 232.093 280.267C232.045 280.427 231.941 280.547 231.781 280.627C231.637 280.723 231.405 280.771 231.085 280.771ZM249.9 279.235C250.028 279.475 250.092 279.683 250.092 279.859C250.108 280.019 250.06 280.171 249.948 280.315C249.836 280.443 249.66 280.563 249.42 280.675C249.036 280.851 248.732 280.891 248.508 280.795C248.3 280.699 248.108 280.467 247.932 280.099L241.932 267.331L235.98 280.075C235.804 280.443 235.604 280.675 235.38 280.771C235.172 280.867 234.868 280.827 234.468 280.651C234.228 280.555 234.052 280.435 233.94 280.291C233.844 280.147 233.804 279.971 233.82 279.763C233.852 279.555 233.932 279.315 234.06 279.043L240.948 264.667C241.044 264.475 241.18 264.323 241.356 264.211C241.548 264.083 241.748 264.019 241.956 264.019C242.1 264.019 242.236 264.043 242.364 264.091C242.492 264.139 242.604 264.211 242.7 264.307C242.796 264.403 242.876 264.531 242.94 264.691L249.9 279.235ZM237.42 275.995L238.236 274.147H245.676L246.468 275.995H237.42Z" fill="#007CC1"/>
<defs>
<filter id="filter0_d_39_494" x="0.5" y="0.5" width="335" height="335" filterUnits="userSpaceOnUse" color-interpolation-filters="sRGB">
<feFlood flood-opacity="0" result="BackgroundImageFix"/>
<feColorMatrix in="SourceAlpha" type="matrix" values="0 0 0 0 0 0 0 0 0 0 0 0 0 0 0 0 0 0 127 0" result="hardAlpha"/>
<feOffset dx="-17" dy="-13"/>
<feGaussianBlur stdDeviation="8.75"/>
<feComposite in2="hardAlpha" operator="out"/>
<feColorMatrix type="matrix" values="0 0 0 0 0 0 0 0 0 0 0 0 0 0 0 0 0 0 0.07 0"/>
<feBlend mode="normal" in2="BackgroundImageFix" result="effect1_dropShadow_39_494"/>
<feBlend mode="normal" in="SourceGraphic" in2="effect1_dropShadow_39_494" result="shape"/>
</filter>
</defs>
</svg>
