<svg width="336" height="336" viewBox="0 0 336 336" fill="none" xmlns="http://www.w3.org/2000/svg">
<g filter="url(#filter0_d_39_485)">
<path d="M35 199C35 119.804 35 80.2061 59.603 55.603C84.2061 31 123.804 31 203 31H255C292.712 31 311.569 31 323.284 42.7157C335 54.4315 335 73.2876 335 111V175C335 248.539 335 285.309 312.154 308.154C289.309 331 252.539 331 179 331H115C77.2876 331 58.4315 331 46.7157 319.284C35 307.569 35 288.712 35 251V199Z" fill="white"/>
</g>
<rect x="69.6738" y="108.531" width="230.653" height="127.319" stroke="white" stroke-width="2"/>
<mask id="path-3-inside-1_39_485" fill="white">
<path d="M273.821 153.21H281.385V146.779H274.939C274.946 145.375 274.804 143.974 274.514 142.6C273.828 139.491 272.38 136.6 270.3 134.186C268.22 131.772 265.572 129.91 262.594 128.766C259.616 127.623 256.4 127.233 253.235 127.633C250.069 128.033 247.052 129.21 244.454 131.057C243.948 131.414 243.345 131.605 242.726 131.605C242.107 131.605 241.504 131.414 240.999 131.057C238.889 129.551 236.495 128.485 233.962 127.926C231.428 127.366 228.808 127.324 226.257 127.802C223.707 128.279 221.28 129.267 219.123 130.705C216.965 132.143 215.122 134.002 213.704 136.17C212.283 134.007 210.439 132.153 208.282 130.719C206.125 129.285 203.7 128.301 201.152 127.825C198.604 127.35 195.986 127.393 193.455 127.952C190.925 128.512 188.533 129.576 186.425 131.08C185.92 131.436 185.316 131.627 184.698 131.627C184.079 131.627 183.476 131.436 182.97 131.08C180.862 129.575 178.471 128.51 175.94 127.95C173.409 127.39 170.791 127.347 168.243 127.822C165.695 128.298 163.27 129.282 161.113 130.717C158.956 132.151 157.112 134.006 155.692 136.17C154.271 134.007 152.427 132.153 150.27 130.719C148.113 129.285 145.688 128.301 143.14 127.825C140.592 127.35 137.974 127.393 135.443 127.952C132.912 128.512 130.521 129.576 128.413 131.08C127.908 131.436 127.304 131.627 126.686 131.627C126.067 131.627 125.463 131.436 124.958 131.08C122.362 129.231 119.346 128.052 116.181 127.65C113.016 127.248 109.801 127.635 106.823 128.776C103.845 129.918 101.197 131.778 99.1156 134.19C97.0346 136.602 95.5855 139.492 94.8981 142.6C94.6078 143.974 94.4652 145.375 94.4727 146.779H88.0107V153.21H95.5749C96.323 155.314 97.4333 157.273 98.8558 158.997C99.0169 159.193 99.1523 159.424 99.307 159.64H91.2336C90.3789 159.64 89.5591 159.979 88.9547 160.582C88.3503 161.185 88.0107 162.002 88.0107 162.855V214.297C88.0107 215.15 88.3503 215.967 88.9547 216.57C89.5591 217.173 90.3789 217.512 91.2336 217.512H278.162C279.017 217.512 279.836 217.173 280.441 216.57C281.045 215.967 281.385 215.15 281.385 214.297V162.855C281.385 162.002 281.045 161.185 280.441 160.582C279.836 159.979 279.017 159.64 278.162 159.64H270.105C270.263 159.434 270.395 159.203 270.556 158.997C271.973 157.271 273.077 155.313 273.821 153.21ZM155.692 157.405C156.056 157.961 156.448 158.498 156.868 159.013C157.029 159.209 157.165 159.441 157.319 159.656H154.08C154.238 159.45 154.37 159.219 154.531 159.013C154.946 158.497 155.333 157.961 155.692 157.405ZM161.841 154.917C161.426 154.377 161.053 153.807 160.726 153.21H175.029V156.425C175.029 157.277 175.369 158.095 175.973 158.698C176.577 159.301 177.397 159.64 178.252 159.64H191.144C191.998 159.64 192.818 159.301 193.422 158.698C194.027 158.095 194.366 157.277 194.366 156.425V153.21H208.67C208.343 153.807 207.97 154.377 207.555 154.917C204.427 158.87 202.341 163.541 201.486 168.504L198.605 183.101C198.482 183.726 198.15 184.291 197.662 184.703C197.174 185.114 196.561 185.347 195.922 185.364C195.283 185.38 194.658 185.179 194.15 184.793C193.642 184.408 193.28 183.86 193.126 183.242L190.95 174.561C190.6 173.172 189.794 171.94 188.662 171.059C187.53 170.179 186.135 169.701 184.699 169.701C183.264 169.701 181.869 170.179 180.737 171.059C179.604 171.94 178.799 173.172 178.449 174.561L176.27 183.242C176.115 183.86 175.754 184.408 175.246 184.793C174.737 185.179 174.112 185.38 173.474 185.364C172.835 185.347 172.221 185.114 171.733 184.703C171.246 184.291 170.913 183.726 170.791 183.101L167.91 168.507C167.055 163.543 164.969 158.871 161.841 154.917ZM181.475 153.21V146.779H187.921V153.21H181.475ZM212.527 158.997C212.947 158.482 213.34 157.945 213.704 157.389C214.068 157.945 214.461 158.482 214.88 158.997C215.041 159.193 215.177 159.424 215.331 159.64H212.076C212.234 159.434 212.366 159.203 212.527 158.997ZM219.853 154.907C219.438 154.371 219.065 153.803 218.738 153.21H233.041V156.425C233.041 157.277 233.381 158.095 233.985 158.698C234.59 159.301 235.409 159.64 236.264 159.64H249.156C250.011 159.64 250.83 159.301 251.435 158.698C252.039 158.095 252.379 157.277 252.379 156.425V153.21H266.682C266.355 153.807 265.982 154.377 265.567 154.917C262.44 158.87 260.353 163.541 259.498 168.504L256.617 183.101C256.494 183.726 256.162 184.291 255.674 184.703C255.187 185.114 254.573 185.347 253.934 185.364C253.296 185.38 252.671 185.179 252.162 184.793C251.654 184.408 251.292 183.86 251.138 183.242L248.962 174.561C248.612 173.172 247.807 171.94 246.674 171.059C245.542 170.179 244.147 169.701 242.712 169.701C241.276 169.701 239.881 170.179 238.749 171.059C237.616 171.94 236.811 173.172 236.461 174.561L234.282 183.242C234.127 183.86 233.766 184.408 233.258 184.793C232.749 185.179 232.124 185.38 231.486 185.364C230.847 185.347 230.233 185.114 229.746 184.703C229.258 184.291 228.925 183.726 228.803 183.101L225.922 168.507C225.067 163.543 222.981 158.871 219.853 154.917V154.907ZM239.487 153.21V146.779H245.933V153.21H239.487ZM227.401 134.138C229.1 133.817 230.846 133.843 232.534 134.213C234.222 134.584 235.818 135.292 237.225 136.295C238.822 137.438 240.738 138.053 242.703 138.053C244.669 138.053 246.585 137.438 248.182 136.295C249.59 135.294 251.185 134.587 252.874 134.216C254.562 133.846 256.307 133.819 258.006 134.138C260.479 134.594 262.763 135.767 264.572 137.511C266.381 139.254 267.635 141.49 268.177 143.94C268.38 144.873 268.486 145.825 268.493 146.779H252.379V143.564C252.379 142.712 252.039 141.894 251.435 141.291C250.83 140.688 250.011 140.349 249.156 140.349H236.264C235.409 140.349 234.59 140.688 233.985 141.291C233.381 141.894 233.041 142.712 233.041 143.564V146.779H216.927C216.927 145.827 217.025 144.876 217.22 143.944C217.763 141.492 219.018 139.254 220.829 137.51C222.64 135.766 224.926 134.593 227.401 134.138ZM169.389 134.138C171.088 133.817 172.834 133.843 174.522 134.214C176.21 134.584 177.806 135.292 179.212 136.295C180.809 137.438 182.726 138.053 184.691 138.053C186.657 138.053 188.573 137.438 190.17 136.295C191.578 135.294 193.173 134.587 194.861 134.216C196.549 133.845 198.295 133.819 199.994 134.138C202.467 134.594 204.751 135.767 206.56 137.511C208.369 139.254 209.623 141.49 210.165 143.94C210.368 144.873 210.474 145.825 210.481 146.779H194.366V143.564C194.366 142.712 194.027 141.894 193.422 141.291C192.818 140.688 191.998 140.349 191.144 140.349H178.252C177.397 140.349 176.577 140.688 175.973 141.291C175.369 141.894 175.029 142.712 175.029 143.564V146.779H158.915C158.914 145.827 159.013 144.876 159.208 143.944C159.751 141.492 161.006 139.254 162.817 137.51C164.628 135.766 166.914 134.593 169.389 134.138ZM101.205 143.944C101.668 141.881 102.635 139.965 104.019 138.366C105.404 136.767 107.163 135.534 109.141 134.776C111.119 134.019 113.254 133.762 115.355 134.027C117.457 134.292 119.46 135.071 121.187 136.295C122.784 137.438 124.701 138.053 126.666 138.053C128.632 138.053 130.548 137.438 132.145 136.295C133.553 135.294 135.148 134.587 136.836 134.216C138.524 133.845 140.27 133.819 141.969 134.138C144.442 134.594 146.726 135.767 148.534 137.511C150.343 139.254 151.597 141.49 152.14 143.94C152.347 144.873 152.458 145.824 152.469 146.779H136.354V143.564C136.354 142.712 136.015 141.894 135.41 141.291C134.806 140.688 133.986 140.349 133.131 140.349H120.24C119.385 140.349 118.565 140.688 117.961 141.291C117.356 141.894 117.017 142.712 117.017 143.564V146.779H100.902C100.905 145.826 101.007 144.876 101.205 143.944ZM129.908 146.779V153.21H123.463V146.779H129.908ZM117.017 153.21V156.425C117.017 157.277 117.356 158.095 117.961 158.698C118.565 159.301 119.385 159.64 120.24 159.64H133.131C133.986 159.64 134.806 159.301 135.41 158.698C136.015 158.095 136.354 157.277 136.354 156.425V153.21H150.657C150.331 153.807 149.958 154.377 149.542 154.917C146.415 158.87 144.329 163.541 143.474 168.504L140.592 183.101C140.47 183.726 140.138 184.291 139.65 184.703C139.162 185.114 138.548 185.347 137.91 185.364C137.271 185.38 136.646 185.179 136.138 184.793C135.629 184.408 135.268 183.86 135.113 183.242L132.938 174.561C132.588 173.172 131.782 171.94 130.65 171.059C129.518 170.179 128.123 169.701 126.687 169.701C125.251 169.701 123.857 170.179 122.724 171.059C121.592 171.94 120.787 173.172 120.436 174.561L118.258 183.242C118.103 183.86 117.742 184.408 117.233 184.793C116.725 185.179 116.1 185.38 115.461 185.364C114.823 185.347 114.209 185.114 113.721 184.703C113.233 184.291 112.901 183.726 112.779 183.101L109.897 168.507C109.043 163.543 106.957 158.871 103.829 154.917C103.413 154.377 103.041 153.807 102.714 153.21H117.017ZM274.939 166.07V211.082H94.4565V166.07H102.594C102.992 167.275 103.315 168.504 103.561 169.748L106.443 184.345C106.852 186.4 107.951 188.256 109.558 189.606C111.165 190.955 113.185 191.72 115.285 191.772C117.385 191.825 119.441 191.163 121.114 189.896C122.787 188.628 123.978 186.831 124.491 184.798L126.669 176.117L128.848 184.798C129.361 186.831 130.552 188.628 132.225 189.896C133.898 191.163 135.954 191.825 138.054 191.772C140.154 191.72 142.174 190.955 143.781 189.606C145.388 188.256 146.487 186.4 146.896 184.345L149.778 169.745C150.024 168.501 150.347 167.274 150.744 166.07H160.574C160.972 167.275 161.295 168.504 161.541 169.748L164.422 184.345C164.832 186.4 165.931 188.256 167.538 189.606C169.145 190.955 171.165 191.72 173.265 191.772C175.365 191.825 177.421 191.163 179.094 189.896C180.767 188.628 181.958 186.831 182.471 184.798L184.649 176.117L186.828 184.798C187.341 186.831 188.532 188.628 190.205 189.896C191.878 191.163 193.934 191.825 196.034 191.772C198.134 191.72 200.154 190.955 201.761 189.606C203.368 188.256 204.467 186.4 204.876 184.345L207.758 169.745C208.004 168.501 208.327 167.274 208.724 166.07H218.554C218.952 167.275 219.275 168.504 219.521 169.748L222.402 184.345C222.812 186.4 223.911 188.256 225.518 189.606C227.125 190.955 229.145 191.72 231.245 191.772C233.345 191.825 235.401 191.163 237.074 189.896C238.747 188.628 239.938 186.831 240.451 184.798L242.629 176.117L244.808 184.798C245.321 186.831 246.512 188.628 248.185 189.896C249.858 191.163 251.914 191.825 254.014 191.772C256.114 191.72 258.134 190.955 259.741 189.606C261.348 188.256 262.447 186.4 262.856 184.345L265.738 169.745C265.984 168.501 266.307 167.274 266.704 166.07H274.939Z"/>
</mask>
<path d="M273.821 153.21H281.385V146.779H274.939C274.946 145.375 274.804 143.974 274.514 142.6C273.828 139.491 272.38 136.6 270.3 134.186C268.22 131.772 265.572 129.91 262.594 128.766C259.616 127.623 256.4 127.233 253.235 127.633C250.069 128.033 247.052 129.21 244.454 131.057C243.948 131.414 243.345 131.605 242.726 131.605C242.107 131.605 241.504 131.414 240.999 131.057C238.889 129.551 236.495 128.485 233.962 127.926C231.428 127.366 228.808 127.324 226.257 127.802C223.707 128.279 221.28 129.267 219.123 130.705C216.965 132.143 215.122 134.002 213.704 136.17C212.283 134.007 210.439 132.153 208.282 130.719C206.125 129.285 203.7 128.301 201.152 127.825C198.604 127.35 195.986 127.393 193.455 127.952C190.925 128.512 188.533 129.576 186.425 131.08C185.92 131.436 185.316 131.627 184.698 131.627C184.079 131.627 183.476 131.436 182.97 131.08C180.862 129.575 178.471 128.51 175.94 127.95C173.409 127.39 170.791 127.347 168.243 127.822C165.695 128.298 163.27 129.282 161.113 130.717C158.956 132.151 157.112 134.006 155.692 136.17C154.271 134.007 152.427 132.153 150.27 130.719C148.113 129.285 145.688 128.301 143.14 127.825C140.592 127.35 137.974 127.393 135.443 127.952C132.912 128.512 130.521 129.576 128.413 131.08C127.908 131.436 127.304 131.627 126.686 131.627C126.067 131.627 125.463 131.436 124.958 131.08C122.362 129.231 119.346 128.052 116.181 127.65C113.016 127.248 109.801 127.635 106.823 128.776C103.845 129.918 101.197 131.778 99.1156 134.19C97.0346 136.602 95.5855 139.492 94.8981 142.6C94.6078 143.974 94.4652 145.375 94.4727 146.779H88.0107V153.21H95.5749C96.323 155.314 97.4333 157.273 98.8558 158.997C99.0169 159.193 99.1523 159.424 99.307 159.64H91.2336C90.3789 159.64 89.5591 159.979 88.9547 160.582C88.3503 161.185 88.0107 162.002 88.0107 162.855V214.297C88.0107 215.15 88.3503 215.967 88.9547 216.57C89.5591 217.173 90.3789 217.512 91.2336 217.512H278.162C279.017 217.512 279.836 217.173 280.441 216.57C281.045 215.967 281.385 215.15 281.385 214.297V162.855C281.385 162.002 281.045 161.185 280.441 160.582C279.836 159.979 279.017 159.64 278.162 159.64H270.105C270.263 159.434 270.395 159.203 270.556 158.997C271.973 157.271 273.077 155.313 273.821 153.21ZM155.692 157.405C156.056 157.961 156.448 158.498 156.868 159.013C157.029 159.209 157.165 159.441 157.319 159.656H154.08C154.238 159.45 154.37 159.219 154.531 159.013C154.946 158.497 155.333 157.961 155.692 157.405ZM161.841 154.917C161.426 154.377 161.053 153.807 160.726 153.21H175.029V156.425C175.029 157.277 175.369 158.095 175.973 158.698C176.577 159.301 177.397 159.64 178.252 159.64H191.144C191.998 159.64 192.818 159.301 193.422 158.698C194.027 158.095 194.366 157.277 194.366 156.425V153.21H208.67C208.343 153.807 207.97 154.377 207.555 154.917C204.427 158.87 202.341 163.541 201.486 168.504L198.605 183.101C198.482 183.726 198.15 184.291 197.662 184.703C197.174 185.114 196.561 185.347 195.922 185.364C195.283 185.38 194.658 185.179 194.15 184.793C193.642 184.408 193.28 183.86 193.126 183.242L190.95 174.561C190.6 173.172 189.794 171.94 188.662 171.059C187.53 170.179 186.135 169.701 184.699 169.701C183.264 169.701 181.869 170.179 180.737 171.059C179.604 171.94 178.799 173.172 178.449 174.561L176.27 183.242C176.115 183.86 175.754 184.408 175.246 184.793C174.737 185.179 174.112 185.38 173.474 185.364C172.835 185.347 172.221 185.114 171.733 184.703C171.246 184.291 170.913 183.726 170.791 183.101L167.91 168.507C167.055 163.543 164.969 158.871 161.841 154.917ZM181.475 153.21V146.779H187.921V153.21H181.475ZM212.527 158.997C212.947 158.482 213.34 157.945 213.704 157.389C214.068 157.945 214.461 158.482 214.88 158.997C215.041 159.193 215.177 159.424 215.331 159.64H212.076C212.234 159.434 212.366 159.203 212.527 158.997ZM219.853 154.907C219.438 154.371 219.065 153.803 218.738 153.21H233.041V156.425C233.041 157.277 233.381 158.095 233.985 158.698C234.59 159.301 235.409 159.64 236.264 159.64H249.156C250.011 159.64 250.83 159.301 251.435 158.698C252.039 158.095 252.379 157.277 252.379 156.425V153.21H266.682C266.355 153.807 265.982 154.377 265.567 154.917C262.44 158.87 260.353 163.541 259.498 168.504L256.617 183.101C256.494 183.726 256.162 184.291 255.674 184.703C255.187 185.114 254.573 185.347 253.934 185.364C253.296 185.38 252.671 185.179 252.162 184.793C251.654 184.408 251.292 183.86 251.138 183.242L248.962 174.561C248.612 173.172 247.807 171.94 246.674 171.059C245.542 170.179 244.147 169.701 242.712 169.701C241.276 169.701 239.881 170.179 238.749 171.059C237.616 171.94 236.811 173.172 236.461 174.561L234.282 183.242C234.127 183.86 233.766 184.408 233.258 184.793C232.749 185.179 232.124 185.38 231.486 185.364C230.847 185.347 230.233 185.114 229.746 184.703C229.258 184.291 228.925 183.726 228.803 183.101L225.922 168.507C225.067 163.543 222.981 158.871 219.853 154.917V154.907ZM239.487 153.21V146.779H245.933V153.21H239.487ZM227.401 134.138C229.1 133.817 230.846 133.843 232.534 134.213C234.222 134.584 235.818 135.292 237.225 136.295C238.822 137.438 240.738 138.053 242.703 138.053C244.669 138.053 246.585 137.438 248.182 136.295C249.59 135.294 251.185 134.587 252.874 134.216C254.562 133.846 256.307 133.819 258.006 134.138C260.479 134.594 262.763 135.767 264.572 137.511C266.381 139.254 267.635 141.49 268.177 143.94C268.38 144.873 268.486 145.825 268.493 146.779H252.379V143.564C252.379 142.712 252.039 141.894 251.435 141.291C250.83 140.688 250.011 140.349 249.156 140.349H236.264C235.409 140.349 234.59 140.688 233.985 141.291C233.381 141.894 233.041 142.712 233.041 143.564V146.779H216.927C216.927 145.827 217.025 144.876 217.22 143.944C217.763 141.492 219.018 139.254 220.829 137.51C222.64 135.766 224.926 134.593 227.401 134.138ZM169.389 134.138C171.088 133.817 172.834 133.843 174.522 134.214C176.21 134.584 177.806 135.292 179.212 136.295C180.809 137.438 182.726 138.053 184.691 138.053C186.657 138.053 188.573 137.438 190.17 136.295C191.578 135.294 193.173 134.587 194.861 134.216C196.549 133.845 198.295 133.819 199.994 134.138C202.467 134.594 204.751 135.767 206.56 137.511C208.369 139.254 209.623 141.49 210.165 143.94C210.368 144.873 210.474 145.825 210.481 146.779H194.366V143.564C194.366 142.712 194.027 141.894 193.422 141.291C192.818 140.688 191.998 140.349 191.144 140.349H178.252C177.397 140.349 176.577 140.688 175.973 141.291C175.369 141.894 175.029 142.712 175.029 143.564V146.779H158.915C158.914 145.827 159.013 144.876 159.208 143.944C159.751 141.492 161.006 139.254 162.817 137.51C164.628 135.766 166.914 134.593 169.389 134.138ZM101.205 143.944C101.668 141.881 102.635 139.965 104.019 138.366C105.404 136.767 107.163 135.534 109.141 134.776C111.119 134.019 113.254 133.762 115.355 134.027C117.457 134.292 119.46 135.071 121.187 136.295C122.784 137.438 124.701 138.053 126.666 138.053C128.632 138.053 130.548 137.438 132.145 136.295C133.553 135.294 135.148 134.587 136.836 134.216C138.524 133.845 140.27 133.819 141.969 134.138C144.442 134.594 146.726 135.767 148.534 137.511C150.343 139.254 151.597 141.49 152.14 143.94C152.347 144.873 152.458 145.824 152.469 146.779H136.354V143.564C136.354 142.712 136.015 141.894 135.41 141.291C134.806 140.688 133.986 140.349 133.131 140.349H120.24C119.385 140.349 118.565 140.688 117.961 141.291C117.356 141.894 117.017 142.712 117.017 143.564V146.779H100.902C100.905 145.826 101.007 144.876 101.205 143.944ZM129.908 146.779V153.21H123.463V146.779H129.908ZM117.017 153.21V156.425C117.017 157.277 117.356 158.095 117.961 158.698C118.565 159.301 119.385 159.64 120.24 159.64H133.131C133.986 159.64 134.806 159.301 135.41 158.698C136.015 158.095 136.354 157.277 136.354 156.425V153.21H150.657C150.331 153.807 149.958 154.377 149.542 154.917C146.415 158.87 144.329 163.541 143.474 168.504L140.592 183.101C140.47 183.726 140.138 184.291 139.65 184.703C139.162 185.114 138.548 185.347 137.91 185.364C137.271 185.38 136.646 185.179 136.138 184.793C135.629 184.408 135.268 183.86 135.113 183.242L132.938 174.561C132.588 173.172 131.782 171.94 130.65 171.059C129.518 170.179 128.123 169.701 126.687 169.701C125.251 169.701 123.857 170.179 122.724 171.059C121.592 171.94 120.787 173.172 120.436 174.561L118.258 183.242C118.103 183.86 117.742 184.408 117.233 184.793C116.725 185.179 116.1 185.38 115.461 185.364C114.823 185.347 114.209 185.114 113.721 184.703C113.233 184.291 112.901 183.726 112.779 183.101L109.897 168.507C109.043 163.543 106.957 158.871 103.829 154.917C103.413 154.377 103.041 153.807 102.714 153.21H117.017ZM274.939 166.07V211.082H94.4565V166.07H102.594C102.992 167.275 103.315 168.504 103.561 169.748L106.443 184.345C106.852 186.4 107.951 188.256 109.558 189.606C111.165 190.955 113.185 191.72 115.285 191.772C117.385 191.825 119.441 191.163 121.114 189.896C122.787 188.628 123.978 186.831 124.491 184.798L126.669 176.117L128.848 184.798C129.361 186.831 130.552 188.628 132.225 189.896C133.898 191.163 135.954 191.825 138.054 191.772C140.154 191.72 142.174 190.955 143.781 189.606C145.388 188.256 146.487 186.4 146.896 184.345L149.778 169.745C150.024 168.501 150.347 167.274 150.744 166.07H160.574C160.972 167.275 161.295 168.504 161.541 169.748L164.422 184.345C164.832 186.4 165.931 188.256 167.538 189.606C169.145 190.955 171.165 191.72 173.265 191.772C175.365 191.825 177.421 191.163 179.094 189.896C180.767 188.628 181.958 186.831 182.471 184.798L184.649 176.117L186.828 184.798C187.341 186.831 188.532 188.628 190.205 189.896C191.878 191.163 193.934 191.825 196.034 191.772C198.134 191.72 200.154 190.955 201.761 189.606C203.368 188.256 204.467 186.4 204.876 184.345L207.758 169.745C208.004 168.501 208.327 167.274 208.724 166.07H218.554C218.952 167.275 219.275 168.504 219.521 169.748L222.402 184.345C222.812 186.4 223.911 188.256 225.518 189.606C227.125 190.955 229.145 191.72 231.245 191.772C233.345 191.825 235.401 191.163 237.074 189.896C238.747 188.628 239.938 186.831 240.451 184.798L242.629 176.117L244.808 184.798C245.321 186.831 246.512 188.628 248.185 189.896C249.858 191.163 251.914 191.825 254.014 191.772C256.114 191.72 258.134 190.955 259.741 189.606C261.348 188.256 262.447 186.4 262.856 184.345L265.738 169.745C265.984 168.501 266.307 167.274 266.704 166.07H274.939Z" fill="#007CC1" stroke="white" stroke-width="4" mask="url(#path-3-inside-1_39_485)"/>
<path d="M52.5678 280.771C52.2798 280.771 52.0558 280.715 51.8958 280.603C51.7518 280.507 51.6558 280.363 51.6078 280.171C51.5598 279.963 51.5358 279.739 51.5358 279.499V265.243C51.5358 265.003 51.5598 264.795 51.6078 264.619C51.6718 264.427 51.7758 264.283 51.9198 264.187C52.0798 264.075 52.3038 264.019 52.5918 264.019H59.2878C60.1838 264.019 60.9678 264.219 61.6398 264.619C62.3278 265.019 62.8638 265.563 63.2478 266.251C63.6318 266.939 63.8158 267.691 63.7998 268.507C63.8158 268.923 63.7678 269.331 63.6558 269.731C63.5438 270.131 63.3758 270.507 63.1518 270.859C62.9438 271.195 62.6798 271.475 62.3598 271.699C62.7918 271.971 63.1598 272.323 63.4638 272.755C63.7678 273.187 63.9998 273.667 64.1598 274.195C64.3198 274.723 64.3998 275.275 64.3998 275.851C64.3838 276.539 64.2558 277.187 64.0158 277.795C63.7758 278.387 63.4318 278.907 62.9839 279.355C62.5358 279.803 62.0158 280.155 61.4238 280.411C60.8318 280.651 60.1998 280.771 59.5278 280.771H52.5678ZM53.6958 278.707H59.2878C59.9118 278.707 60.4478 278.587 60.8958 278.347C61.3438 278.107 61.6878 277.755 61.9278 277.291C62.1678 276.827 62.2878 276.259 62.2878 275.587C62.2878 275.011 62.2078 274.547 62.0478 274.195C61.8878 273.843 61.6718 273.579 61.3998 273.403C61.1278 273.211 60.8318 273.075 60.5118 272.995C60.2078 272.915 59.9038 272.875 59.5998 272.875C59.3118 272.859 59.0478 272.851 58.8078 272.851H57.3438C57.0238 272.851 56.7918 272.771 56.6478 272.611C56.5038 272.451 56.4318 272.195 56.4318 271.843C56.4318 271.507 56.5038 271.267 56.6478 271.123C56.8078 270.979 57.0478 270.907 57.3678 270.907H58.8318C59.0878 270.907 59.3758 270.899 59.6958 270.883C60.0158 270.867 60.3278 270.803 60.6318 270.691C60.9518 270.579 61.2078 270.371 61.3998 270.067C61.6078 269.747 61.7118 269.299 61.7118 268.723C61.7118 267.827 61.4718 267.171 60.9918 266.755C60.5118 266.323 59.7198 266.107 58.6158 266.107H53.6958V278.707ZM68.3765 280.771C68.0725 280.771 67.8405 280.723 67.6805 280.627C67.5205 280.547 67.4165 280.427 67.3685 280.267C67.3365 280.091 67.3205 279.891 67.3205 279.667V265.075C67.3205 264.867 67.3445 264.691 67.3925 264.547C67.4565 264.387 67.5605 264.259 67.7045 264.163C67.8645 264.067 68.0965 264.019 68.4005 264.019H73.7045C74.4885 264.019 75.2005 264.139 75.8405 264.379C76.4965 264.603 77.0645 264.939 77.5445 265.387C78.0245 265.835 78.3925 266.403 78.6485 267.091C78.9205 267.763 79.0565 268.547 79.0565 269.443C79.0565 270.003 78.9685 270.587 78.7925 271.195C78.6165 271.787 78.3445 272.347 77.9765 272.875C77.6245 273.403 77.1685 273.843 76.6085 274.195C76.0485 274.547 75.3685 274.747 74.5685 274.795H69.4805V279.691C69.4805 279.915 69.4485 280.107 69.3845 280.267C69.3365 280.427 69.2325 280.547 69.0725 280.627C68.9285 280.723 68.6965 280.771 68.3765 280.771ZM78.6725 280.507C78.3365 280.731 78.0485 280.803 77.8085 280.723C77.5845 280.643 77.3685 280.451 77.1605 280.147L73.3205 274.003L75.6965 273.643L79.0085 278.923C79.1685 279.179 79.2645 279.395 79.2965 279.571C79.3445 279.747 79.3125 279.907 79.2005 280.051C79.1045 280.195 78.9285 280.347 78.6725 280.507ZM69.4805 272.683H74.2325C74.6005 272.683 74.9445 272.619 75.2645 272.491C75.5845 272.347 75.8645 272.139 76.1045 271.867C76.3445 271.595 76.5365 271.259 76.6805 270.859C76.8245 270.459 76.8965 269.979 76.8965 269.419C76.8965 268.731 76.7685 268.147 76.5125 267.667C76.2725 267.187 75.9125 266.827 75.4325 266.587C74.9525 266.331 74.3605 266.203 73.6565 266.203H69.4805V272.683ZM96.6776 279.235C96.8056 279.475 96.8696 279.683 96.8696 279.859C96.8856 280.019 96.8376 280.171 96.7256 280.315C96.6136 280.443 96.4376 280.563 96.1976 280.675C95.8136 280.851 95.5096 280.891 95.2856 280.795C95.0776 280.699 94.8856 280.467 94.7096 280.099L88.7096 267.331L82.7576 280.075C82.5816 280.443 82.3816 280.675 82.1576 280.771C81.9496 280.867 81.6456 280.827 81.2456 280.651C81.0056 280.555 80.8296 280.435 80.7176 280.291C80.6216 280.147 80.5816 279.971 80.5976 279.763C80.6296 279.555 80.7096 279.315 80.8376 279.043L87.7256 264.667C87.8216 264.475 87.9576 264.323 88.1336 264.211C88.3256 264.083 88.5256 264.019 88.7336 264.019C88.8776 264.019 89.0136 264.043 89.1416 264.091C89.2696 264.139 89.3816 264.211 89.4776 264.307C89.5736 264.403 89.6536 264.531 89.7176 264.691L96.6776 279.235ZM84.1976 275.995L85.0136 274.147H92.4536L93.2456 275.995H84.1976ZM106.76 280.819C105.896 280.819 105.056 280.691 104.24 280.435C103.424 280.179 102.664 279.811 101.96 279.331C101.256 278.851 100.632 278.259 100.088 277.555C99.56 276.835 99.144 276.035 98.84 275.155C98.536 274.259 98.384 273.275 98.384 272.203C98.384 271.179 98.536 270.235 98.84 269.371C99.144 268.491 99.56 267.715 100.088 267.043C100.616 266.371 101.232 265.803 101.936 265.339C102.656 264.859 103.424 264.499 104.24 264.259C105.072 264.003 105.92 263.875 106.784 263.875C107.584 263.875 108.272 263.955 108.848 264.115C109.424 264.275 109.896 264.451 110.264 264.643C110.632 264.819 110.88 264.955 111.008 265.051C111.232 265.179 111.448 265.331 111.656 265.507C111.864 265.683 111.976 265.891 111.992 266.131C112.024 266.307 112.008 266.451 111.944 266.563C111.896 266.675 111.832 266.795 111.752 266.923C111.624 267.115 111.488 267.259 111.344 267.355C111.216 267.435 111.072 267.475 110.912 267.475C110.752 267.475 110.608 267.427 110.48 267.331C110.352 267.235 110.184 267.123 109.976 266.995C109.88 266.931 109.688 266.827 109.4 266.683C109.112 266.539 108.744 266.403 108.296 266.275C107.848 266.131 107.304 266.059 106.664 266.059C105.848 266.059 105.064 266.211 104.312 266.515C103.576 266.803 102.928 267.219 102.368 267.763C101.808 268.307 101.368 268.963 101.048 269.731C100.728 270.499 100.568 271.363 100.568 272.323C100.568 273.299 100.728 274.179 101.048 274.963C101.368 275.731 101.808 276.387 102.368 276.931C102.944 277.475 103.6 277.891 104.336 278.179C105.072 278.467 105.848 278.611 106.664 278.611C107.272 278.611 107.8 278.547 108.248 278.419C108.712 278.291 109.088 278.155 109.376 278.011C109.68 277.851 109.888 277.731 110 277.651C110.176 277.555 110.328 277.459 110.456 277.363C110.6 277.267 110.752 277.219 110.912 277.219C111.072 277.219 111.216 277.267 111.344 277.363C111.488 277.443 111.624 277.579 111.752 277.771C111.832 277.883 111.896 278.011 111.944 278.155C112.008 278.283 112.024 278.427 111.992 278.587C111.976 278.827 111.864 279.035 111.656 279.211C111.448 279.371 111.232 279.523 111.008 279.667C110.864 279.731 110.608 279.867 110.24 280.075C109.888 280.267 109.424 280.435 108.848 280.579C108.272 280.739 107.576 280.819 106.76 280.819ZM115.928 280.771C115.608 280.771 115.368 280.723 115.208 280.627C115.064 280.547 114.968 280.427 114.92 280.267C114.872 280.107 114.848 279.915 114.848 279.691V265.075C114.848 264.867 114.872 264.683 114.92 264.523C114.984 264.347 115.088 264.219 115.232 264.139C115.392 264.059 115.632 264.019 115.952 264.019C116.272 264.019 116.504 264.067 116.648 264.163C116.808 264.243 116.912 264.363 116.96 264.523C117.008 264.683 117.032 264.875 117.032 265.099V270.907L124.112 264.355C124.304 264.163 124.48 264.035 124.64 263.971C124.8 263.907 124.96 263.907 125.12 263.971C125.28 264.035 125.456 264.163 125.648 264.355C125.952 264.659 126.096 264.923 126.08 265.147C126.08 265.355 125.936 265.595 125.648 265.867L118.496 272.371L125.744 278.923C126.048 279.211 126.2 279.467 126.2 279.691C126.2 279.915 126.048 280.171 125.744 280.459C125.536 280.651 125.352 280.779 125.192 280.843C125.032 280.907 124.872 280.907 124.712 280.843C124.568 280.779 124.4 280.643 124.208 280.435L117.032 273.835V279.715C117.032 279.939 117.008 280.131 116.96 280.291C116.912 280.451 116.808 280.571 116.648 280.651C116.488 280.731 116.248 280.771 115.928 280.771ZM130.276 280.771C129.956 280.771 129.716 280.723 129.556 280.627C129.412 280.547 129.316 280.427 129.268 280.267C129.22 280.091 129.196 279.891 129.196 279.667V265.099C129.196 264.683 129.276 264.403 129.436 264.259C129.612 264.099 129.916 264.019 130.348 264.019H139.996C140.22 264.019 140.412 264.043 140.572 264.091C140.732 264.139 140.852 264.243 140.932 264.403C141.012 264.563 141.052 264.803 141.052 265.123C141.052 265.443 141.004 265.683 140.908 265.843C140.828 265.987 140.708 266.083 140.548 266.131C140.388 266.179 140.196 266.203 139.972 266.203H131.356V271.171H137.356C137.58 271.171 137.764 271.195 137.908 271.243C138.068 271.291 138.188 271.387 138.268 271.531C138.348 271.675 138.388 271.899 138.388 272.203C138.388 272.491 138.348 272.707 138.268 272.851C138.188 272.995 138.068 273.091 137.908 273.139C137.748 273.171 137.548 273.187 137.308 273.187H131.356V278.611H139.996C140.22 278.611 140.412 278.635 140.572 278.683C140.732 278.731 140.852 278.835 140.932 278.995C141.012 279.139 141.052 279.371 141.052 279.691C141.052 280.011 141.004 280.251 140.908 280.411C140.828 280.555 140.708 280.651 140.548 280.699C140.388 280.747 140.196 280.771 139.972 280.771H130.276ZM156.413 264.019C156.621 264.019 156.789 264.043 156.917 264.091C157.061 264.139 157.173 264.235 157.253 264.379C157.333 264.507 157.373 264.723 157.373 265.027C157.373 265.315 157.325 265.531 157.229 265.675C157.149 265.819 157.037 265.915 156.893 265.963C156.749 265.995 156.573 266.011 156.365 266.011H151.397V279.715C151.397 279.923 151.365 280.107 151.301 280.267C151.253 280.427 151.149 280.547 150.989 280.627C150.845 280.723 150.621 280.771 150.317 280.771C149.997 280.771 149.757 280.723 149.597 280.627C149.453 280.547 149.357 280.427 149.309 280.267C149.277 280.091 149.261 279.899 149.261 279.691V266.011H144.221C144.013 266.011 143.837 265.995 143.693 265.963C143.549 265.915 143.437 265.819 143.357 265.675C143.277 265.531 143.237 265.315 143.237 265.027C143.237 264.723 143.269 264.507 143.333 264.379C143.413 264.235 143.525 264.139 143.669 264.091C143.829 264.043 144.005 264.019 144.197 264.019H156.413ZM164.297 281.011C163.689 281.011 163.113 280.939 162.569 280.795C162.041 280.651 161.553 280.459 161.105 280.219C160.673 279.963 160.289 279.683 159.953 279.379C159.617 279.075 159.353 278.771 159.161 278.467C158.985 278.211 158.873 278.003 158.825 277.843C158.777 277.667 158.785 277.499 158.849 277.339C158.929 277.179 159.081 277.003 159.305 276.811C159.561 276.619 159.785 276.531 159.977 276.547C160.169 276.547 160.345 276.619 160.505 276.763C160.681 276.907 160.857 277.099 161.033 277.339C161.433 277.883 161.921 278.283 162.497 278.539C163.073 278.779 163.641 278.899 164.201 278.899C164.921 278.899 165.561 278.803 166.121 278.611C166.681 278.419 167.121 278.131 167.441 277.747C167.777 277.347 167.945 276.835 167.945 276.211C167.945 275.699 167.817 275.267 167.561 274.915C167.305 274.563 166.961 274.267 166.529 274.027C166.097 273.771 165.617 273.555 165.089 273.379C164.561 273.187 164.025 273.003 163.481 272.827C163.049 272.683 162.625 272.523 162.209 272.347C161.793 272.155 161.401 271.947 161.033 271.723C160.665 271.483 160.337 271.203 160.049 270.883C159.777 270.563 159.561 270.187 159.401 269.755C159.257 269.323 159.185 268.819 159.185 268.243C159.185 267.363 159.393 266.587 159.809 265.915C160.241 265.243 160.841 264.723 161.609 264.355C162.377 263.971 163.265 263.779 164.273 263.779C164.865 263.779 165.409 263.835 165.905 263.947C166.401 264.059 166.841 264.211 167.225 264.403C167.609 264.579 167.937 264.771 168.209 264.979C168.481 265.171 168.689 265.355 168.833 265.531C169.121 265.835 169.281 266.091 169.313 266.299C169.345 266.507 169.225 266.763 168.953 267.067C168.697 267.355 168.449 267.507 168.209 267.523C167.969 267.539 167.705 267.427 167.417 267.187C167.113 266.835 166.793 266.563 166.457 266.371C166.137 266.179 165.793 266.051 165.425 265.987C165.073 265.907 164.681 265.867 164.249 265.867C163.833 265.867 163.441 265.923 163.073 266.035C162.721 266.131 162.409 266.283 162.137 266.491C161.881 266.699 161.681 266.955 161.537 267.259C161.393 267.547 161.321 267.883 161.321 268.267C161.321 268.699 161.433 269.067 161.657 269.371C161.897 269.675 162.209 269.939 162.593 270.163C162.977 270.371 163.409 270.563 163.889 270.739C164.369 270.899 164.873 271.059 165.401 271.219C165.977 271.395 166.545 271.611 167.105 271.867C167.665 272.107 168.169 272.411 168.617 272.779C169.065 273.131 169.425 273.579 169.697 274.123C169.969 274.667 170.105 275.339 170.105 276.139C170.105 276.939 169.945 277.643 169.625 278.251C169.321 278.859 168.897 279.371 168.353 279.787C167.809 280.187 167.185 280.491 166.481 280.699C165.793 280.907 165.065 281.011 164.297 281.011ZM179.888 280.771C179.584 280.771 179.352 280.723 179.192 280.627C179.048 280.547 178.952 280.427 178.904 280.267C178.856 280.091 178.832 279.891 178.832 279.667V265.099C178.832 264.891 178.856 264.707 178.904 264.547C178.968 264.387 179.08 264.259 179.24 264.163C179.4 264.067 179.624 264.019 179.912 264.019H185.168C185.936 264.019 186.64 264.139 187.28 264.379C187.936 264.603 188.504 264.955 188.984 265.435C189.48 265.899 189.864 266.467 190.136 267.139C190.408 267.811 190.544 268.587 190.544 269.467C190.544 270.331 190.408 271.099 190.136 271.771C189.864 272.443 189.48 273.011 188.984 273.475C188.488 273.923 187.912 274.267 187.256 274.507C186.616 274.747 185.912 274.867 185.144 274.867H181.016V279.691C181.016 279.915 180.984 280.107 180.92 280.267C180.872 280.427 180.768 280.547 180.608 280.627C180.464 280.723 180.224 280.771 179.888 280.771ZM181.016 272.683H185.168C185.808 272.683 186.368 272.563 186.848 272.323C187.328 272.067 187.704 271.699 187.976 271.219C188.248 270.723 188.384 270.123 188.384 269.419C188.384 268.747 188.256 268.171 188 267.691C187.744 267.211 187.368 266.843 186.872 266.587C186.392 266.331 185.816 266.203 185.144 266.203H181.016V272.683ZM200.494 280.939C199.358 280.939 198.286 280.723 197.278 280.291C196.286 279.859 195.406 279.259 194.638 278.491C193.886 277.707 193.294 276.811 192.862 275.803C192.43 274.795 192.214 273.707 192.214 272.539C192.214 271.355 192.422 270.243 192.838 269.203C193.254 268.147 193.83 267.227 194.566 266.443C195.318 265.659 196.182 265.043 197.158 264.595C198.134 264.147 199.174 263.923 200.278 263.923C201.43 263.923 202.502 264.139 203.494 264.571C204.502 265.003 205.374 265.611 206.11 266.395C206.862 267.163 207.454 268.067 207.886 269.107C208.318 270.147 208.534 271.259 208.534 272.443C208.534 273.611 208.318 274.707 207.886 275.731C207.47 276.739 206.894 277.643 206.158 278.443C205.422 279.227 204.566 279.843 203.59 280.291C202.63 280.723 201.598 280.939 200.494 280.939ZM200.35 278.755C201.182 278.755 201.958 278.595 202.678 278.275C203.414 277.955 204.054 277.507 204.598 276.931C205.142 276.339 205.566 275.667 205.87 274.915C206.19 274.147 206.35 273.315 206.35 272.419C206.35 271.555 206.19 270.747 205.87 269.995C205.566 269.227 205.134 268.555 204.574 267.979C204.03 267.387 203.398 266.923 202.678 266.587C201.958 266.251 201.19 266.083 200.374 266.083C199.558 266.083 198.79 266.251 198.07 266.587C197.35 266.923 196.71 267.379 196.15 267.955C195.606 268.531 195.174 269.203 194.854 269.971C194.55 270.739 194.398 271.563 194.398 272.443C194.398 273.307 194.55 274.123 194.854 274.891C195.174 275.659 195.606 276.331 196.15 276.907C196.71 277.483 197.342 277.939 198.046 278.275C198.766 278.595 199.534 278.755 200.35 278.755ZM212.048 280.771C211.744 280.771 211.512 280.723 211.352 280.627C211.192 280.547 211.088 280.427 211.04 280.267C211.008 280.091 210.992 279.891 210.992 279.667V265.075C210.992 264.867 211.016 264.691 211.064 264.547C211.128 264.387 211.232 264.259 211.376 264.163C211.536 264.067 211.768 264.019 212.072 264.019H217.376C218.16 264.019 218.872 264.139 219.512 264.379C220.168 264.603 220.736 264.939 221.216 265.387C221.696 265.835 222.064 266.403 222.32 267.091C222.592 267.763 222.728 268.547 222.728 269.443C222.728 270.003 222.64 270.587 222.464 271.195C222.288 271.787 222.016 272.347 221.648 272.875C221.296 273.403 220.84 273.843 220.28 274.195C219.72 274.547 219.04 274.747 218.24 274.795H213.152V279.691C213.152 279.915 213.12 280.107 213.056 280.267C213.008 280.427 212.904 280.547 212.744 280.627C212.6 280.723 212.368 280.771 212.048 280.771ZM222.344 280.507C222.008 280.731 221.72 280.803 221.48 280.723C221.256 280.643 221.04 280.451 220.832 280.147L216.992 274.003L219.368 273.643L222.68 278.923C222.84 279.179 222.936 279.395 222.968 279.571C223.016 279.747 222.984 279.907 222.872 280.051C222.776 280.195 222.6 280.347 222.344 280.507ZM213.152 272.683H217.904C218.272 272.683 218.616 272.619 218.936 272.491C219.256 272.347 219.536 272.139 219.776 271.867C220.016 271.595 220.208 271.259 220.352 270.859C220.496 270.459 220.568 269.979 220.568 269.419C220.568 268.731 220.44 268.147 220.184 267.667C219.944 267.187 219.584 266.827 219.104 266.587C218.624 266.331 218.032 266.203 217.328 266.203H213.152V272.683ZM233.487 280.819C232.623 280.819 231.783 280.691 230.967 280.435C230.151 280.179 229.391 279.811 228.687 279.331C227.983 278.851 227.359 278.259 226.815 277.555C226.287 276.835 225.871 276.035 225.567 275.155C225.263 274.259 225.111 273.275 225.111 272.203C225.111 271.179 225.263 270.235 225.567 269.371C225.871 268.491 226.287 267.715 226.815 267.043C227.343 266.371 227.959 265.803 228.663 265.339C229.383 264.859 230.151 264.499 230.967 264.259C231.799 264.003 232.647 263.875 233.511 263.875C234.311 263.875 234.999 263.955 235.575 264.115C236.151 264.275 236.623 264.451 236.991 264.643C237.359 264.819 237.607 264.955 237.735 265.051C237.959 265.179 238.175 265.331 238.383 265.507C238.591 265.683 238.703 265.891 238.719 266.131C238.751 266.307 238.735 266.451 238.671 266.563C238.623 266.675 238.559 266.795 238.479 266.923C238.351 267.115 238.215 267.259 238.071 267.355C237.943 267.435 237.799 267.475 237.639 267.475C237.479 267.475 237.335 267.427 237.207 267.331C237.079 267.235 236.911 267.123 236.703 266.995C236.607 266.931 236.415 266.827 236.127 266.683C235.839 266.539 235.471 266.403 235.023 266.275C234.575 266.131 234.031 266.059 233.391 266.059C232.575 266.059 231.791 266.211 231.039 266.515C230.303 266.803 229.655 267.219 229.095 267.763C228.535 268.307 228.095 268.963 227.775 269.731C227.455 270.499 227.295 271.363 227.295 272.323C227.295 273.299 227.455 274.179 227.775 274.963C228.095 275.731 228.535 276.387 229.095 276.931C229.671 277.475 230.327 277.891 231.063 278.179C231.799 278.467 232.575 278.611 233.391 278.611C233.999 278.611 234.527 278.547 234.975 278.419C235.439 278.291 235.815 278.155 236.103 278.011C236.407 277.851 236.615 277.731 236.727 277.651C236.903 277.555 237.055 277.459 237.183 277.363C237.327 277.267 237.479 277.219 237.639 277.219C237.799 277.219 237.943 277.267 238.071 277.363C238.215 277.443 238.351 277.579 238.479 277.771C238.559 277.883 238.623 278.011 238.671 278.155C238.735 278.283 238.751 278.427 238.719 278.587C238.703 278.827 238.591 279.035 238.383 279.211C238.175 279.371 237.959 279.523 237.735 279.667C237.591 279.731 237.335 279.867 236.967 280.075C236.615 280.267 236.151 280.435 235.575 280.579C234.999 280.739 234.303 280.819 233.487 280.819ZM242.822 280.771C242.502 280.771 242.262 280.723 242.102 280.627C241.958 280.547 241.862 280.427 241.814 280.267C241.766 280.091 241.742 279.891 241.742 279.667V265.099C241.742 264.683 241.822 264.403 241.982 264.259C242.158 264.099 242.462 264.019 242.894 264.019H252.542C252.766 264.019 252.958 264.043 253.118 264.091C253.278 264.139 253.398 264.243 253.478 264.403C253.558 264.563 253.598 264.803 253.598 265.123C253.598 265.443 253.55 265.683 253.454 265.843C253.374 265.987 253.254 266.083 253.094 266.131C252.934 266.179 252.742 266.203 252.518 266.203H243.902V271.171H249.902C250.126 271.171 250.31 271.195 250.454 271.243C250.614 271.291 250.734 271.387 250.814 271.531C250.894 271.675 250.934 271.899 250.934 272.203C250.934 272.491 250.894 272.707 250.814 272.851C250.734 272.995 250.614 273.091 250.454 273.139C250.294 273.171 250.094 273.187 249.854 273.187H243.902V278.611H252.542C252.766 278.611 252.958 278.635 253.118 278.683C253.278 278.731 253.398 278.835 253.478 278.995C253.558 279.139 253.598 279.371 253.598 279.691C253.598 280.011 253.55 280.251 253.454 280.411C253.374 280.555 253.254 280.651 253.094 280.699C252.934 280.747 252.742 280.771 252.518 280.771H242.822ZM257.56 280.771C257.24 280.771 257 280.723 256.84 280.627C256.68 280.547 256.568 280.427 256.504 280.267C256.456 280.107 256.432 279.915 256.432 279.691V265.123C256.432 264.883 256.456 264.683 256.504 264.523C256.552 264.363 256.648 264.243 256.792 264.163C256.952 264.067 257.192 264.019 257.512 264.019C257.832 264.019 258.064 264.067 258.208 264.163C258.368 264.243 258.472 264.363 258.52 264.523C258.568 264.683 258.592 264.875 258.592 265.099V278.755H266.632C266.84 278.755 267.016 278.779 267.16 278.827C267.304 278.875 267.416 278.971 267.496 279.115C267.592 279.259 267.64 279.475 267.64 279.763C267.64 280.035 267.6 280.251 267.52 280.411C267.44 280.555 267.328 280.651 267.184 280.699C267.04 280.747 266.864 280.771 266.656 280.771H257.56ZM284.646 279.235C284.774 279.475 284.838 279.683 284.838 279.859C284.854 280.019 284.806 280.171 284.694 280.315C284.582 280.443 284.406 280.563 284.166 280.675C283.782 280.851 283.478 280.891 283.254 280.795C283.046 280.699 282.854 280.467 282.678 280.099L276.678 267.331L270.726 280.075C270.55 280.443 270.35 280.675 270.126 280.771C269.918 280.867 269.614 280.827 269.214 280.651C268.974 280.555 268.798 280.435 268.686 280.291C268.59 280.147 268.55 279.971 268.566 279.763C268.598 279.555 268.678 279.315 268.806 279.043L275.694 264.667C275.79 264.475 275.926 264.323 276.102 264.211C276.294 264.083 276.494 264.019 276.702 264.019C276.846 264.019 276.982 264.043 277.11 264.091C277.238 264.139 277.35 264.211 277.446 264.307C277.542 264.403 277.622 264.531 277.686 264.691L284.646 279.235ZM272.166 275.995L272.982 274.147H280.422L281.214 275.995H272.166ZM287.745 280.771C287.473 280.771 287.257 280.723 287.097 280.627C286.953 280.531 286.849 280.403 286.785 280.243C286.737 280.067 286.713 279.867 286.713 279.643V265.027C286.713 264.819 286.745 264.643 286.809 264.499C286.873 264.355 286.985 264.243 287.145 264.163C287.321 264.067 287.561 264.019 287.865 264.019C288.217 264.019 288.465 264.051 288.609 264.115C288.753 264.179 288.897 264.291 289.041 264.451L298.065 277.219V265.027C298.065 264.819 298.089 264.643 298.137 264.499C298.201 264.355 298.313 264.243 298.473 264.163C298.633 264.067 298.865 264.019 299.169 264.019C299.457 264.019 299.673 264.067 299.817 264.163C299.977 264.259 300.081 264.395 300.129 264.571C300.193 264.731 300.225 264.915 300.225 265.123V279.667C300.225 279.875 300.185 280.067 300.105 280.243C300.041 280.403 299.921 280.531 299.745 280.627C299.585 280.723 299.353 280.771 299.049 280.771C298.793 280.771 298.577 280.739 298.401 280.675C298.241 280.611 298.089 280.491 297.945 280.315L288.873 267.643V279.667C288.873 279.875 288.841 280.067 288.777 280.243C288.713 280.403 288.601 280.531 288.441 280.627C288.281 280.723 288.049 280.771 287.745 280.771ZM318.537 279.235C318.665 279.475 318.729 279.683 318.729 279.859C318.745 280.019 318.697 280.171 318.585 280.315C318.473 280.443 318.297 280.563 318.057 280.675C317.673 280.851 317.369 280.891 317.145 280.795C316.937 280.699 316.745 280.467 316.569 280.099L310.569 267.331L304.617 280.075C304.441 280.443 304.241 280.675 304.017 280.771C303.809 280.867 303.505 280.827 303.105 280.651C302.865 280.555 302.689 280.435 302.577 280.291C302.481 280.147 302.441 279.971 302.457 279.763C302.489 279.555 302.569 279.315 302.697 279.043L309.585 264.667C309.681 264.475 309.817 264.323 309.993 264.211C310.185 264.083 310.385 264.019 310.593 264.019C310.737 264.019 310.873 264.043 311.001 264.091C311.129 264.139 311.241 264.211 311.337 264.307C311.433 264.403 311.513 264.531 311.577 264.691L318.537 279.235ZM306.057 275.995L306.873 274.147H314.313L315.105 275.995H306.057ZM146.323 293.091C146.659 293.331 146.843 293.555 146.875 293.763C146.923 293.971 146.843 294.219 146.635 294.507L140.995 303.075V308.715C140.995 308.923 140.971 309.115 140.923 309.291C140.875 309.451 140.771 309.571 140.611 309.651C140.467 309.747 140.235 309.795 139.915 309.795C139.595 309.795 139.355 309.747 139.195 309.651C139.051 309.571 138.947 309.443 138.883 309.267C138.835 309.091 138.811 308.891 138.811 308.667V303.051L133.147 294.555C132.955 294.267 132.883 294.019 132.931 293.811C132.979 293.587 133.171 293.355 133.507 293.115C133.747 292.955 133.947 292.859 134.107 292.827C134.283 292.779 134.443 292.803 134.587 292.899C134.731 292.979 134.867 293.131 134.995 293.355L139.891 301.035L144.811 293.355C144.955 293.131 145.091 292.979 145.219 292.899C145.363 292.819 145.523 292.795 145.699 292.827C145.875 292.843 146.083 292.931 146.323 293.091ZM155.409 309.795C155.089 309.795 154.833 309.707 154.641 309.531C154.449 309.339 154.353 309.067 154.353 308.715C154.353 308.603 154.369 308.491 154.401 308.379C154.433 308.267 154.473 308.179 154.521 308.115L163.353 295.107H155.529C155.305 295.107 155.097 295.091 154.905 295.059C154.729 295.011 154.593 294.915 154.497 294.771C154.401 294.627 154.353 294.411 154.353 294.123C154.353 293.787 154.393 293.547 154.473 293.403C154.569 293.243 154.697 293.139 154.857 293.091C155.033 293.043 155.233 293.019 155.457 293.019H165.297C165.633 293.019 165.889 293.131 166.065 293.355C166.257 293.563 166.353 293.795 166.353 294.051C166.353 294.227 166.329 294.387 166.281 294.531C166.233 294.659 166.169 294.771 166.089 294.867L157.401 307.707H165.657C165.881 307.707 166.073 307.731 166.233 307.779C166.393 307.827 166.513 307.923 166.593 308.067C166.673 308.211 166.713 308.427 166.713 308.715C166.713 309.035 166.665 309.275 166.569 309.435C166.489 309.579 166.369 309.675 166.209 309.723C166.049 309.771 165.849 309.795 165.609 309.795H155.409ZM183.83 308.235C183.958 308.475 184.022 308.683 184.022 308.859C184.038 309.019 183.99 309.171 183.878 309.315C183.766 309.443 183.59 309.563 183.35 309.675C182.966 309.851 182.662 309.891 182.438 309.795C182.23 309.699 182.038 309.467 181.862 309.099L175.862 296.331L169.91 309.075C169.734 309.443 169.534 309.675 169.31 309.771C169.102 309.867 168.798 309.827 168.398 309.651C168.158 309.555 167.982 309.435 167.87 309.291C167.774 309.147 167.734 308.971 167.75 308.763C167.782 308.555 167.862 308.315 167.99 308.043L174.878 293.667C174.974 293.475 175.11 293.323 175.286 293.211C175.478 293.083 175.678 293.019 175.886 293.019C176.03 293.019 176.166 293.043 176.294 293.091C176.422 293.139 176.534 293.211 176.63 293.307C176.726 293.403 176.806 293.531 176.87 293.691L183.83 308.235ZM171.35 304.995L172.166 303.147H179.606L180.398 304.995H171.35ZM187.24 309.771C186.92 309.771 186.68 309.723 186.52 309.627C186.376 309.547 186.28 309.427 186.232 309.267C186.184 309.091 186.16 308.891 186.16 308.667V294.099C186.16 293.683 186.24 293.403 186.4 293.259C186.576 293.099 186.88 293.019 187.312 293.019H196.96C197.184 293.019 197.368 293.043 197.512 293.091C197.672 293.139 197.792 293.243 197.872 293.403C197.952 293.563 197.992 293.803 197.992 294.123C197.992 294.443 197.944 294.683 197.848 294.843C197.768 294.987 197.648 295.083 197.488 295.131C197.328 295.179 197.136 295.203 196.912 295.203H188.32V300.171H194.296C194.52 300.171 194.704 300.195 194.848 300.243C195.008 300.291 195.128 300.387 195.208 300.531C195.288 300.675 195.328 300.899 195.328 301.203C195.328 301.491 195.288 301.707 195.208 301.851C195.128 301.995 195.008 302.091 194.848 302.139C194.704 302.171 194.512 302.187 194.272 302.187H188.32V308.691C188.32 308.915 188.296 309.107 188.248 309.267C188.2 309.427 188.096 309.547 187.936 309.627C187.792 309.723 187.56 309.771 187.24 309.771ZM202.069 309.771C201.749 309.771 201.509 309.723 201.349 309.627C201.205 309.547 201.109 309.427 201.061 309.267C201.013 309.091 200.989 308.891 200.989 308.667V294.099C200.989 293.875 201.013 293.683 201.061 293.523C201.125 293.363 201.229 293.243 201.373 293.163C201.533 293.067 201.773 293.019 202.093 293.019C202.413 293.019 202.645 293.067 202.789 293.163C202.949 293.243 203.045 293.363 203.077 293.523C203.125 293.683 203.149 293.883 203.149 294.123V308.691C203.149 308.915 203.125 309.107 203.077 309.267C203.029 309.427 202.925 309.547 202.765 309.627C202.621 309.723 202.389 309.771 202.069 309.771ZM207.56 309.771C207.256 309.771 207.024 309.723 206.864 309.627C206.704 309.547 206.6 309.427 206.552 309.267C206.52 309.091 206.504 308.891 206.504 308.667V294.075C206.504 293.867 206.528 293.691 206.576 293.547C206.64 293.387 206.744 293.259 206.888 293.163C207.048 293.067 207.28 293.019 207.584 293.019H212.888C213.672 293.019 214.384 293.139 215.024 293.379C215.68 293.603 216.248 293.939 216.728 294.387C217.208 294.835 217.576 295.403 217.832 296.091C218.104 296.763 218.24 297.547 218.24 298.443C218.24 299.003 218.152 299.587 217.976 300.195C217.8 300.787 217.528 301.347 217.16 301.875C216.808 302.403 216.352 302.843 215.792 303.195C215.232 303.547 214.552 303.747 213.752 303.795H208.664V308.691C208.664 308.915 208.632 309.107 208.568 309.267C208.52 309.427 208.416 309.547 208.256 309.627C208.112 309.723 207.88 309.771 207.56 309.771ZM217.856 309.507C217.52 309.731 217.232 309.803 216.992 309.723C216.768 309.643 216.552 309.451 216.344 309.147L212.504 303.003L214.88 302.643L218.192 307.923C218.352 308.179 218.448 308.395 218.48 308.571C218.528 308.747 218.496 308.907 218.384 309.051C218.288 309.195 218.112 309.347 217.856 309.507ZM208.664 301.683H213.416C213.784 301.683 214.128 301.619 214.448 301.491C214.768 301.347 215.048 301.139 215.288 300.867C215.528 300.595 215.72 300.259 215.864 299.859C216.008 299.459 216.08 298.979 216.08 298.419C216.08 297.731 215.952 297.147 215.696 296.667C215.456 296.187 215.096 295.827 214.616 295.587C214.136 295.331 213.544 295.203 212.84 295.203H208.664V301.683ZM228.326 309.939C227.19 309.939 226.118 309.723 225.11 309.291C224.118 308.859 223.238 308.259 222.47 307.491C221.718 306.707 221.126 305.811 220.694 304.803C220.262 303.795 220.046 302.707 220.046 301.539C220.046 300.355 220.254 299.243 220.67 298.203C221.086 297.147 221.662 296.227 222.398 295.443C223.15 294.659 224.014 294.043 224.99 293.595C225.966 293.147 227.006 292.923 228.11 292.923C229.262 292.923 230.334 293.139 231.326 293.571C232.334 294.003 233.206 294.611 233.942 295.395C234.694 296.163 235.286 297.067 235.718 298.107C236.15 299.147 236.366 300.259 236.366 301.443C236.366 302.611 236.15 303.707 235.718 304.731C235.302 305.739 234.726 306.643 233.99 307.443C233.254 308.227 232.398 308.843 231.422 309.291C230.462 309.723 229.43 309.939 228.326 309.939ZM228.182 307.755C229.014 307.755 229.79 307.595 230.51 307.275C231.246 306.955 231.886 306.507 232.43 305.931C232.974 305.339 233.398 304.667 233.702 303.915C234.022 303.147 234.182 302.315 234.182 301.419C234.182 300.555 234.022 299.747 233.702 298.995C233.398 298.227 232.966 297.555 232.406 296.979C231.862 296.387 231.23 295.923 230.51 295.587C229.79 295.251 229.022 295.083 228.206 295.083C227.39 295.083 226.622 295.251 225.902 295.587C225.182 295.923 224.542 296.379 223.982 296.955C223.438 297.531 223.006 298.203 222.686 298.971C222.382 299.739 222.23 300.563 222.23 301.443C222.23 302.307 222.382 303.123 222.686 303.891C223.006 304.659 223.438 305.331 223.982 305.907C224.542 306.483 225.174 306.939 225.878 307.275C226.598 307.595 227.366 307.755 228.182 307.755Z" fill="#007CC1"/>
<defs>
<filter id="filter0_d_39_485" x="0.5" y="0.5" width="335" height="335" filterUnits="userSpaceOnUse" color-interpolation-filters="sRGB">
<feFlood flood-opacity="0" result="BackgroundImageFix"/>
<feColorMatrix in="SourceAlpha" type="matrix" values="0 0 0 0 0 0 0 0 0 0 0 0 0 0 0 0 0 0 127 0" result="hardAlpha"/>
<feOffset dx="-17" dy="-13"/>
<feGaussianBlur stdDeviation="8.75"/>
<feComposite in2="hardAlpha" operator="out"/>
<feColorMatrix type="matrix" values="0 0 0 0 0 0 0 0 0 0 0 0 0 0 0 0 0 0 0.07 0"/>
<feBlend mode="normal" in2="BackgroundImageFix" result="effect1_dropShadow_39_485"/>
<feBlend mode="normal" in="SourceGraphic" in2="effect1_dropShadow_39_485" result="shape"/>
</filter>
</defs>
</svg>
