<svg width="336" height="336" viewBox="0 0 336 336" fill="none" xmlns="http://www.w3.org/2000/svg">
<g filter="url(#filter0_d_39_503)">
<path d="M35 199C35 119.804 35 80.2061 59.603 55.603C84.2061 31 123.804 31 203 31H255C292.712 31 311.569 31 323.284 42.7157C335 54.4315 335 73.2876 335 111V175C335 248.539 335 285.309 312.154 308.154C289.309 331 252.539 331 179 331H115C77.2876 331 58.4315 331 46.7157 319.284C35 307.569 35 288.712 35 251V199Z" fill="white"/>
</g>
<path d="M181.767 181.523C181.412 181.134 180.979 180.823 180.496 180.61C180.013 180.397 179.491 180.286 178.962 180.285H178.96C175.893 180.285 173.29 180.232 171.081 180.183C170.859 180.178 170.641 180.173 170.426 180.168C168.514 180.125 166.902 180.089 165.562 180.101C164.078 180.114 162.867 180.186 161.909 180.392C160.944 180.6 160.137 180.965 159.572 181.64C159.088 182.22 158.861 182.935 158.771 183.731C158.682 184.519 158.72 185.451 158.82 186.526C158.91 187.496 159.056 188.627 159.224 189.925C159.243 190.071 159.262 190.219 159.281 190.369C159.473 191.862 159.69 193.582 159.89 195.57L159.89 195.577C160.182 198.232 161.452 200.686 163.456 202.467C165.46 204.248 168.056 205.232 170.746 205.232C173.435 205.232 176.031 204.248 178.035 202.467C180.039 200.686 181.31 198.232 181.601 195.577L181.602 195.571C181.842 193.235 182.047 191.35 182.214 189.819L182.23 189.677C182.562 186.627 182.747 184.935 182.72 183.894C182.705 183.342 182.632 182.892 182.448 182.483C182.267 182.081 182.007 181.785 181.767 181.523ZM181.767 181.523C181.767 181.524 181.767 181.524 181.768 181.525L181.139 182.097L181.766 181.522C181.766 181.523 181.766 181.523 181.767 181.523ZM249.581 187.35L249.545 187.556L247.432 194.047C246.948 194.729 246.368 195.341 245.707 195.864L246.234 196.531L245.707 195.864C244.689 196.669 243.505 197.244 242.237 197.546C240.97 197.849 239.651 197.872 238.374 197.614C237.096 197.356 235.892 196.823 234.846 196.054L233.984 195.42L233.562 196.403C232.798 198.182 231.606 199.749 230.09 200.969C228.573 202.188 226.778 203.023 224.861 203.399C222.944 203.775 220.962 203.681 219.09 203.126C217.218 202.57 215.512 201.57 214.12 200.213L213.243 199.359L212.749 200.479C211.613 203.052 209.767 205.256 207.421 206.838C205.076 208.42 202.327 209.315 199.49 209.419C196.653 209.523 193.844 208.831 191.387 207.425C188.929 206.019 186.924 203.955 185.599 201.472L184.849 200.066L184.099 201.472C182.774 203.955 180.769 206.019 178.312 207.425C175.854 208.831 173.046 209.523 170.209 209.419C167.372 209.315 164.622 208.42 162.277 206.838C159.931 205.256 158.085 203.052 156.949 200.479L156.457 199.363L155.58 200.211C154.185 201.562 152.479 202.557 150.607 203.109C148.736 203.66 146.757 203.752 144.842 203.377C142.926 203.001 141.133 202.169 139.616 200.953C138.099 199.737 136.905 198.175 136.135 196.4L135.711 195.422L134.852 196.054C133.806 196.823 132.602 197.356 131.325 197.614C130.047 197.872 128.728 197.849 127.461 197.546C126.194 197.244 125.009 196.669 123.992 195.864C122.955 195.044 122.124 194.096 121.558 192.961L121.487 192.82L120.433 188.681C120.415 188.452 120.352 188.25 120.308 188.113C120.304 188.099 120.3 188.085 120.296 188.073C120.24 187.891 120.175 187.678 120.117 187.347C119.943 186.349 119.772 185.474 119.621 184.702L119.621 184.7C119.249 182.798 119.023 181.611 119.087 180.619C119.145 179.711 119.452 178.936 120.311 177.921C120.751 177.402 121.1 177.073 121.508 176.836C121.913 176.6 122.435 176.422 123.26 176.3C124.961 176.05 127.682 176.069 132.759 176.11L132.759 176.11C135.089 176.129 137.898 176.151 141.303 176.151H142.098C150.288 176.151 156.766 176.119 161.921 176.093C167.634 176.064 171.724 176.044 174.72 176.085C180.488 176.163 181.944 176.485 183.035 177.21C183.421 177.467 183.777 177.785 184.281 178.238L184.849 178.747L185.417 178.238L185.451 178.207C185.931 177.777 186.27 177.473 186.638 177.225C187.711 176.504 189.147 176.178 195.017 176.094C198.128 176.05 202.412 176.07 208.45 176.097C213.665 176.121 220.189 176.151 228.395 176.151C231.018 176.151 233.289 176.143 235.26 176.136L235.26 176.136C241.344 176.115 244.503 176.106 246.385 176.356C247.304 176.479 247.843 176.655 248.238 176.88C248.634 177.104 248.952 177.412 249.39 177.924C250.19 178.86 250.488 179.654 250.534 180.668C250.585 181.765 250.344 183.114 249.964 185.198L249.962 185.206C249.844 185.855 249.714 186.567 249.581 187.35ZM245.064 188.994L245.07 188.97L245.074 188.947L246.369 181.276L246.537 180.285H245.531H235.903H234.693L235.104 181.423C235.772 183.273 235.614 184.468 235.43 185.843L235.427 185.864C235.286 186.92 235.128 188.106 235.389 189.645C235.784 192.013 237.817 193.563 239.944 193.647C241.023 193.689 242.132 193.357 243.064 192.571C243.995 191.787 244.701 190.595 245.064 188.994ZM215.47 180.285H214.257L214.671 181.424C215.374 183.364 215.143 185.321 214.862 187.549L214.856 187.593C214.659 189.161 214.445 190.862 214.655 192.611L214.656 192.62C214.905 194.513 215.84 196.25 217.285 197.508C218.73 198.765 220.586 199.458 222.507 199.458C224.427 199.458 226.283 198.765 227.728 197.508C229.173 196.25 230.109 194.513 230.357 192.62L230.357 192.615C230.536 191.195 230.724 189.915 230.889 188.786C231.069 187.562 231.222 186.516 231.31 185.662C231.396 184.819 231.43 184.069 231.357 183.423C231.284 182.768 231.095 182.162 230.691 181.659C230.22 181.073 229.55 180.742 228.766 180.544C227.99 180.348 227.023 180.263 225.859 180.228C224.572 180.189 222.948 180.211 220.95 180.238C219.364 180.26 217.543 180.285 215.47 180.285ZM188.096 195.57L188.097 195.577C188.388 198.232 189.659 200.686 191.663 202.467C193.667 204.248 196.263 205.232 198.952 205.232C201.642 205.232 204.238 204.248 206.242 202.467C208.246 200.686 209.517 198.232 209.808 195.577L209.808 195.572L210.957 184.43L210.957 184.429C211.01 183.902 210.951 183.37 210.784 182.868C210.617 182.366 210.345 181.905 209.986 181.514C209.628 181.124 209.192 180.813 208.705 180.602C208.22 180.39 207.695 180.282 207.165 180.285C204.091 180.285 201.484 180.232 199.272 180.183C199.048 180.178 198.828 180.173 198.611 180.168C196.698 180.125 195.086 180.089 193.746 180.101C192.262 180.114 191.05 180.186 190.093 180.392C189.129 180.599 188.322 180.963 187.759 181.639C187.276 182.219 187.051 182.935 186.963 183.731C186.877 184.518 186.917 185.45 187.019 186.524C187.11 187.479 187.254 188.589 187.419 189.861C187.441 190.028 187.463 190.196 187.485 190.368C187.678 191.861 187.896 193.581 188.096 195.57ZM154.228 180.285H142.101C141.561 180.281 141.026 180.391 140.532 180.609C140.037 180.827 139.594 181.149 139.234 181.552C138.874 181.955 138.605 182.431 138.445 182.947L139.258 183.197L138.445 182.947C138.286 183.463 138.24 184.007 138.311 184.542L139.371 192.591C139.371 192.591 139.371 192.591 139.371 192.591C139.619 194.484 140.554 196.221 141.999 197.479C143.444 198.736 145.3 199.428 147.221 199.428C149.142 199.428 150.998 198.736 152.443 197.479C153.888 196.221 154.823 194.484 155.071 192.591L155.072 192.583L155.073 192.575C155.286 190.679 155.057 188.942 154.85 187.37L154.845 187.334C154.56 185.171 154.332 183.34 155.027 181.424L155.441 180.285H154.228ZM134.595 181.421L135.002 180.285H133.795H124.167H123.21L123.323 181.235C123.652 184.009 124.127 186.764 124.745 189.489C124.92 190.602 125.483 191.618 126.333 192.361C127.192 193.112 128.29 193.536 129.432 193.561C130.575 193.587 131.69 193.211 132.582 192.5C133.474 191.789 134.085 190.786 134.305 189.67L134.307 189.657L134.31 189.645C134.57 188.082 134.407 186.915 134.262 185.876L134.259 185.858L134.259 185.857C134.071 184.515 133.907 183.344 134.595 181.421Z" fill="#007CC1" stroke="white" stroke-width="1.7"/>
<path d="M120.036 156.444L120.072 156.238L122.185 149.747C122.669 149.065 123.249 148.453 123.911 147.93L123.383 147.263L123.911 147.93C124.928 147.125 126.113 146.55 127.38 146.248C128.647 145.945 129.966 145.922 131.244 146.18C132.521 146.438 133.725 146.971 134.771 147.74L135.633 148.374L136.055 147.391C136.82 145.612 138.011 144.045 139.528 142.825C141.044 141.606 142.839 140.771 144.756 140.395C146.674 140.019 148.655 140.113 150.527 140.668C152.399 141.224 154.105 142.224 155.497 143.581L156.374 144.435L156.868 143.315C158.004 140.742 159.85 138.538 162.196 136.956C164.541 135.374 167.291 134.479 170.128 134.375C172.965 134.272 175.773 134.963 178.231 136.369C180.688 137.775 182.693 139.839 184.018 142.322L184.768 143.728L185.518 142.322C186.843 139.839 188.848 137.775 191.306 136.369C193.763 134.963 196.572 134.272 199.409 134.375C202.246 134.479 204.995 135.374 207.34 136.956C209.686 138.538 211.532 140.742 212.668 143.315L213.161 144.431L214.037 143.583C215.432 142.232 217.139 141.237 219.01 140.686C220.881 140.134 222.86 140.042 224.776 140.417C226.691 140.793 228.485 141.625 230.001 142.841C231.518 144.057 232.713 145.619 233.482 147.394L233.906 148.372L234.765 147.74C235.811 146.971 237.015 146.438 238.293 146.18C239.57 145.922 240.889 145.945 242.156 146.248C243.424 146.55 244.608 147.125 245.626 147.93C246.663 148.75 247.493 149.698 248.06 150.833L248.13 150.974L249.184 155.113C249.202 155.342 249.265 155.544 249.309 155.681C249.313 155.695 249.317 155.709 249.321 155.721C249.378 155.903 249.443 156.116 249.5 156.447C249.674 157.445 249.845 158.32 249.996 159.092L249.997 159.095C250.368 160.996 250.594 162.183 250.53 163.175C250.472 164.083 250.165 164.858 249.306 165.873C248.866 166.392 248.517 166.721 248.11 166.958C247.704 167.194 247.182 167.372 246.357 167.494C244.656 167.744 241.935 167.725 236.858 167.684L236.858 167.684C234.528 167.665 231.719 167.643 228.314 167.643L227.519 167.643C219.329 167.643 212.852 167.675 207.696 167.701C201.983 167.73 197.894 167.75 194.897 167.71C189.129 167.631 187.673 167.309 186.582 166.584C186.196 166.327 185.84 166.009 185.336 165.556L184.768 165.047L184.201 165.556L184.166 165.587C183.686 166.017 183.347 166.321 182.979 166.569C181.906 167.29 180.471 167.617 174.6 167.7C171.489 167.744 167.205 167.725 161.167 167.697C155.952 167.673 149.429 167.643 141.222 167.643C138.6 167.643 136.329 167.651 134.357 167.658L134.357 167.658C128.273 167.679 125.114 167.688 123.232 167.438C122.313 167.315 121.775 167.139 121.379 166.914C120.984 166.69 120.665 166.382 120.227 165.87C119.427 164.934 119.129 164.14 119.083 163.126C119.033 162.029 119.273 160.68 119.653 158.596L119.655 158.588C119.773 157.939 119.903 157.227 120.036 156.444ZM124.553 154.8L124.547 154.824L124.543 154.847L123.248 162.518L123.081 163.51L124.086 163.51L133.714 163.51L134.925 163.51L134.513 162.371C133.845 160.521 134.003 159.326 134.187 157.951L134.19 157.93C134.331 156.874 134.489 155.688 134.228 154.149C133.833 151.781 131.8 150.231 129.673 150.147C128.595 150.105 127.486 150.437 126.553 151.223C125.623 152.007 124.916 153.199 124.553 154.8ZM154.147 163.51L155.36 163.51L154.946 162.37C154.243 160.43 154.475 158.473 154.755 156.245L154.761 156.201C154.958 154.634 155.173 152.932 154.962 151.183L154.961 151.174C154.712 149.281 153.777 147.544 152.332 146.286C150.887 145.029 149.031 144.336 147.111 144.336C145.19 144.336 143.334 145.029 141.889 146.286C140.444 147.544 139.509 149.281 139.26 151.174L139.26 151.179C139.081 152.599 138.893 153.879 138.728 155.008C138.548 156.232 138.395 157.278 138.308 158.132C138.222 158.976 138.187 159.725 138.26 160.371C138.333 161.026 138.522 161.632 138.926 162.135C139.397 162.721 140.067 163.052 140.852 163.25C141.627 163.446 142.595 163.531 143.758 163.566C145.045 163.605 146.67 163.583 148.668 163.556C150.253 163.534 152.074 163.51 154.147 163.51ZM181.521 148.225L181.52 148.217C181.229 145.562 179.959 143.108 177.954 141.327C175.95 139.546 173.354 138.562 170.665 138.562C167.975 138.562 165.379 139.546 163.375 141.327C161.371 143.108 160.101 145.562 159.809 148.217L159.809 148.222L158.661 159.364L158.66 159.365C158.607 159.892 158.666 160.424 158.833 160.926C159.001 161.428 159.272 161.889 159.631 162.28C159.989 162.67 160.426 162.981 160.912 163.193C161.398 163.404 161.922 163.512 162.452 163.51C165.526 163.51 168.133 163.562 170.345 163.611C170.569 163.616 170.79 163.621 171.006 163.626C172.919 163.669 174.531 163.705 175.871 163.693C177.355 163.68 178.567 163.608 179.524 163.402C180.489 163.195 181.295 162.831 181.858 162.155C182.342 161.575 182.566 160.859 182.654 160.063C182.741 159.276 182.7 158.344 182.598 157.27C182.507 156.315 182.363 155.205 182.198 153.933C182.176 153.766 182.154 153.598 182.132 153.426C181.939 151.933 181.721 150.213 181.521 148.225ZM190.655 163.51L190.657 163.51C193.724 163.51 196.328 163.562 198.536 163.611C198.758 163.616 198.976 163.621 199.191 163.626C201.103 163.669 202.715 163.705 204.056 163.693C205.539 163.68 206.75 163.608 207.708 163.402C208.673 163.194 209.481 162.829 210.045 162.154C210.53 161.575 210.756 160.859 210.846 160.063C210.935 159.275 210.897 158.343 210.797 157.268C210.707 156.298 210.561 155.167 210.393 153.869C210.375 153.723 210.356 153.575 210.336 153.425C210.144 151.932 209.928 150.212 209.728 148.225L209.727 148.217C209.436 145.562 208.165 143.108 206.161 141.327C204.157 139.546 201.561 138.562 198.871 138.562C196.182 138.562 193.586 139.546 191.582 141.327C189.578 143.108 188.307 145.562 188.016 148.217L188.015 148.223C187.775 150.559 187.57 152.444 187.403 153.975L187.387 154.118C187.055 157.167 186.87 158.859 186.897 159.9C186.912 160.452 186.985 160.902 187.169 161.311C187.35 161.713 187.61 162.009 187.851 162.271C188.206 162.66 188.639 162.971 189.121 163.184C189.604 163.398 190.126 163.508 190.655 163.51ZM215.389 163.51L227.516 163.51C228.056 163.514 228.591 163.403 229.085 163.185C229.58 162.967 230.023 162.645 230.383 162.242C230.743 161.839 231.012 161.363 231.172 160.848L230.406 160.611L231.172 160.848C231.331 160.332 231.377 159.787 231.306 159.252L230.246 151.203C230.246 151.203 230.246 151.203 230.246 151.203C229.998 149.31 229.063 147.573 227.618 146.315C226.173 145.058 224.317 144.366 222.396 144.366C220.476 144.366 218.619 145.058 217.175 146.315C215.729 147.573 214.794 149.31 214.546 151.203L214.545 151.211L214.544 151.219C214.331 153.115 214.56 154.852 214.768 156.424L214.772 156.46C215.058 158.623 215.285 160.454 214.59 162.37L214.176 163.51L215.389 163.51ZM235.022 162.373L234.615 163.51L235.822 163.51L245.45 163.51L246.407 163.51L246.294 162.559C245.965 159.785 245.491 157.03 244.872 154.305C244.697 153.192 244.135 152.176 243.284 151.433C242.425 150.682 241.327 150.258 240.185 150.233C239.042 150.207 237.927 150.583 237.035 151.294L237.565 151.959L237.035 151.294C236.143 152.005 235.532 153.008 235.312 154.125L235.31 154.137L235.308 154.149C235.047 155.712 235.21 156.88 235.356 157.918L235.358 157.936L235.358 157.937C235.546 159.279 235.71 160.45 235.022 162.373Z" fill="#007CC1" stroke="white" stroke-width="1.7"/>
<rect x="69.6738" y="108.531" width="230.653" height="127.319" stroke="white" stroke-width="2"/>
<path d="M102.951 280.819C102.087 280.819 101.247 280.691 100.431 280.435C99.6154 280.179 98.8554 279.811 98.1514 279.331C97.4474 278.851 96.8234 278.259 96.2794 277.555C95.7514 276.835 95.3354 276.035 95.0314 275.155C94.7274 274.259 94.5754 273.275 94.5754 272.203C94.5754 271.179 94.7274 270.235 95.0314 269.371C95.3354 268.491 95.7514 267.715 96.2794 267.043C96.8074 266.371 97.4234 265.803 98.1274 265.339C98.8474 264.859 99.6154 264.499 100.431 264.259C101.263 264.003 102.111 263.875 102.975 263.875C103.775 263.875 104.463 263.955 105.039 264.115C105.615 264.275 106.087 264.451 106.455 264.643C106.823 264.819 107.071 264.955 107.199 265.051C107.423 265.179 107.639 265.331 107.847 265.507C108.055 265.683 108.167 265.891 108.183 266.131C108.215 266.307 108.199 266.451 108.135 266.563C108.087 266.675 108.023 266.795 107.943 266.923C107.815 267.115 107.679 267.259 107.535 267.355C107.407 267.435 107.263 267.475 107.103 267.475C106.943 267.475 106.799 267.427 106.671 267.331C106.543 267.235 106.375 267.123 106.167 266.995C106.071 266.931 105.879 266.827 105.591 266.683C105.303 266.539 104.935 266.403 104.487 266.275C104.039 266.131 103.495 266.059 102.855 266.059C102.039 266.059 101.255 266.211 100.503 266.515C99.7674 266.803 99.1194 267.219 98.5594 267.763C97.9994 268.307 97.5594 268.963 97.2394 269.731C96.9194 270.499 96.7594 271.363 96.7594 272.323C96.7594 273.299 96.9194 274.179 97.2394 274.963C97.5594 275.731 97.9994 276.387 98.5594 276.931C99.1354 277.475 99.7914 277.891 100.527 278.179C101.263 278.467 102.039 278.611 102.855 278.611C103.463 278.611 103.991 278.547 104.439 278.419C104.903 278.291 105.279 278.155 105.567 278.011C105.871 277.851 106.079 277.731 106.191 277.651C106.367 277.555 106.519 277.459 106.647 277.363C106.791 277.267 106.943 277.219 107.103 277.219C107.263 277.219 107.407 277.267 107.535 277.363C107.679 277.443 107.815 277.579 107.943 277.771C108.023 277.883 108.087 278.011 108.135 278.155C108.199 278.283 108.215 278.427 108.183 278.587C108.167 278.827 108.055 279.035 107.847 279.211C107.639 279.371 107.423 279.523 107.199 279.667C107.055 279.731 106.799 279.867 106.431 280.075C106.079 280.267 105.615 280.435 105.039 280.579C104.463 280.739 103.767 280.819 102.951 280.819ZM118.287 280.939C117.151 280.939 116.079 280.723 115.071 280.291C114.079 279.859 113.199 279.259 112.431 278.491C111.679 277.707 111.087 276.811 110.655 275.803C110.223 274.795 110.007 273.707 110.007 272.539C110.007 271.355 110.215 270.243 110.631 269.203C111.047 268.147 111.623 267.227 112.359 266.443C113.111 265.659 113.975 265.043 114.951 264.595C115.927 264.147 116.967 263.923 118.071 263.923C119.223 263.923 120.295 264.139 121.287 264.571C122.295 265.003 123.167 265.611 123.903 266.395C124.655 267.163 125.247 268.067 125.679 269.107C126.111 270.147 126.327 271.259 126.327 272.443C126.327 273.611 126.111 274.707 125.679 275.731C125.263 276.739 124.687 277.643 123.951 278.443C123.215 279.227 122.359 279.843 121.383 280.291C120.423 280.723 119.391 280.939 118.287 280.939ZM118.143 278.755C118.975 278.755 119.751 278.595 120.471 278.275C121.207 277.955 121.847 277.507 122.391 276.931C122.935 276.339 123.359 275.667 123.663 274.915C123.983 274.147 124.143 273.315 124.143 272.419C124.143 271.555 123.983 270.747 123.663 269.995C123.359 269.227 122.927 268.555 122.367 267.979C121.823 267.387 121.191 266.923 120.471 266.587C119.751 266.251 118.983 266.083 118.167 266.083C117.351 266.083 116.583 266.251 115.863 266.587C115.143 266.923 114.503 267.379 113.943 267.955C113.399 268.531 112.967 269.203 112.647 269.971C112.343 270.739 112.191 271.563 112.191 272.443C112.191 273.307 112.343 274.123 112.647 274.891C112.967 275.659 113.399 276.331 113.943 276.907C114.503 277.483 115.135 277.939 115.839 278.275C116.559 278.595 117.327 278.755 118.143 278.755ZM129.553 280.771C129.281 280.771 129.065 280.723 128.905 280.627C128.761 280.531 128.657 280.403 128.593 280.243C128.545 280.067 128.521 279.867 128.521 279.643V265.027C128.521 264.819 128.553 264.643 128.617 264.499C128.681 264.355 128.793 264.243 128.953 264.163C129.129 264.067 129.369 264.019 129.673 264.019C130.025 264.019 130.273 264.051 130.417 264.115C130.561 264.179 130.705 264.291 130.849 264.451L139.873 277.219V265.027C139.873 264.819 139.897 264.643 139.945 264.499C140.009 264.355 140.121 264.243 140.281 264.163C140.441 264.067 140.673 264.019 140.977 264.019C141.265 264.019 141.481 264.067 141.625 264.163C141.785 264.259 141.889 264.395 141.937 264.571C142.001 264.731 142.033 264.915 142.033 265.123V279.667C142.033 279.875 141.993 280.067 141.913 280.243C141.849 280.403 141.729 280.531 141.553 280.627C141.393 280.723 141.161 280.771 140.857 280.771C140.601 280.771 140.385 280.739 140.209 280.675C140.049 280.611 139.897 280.491 139.753 280.315L130.681 267.643V279.667C130.681 279.875 130.649 280.067 130.585 280.243C130.521 280.403 130.409 280.531 130.249 280.627C130.089 280.723 129.857 280.771 129.553 280.771ZM158.042 264.019C158.25 264.019 158.418 264.043 158.546 264.091C158.69 264.139 158.802 264.235 158.882 264.379C158.962 264.507 159.002 264.723 159.002 265.027C159.002 265.315 158.954 265.531 158.858 265.675C158.778 265.819 158.666 265.915 158.522 265.963C158.378 265.995 158.202 266.011 157.994 266.011H153.026V279.715C153.026 279.923 152.994 280.107 152.93 280.267C152.882 280.427 152.778 280.547 152.618 280.627C152.474 280.723 152.25 280.771 151.946 280.771C151.626 280.771 151.386 280.723 151.226 280.627C151.082 280.547 150.986 280.427 150.938 280.267C150.906 280.091 150.89 279.899 150.89 279.691V266.011H145.85C145.642 266.011 145.466 265.995 145.322 265.963C145.178 265.915 145.066 265.819 144.986 265.675C144.906 265.531 144.866 265.315 144.866 265.027C144.866 264.723 144.898 264.507 144.962 264.379C145.042 264.235 145.154 264.139 145.298 264.091C145.458 264.043 145.634 264.019 145.826 264.019H158.042ZM162.795 280.771C162.475 280.771 162.235 280.723 162.075 280.627C161.931 280.547 161.835 280.427 161.787 280.267C161.739 280.091 161.715 279.891 161.715 279.667V265.099C161.715 264.683 161.795 264.403 161.955 264.259C162.131 264.099 162.435 264.019 162.867 264.019H172.515C172.739 264.019 172.931 264.043 173.091 264.091C173.251 264.139 173.371 264.243 173.451 264.403C173.531 264.563 173.571 264.803 173.571 265.123C173.571 265.443 173.523 265.683 173.427 265.843C173.347 265.987 173.227 266.083 173.067 266.131C172.907 266.179 172.715 266.203 172.491 266.203H163.875V271.171H169.875C170.099 271.171 170.283 271.195 170.427 271.243C170.587 271.291 170.707 271.387 170.787 271.531C170.867 271.675 170.907 271.899 170.907 272.203C170.907 272.491 170.867 272.707 170.787 272.851C170.707 272.995 170.587 273.091 170.427 273.139C170.267 273.171 170.067 273.187 169.827 273.187H163.875V278.611H172.515C172.739 278.611 172.931 278.635 173.091 278.683C173.251 278.731 173.371 278.835 173.451 278.995C173.531 279.139 173.571 279.371 173.571 279.691C173.571 280.011 173.523 280.251 173.427 280.411C173.347 280.555 173.227 280.651 173.067 280.699C172.907 280.747 172.715 280.771 172.491 280.771H162.795ZM177.436 280.771C177.164 280.771 176.948 280.723 176.788 280.627C176.644 280.531 176.54 280.403 176.476 280.243C176.428 280.067 176.404 279.867 176.404 279.643V265.027C176.404 264.819 176.436 264.643 176.5 264.499C176.564 264.355 176.676 264.243 176.836 264.163C177.012 264.067 177.252 264.019 177.556 264.019C177.908 264.019 178.156 264.051 178.3 264.115C178.444 264.179 178.588 264.291 178.732 264.451L187.756 277.219V265.027C187.756 264.819 187.78 264.643 187.828 264.499C187.892 264.355 188.004 264.243 188.164 264.163C188.324 264.067 188.556 264.019 188.86 264.019C189.148 264.019 189.364 264.067 189.508 264.163C189.668 264.259 189.772 264.395 189.82 264.571C189.884 264.731 189.916 264.915 189.916 265.123V279.667C189.916 279.875 189.876 280.067 189.796 280.243C189.732 280.403 189.612 280.531 189.436 280.627C189.276 280.723 189.044 280.771 188.74 280.771C188.484 280.771 188.268 280.739 188.092 280.675C187.932 280.611 187.78 280.491 187.636 280.315L178.564 267.643V279.667C178.564 279.875 178.532 280.067 178.468 280.243C178.404 280.403 178.292 280.531 178.132 280.627C177.972 280.723 177.74 280.771 177.436 280.771ZM201.412 280.819C200.548 280.819 199.708 280.691 198.892 280.435C198.076 280.179 197.316 279.811 196.612 279.331C195.908 278.851 195.284 278.259 194.74 277.555C194.212 276.835 193.796 276.035 193.492 275.155C193.188 274.259 193.036 273.275 193.036 272.203C193.036 271.179 193.188 270.235 193.492 269.371C193.796 268.491 194.212 267.715 194.74 267.043C195.268 266.371 195.884 265.803 196.588 265.339C197.308 264.859 198.076 264.499 198.892 264.259C199.724 264.003 200.572 263.875 201.436 263.875C202.236 263.875 202.924 263.955 203.5 264.115C204.076 264.275 204.548 264.451 204.916 264.643C205.284 264.819 205.532 264.955 205.66 265.051C205.884 265.179 206.1 265.331 206.308 265.507C206.516 265.683 206.628 265.891 206.644 266.131C206.676 266.307 206.66 266.451 206.596 266.563C206.548 266.675 206.484 266.795 206.404 266.923C206.276 267.115 206.14 267.259 205.996 267.355C205.868 267.435 205.724 267.475 205.564 267.475C205.404 267.475 205.26 267.427 205.132 267.331C205.004 267.235 204.836 267.123 204.628 266.995C204.532 266.931 204.34 266.827 204.052 266.683C203.764 266.539 203.396 266.403 202.948 266.275C202.5 266.131 201.956 266.059 201.316 266.059C200.5 266.059 199.716 266.211 198.964 266.515C198.228 266.803 197.58 267.219 197.02 267.763C196.46 268.307 196.02 268.963 195.7 269.731C195.38 270.499 195.22 271.363 195.22 272.323C195.22 273.299 195.38 274.179 195.7 274.963C196.02 275.731 196.46 276.387 197.02 276.931C197.596 277.475 198.252 277.891 198.988 278.179C199.724 278.467 200.5 278.611 201.316 278.611C201.924 278.611 202.452 278.547 202.9 278.419C203.364 278.291 203.74 278.155 204.028 278.011C204.332 277.851 204.54 277.731 204.652 277.651C204.828 277.555 204.98 277.459 205.108 277.363C205.252 277.267 205.404 277.219 205.564 277.219C205.724 277.219 205.868 277.267 205.996 277.363C206.14 277.443 206.276 277.579 206.404 277.771C206.484 277.883 206.548 278.011 206.596 278.155C206.66 278.283 206.676 278.427 206.644 278.587C206.628 278.827 206.516 279.035 206.308 279.211C206.1 279.371 205.884 279.523 205.66 279.667C205.516 279.731 205.26 279.867 204.892 280.075C204.54 280.267 204.076 280.435 203.5 280.579C202.924 280.739 202.228 280.819 201.412 280.819ZM210.436 280.771C210.116 280.771 209.876 280.723 209.716 280.627C209.572 280.547 209.476 280.427 209.428 280.267C209.38 280.091 209.356 279.891 209.356 279.667V265.099C209.356 264.875 209.38 264.683 209.428 264.523C209.492 264.363 209.596 264.243 209.74 264.163C209.9 264.067 210.14 264.019 210.46 264.019C210.78 264.019 211.012 264.067 211.156 264.163C211.316 264.243 211.412 264.363 211.444 264.523C211.492 264.683 211.516 264.883 211.516 265.123V279.691C211.516 279.915 211.492 280.107 211.444 280.267C211.396 280.427 211.292 280.547 211.132 280.627C210.988 280.723 210.756 280.771 210.436 280.771ZM221.951 280.939C220.815 280.939 219.743 280.723 218.735 280.291C217.743 279.859 216.863 279.259 216.095 278.491C215.343 277.707 214.751 276.811 214.319 275.803C213.887 274.795 213.671 273.707 213.671 272.539C213.671 271.355 213.879 270.243 214.295 269.203C214.711 268.147 215.287 267.227 216.023 266.443C216.775 265.659 217.639 265.043 218.615 264.595C219.591 264.147 220.631 263.923 221.735 263.923C222.887 263.923 223.959 264.139 224.951 264.571C225.959 265.003 226.831 265.611 227.567 266.395C228.319 267.163 228.911 268.067 229.343 269.107C229.775 270.147 229.991 271.259 229.991 272.443C229.991 273.611 229.775 274.707 229.343 275.731C228.927 276.739 228.351 277.643 227.615 278.443C226.879 279.227 226.023 279.843 225.047 280.291C224.087 280.723 223.055 280.939 221.951 280.939ZM221.807 278.755C222.639 278.755 223.415 278.595 224.135 278.275C224.871 277.955 225.511 277.507 226.055 276.931C226.599 276.339 227.023 275.667 227.327 274.915C227.647 274.147 227.807 273.315 227.807 272.419C227.807 271.555 227.647 270.747 227.327 269.995C227.023 269.227 226.591 268.555 226.031 267.979C225.487 267.387 224.855 266.923 224.135 266.587C223.415 266.251 222.647 266.083 221.831 266.083C221.015 266.083 220.247 266.251 219.527 266.587C218.807 266.923 218.167 267.379 217.607 267.955C217.063 268.531 216.631 269.203 216.311 269.971C216.007 270.739 215.855 271.563 215.855 272.443C215.855 273.307 216.007 274.123 216.311 274.891C216.631 275.659 217.063 276.331 217.607 276.907C218.167 277.483 218.799 277.939 219.503 278.275C220.223 278.595 220.991 278.755 221.807 278.755ZM233.217 280.771C232.945 280.771 232.729 280.723 232.569 280.627C232.425 280.531 232.321 280.403 232.257 280.243C232.209 280.067 232.185 279.867 232.185 279.643V265.027C232.185 264.819 232.217 264.643 232.281 264.499C232.345 264.355 232.457 264.243 232.617 264.163C232.793 264.067 233.033 264.019 233.337 264.019C233.689 264.019 233.937 264.051 234.081 264.115C234.225 264.179 234.369 264.291 234.513 264.451L243.537 277.219V265.027C243.537 264.819 243.561 264.643 243.609 264.499C243.673 264.355 243.785 264.243 243.945 264.163C244.105 264.067 244.337 264.019 244.641 264.019C244.929 264.019 245.145 264.067 245.289 264.163C245.449 264.259 245.553 264.395 245.601 264.571C245.665 264.731 245.697 264.915 245.697 265.123V279.667C245.697 279.875 245.657 280.067 245.577 280.243C245.513 280.403 245.393 280.531 245.217 280.627C245.057 280.723 244.825 280.771 244.521 280.771C244.265 280.771 244.049 280.739 243.873 280.675C243.713 280.611 243.561 280.491 243.417 280.315L234.345 267.643V279.667C234.345 279.875 234.313 280.067 234.249 280.243C234.185 280.403 234.073 280.531 233.913 280.627C233.753 280.723 233.521 280.771 233.217 280.771ZM250.522 280.771C250.202 280.771 249.962 280.723 249.802 280.627C249.658 280.547 249.562 280.427 249.514 280.267C249.466 280.091 249.442 279.891 249.442 279.667V265.099C249.442 264.683 249.522 264.403 249.682 264.259C249.858 264.099 250.162 264.019 250.594 264.019H260.242C260.466 264.019 260.658 264.043 260.818 264.091C260.978 264.139 261.098 264.243 261.178 264.403C261.258 264.563 261.298 264.803 261.298 265.123C261.298 265.443 261.25 265.683 261.154 265.843C261.074 265.987 260.954 266.083 260.794 266.131C260.634 266.179 260.442 266.203 260.218 266.203H251.602V271.171H257.602C257.826 271.171 258.01 271.195 258.154 271.243C258.314 271.291 258.434 271.387 258.514 271.531C258.594 271.675 258.634 271.899 258.634 272.203C258.634 272.491 258.594 272.707 258.514 272.851C258.434 272.995 258.314 273.091 258.154 273.139C257.994 273.171 257.794 273.187 257.554 273.187H251.602V278.611H260.242C260.466 278.611 260.658 278.635 260.818 278.683C260.978 278.731 261.098 278.835 261.178 278.995C261.258 279.139 261.298 279.371 261.298 279.691C261.298 280.011 261.25 280.251 261.154 280.411C261.074 280.555 260.954 280.651 260.794 280.699C260.634 280.747 260.442 280.771 260.218 280.771H250.522ZM269.075 281.011C268.467 281.011 267.891 280.939 267.347 280.795C266.819 280.651 266.331 280.459 265.883 280.219C265.451 279.963 265.067 279.683 264.731 279.379C264.395 279.075 264.131 278.771 263.939 278.467C263.763 278.211 263.651 278.003 263.603 277.843C263.555 277.667 263.563 277.499 263.627 277.339C263.707 277.179 263.859 277.003 264.083 276.811C264.339 276.619 264.563 276.531 264.755 276.547C264.947 276.547 265.123 276.619 265.283 276.763C265.459 276.907 265.635 277.099 265.811 277.339C266.211 277.883 266.699 278.283 267.275 278.539C267.851 278.779 268.419 278.899 268.979 278.899C269.699 278.899 270.339 278.803 270.899 278.611C271.459 278.419 271.899 278.131 272.219 277.747C272.555 277.347 272.723 276.835 272.723 276.211C272.723 275.699 272.595 275.267 272.339 274.915C272.083 274.563 271.739 274.267 271.307 274.027C270.875 273.771 270.395 273.555 269.867 273.379C269.339 273.187 268.803 273.003 268.259 272.827C267.827 272.683 267.403 272.523 266.987 272.347C266.571 272.155 266.179 271.947 265.811 271.723C265.443 271.483 265.115 271.203 264.827 270.883C264.555 270.563 264.339 270.187 264.179 269.755C264.035 269.323 263.963 268.819 263.963 268.243C263.963 267.363 264.171 266.587 264.587 265.915C265.019 265.243 265.619 264.723 266.387 264.355C267.155 263.971 268.043 263.779 269.051 263.779C269.643 263.779 270.187 263.835 270.683 263.947C271.179 264.059 271.619 264.211 272.003 264.403C272.387 264.579 272.715 264.771 272.987 264.979C273.259 265.171 273.467 265.355 273.611 265.531C273.899 265.835 274.059 266.091 274.091 266.299C274.123 266.507 274.003 266.763 273.731 267.067C273.475 267.355 273.227 267.507 272.987 267.523C272.747 267.539 272.483 267.427 272.195 267.187C271.891 266.835 271.571 266.563 271.235 266.371C270.915 266.179 270.571 266.051 270.203 265.987C269.851 265.907 269.459 265.867 269.027 265.867C268.611 265.867 268.219 265.923 267.851 266.035C267.499 266.131 267.187 266.283 266.915 266.491C266.659 266.699 266.459 266.955 266.315 267.259C266.171 267.547 266.099 267.883 266.099 268.267C266.099 268.699 266.211 269.067 266.435 269.371C266.675 269.675 266.987 269.939 267.371 270.163C267.755 270.371 268.187 270.563 268.667 270.739C269.147 270.899 269.651 271.059 270.179 271.219C270.755 271.395 271.323 271.611 271.883 271.867C272.443 272.107 272.947 272.411 273.395 272.779C273.843 273.131 274.203 273.579 274.475 274.123C274.747 274.667 274.883 275.339 274.883 276.139C274.883 276.939 274.723 277.643 274.403 278.251C274.099 278.859 273.675 279.371 273.131 279.787C272.587 280.187 271.963 280.491 271.259 280.699C270.571 280.907 269.843 281.011 269.075 281.011Z" fill="#007CC1"/>
<defs>
<filter id="filter0_d_39_503" x="0.5" y="0.5" width="335" height="335" filterUnits="userSpaceOnUse" color-interpolation-filters="sRGB">
<feFlood flood-opacity="0" result="BackgroundImageFix"/>
<feColorMatrix in="SourceAlpha" type="matrix" values="0 0 0 0 0 0 0 0 0 0 0 0 0 0 0 0 0 0 127 0" result="hardAlpha"/>
<feOffset dx="-17" dy="-13"/>
<feGaussianBlur stdDeviation="8.75"/>
<feComposite in2="hardAlpha" operator="out"/>
<feColorMatrix type="matrix" values="0 0 0 0 0 0 0 0 0 0 0 0 0 0 0 0 0 0 0.07 0"/>
<feBlend mode="normal" in2="BackgroundImageFix" result="effect1_dropShadow_39_503"/>
<feBlend mode="normal" in="SourceGraphic" in2="effect1_dropShadow_39_503" result="shape"/>
</filter>
</defs>
</svg>
