<svg width="335" height="335" viewBox="0 0 335 335" fill="none" xmlns="http://www.w3.org/2000/svg">
<g filter="url(#filter0_d_39_660)">
<path d="M35 199C35 119.804 35 80.2061 59.603 55.603C84.2061 31 123.804 31 203 31H254C291.712 31 310.569 31 322.284 42.7157C334 54.4315 334 73.2876 334 111V174C334 247.539 334 284.309 311.154 307.154C288.309 330 251.539 330 178 330H115C77.2876 330 58.4315 330 46.7157 318.284C35 306.569 35 287.712 35 250V199Z" fill="white"/>
</g>
<rect x="69.5615" y="108.275" width="229.878" height="126.888" stroke="white" stroke-width="2"/>
<mask id="path-3-outside-1_39_660" maskUnits="userSpaceOnUse" x="124.982" y="112.503" width="119" height="119" fill="black">
<rect fill="white" x="124.982" y="112.503" width="119" height="119"/>
<path d="M240.036 171.793L230.381 169.034C229.432 168.754 228.573 168.231 227.888 167.518C229.572 163.205 230.252 158.566 229.876 153.952C229.5 149.338 228.078 144.87 225.717 140.887C223.356 136.905 220.119 133.512 216.252 130.967C212.384 128.422 207.988 126.791 203.396 126.198C198.964 125.62 194.459 126.028 190.203 127.394C186.294 128.638 182.096 128.638 178.187 127.394C173.95 126.035 169.465 125.625 165.051 126.194C161.64 126.632 158.329 127.654 155.265 129.217C154.77 128.691 154.382 128.075 154.121 127.402L149.747 115.744C149.611 115.379 149.367 115.065 149.048 114.843C148.728 114.622 148.349 114.503 147.96 114.503C147.571 114.503 147.191 114.622 146.872 114.843C146.553 115.065 146.309 115.379 146.173 115.744L141.801 127.4C141.486 128.236 140.98 128.988 140.323 129.594C139.666 130.2 138.876 130.645 138.017 130.892L128.362 133.651C127.965 133.766 127.615 134.006 127.366 134.337C127.117 134.668 126.982 135.07 126.982 135.484C126.982 135.898 127.117 136.3 127.366 136.631C127.615 136.962 127.965 137.202 128.362 137.317L138.017 140.076C138.779 140.302 139.486 140.684 140.093 141.198C140.7 141.711 141.192 142.346 141.54 143.061C139.968 146.229 138.971 149.652 138.597 153.169C137.763 160.87 139.895 168.599 144.557 174.786C148.097 179.63 150.418 185.256 151.323 191.187L156.234 219.835C156.672 222.382 157.995 224.692 159.972 226.357C161.948 228.022 164.449 228.936 167.033 228.936C169.617 228.936 172.119 228.022 174.095 226.357C176.071 224.692 177.395 222.382 177.832 219.835L182.576 192.165C182.643 191.784 182.842 191.438 183.139 191.189C183.435 190.94 183.81 190.804 184.197 190.804C184.584 190.804 184.959 190.94 185.256 191.189C185.552 191.438 185.751 191.784 185.818 192.165L190.562 219.835C191.001 222.381 192.325 224.689 194.301 226.353C196.276 228.018 198.777 228.93 201.36 228.93C203.943 228.93 206.444 228.018 208.419 226.353C210.395 224.689 211.719 222.381 212.158 219.835L217.077 191.171C217.152 190.735 217.258 190.315 217.346 189.884L218.651 193.366C218.787 193.731 219.031 194.045 219.35 194.267C219.67 194.488 220.049 194.607 220.438 194.607C220.827 194.607 221.206 194.488 221.526 194.267C221.845 194.045 222.089 193.731 222.225 193.366L226.597 181.71C226.912 180.874 227.418 180.122 228.075 179.516C228.732 178.91 229.522 178.465 230.381 178.218L240.036 175.459C240.433 175.344 240.783 175.104 241.032 174.773C241.281 174.442 241.416 174.04 241.416 173.626C241.416 173.212 241.281 172.81 241.032 172.479C240.783 172.148 240.433 171.908 240.036 171.793ZM139.064 136.409L135.829 135.484L139.072 134.559C140.504 134.147 141.821 133.406 142.917 132.396C144.012 131.385 144.857 130.133 145.383 128.739L147.96 121.844L150.544 128.739C151.071 130.133 151.915 131.385 153.011 132.396C154.107 133.406 155.423 134.147 156.856 134.559L160.098 135.484L156.856 136.409C155.423 136.821 154.107 137.562 153.011 138.572C151.915 139.583 151.071 140.835 150.544 142.229L147.96 149.124L145.376 142.229C144.849 140.835 144.005 139.583 142.909 138.572C141.813 137.562 140.497 136.821 139.064 136.409ZM215.014 183.682C214.278 185.918 213.71 188.206 213.316 190.527L208.401 219.194C208.115 220.853 207.252 222.357 205.964 223.442C204.677 224.526 203.047 225.121 201.364 225.121C199.68 225.121 198.051 224.526 196.764 223.442C195.476 222.357 194.613 220.853 194.327 219.194L189.583 191.515C189.366 190.244 188.706 189.091 187.721 188.26C186.736 187.429 185.488 186.974 184.199 186.974C182.91 186.974 181.662 187.429 180.677 188.26C179.692 189.091 179.032 190.244 178.815 191.515L174.071 219.185C173.786 220.845 172.923 222.35 171.636 223.436C170.348 224.521 168.717 225.117 167.033 225.117C165.349 225.117 163.719 224.521 162.431 223.436C161.143 222.35 160.28 220.845 159.995 219.185L155.084 190.536C154.076 184.008 151.509 177.818 147.601 172.491C143.523 167.075 141.66 160.309 142.391 153.569C142.588 151.753 142.977 149.963 143.552 148.229L146.173 155.221C146.309 155.585 146.553 155.899 146.872 156.121C147.191 156.343 147.571 156.461 147.96 156.461C148.349 156.461 148.728 156.343 149.048 156.121C149.367 155.899 149.611 155.585 149.747 155.221L154.119 143.564C154.434 142.728 154.94 141.977 155.597 141.37C156.254 140.764 157.044 140.32 157.903 140.072L167.558 137.313C167.955 137.198 168.305 136.958 168.554 136.627C168.803 136.297 168.937 135.894 168.937 135.48C168.937 135.066 168.803 134.664 168.554 134.333C168.305 134.003 167.955 133.762 167.558 133.647L159.738 131.414C161.605 130.714 163.547 130.23 165.524 129.972C169.387 129.475 173.311 129.833 177.02 131.021C181.685 132.503 186.695 132.503 191.361 131.021C195.086 129.829 199.029 129.473 202.908 129.98C208.758 130.771 214.186 133.466 218.352 137.649C222.518 141.832 225.191 147.27 225.958 153.123C226.334 156.253 226.164 159.426 225.454 162.498L222.225 153.886C222.089 153.521 221.845 153.207 221.526 152.985C221.206 152.764 220.827 152.645 220.438 152.645C220.049 152.645 219.67 152.764 219.35 152.985C219.031 153.207 218.787 153.521 218.651 153.886L214.279 165.542C213.964 166.378 213.458 167.13 212.801 167.736C212.144 168.342 211.354 168.787 210.495 169.034L200.84 171.793C200.443 171.908 200.093 172.148 199.844 172.479C199.595 172.81 199.46 173.212 199.46 173.626C199.46 174.04 199.595 174.442 199.844 174.773C200.093 175.104 200.443 175.344 200.84 175.459L210.495 178.218C211.354 178.465 212.144 178.91 212.801 179.516C213.458 180.122 213.964 180.874 214.279 181.71L215.021 183.684L215.014 183.682ZM229.334 174.551C227.901 174.963 226.585 175.704 225.489 176.714C224.393 177.725 223.549 178.977 223.022 180.371L220.438 187.266L217.854 180.371C217.327 178.977 216.483 177.725 215.387 176.714C214.291 175.704 212.975 174.963 211.542 174.551L208.307 173.626L211.55 172.701C212.982 172.289 214.299 171.548 215.395 170.538C216.49 169.527 217.335 168.275 217.861 166.881L220.438 159.986L223.022 166.881C223.549 168.275 224.393 169.527 225.489 170.538C226.585 171.548 227.901 172.289 229.334 172.701L232.576 173.626L229.334 174.551Z"/>
</mask>
<path d="M240.036 171.793L230.381 169.034C229.432 168.754 228.573 168.231 227.888 167.518C229.572 163.205 230.252 158.566 229.876 153.952C229.5 149.338 228.078 144.87 225.717 140.887C223.356 136.905 220.119 133.512 216.252 130.967C212.384 128.422 207.988 126.791 203.396 126.198C198.964 125.62 194.459 126.028 190.203 127.394C186.294 128.638 182.096 128.638 178.187 127.394C173.95 126.035 169.465 125.625 165.051 126.194C161.64 126.632 158.329 127.654 155.265 129.217C154.77 128.691 154.382 128.075 154.121 127.402L149.747 115.744C149.611 115.379 149.367 115.065 149.048 114.843C148.728 114.622 148.349 114.503 147.96 114.503C147.571 114.503 147.191 114.622 146.872 114.843C146.553 115.065 146.309 115.379 146.173 115.744L141.801 127.4C141.486 128.236 140.98 128.988 140.323 129.594C139.666 130.2 138.876 130.645 138.017 130.892L128.362 133.651C127.965 133.766 127.615 134.006 127.366 134.337C127.117 134.668 126.982 135.07 126.982 135.484C126.982 135.898 127.117 136.3 127.366 136.631C127.615 136.962 127.965 137.202 128.362 137.317L138.017 140.076C138.779 140.302 139.486 140.684 140.093 141.198C140.7 141.711 141.192 142.346 141.54 143.061C139.968 146.229 138.971 149.652 138.597 153.169C137.763 160.87 139.895 168.599 144.557 174.786C148.097 179.63 150.418 185.256 151.323 191.187L156.234 219.835C156.672 222.382 157.995 224.692 159.972 226.357C161.948 228.022 164.449 228.936 167.033 228.936C169.617 228.936 172.119 228.022 174.095 226.357C176.071 224.692 177.395 222.382 177.832 219.835L182.576 192.165C182.643 191.784 182.842 191.438 183.139 191.189C183.435 190.94 183.81 190.804 184.197 190.804C184.584 190.804 184.959 190.94 185.256 191.189C185.552 191.438 185.751 191.784 185.818 192.165L190.562 219.835C191.001 222.381 192.325 224.689 194.301 226.353C196.276 228.018 198.777 228.93 201.36 228.93C203.943 228.93 206.444 228.018 208.419 226.353C210.395 224.689 211.719 222.381 212.158 219.835L217.077 191.171C217.152 190.735 217.258 190.315 217.346 189.884L218.651 193.366C218.787 193.731 219.031 194.045 219.35 194.267C219.67 194.488 220.049 194.607 220.438 194.607C220.827 194.607 221.206 194.488 221.526 194.267C221.845 194.045 222.089 193.731 222.225 193.366L226.597 181.71C226.912 180.874 227.418 180.122 228.075 179.516C228.732 178.91 229.522 178.465 230.381 178.218L240.036 175.459C240.433 175.344 240.783 175.104 241.032 174.773C241.281 174.442 241.416 174.04 241.416 173.626C241.416 173.212 241.281 172.81 241.032 172.479C240.783 172.148 240.433 171.908 240.036 171.793ZM139.064 136.409L135.829 135.484L139.072 134.559C140.504 134.147 141.821 133.406 142.917 132.396C144.012 131.385 144.857 130.133 145.383 128.739L147.96 121.844L150.544 128.739C151.071 130.133 151.915 131.385 153.011 132.396C154.107 133.406 155.423 134.147 156.856 134.559L160.098 135.484L156.856 136.409C155.423 136.821 154.107 137.562 153.011 138.572C151.915 139.583 151.071 140.835 150.544 142.229L147.96 149.124L145.376 142.229C144.849 140.835 144.005 139.583 142.909 138.572C141.813 137.562 140.497 136.821 139.064 136.409ZM215.014 183.682C214.278 185.918 213.71 188.206 213.316 190.527L208.401 219.194C208.115 220.853 207.252 222.357 205.964 223.442C204.677 224.526 203.047 225.121 201.364 225.121C199.68 225.121 198.051 224.526 196.764 223.442C195.476 222.357 194.613 220.853 194.327 219.194L189.583 191.515C189.366 190.244 188.706 189.091 187.721 188.26C186.736 187.429 185.488 186.974 184.199 186.974C182.91 186.974 181.662 187.429 180.677 188.26C179.692 189.091 179.032 190.244 178.815 191.515L174.071 219.185C173.786 220.845 172.923 222.35 171.636 223.436C170.348 224.521 168.717 225.117 167.033 225.117C165.349 225.117 163.719 224.521 162.431 223.436C161.143 222.35 160.28 220.845 159.995 219.185L155.084 190.536C154.076 184.008 151.509 177.818 147.601 172.491C143.523 167.075 141.66 160.309 142.391 153.569C142.588 151.753 142.977 149.963 143.552 148.229L146.173 155.221C146.309 155.585 146.553 155.899 146.872 156.121C147.191 156.343 147.571 156.461 147.96 156.461C148.349 156.461 148.728 156.343 149.048 156.121C149.367 155.899 149.611 155.585 149.747 155.221L154.119 143.564C154.434 142.728 154.94 141.977 155.597 141.37C156.254 140.764 157.044 140.32 157.903 140.072L167.558 137.313C167.955 137.198 168.305 136.958 168.554 136.627C168.803 136.297 168.937 135.894 168.937 135.48C168.937 135.066 168.803 134.664 168.554 134.333C168.305 134.003 167.955 133.762 167.558 133.647L159.738 131.414C161.605 130.714 163.547 130.23 165.524 129.972C169.387 129.475 173.311 129.833 177.02 131.021C181.685 132.503 186.695 132.503 191.361 131.021C195.086 129.829 199.029 129.473 202.908 129.98C208.758 130.771 214.186 133.466 218.352 137.649C222.518 141.832 225.191 147.27 225.958 153.123C226.334 156.253 226.164 159.426 225.454 162.498L222.225 153.886C222.089 153.521 221.845 153.207 221.526 152.985C221.206 152.764 220.827 152.645 220.438 152.645C220.049 152.645 219.67 152.764 219.35 152.985C219.031 153.207 218.787 153.521 218.651 153.886L214.279 165.542C213.964 166.378 213.458 167.13 212.801 167.736C212.144 168.342 211.354 168.787 210.495 169.034L200.84 171.793C200.443 171.908 200.093 172.148 199.844 172.479C199.595 172.81 199.46 173.212 199.46 173.626C199.46 174.04 199.595 174.442 199.844 174.773C200.093 175.104 200.443 175.344 200.84 175.459L210.495 178.218C211.354 178.465 212.144 178.91 212.801 179.516C213.458 180.122 213.964 180.874 214.279 181.71L215.021 183.684L215.014 183.682ZM229.334 174.551C227.901 174.963 226.585 175.704 225.489 176.714C224.393 177.725 223.549 178.977 223.022 180.371L220.438 187.266L217.854 180.371C217.327 178.977 216.483 177.725 215.387 176.714C214.291 175.704 212.975 174.963 211.542 174.551L208.307 173.626L211.55 172.701C212.982 172.289 214.299 171.548 215.395 170.538C216.49 169.527 217.335 168.275 217.861 166.881L220.438 159.986L223.022 166.881C223.549 168.275 224.393 169.527 225.489 170.538C226.585 171.548 227.901 172.289 229.334 172.701L232.576 173.626L229.334 174.551Z" fill="#007CC1"/>
<path d="M240.036 171.793L230.381 169.034C229.432 168.754 228.573 168.231 227.888 167.518C229.572 163.205 230.252 158.566 229.876 153.952C229.5 149.338 228.078 144.87 225.717 140.887C223.356 136.905 220.119 133.512 216.252 130.967C212.384 128.422 207.988 126.791 203.396 126.198C198.964 125.62 194.459 126.028 190.203 127.394C186.294 128.638 182.096 128.638 178.187 127.394C173.95 126.035 169.465 125.625 165.051 126.194C161.64 126.632 158.329 127.654 155.265 129.217C154.77 128.691 154.382 128.075 154.121 127.402L149.747 115.744C149.611 115.379 149.367 115.065 149.048 114.843C148.728 114.622 148.349 114.503 147.96 114.503C147.571 114.503 147.191 114.622 146.872 114.843C146.553 115.065 146.309 115.379 146.173 115.744L141.801 127.4C141.486 128.236 140.98 128.988 140.323 129.594C139.666 130.2 138.876 130.645 138.017 130.892L128.362 133.651C127.965 133.766 127.615 134.006 127.366 134.337C127.117 134.668 126.982 135.07 126.982 135.484C126.982 135.898 127.117 136.3 127.366 136.631C127.615 136.962 127.965 137.202 128.362 137.317L138.017 140.076C138.779 140.302 139.486 140.684 140.093 141.198C140.7 141.711 141.192 142.346 141.54 143.061C139.968 146.229 138.971 149.652 138.597 153.169C137.763 160.87 139.895 168.599 144.557 174.786C148.097 179.63 150.418 185.256 151.323 191.187L156.234 219.835C156.672 222.382 157.995 224.692 159.972 226.357C161.948 228.022 164.449 228.936 167.033 228.936C169.617 228.936 172.119 228.022 174.095 226.357C176.071 224.692 177.395 222.382 177.832 219.835L182.576 192.165C182.643 191.784 182.842 191.438 183.139 191.189C183.435 190.94 183.81 190.804 184.197 190.804C184.584 190.804 184.959 190.94 185.256 191.189C185.552 191.438 185.751 191.784 185.818 192.165L190.562 219.835C191.001 222.381 192.325 224.689 194.301 226.353C196.276 228.018 198.777 228.93 201.36 228.93C203.943 228.93 206.444 228.018 208.419 226.353C210.395 224.689 211.719 222.381 212.158 219.835L217.077 191.171C217.152 190.735 217.258 190.315 217.346 189.884L218.651 193.366C218.787 193.731 219.031 194.045 219.35 194.267C219.67 194.488 220.049 194.607 220.438 194.607C220.827 194.607 221.206 194.488 221.526 194.267C221.845 194.045 222.089 193.731 222.225 193.366L226.597 181.71C226.912 180.874 227.418 180.122 228.075 179.516C228.732 178.91 229.522 178.465 230.381 178.218L240.036 175.459C240.433 175.344 240.783 175.104 241.032 174.773C241.281 174.442 241.416 174.04 241.416 173.626C241.416 173.212 241.281 172.81 241.032 172.479C240.783 172.148 240.433 171.908 240.036 171.793ZM139.064 136.409L135.829 135.484L139.072 134.559C140.504 134.147 141.821 133.406 142.917 132.396C144.012 131.385 144.857 130.133 145.383 128.739L147.96 121.844L150.544 128.739C151.071 130.133 151.915 131.385 153.011 132.396C154.107 133.406 155.423 134.147 156.856 134.559L160.098 135.484L156.856 136.409C155.423 136.821 154.107 137.562 153.011 138.572C151.915 139.583 151.071 140.835 150.544 142.229L147.96 149.124L145.376 142.229C144.849 140.835 144.005 139.583 142.909 138.572C141.813 137.562 140.497 136.821 139.064 136.409ZM215.014 183.682C214.278 185.918 213.71 188.206 213.316 190.527L208.401 219.194C208.115 220.853 207.252 222.357 205.964 223.442C204.677 224.526 203.047 225.121 201.364 225.121C199.68 225.121 198.051 224.526 196.764 223.442C195.476 222.357 194.613 220.853 194.327 219.194L189.583 191.515C189.366 190.244 188.706 189.091 187.721 188.26C186.736 187.429 185.488 186.974 184.199 186.974C182.91 186.974 181.662 187.429 180.677 188.26C179.692 189.091 179.032 190.244 178.815 191.515L174.071 219.185C173.786 220.845 172.923 222.35 171.636 223.436C170.348 224.521 168.717 225.117 167.033 225.117C165.349 225.117 163.719 224.521 162.431 223.436C161.143 222.35 160.28 220.845 159.995 219.185L155.084 190.536C154.076 184.008 151.509 177.818 147.601 172.491C143.523 167.075 141.66 160.309 142.391 153.569C142.588 151.753 142.977 149.963 143.552 148.229L146.173 155.221C146.309 155.585 146.553 155.899 146.872 156.121C147.191 156.343 147.571 156.461 147.96 156.461C148.349 156.461 148.728 156.343 149.048 156.121C149.367 155.899 149.611 155.585 149.747 155.221L154.119 143.564C154.434 142.728 154.94 141.977 155.597 141.37C156.254 140.764 157.044 140.32 157.903 140.072L167.558 137.313C167.955 137.198 168.305 136.958 168.554 136.627C168.803 136.297 168.937 135.894 168.937 135.48C168.937 135.066 168.803 134.664 168.554 134.333C168.305 134.003 167.955 133.762 167.558 133.647L159.738 131.414C161.605 130.714 163.547 130.23 165.524 129.972C169.387 129.475 173.311 129.833 177.02 131.021C181.685 132.503 186.695 132.503 191.361 131.021C195.086 129.829 199.029 129.473 202.908 129.98C208.758 130.771 214.186 133.466 218.352 137.649C222.518 141.832 225.191 147.27 225.958 153.123C226.334 156.253 226.164 159.426 225.454 162.498L222.225 153.886C222.089 153.521 221.845 153.207 221.526 152.985C221.206 152.764 220.827 152.645 220.438 152.645C220.049 152.645 219.67 152.764 219.35 152.985C219.031 153.207 218.787 153.521 218.651 153.886L214.279 165.542C213.964 166.378 213.458 167.13 212.801 167.736C212.144 168.342 211.354 168.787 210.495 169.034L200.84 171.793C200.443 171.908 200.093 172.148 199.844 172.479C199.595 172.81 199.46 173.212 199.46 173.626C199.46 174.04 199.595 174.442 199.844 174.773C200.093 175.104 200.443 175.344 200.84 175.459L210.495 178.218C211.354 178.465 212.144 178.91 212.801 179.516C213.458 180.122 213.964 180.874 214.279 181.71L215.021 183.684L215.014 183.682ZM229.334 174.551C227.901 174.963 226.585 175.704 225.489 176.714C224.393 177.725 223.549 178.977 223.022 180.371L220.438 187.266L217.854 180.371C217.327 178.977 216.483 177.725 215.387 176.714C214.291 175.704 212.975 174.963 211.542 174.551L208.307 173.626L211.55 172.701C212.982 172.289 214.299 171.548 215.395 170.538C216.49 169.527 217.335 168.275 217.861 166.881L220.438 159.986L223.022 166.881C223.549 168.275 224.393 169.527 225.489 170.538C226.585 171.548 227.901 172.289 229.334 172.701L232.576 173.626L229.334 174.551Z" stroke="white" stroke-width="4" mask="url(#path-3-outside-1_39_660)"/>
<path d="M128.33 280.015C128.01 280.015 127.77 279.967 127.61 279.871C127.45 279.791 127.338 279.671 127.274 279.511C127.226 279.351 127.202 279.159 127.202 278.935V264.367C127.202 264.127 127.226 263.927 127.274 263.767C127.322 263.607 127.418 263.487 127.562 263.407C127.722 263.311 127.962 263.263 128.282 263.263C128.602 263.263 128.834 263.311 128.978 263.407C129.138 263.487 129.242 263.607 129.29 263.767C129.338 263.927 129.362 264.119 129.362 264.343V277.999H137.402C137.61 277.999 137.786 278.023 137.93 278.071C138.074 278.119 138.186 278.215 138.266 278.359C138.362 278.503 138.41 278.719 138.41 279.007C138.41 279.279 138.37 279.495 138.29 279.655C138.21 279.799 138.098 279.895 137.954 279.943C137.81 279.991 137.634 280.015 137.426 280.015H128.33ZM141.616 280.015C141.296 280.015 141.056 279.967 140.896 279.871C140.752 279.791 140.656 279.671 140.608 279.511C140.56 279.335 140.536 279.135 140.536 278.911V264.343C140.536 264.119 140.56 263.927 140.608 263.767C140.672 263.607 140.776 263.487 140.92 263.407C141.08 263.311 141.32 263.263 141.64 263.263C141.96 263.263 142.192 263.311 142.336 263.407C142.496 263.487 142.592 263.607 142.624 263.767C142.672 263.927 142.696 264.127 142.696 264.367V278.935C142.696 279.159 142.672 279.351 142.624 279.511C142.576 279.671 142.472 279.791 142.312 279.871C142.168 279.967 141.936 280.015 141.616 280.015ZM146.964 280.015C146.676 280.015 146.452 279.967 146.292 279.871C146.148 279.775 146.044 279.647 145.98 279.487C145.916 279.311 145.884 279.119 145.884 278.911V264.319C145.884 264.111 145.916 263.935 145.98 263.791C146.044 263.631 146.156 263.503 146.316 263.407C146.476 263.311 146.708 263.263 147.012 263.263C147.252 263.263 147.444 263.279 147.588 263.311C147.732 263.343 147.844 263.391 147.924 263.455C148.02 263.503 148.116 263.583 148.212 263.695L154.476 272.767H153.732L160.068 263.623C160.164 263.511 160.26 263.431 160.356 263.383C160.452 263.335 160.572 263.303 160.716 263.287C160.876 263.271 161.06 263.263 161.268 263.263C161.572 263.263 161.796 263.311 161.94 263.407C162.1 263.503 162.212 263.639 162.276 263.815C162.34 263.975 162.372 264.159 162.372 264.367V278.959C162.372 279.151 162.34 279.327 162.276 279.487C162.212 279.647 162.1 279.775 161.94 279.871C161.78 279.967 161.548 280.015 161.244 280.015C160.956 280.015 160.732 279.967 160.572 279.871C160.428 279.775 160.324 279.647 160.26 279.487C160.212 279.311 160.188 279.119 160.188 278.911V266.863L155.052 274.423C155.004 274.503 154.94 274.583 154.86 274.663C154.78 274.727 154.676 274.783 154.548 274.831C154.436 274.879 154.292 274.903 154.116 274.903C153.924 274.903 153.772 274.879 153.66 274.831C153.564 274.783 153.476 274.727 153.396 274.663C153.316 274.583 153.236 274.495 153.156 274.399L148.044 266.887V278.959C148.044 279.151 148.012 279.327 147.948 279.487C147.9 279.647 147.796 279.775 147.636 279.871C147.492 279.967 147.268 280.015 146.964 280.015ZM166.744 280.015C166.44 280.015 166.208 279.967 166.048 279.871C165.904 279.791 165.808 279.671 165.76 279.511C165.712 279.335 165.688 279.135 165.688 278.911V264.343C165.688 264.135 165.712 263.951 165.76 263.791C165.824 263.631 165.936 263.503 166.096 263.407C166.256 263.311 166.48 263.263 166.768 263.263H172.024C172.792 263.263 173.496 263.383 174.136 263.623C174.792 263.847 175.36 264.199 175.84 264.679C176.336 265.143 176.72 265.711 176.992 266.383C177.264 267.055 177.4 267.831 177.4 268.711C177.4 269.575 177.264 270.343 176.992 271.015C176.72 271.687 176.336 272.255 175.84 272.719C175.344 273.167 174.768 273.511 174.112 273.751C173.472 273.991 172.768 274.111 172 274.111H167.872V278.935C167.872 279.159 167.84 279.351 167.776 279.511C167.728 279.671 167.624 279.791 167.464 279.871C167.32 279.967 167.08 280.015 166.744 280.015ZM167.872 271.927H172.024C172.664 271.927 173.224 271.807 173.704 271.567C174.184 271.311 174.56 270.943 174.832 270.463C175.104 269.967 175.24 269.367 175.24 268.663C175.24 267.991 175.112 267.415 174.856 266.935C174.6 266.455 174.224 266.087 173.728 265.831C173.248 265.575 172.672 265.447 172 265.447H167.872V271.927ZM181.038 280.015C180.718 280.015 180.478 279.967 180.318 279.871C180.174 279.791 180.078 279.671 180.03 279.511C179.982 279.335 179.958 279.135 179.958 278.911V264.343C179.958 264.119 179.982 263.927 180.03 263.767C180.094 263.607 180.198 263.487 180.342 263.407C180.502 263.311 180.742 263.263 181.062 263.263C181.382 263.263 181.614 263.311 181.758 263.407C181.918 263.487 182.014 263.607 182.046 263.767C182.094 263.927 182.118 264.127 182.118 264.367V278.935C182.118 279.159 182.094 279.351 182.046 279.511C181.998 279.671 181.894 279.791 181.734 279.871C181.59 279.967 181.358 280.015 181.038 280.015ZM186.553 280.015C186.233 280.015 185.993 279.967 185.833 279.871C185.689 279.791 185.593 279.671 185.545 279.511C185.497 279.335 185.473 279.135 185.473 278.911V264.343C185.473 263.927 185.553 263.647 185.713 263.503C185.889 263.343 186.193 263.263 186.625 263.263H196.273C196.497 263.263 196.689 263.287 196.849 263.335C197.009 263.383 197.129 263.487 197.209 263.647C197.289 263.807 197.329 264.047 197.329 264.367C197.329 264.687 197.281 264.927 197.185 265.087C197.105 265.231 196.985 265.327 196.825 265.375C196.665 265.423 196.473 265.447 196.249 265.447H187.633V270.415H193.633C193.857 270.415 194.041 270.439 194.185 270.487C194.345 270.535 194.465 270.631 194.545 270.775C194.625 270.919 194.665 271.143 194.665 271.447C194.665 271.735 194.625 271.951 194.545 272.095C194.465 272.239 194.345 272.335 194.185 272.383C194.025 272.415 193.825 272.431 193.585 272.431H187.633V277.855H196.273C196.497 277.855 196.689 277.879 196.849 277.927C197.009 277.975 197.129 278.079 197.209 278.239C197.289 278.383 197.329 278.615 197.329 278.935C197.329 279.255 197.281 279.495 197.185 279.655C197.105 279.799 196.985 279.895 196.825 279.943C196.665 279.991 196.473 280.015 196.249 280.015H186.553ZM200.379 280.039C200.059 280.039 199.803 279.951 199.611 279.775C199.419 279.583 199.323 279.311 199.323 278.959C199.323 278.847 199.339 278.735 199.371 278.623C199.403 278.511 199.443 278.423 199.491 278.359L208.323 265.351H200.499C200.275 265.351 200.067 265.335 199.875 265.303C199.699 265.255 199.563 265.159 199.467 265.015C199.371 264.871 199.323 264.655 199.323 264.367C199.323 264.031 199.363 263.791 199.443 263.647C199.539 263.487 199.667 263.383 199.827 263.335C200.003 263.287 200.203 263.263 200.427 263.263H210.267C210.603 263.263 210.859 263.375 211.035 263.599C211.227 263.807 211.323 264.039 211.323 264.295C211.323 264.471 211.299 264.631 211.251 264.775C211.203 264.903 211.139 265.015 211.059 265.111L202.371 277.951H210.627C210.851 277.951 211.043 277.975 211.203 278.023C211.363 278.071 211.483 278.167 211.563 278.311C211.643 278.455 211.683 278.671 211.683 278.959C211.683 279.279 211.635 279.519 211.539 279.679C211.459 279.823 211.339 279.919 211.179 279.967C211.019 280.015 210.819 280.039 210.579 280.039H200.379ZM228.799 278.479C228.927 278.719 228.991 278.927 228.991 279.103C229.007 279.263 228.959 279.415 228.847 279.559C228.735 279.687 228.559 279.807 228.319 279.919C227.935 280.095 227.631 280.135 227.407 280.039C227.199 279.943 227.007 279.711 226.831 279.343L220.831 266.575L214.879 279.319C214.703 279.687 214.503 279.919 214.279 280.015C214.071 280.111 213.767 280.071 213.367 279.895C213.127 279.799 212.951 279.679 212.839 279.535C212.743 279.391 212.703 279.215 212.719 279.007C212.751 278.799 212.831 278.559 212.959 278.287L219.847 263.911C219.943 263.719 220.079 263.567 220.255 263.455C220.447 263.327 220.647 263.263 220.855 263.263C220.999 263.263 221.135 263.287 221.263 263.335C221.391 263.383 221.503 263.455 221.599 263.551C221.695 263.647 221.775 263.775 221.839 263.935L228.799 278.479ZM216.319 275.239L217.135 273.391H224.575L225.367 275.239H216.319ZM235.81 280.255C235.202 280.255 234.626 280.183 234.082 280.039C233.554 279.895 233.066 279.703 232.618 279.463C232.186 279.207 231.802 278.927 231.466 278.623C231.13 278.319 230.866 278.015 230.674 277.711C230.498 277.455 230.386 277.247 230.338 277.087C230.29 276.911 230.298 276.743 230.362 276.583C230.442 276.423 230.594 276.247 230.818 276.055C231.074 275.863 231.298 275.775 231.49 275.791C231.682 275.791 231.858 275.863 232.018 276.007C232.194 276.151 232.37 276.343 232.546 276.583C232.946 277.127 233.434 277.527 234.01 277.783C234.586 278.023 235.154 278.143 235.714 278.143C236.434 278.143 237.074 278.047 237.634 277.855C238.194 277.663 238.634 277.375 238.954 276.991C239.29 276.591 239.458 276.079 239.458 275.455C239.458 274.943 239.33 274.511 239.074 274.159C238.818 273.807 238.474 273.511 238.042 273.271C237.61 273.015 237.13 272.799 236.602 272.623C236.074 272.431 235.538 272.247 234.994 272.071C234.562 271.927 234.138 271.767 233.722 271.591C233.306 271.399 232.914 271.191 232.546 270.967C232.178 270.727 231.85 270.447 231.562 270.127C231.29 269.807 231.074 269.431 230.914 268.999C230.77 268.567 230.698 268.063 230.698 267.487C230.698 266.607 230.906 265.831 231.322 265.159C231.754 264.487 232.354 263.967 233.122 263.599C233.89 263.215 234.778 263.023 235.786 263.023C236.378 263.023 236.922 263.079 237.418 263.191C237.914 263.303 238.354 263.455 238.738 263.647C239.122 263.823 239.45 264.015 239.722 264.223C239.994 264.415 240.202 264.599 240.346 264.775C240.634 265.079 240.794 265.335 240.826 265.543C240.858 265.751 240.738 266.007 240.466 266.311C240.21 266.599 239.962 266.751 239.722 266.767C239.482 266.783 239.218 266.671 238.93 266.431C238.626 266.079 238.306 265.807 237.97 265.615C237.65 265.423 237.306 265.295 236.938 265.231C236.586 265.151 236.194 265.111 235.762 265.111C235.346 265.111 234.954 265.167 234.586 265.279C234.234 265.375 233.922 265.527 233.65 265.735C233.394 265.943 233.194 266.199 233.05 266.503C232.906 266.791 232.834 267.127 232.834 267.511C232.834 267.943 232.946 268.311 233.17 268.615C233.41 268.919 233.722 269.183 234.106 269.407C234.49 269.615 234.922 269.807 235.402 269.983C235.882 270.143 236.386 270.303 236.914 270.463C237.49 270.639 238.058 270.855 238.618 271.111C239.178 271.351 239.682 271.655 240.13 272.023C240.578 272.375 240.938 272.823 241.21 273.367C241.482 273.911 241.618 274.583 241.618 275.383C241.618 276.183 241.458 276.887 241.138 277.495C240.834 278.103 240.41 278.615 239.866 279.031C239.322 279.431 238.698 279.735 237.994 279.943C237.306 280.151 236.578 280.255 235.81 280.255Z" fill="#007CC1"/>
<defs>
<filter id="filter0_d_39_660" x="0.5" y="0.5" width="334" height="334" filterUnits="userSpaceOnUse" color-interpolation-filters="sRGB">
<feFlood flood-opacity="0" result="BackgroundImageFix"/>
<feColorMatrix in="SourceAlpha" type="matrix" values="0 0 0 0 0 0 0 0 0 0 0 0 0 0 0 0 0 0 127 0" result="hardAlpha"/>
<feOffset dx="-17" dy="-13"/>
<feGaussianBlur stdDeviation="8.75"/>
<feComposite in2="hardAlpha" operator="out"/>
<feColorMatrix type="matrix" values="0 0 0 0 0 0 0 0 0 0 0 0 0 0 0 0 0 0 0.07 0"/>
<feBlend mode="normal" in2="BackgroundImageFix" result="effect1_dropShadow_39_660"/>
<feBlend mode="normal" in="SourceGraphic" in2="effect1_dropShadow_39_660" result="shape"/>
</filter>
</defs>
</svg>
