<svg width="334" height="335" viewBox="0 0 334 335" fill="none" xmlns="http://www.w3.org/2000/svg">
<g filter="url(#filter0_d_39_661)">
<path d="M35 199C35 119.804 35 80.2061 59.603 55.603C84.2061 31 123.804 31 203 31H253C290.712 31 309.569 31 321.284 42.7157C333 54.4315 333 73.2876 333 111V174C333 247.539 333 284.309 310.154 307.154C287.309 330 250.539 330 177 330H115C77.2876 330 58.4315 330 46.7157 318.284C35 306.569 35 287.712 35 250V199Z" fill="white"/>
</g>
<rect x="69.4492" y="108.275" width="229.102" height="126.888" stroke="white" stroke-width="2"/>
<mask id="path-3-outside-1_39_661" maskUnits="userSpaceOnUse" x="124.074" y="112.503" width="120" height="119" fill="black">
<rect fill="white" x="124.074" y="112.503" width="120" height="119"/>
<path d="M171.655 137.375C173.158 137.375 174.626 136.928 175.876 136.09C177.125 135.253 178.099 134.062 178.674 132.669C179.249 131.277 179.399 129.744 179.106 128.265C178.813 126.787 178.089 125.429 177.027 124.363C175.964 123.297 174.611 122.571 173.137 122.277C171.663 121.982 170.136 122.133 168.748 122.71C167.36 123.287 166.173 124.264 165.339 125.518C164.504 126.771 164.058 128.245 164.058 129.752C164.058 131.774 164.859 133.713 166.283 135.142C167.708 136.572 169.64 137.375 171.655 137.375ZM171.655 125.941C172.406 125.941 173.141 126.165 173.765 126.584C174.39 127.002 174.877 127.598 175.164 128.294C175.452 128.99 175.527 129.757 175.38 130.496C175.234 131.235 174.872 131.914 174.341 132.447C173.81 132.98 173.133 133.343 172.396 133.49C171.659 133.637 170.896 133.562 170.201 133.273C169.507 132.985 168.914 132.496 168.497 131.87C168.079 131.243 167.857 130.506 167.857 129.752C167.857 128.742 168.257 127.772 168.969 127.057C169.681 126.343 170.648 125.941 171.655 125.941Z"/>
<path d="M203.941 150.709C202.439 150.709 200.97 151.156 199.721 151.993C198.472 152.831 197.498 154.021 196.923 155.414C196.348 156.807 196.197 158.339 196.491 159.818C196.784 161.296 197.507 162.655 198.57 163.721C199.632 164.787 200.986 165.513 202.459 165.807C203.933 166.101 205.46 165.95 206.849 165.373C208.237 164.796 209.423 163.819 210.258 162.566C211.093 161.312 211.538 159.838 211.538 158.331C211.538 156.309 210.738 154.371 209.313 152.941C207.888 151.512 205.956 150.709 203.941 150.709ZM203.941 162.142C203.19 162.142 202.456 161.918 201.831 161.5C201.206 161.081 200.72 160.486 200.432 159.789C200.145 159.093 200.069 158.327 200.216 157.587C200.363 156.848 200.724 156.169 201.256 155.636C201.787 155.103 202.464 154.74 203.2 154.593C203.937 154.446 204.701 154.521 205.395 154.81C206.089 155.098 206.682 155.587 207.1 156.213C207.517 156.84 207.74 157.577 207.74 158.331C207.74 159.342 207.34 160.311 206.627 161.026C205.915 161.74 204.949 162.142 203.941 162.142Z"/>
<path d="M164.058 185.014C162.931 185.014 161.83 185.349 160.893 185.977C159.956 186.606 159.226 187.498 158.794 188.543C158.363 189.588 158.25 190.737 158.47 191.846C158.69 192.955 159.233 193.974 160.029 194.773C160.826 195.573 161.841 196.117 162.947 196.338C164.052 196.558 165.197 196.445 166.239 196.012C167.28 195.58 168.17 194.847 168.796 193.907C169.422 192.967 169.756 191.861 169.756 190.731C169.756 189.215 169.156 187.76 168.087 186.688C167.019 185.616 165.569 185.014 164.058 185.014ZM164.058 192.636C163.683 192.636 163.315 192.524 163.003 192.315C162.691 192.106 162.447 191.808 162.304 191.46C162.16 191.112 162.122 190.729 162.195 190.359C162.269 189.989 162.45 189.65 162.715 189.383C162.981 189.117 163.319 188.935 163.688 188.862C164.056 188.788 164.438 188.826 164.785 188.97C165.132 189.114 165.429 189.359 165.637 189.672C165.846 189.985 165.957 190.354 165.957 190.731C165.957 191.236 165.757 191.721 165.401 192.078C165.045 192.435 164.562 192.636 164.058 192.636Z"/>
<path d="M181.151 160.242C182.2 160.242 183.05 159.388 183.05 158.336C183.05 157.284 182.2 156.43 181.151 156.43C180.102 156.43 179.252 157.284 179.252 158.336C179.252 159.388 180.102 160.242 181.151 160.242Z"/>
<path d="M198.244 125.941C199.293 125.941 200.143 125.088 200.143 124.036C200.143 122.983 199.293 122.13 198.244 122.13C197.195 122.13 196.345 122.983 196.345 124.036C196.345 125.088 197.195 125.941 198.244 125.941Z"/>
<path d="M202.042 190.726C203.091 190.726 203.942 189.872 203.942 188.82C203.942 187.768 203.091 186.914 202.042 186.914C200.993 186.914 200.143 187.768 200.143 188.82C200.143 189.872 200.993 190.726 202.042 190.726Z"/>
<path d="M152.663 135.469C153.712 135.469 154.562 134.616 154.562 133.564C154.562 132.511 153.712 131.658 152.663 131.658C151.614 131.658 150.764 132.511 150.764 133.564C150.764 134.616 151.614 135.469 152.663 135.469Z"/>
<path d="M162.159 175.486C163.208 175.486 164.058 174.633 164.058 173.581C164.058 172.528 163.208 171.675 162.159 171.675C161.11 171.675 160.26 172.528 160.26 173.581C160.26 174.633 161.11 175.486 162.159 175.486Z"/>
<path d="M240.026 167.864H219.676C220.501 166.27 221.454 164.746 222.525 163.308C226.403 158.143 228.542 151.874 228.634 145.408C228.725 138.942 226.764 132.615 223.034 127.341C219.304 122.068 213.999 118.122 207.885 116.074C201.772 114.027 195.168 113.984 189.029 115.952C185.136 117.192 180.957 117.192 177.064 115.952C172.844 114.592 168.378 114.182 163.982 114.752C158.708 115.428 153.703 117.483 149.469 120.709C145.234 123.936 141.918 128.221 139.852 133.137C137.786 138.053 137.043 143.427 137.697 148.722C138.35 154.016 140.378 159.046 143.577 163.308C144.648 164.746 145.6 166.27 146.424 167.864H127.973C127.47 167.864 126.987 168.065 126.63 168.422C126.274 168.779 126.074 169.264 126.074 169.769V226.937C126.074 227.442 126.274 227.927 126.63 228.284C126.987 228.641 127.47 228.842 127.973 228.842H240.026C240.53 228.842 241.013 228.641 241.369 228.284C241.725 227.927 241.925 227.442 241.925 226.937V169.769C241.925 169.264 241.725 168.779 241.369 168.422C241.013 168.065 240.53 167.864 240.026 167.864ZM141.42 142.104C141.843 138.175 143.133 134.389 145.194 131.021C147.256 127.653 150.038 124.788 153.339 122.632C156.641 120.476 160.379 119.084 164.283 118.556C168.187 118.028 172.159 118.378 175.911 119.58C180.556 121.061 185.544 121.061 190.189 119.58C193.899 118.388 197.825 118.032 201.687 118.54C206.295 119.14 210.665 120.943 214.361 123.768C218.058 126.592 220.951 130.34 222.753 134.638C224.555 138.935 225.202 143.631 224.629 148.258C224.056 152.884 222.285 157.279 219.49 161.004C215.601 166.324 213.046 172.506 212.043 179.027L207.149 207.679C206.864 209.336 206.005 210.839 204.723 211.923C203.441 213.006 201.818 213.6 200.142 213.6C198.466 213.6 196.843 213.006 195.561 211.923C194.279 210.839 193.42 209.336 193.135 207.679L188.412 180.021C188.195 178.752 187.538 177.6 186.557 176.77C185.576 175.939 184.334 175.484 183.05 175.484C181.767 175.484 180.524 175.939 179.543 176.77C178.562 177.6 177.905 178.752 177.689 180.021L172.965 207.669C172.682 209.328 171.823 210.832 170.54 211.917C169.258 213.002 167.635 213.596 165.957 213.596C164.28 213.596 162.657 213.002 161.375 211.917C160.092 210.832 159.233 209.328 158.949 207.669L154.059 179.042C153.055 172.516 150.5 166.329 146.608 161.004C142.548 155.594 140.693 148.837 141.42 142.104ZM238.127 225.031H129.873V171.675H148.137C149.123 174.264 149.852 176.945 150.314 179.678L155.204 208.306C155.64 210.85 156.958 213.159 158.926 214.823C160.894 216.487 163.384 217.399 165.957 217.399C168.531 217.399 171.021 216.487 172.989 214.823C174.957 213.159 176.275 210.85 176.711 208.306L181.434 180.658C181.501 180.277 181.699 179.932 181.994 179.683C182.29 179.434 182.663 179.298 183.048 179.298C183.434 179.298 183.807 179.434 184.102 179.683C184.398 179.932 184.596 180.277 184.663 180.658L189.386 208.306C189.823 210.849 191.141 213.156 193.109 214.819C195.076 216.482 197.566 217.394 200.138 217.394C202.711 217.394 205.2 216.482 207.168 214.819C209.135 213.156 210.454 210.849 210.891 208.306L215.789 179.678C216.249 176.945 216.977 174.264 217.963 171.675H238.127V225.031Z"/>
</mask>
<path d="M171.655 137.375C173.158 137.375 174.626 136.928 175.876 136.09C177.125 135.253 178.099 134.062 178.674 132.669C179.249 131.277 179.399 129.744 179.106 128.265C178.813 126.787 178.089 125.429 177.027 124.363C175.964 123.297 174.611 122.571 173.137 122.277C171.663 121.982 170.136 122.133 168.748 122.71C167.36 123.287 166.173 124.264 165.339 125.518C164.504 126.771 164.058 128.245 164.058 129.752C164.058 131.774 164.859 133.713 166.283 135.142C167.708 136.572 169.64 137.375 171.655 137.375ZM171.655 125.941C172.406 125.941 173.141 126.165 173.765 126.584C174.39 127.002 174.877 127.598 175.164 128.294C175.452 128.99 175.527 129.757 175.38 130.496C175.234 131.235 174.872 131.914 174.341 132.447C173.81 132.98 173.133 133.343 172.396 133.49C171.659 133.637 170.896 133.562 170.201 133.273C169.507 132.985 168.914 132.496 168.497 131.87C168.079 131.243 167.857 130.506 167.857 129.752C167.857 128.742 168.257 127.772 168.969 127.057C169.681 126.343 170.648 125.941 171.655 125.941Z" fill="#007CC1"/>
<path d="M203.941 150.709C202.439 150.709 200.97 151.156 199.721 151.993C198.472 152.831 197.498 154.021 196.923 155.414C196.348 156.807 196.197 158.339 196.491 159.818C196.784 161.296 197.507 162.655 198.57 163.721C199.632 164.787 200.986 165.513 202.459 165.807C203.933 166.101 205.46 165.95 206.849 165.373C208.237 164.796 209.423 163.819 210.258 162.566C211.093 161.312 211.538 159.838 211.538 158.331C211.538 156.309 210.738 154.371 209.313 152.941C207.888 151.512 205.956 150.709 203.941 150.709ZM203.941 162.142C203.19 162.142 202.456 161.918 201.831 161.5C201.206 161.081 200.72 160.486 200.432 159.789C200.145 159.093 200.069 158.327 200.216 157.587C200.363 156.848 200.724 156.169 201.256 155.636C201.787 155.103 202.464 154.74 203.2 154.593C203.937 154.446 204.701 154.521 205.395 154.81C206.089 155.098 206.682 155.587 207.1 156.213C207.517 156.84 207.74 157.577 207.74 158.331C207.74 159.342 207.34 160.311 206.627 161.026C205.915 161.74 204.949 162.142 203.941 162.142Z" fill="#007CC1"/>
<path d="M164.058 185.014C162.931 185.014 161.83 185.349 160.893 185.977C159.956 186.606 159.226 187.498 158.794 188.543C158.363 189.588 158.25 190.737 158.47 191.846C158.69 192.955 159.233 193.974 160.029 194.773C160.826 195.573 161.841 196.117 162.947 196.338C164.052 196.558 165.197 196.445 166.239 196.012C167.28 195.58 168.17 194.847 168.796 193.907C169.422 192.967 169.756 191.861 169.756 190.731C169.756 189.215 169.156 187.76 168.087 186.688C167.019 185.616 165.569 185.014 164.058 185.014ZM164.058 192.636C163.683 192.636 163.315 192.524 163.003 192.315C162.691 192.106 162.447 191.808 162.304 191.46C162.16 191.112 162.122 190.729 162.195 190.359C162.269 189.989 162.45 189.65 162.715 189.383C162.981 189.117 163.319 188.935 163.688 188.862C164.056 188.788 164.438 188.826 164.785 188.97C165.132 189.114 165.429 189.359 165.637 189.672C165.846 189.985 165.957 190.354 165.957 190.731C165.957 191.236 165.757 191.721 165.401 192.078C165.045 192.435 164.562 192.636 164.058 192.636Z" fill="#007CC1"/>
<path d="M181.151 160.242C182.2 160.242 183.05 159.388 183.05 158.336C183.05 157.284 182.2 156.43 181.151 156.43C180.102 156.43 179.252 157.284 179.252 158.336C179.252 159.388 180.102 160.242 181.151 160.242Z" fill="#007CC1"/>
<path d="M198.244 125.941C199.293 125.941 200.143 125.088 200.143 124.036C200.143 122.983 199.293 122.13 198.244 122.13C197.195 122.13 196.345 122.983 196.345 124.036C196.345 125.088 197.195 125.941 198.244 125.941Z" fill="#007CC1"/>
<path d="M202.042 190.726C203.091 190.726 203.942 189.872 203.942 188.82C203.942 187.768 203.091 186.914 202.042 186.914C200.993 186.914 200.143 187.768 200.143 188.82C200.143 189.872 200.993 190.726 202.042 190.726Z" fill="#007CC1"/>
<path d="M152.663 135.469C153.712 135.469 154.562 134.616 154.562 133.564C154.562 132.511 153.712 131.658 152.663 131.658C151.614 131.658 150.764 132.511 150.764 133.564C150.764 134.616 151.614 135.469 152.663 135.469Z" fill="#007CC1"/>
<path d="M162.159 175.486C163.208 175.486 164.058 174.633 164.058 173.581C164.058 172.528 163.208 171.675 162.159 171.675C161.11 171.675 160.26 172.528 160.26 173.581C160.26 174.633 161.11 175.486 162.159 175.486Z" fill="#007CC1"/>
<path d="M240.026 167.864H219.676C220.501 166.27 221.454 164.746 222.525 163.308C226.403 158.143 228.542 151.874 228.634 145.408C228.725 138.942 226.764 132.615 223.034 127.341C219.304 122.068 213.999 118.122 207.885 116.074C201.772 114.027 195.168 113.984 189.029 115.952C185.136 117.192 180.957 117.192 177.064 115.952C172.844 114.592 168.378 114.182 163.982 114.752C158.708 115.428 153.703 117.483 149.469 120.709C145.234 123.936 141.918 128.221 139.852 133.137C137.786 138.053 137.043 143.427 137.697 148.722C138.35 154.016 140.378 159.046 143.577 163.308C144.648 164.746 145.6 166.27 146.424 167.864H127.973C127.47 167.864 126.987 168.065 126.63 168.422C126.274 168.779 126.074 169.264 126.074 169.769V226.937C126.074 227.442 126.274 227.927 126.63 228.284C126.987 228.641 127.47 228.842 127.973 228.842H240.026C240.53 228.842 241.013 228.641 241.369 228.284C241.725 227.927 241.925 227.442 241.925 226.937V169.769C241.925 169.264 241.725 168.779 241.369 168.422C241.013 168.065 240.53 167.864 240.026 167.864ZM141.42 142.104C141.843 138.175 143.133 134.389 145.194 131.021C147.256 127.653 150.038 124.788 153.339 122.632C156.641 120.476 160.379 119.084 164.283 118.556C168.187 118.028 172.159 118.378 175.911 119.58C180.556 121.061 185.544 121.061 190.189 119.58C193.899 118.388 197.825 118.032 201.687 118.54C206.295 119.14 210.665 120.943 214.361 123.768C218.058 126.592 220.951 130.34 222.753 134.638C224.555 138.935 225.202 143.631 224.629 148.258C224.056 152.884 222.285 157.279 219.49 161.004C215.601 166.324 213.046 172.506 212.043 179.027L207.149 207.679C206.864 209.336 206.005 210.839 204.723 211.923C203.441 213.006 201.818 213.6 200.142 213.6C198.466 213.6 196.843 213.006 195.561 211.923C194.279 210.839 193.42 209.336 193.135 207.679L188.412 180.021C188.195 178.752 187.538 177.6 186.557 176.77C185.576 175.939 184.334 175.484 183.05 175.484C181.767 175.484 180.524 175.939 179.543 176.77C178.562 177.6 177.905 178.752 177.689 180.021L172.965 207.669C172.682 209.328 171.823 210.832 170.54 211.917C169.258 213.002 167.635 213.596 165.957 213.596C164.28 213.596 162.657 213.002 161.375 211.917C160.092 210.832 159.233 209.328 158.949 207.669L154.059 179.042C153.055 172.516 150.5 166.329 146.608 161.004C142.548 155.594 140.693 148.837 141.42 142.104ZM238.127 225.031H129.873V171.675H148.137C149.123 174.264 149.852 176.945 150.314 179.678L155.204 208.306C155.64 210.85 156.958 213.159 158.926 214.823C160.894 216.487 163.384 217.399 165.957 217.399C168.531 217.399 171.021 216.487 172.989 214.823C174.957 213.159 176.275 210.85 176.711 208.306L181.434 180.658C181.501 180.277 181.699 179.932 181.994 179.683C182.29 179.434 182.663 179.298 183.048 179.298C183.434 179.298 183.807 179.434 184.102 179.683C184.398 179.932 184.596 180.277 184.663 180.658L189.386 208.306C189.823 210.849 191.141 213.156 193.109 214.819C195.076 216.482 197.566 217.394 200.138 217.394C202.711 217.394 205.2 216.482 207.168 214.819C209.135 213.156 210.454 210.849 210.891 208.306L215.789 179.678C216.249 176.945 216.977 174.264 217.963 171.675H238.127V225.031Z" fill="#007CC1"/>
<path d="M171.655 137.375C173.158 137.375 174.626 136.928 175.876 136.09C177.125 135.253 178.099 134.062 178.674 132.669C179.249 131.277 179.399 129.744 179.106 128.265C178.813 126.787 178.089 125.429 177.027 124.363C175.964 123.297 174.611 122.571 173.137 122.277C171.663 121.982 170.136 122.133 168.748 122.71C167.36 123.287 166.173 124.264 165.339 125.518C164.504 126.771 164.058 128.245 164.058 129.752C164.058 131.774 164.859 133.713 166.283 135.142C167.708 136.572 169.64 137.375 171.655 137.375ZM171.655 125.941C172.406 125.941 173.141 126.165 173.765 126.584C174.39 127.002 174.877 127.598 175.164 128.294C175.452 128.99 175.527 129.757 175.38 130.496C175.234 131.235 174.872 131.914 174.341 132.447C173.81 132.98 173.133 133.343 172.396 133.49C171.659 133.637 170.896 133.562 170.201 133.273C169.507 132.985 168.914 132.496 168.497 131.87C168.079 131.243 167.857 130.506 167.857 129.752C167.857 128.742 168.257 127.772 168.969 127.057C169.681 126.343 170.648 125.941 171.655 125.941Z" stroke="white" stroke-width="4" mask="url(#path-3-outside-1_39_661)"/>
<path d="M203.941 150.709C202.439 150.709 200.97 151.156 199.721 151.993C198.472 152.831 197.498 154.021 196.923 155.414C196.348 156.807 196.197 158.339 196.491 159.818C196.784 161.296 197.507 162.655 198.57 163.721C199.632 164.787 200.986 165.513 202.459 165.807C203.933 166.101 205.46 165.95 206.849 165.373C208.237 164.796 209.423 163.819 210.258 162.566C211.093 161.312 211.538 159.838 211.538 158.331C211.538 156.309 210.738 154.371 209.313 152.941C207.888 151.512 205.956 150.709 203.941 150.709ZM203.941 162.142C203.19 162.142 202.456 161.918 201.831 161.5C201.206 161.081 200.72 160.486 200.432 159.789C200.145 159.093 200.069 158.327 200.216 157.587C200.363 156.848 200.724 156.169 201.256 155.636C201.787 155.103 202.464 154.74 203.2 154.593C203.937 154.446 204.701 154.521 205.395 154.81C206.089 155.098 206.682 155.587 207.1 156.213C207.517 156.84 207.74 157.577 207.74 158.331C207.74 159.342 207.34 160.311 206.627 161.026C205.915 161.74 204.949 162.142 203.941 162.142Z" stroke="white" stroke-width="4" mask="url(#path-3-outside-1_39_661)"/>
<path d="M164.058 185.014C162.931 185.014 161.83 185.349 160.893 185.977C159.956 186.606 159.226 187.498 158.794 188.543C158.363 189.588 158.25 190.737 158.47 191.846C158.69 192.955 159.233 193.974 160.029 194.773C160.826 195.573 161.841 196.117 162.947 196.338C164.052 196.558 165.197 196.445 166.239 196.012C167.28 195.58 168.17 194.847 168.796 193.907C169.422 192.967 169.756 191.861 169.756 190.731C169.756 189.215 169.156 187.76 168.087 186.688C167.019 185.616 165.569 185.014 164.058 185.014ZM164.058 192.636C163.683 192.636 163.315 192.524 163.003 192.315C162.691 192.106 162.447 191.808 162.304 191.46C162.16 191.112 162.122 190.729 162.195 190.359C162.269 189.989 162.45 189.65 162.715 189.383C162.981 189.117 163.319 188.935 163.688 188.862C164.056 188.788 164.438 188.826 164.785 188.97C165.132 189.114 165.429 189.359 165.637 189.672C165.846 189.985 165.957 190.354 165.957 190.731C165.957 191.236 165.757 191.721 165.401 192.078C165.045 192.435 164.562 192.636 164.058 192.636Z" stroke="white" stroke-width="4" mask="url(#path-3-outside-1_39_661)"/>
<path d="M181.151 160.242C182.2 160.242 183.05 159.388 183.05 158.336C183.05 157.284 182.2 156.43 181.151 156.43C180.102 156.43 179.252 157.284 179.252 158.336C179.252 159.388 180.102 160.242 181.151 160.242Z" stroke="white" stroke-width="4" mask="url(#path-3-outside-1_39_661)"/>
<path d="M198.244 125.941C199.293 125.941 200.143 125.088 200.143 124.036C200.143 122.983 199.293 122.13 198.244 122.13C197.195 122.13 196.345 122.983 196.345 124.036C196.345 125.088 197.195 125.941 198.244 125.941Z" stroke="white" stroke-width="4" mask="url(#path-3-outside-1_39_661)"/>
<path d="M202.042 190.726C203.091 190.726 203.942 189.872 203.942 188.82C203.942 187.768 203.091 186.914 202.042 186.914C200.993 186.914 200.143 187.768 200.143 188.82C200.143 189.872 200.993 190.726 202.042 190.726Z" stroke="white" stroke-width="4" mask="url(#path-3-outside-1_39_661)"/>
<path d="M152.663 135.469C153.712 135.469 154.562 134.616 154.562 133.564C154.562 132.511 153.712 131.658 152.663 131.658C151.614 131.658 150.764 132.511 150.764 133.564C150.764 134.616 151.614 135.469 152.663 135.469Z" stroke="white" stroke-width="4" mask="url(#path-3-outside-1_39_661)"/>
<path d="M162.159 175.486C163.208 175.486 164.058 174.633 164.058 173.581C164.058 172.528 163.208 171.675 162.159 171.675C161.11 171.675 160.26 172.528 160.26 173.581C160.26 174.633 161.11 175.486 162.159 175.486Z" stroke="white" stroke-width="4" mask="url(#path-3-outside-1_39_661)"/>
<path d="M240.026 167.864H219.676C220.501 166.27 221.454 164.746 222.525 163.308C226.403 158.143 228.542 151.874 228.634 145.408C228.725 138.942 226.764 132.615 223.034 127.341C219.304 122.068 213.999 118.122 207.885 116.074C201.772 114.027 195.168 113.984 189.029 115.952C185.136 117.192 180.957 117.192 177.064 115.952C172.844 114.592 168.378 114.182 163.982 114.752C158.708 115.428 153.703 117.483 149.469 120.709C145.234 123.936 141.918 128.221 139.852 133.137C137.786 138.053 137.043 143.427 137.697 148.722C138.35 154.016 140.378 159.046 143.577 163.308C144.648 164.746 145.6 166.27 146.424 167.864H127.973C127.47 167.864 126.987 168.065 126.63 168.422C126.274 168.779 126.074 169.264 126.074 169.769V226.937C126.074 227.442 126.274 227.927 126.63 228.284C126.987 228.641 127.47 228.842 127.973 228.842H240.026C240.53 228.842 241.013 228.641 241.369 228.284C241.725 227.927 241.925 227.442 241.925 226.937V169.769C241.925 169.264 241.725 168.779 241.369 168.422C241.013 168.065 240.53 167.864 240.026 167.864ZM141.42 142.104C141.843 138.175 143.133 134.389 145.194 131.021C147.256 127.653 150.038 124.788 153.339 122.632C156.641 120.476 160.379 119.084 164.283 118.556C168.187 118.028 172.159 118.378 175.911 119.58C180.556 121.061 185.544 121.061 190.189 119.58C193.899 118.388 197.825 118.032 201.687 118.54C206.295 119.14 210.665 120.943 214.361 123.768C218.058 126.592 220.951 130.34 222.753 134.638C224.555 138.935 225.202 143.631 224.629 148.258C224.056 152.884 222.285 157.279 219.49 161.004C215.601 166.324 213.046 172.506 212.043 179.027L207.149 207.679C206.864 209.336 206.005 210.839 204.723 211.923C203.441 213.006 201.818 213.6 200.142 213.6C198.466 213.6 196.843 213.006 195.561 211.923C194.279 210.839 193.42 209.336 193.135 207.679L188.412 180.021C188.195 178.752 187.538 177.6 186.557 176.77C185.576 175.939 184.334 175.484 183.05 175.484C181.767 175.484 180.524 175.939 179.543 176.77C178.562 177.6 177.905 178.752 177.689 180.021L172.965 207.669C172.682 209.328 171.823 210.832 170.54 211.917C169.258 213.002 167.635 213.596 165.957 213.596C164.28 213.596 162.657 213.002 161.375 211.917C160.092 210.832 159.233 209.328 158.949 207.669L154.059 179.042C153.055 172.516 150.5 166.329 146.608 161.004C142.548 155.594 140.693 148.837 141.42 142.104ZM238.127 225.031H129.873V171.675H148.137C149.123 174.264 149.852 176.945 150.314 179.678L155.204 208.306C155.64 210.85 156.958 213.159 158.926 214.823C160.894 216.487 163.384 217.399 165.957 217.399C168.531 217.399 171.021 216.487 172.989 214.823C174.957 213.159 176.275 210.85 176.711 208.306L181.434 180.658C181.501 180.277 181.699 179.932 181.994 179.683C182.29 179.434 182.663 179.298 183.048 179.298C183.434 179.298 183.807 179.434 184.102 179.683C184.398 179.932 184.596 180.277 184.663 180.658L189.386 208.306C189.823 210.849 191.141 213.156 193.109 214.819C195.076 216.482 197.566 217.394 200.138 217.394C202.711 217.394 205.2 216.482 207.168 214.819C209.135 213.156 210.454 210.849 210.891 208.306L215.789 179.678C216.249 176.945 216.977 174.264 217.963 171.675H238.127V225.031Z" stroke="white" stroke-width="4" mask="url(#path-3-outside-1_39_661)"/>
<path d="M152.766 280.063C151.902 280.063 151.062 279.935 150.246 279.679C149.43 279.423 148.67 279.055 147.966 278.575C147.262 278.095 146.638 277.503 146.094 276.799C145.566 276.079 145.15 275.279 144.846 274.399C144.542 273.503 144.39 272.519 144.39 271.447C144.39 270.423 144.542 269.479 144.846 268.615C145.15 267.735 145.566 266.959 146.094 266.287C146.622 265.615 147.238 265.047 147.942 264.583C148.662 264.103 149.43 263.743 150.246 263.503C151.078 263.247 151.926 263.119 152.79 263.119C153.59 263.119 154.278 263.199 154.854 263.359C155.43 263.519 155.902 263.695 156.27 263.887C156.638 264.063 156.886 264.199 157.014 264.295C157.238 264.423 157.454 264.575 157.662 264.751C157.87 264.927 157.982 265.135 157.998 265.375C158.03 265.551 158.014 265.695 157.95 265.807C157.902 265.919 157.838 266.039 157.758 266.167C157.63 266.359 157.494 266.503 157.35 266.599C157.222 266.679 157.078 266.719 156.918 266.719C156.758 266.719 156.614 266.671 156.486 266.575C156.358 266.479 156.19 266.367 155.982 266.239C155.886 266.175 155.694 266.071 155.406 265.927C155.118 265.783 154.75 265.647 154.302 265.519C153.854 265.375 153.31 265.303 152.67 265.303C151.854 265.303 151.07 265.455 150.318 265.759C149.582 266.047 148.934 266.463 148.374 267.007C147.814 267.551 147.374 268.207 147.054 268.975C146.734 269.743 146.574 270.607 146.574 271.567C146.574 272.543 146.734 273.423 147.054 274.207C147.374 274.975 147.814 275.631 148.374 276.175C148.95 276.719 149.606 277.135 150.342 277.423C151.078 277.711 151.854 277.855 152.67 277.855C153.278 277.855 153.806 277.791 154.254 277.663C154.718 277.535 155.094 277.399 155.382 277.255C155.686 277.095 155.894 276.975 156.006 276.895C156.182 276.799 156.334 276.703 156.462 276.607C156.606 276.511 156.758 276.463 156.918 276.463C157.078 276.463 157.222 276.511 157.35 276.607C157.494 276.687 157.63 276.823 157.758 277.015C157.838 277.127 157.902 277.255 157.95 277.399C158.014 277.527 158.03 277.671 157.998 277.831C157.982 278.071 157.87 278.279 157.662 278.455C157.454 278.615 157.238 278.767 157.014 278.911C156.87 278.975 156.614 279.111 156.246 279.319C155.894 279.511 155.43 279.679 154.854 279.823C154.278 279.983 153.582 280.063 152.766 280.063ZM175.121 278.479C175.249 278.719 175.313 278.927 175.313 279.103C175.329 279.263 175.281 279.415 175.169 279.559C175.057 279.687 174.881 279.807 174.641 279.919C174.257 280.095 173.953 280.135 173.729 280.039C173.521 279.943 173.329 279.711 173.153 279.343L167.153 266.575L161.201 279.319C161.025 279.687 160.825 279.919 160.601 280.015C160.393 280.111 160.089 280.071 159.689 279.895C159.449 279.799 159.273 279.679 159.161 279.535C159.065 279.391 159.025 279.215 159.041 279.007C159.073 278.799 159.153 278.559 159.281 278.287L166.169 263.911C166.265 263.719 166.401 263.567 166.577 263.455C166.769 263.327 166.969 263.263 167.177 263.263C167.321 263.263 167.457 263.287 167.585 263.335C167.713 263.383 167.825 263.455 167.921 263.551C168.017 263.647 168.097 263.775 168.161 263.935L175.121 278.479ZM162.641 275.239L163.457 273.391H170.897L171.689 275.239H162.641ZM178.508 280.015C178.204 280.015 177.972 279.967 177.812 279.871C177.652 279.791 177.548 279.671 177.5 279.511C177.468 279.335 177.452 279.135 177.452 278.911V264.319C177.452 264.111 177.476 263.935 177.524 263.791C177.588 263.631 177.692 263.503 177.836 263.407C177.996 263.311 178.228 263.263 178.532 263.263H183.836C184.62 263.263 185.332 263.383 185.972 263.623C186.628 263.847 187.196 264.183 187.676 264.631C188.156 265.079 188.524 265.647 188.78 266.335C189.052 267.007 189.188 267.791 189.188 268.687C189.188 269.247 189.1 269.831 188.924 270.439C188.748 271.031 188.476 271.591 188.108 272.119C187.756 272.647 187.3 273.087 186.74 273.439C186.18 273.791 185.5 273.991 184.7 274.039H179.612V278.935C179.612 279.159 179.58 279.351 179.516 279.511C179.468 279.671 179.364 279.791 179.204 279.871C179.06 279.967 178.828 280.015 178.508 280.015ZM188.804 279.751C188.468 279.975 188.18 280.047 187.94 279.967C187.716 279.887 187.5 279.695 187.292 279.391L183.452 273.247L185.828 272.887L189.14 278.167C189.3 278.423 189.396 278.639 189.428 278.815C189.476 278.991 189.444 279.151 189.332 279.295C189.236 279.439 189.06 279.591 188.804 279.751ZM179.612 271.927H184.364C184.732 271.927 185.076 271.863 185.396 271.735C185.716 271.591 185.996 271.383 186.236 271.111C186.476 270.839 186.668 270.503 186.812 270.103C186.956 269.703 187.028 269.223 187.028 268.663C187.028 267.975 186.9 267.391 186.644 266.911C186.404 266.431 186.044 266.071 185.564 265.831C185.084 265.575 184.492 265.447 183.788 265.447H179.612V271.927ZM193.196 280.015C192.876 280.015 192.636 279.967 192.476 279.871C192.332 279.791 192.236 279.671 192.188 279.511C192.14 279.335 192.116 279.135 192.116 278.911V264.343C192.116 264.119 192.14 263.927 192.188 263.767C192.252 263.607 192.356 263.487 192.5 263.407C192.66 263.311 192.9 263.263 193.22 263.263C193.54 263.263 193.772 263.311 193.916 263.407C194.076 263.487 194.172 263.607 194.204 263.767C194.252 263.927 194.276 264.127 194.276 264.367V278.935C194.276 279.159 194.252 279.351 194.204 279.511C194.156 279.671 194.052 279.791 193.892 279.871C193.748 279.967 193.516 280.015 193.196 280.015ZM198.711 280.015C198.391 280.015 198.151 279.967 197.991 279.871C197.847 279.791 197.751 279.671 197.703 279.511C197.655 279.335 197.631 279.135 197.631 278.911V264.343C197.631 263.927 197.711 263.647 197.871 263.503C198.047 263.343 198.351 263.263 198.783 263.263H208.431C208.655 263.263 208.847 263.287 209.007 263.335C209.167 263.383 209.287 263.487 209.367 263.647C209.447 263.807 209.487 264.047 209.487 264.367C209.487 264.687 209.439 264.927 209.343 265.087C209.263 265.231 209.143 265.327 208.983 265.375C208.823 265.423 208.631 265.447 208.407 265.447H199.791V270.415H205.791C206.015 270.415 206.199 270.439 206.343 270.487C206.503 270.535 206.623 270.631 206.703 270.775C206.783 270.919 206.823 271.143 206.823 271.447C206.823 271.735 206.783 271.951 206.703 272.095C206.623 272.239 206.503 272.335 206.343 272.383C206.183 272.415 205.983 272.431 205.743 272.431H199.791V277.855H208.431C208.655 277.855 208.847 277.879 209.007 277.927C209.167 277.975 209.287 278.079 209.367 278.239C209.447 278.383 209.487 278.615 209.487 278.935C209.487 279.255 209.439 279.495 209.343 279.655C209.263 279.799 209.143 279.895 208.983 279.943C208.823 279.991 208.631 280.015 208.407 280.015H198.711ZM217.264 280.255C216.656 280.255 216.08 280.183 215.536 280.039C215.008 279.895 214.52 279.703 214.072 279.463C213.64 279.207 213.256 278.927 212.92 278.623C212.584 278.319 212.32 278.015 212.128 277.711C211.952 277.455 211.84 277.247 211.792 277.087C211.744 276.911 211.752 276.743 211.816 276.583C211.896 276.423 212.048 276.247 212.272 276.055C212.528 275.863 212.752 275.775 212.944 275.791C213.136 275.791 213.312 275.863 213.472 276.007C213.648 276.151 213.824 276.343 214 276.583C214.4 277.127 214.888 277.527 215.464 277.783C216.04 278.023 216.608 278.143 217.168 278.143C217.888 278.143 218.528 278.047 219.088 277.855C219.648 277.663 220.088 277.375 220.408 276.991C220.744 276.591 220.912 276.079 220.912 275.455C220.912 274.943 220.784 274.511 220.528 274.159C220.272 273.807 219.928 273.511 219.496 273.271C219.064 273.015 218.584 272.799 218.056 272.623C217.528 272.431 216.992 272.247 216.448 272.071C216.016 271.927 215.592 271.767 215.176 271.591C214.76 271.399 214.368 271.191 214 270.967C213.632 270.727 213.304 270.447 213.016 270.127C212.744 269.807 212.528 269.431 212.368 268.999C212.224 268.567 212.152 268.063 212.152 267.487C212.152 266.607 212.36 265.831 212.776 265.159C213.208 264.487 213.808 263.967 214.576 263.599C215.344 263.215 216.232 263.023 217.24 263.023C217.832 263.023 218.376 263.079 218.872 263.191C219.368 263.303 219.808 263.455 220.192 263.647C220.576 263.823 220.904 264.015 221.176 264.223C221.448 264.415 221.656 264.599 221.8 264.775C222.088 265.079 222.248 265.335 222.28 265.543C222.312 265.751 222.192 266.007 221.92 266.311C221.664 266.599 221.416 266.751 221.176 266.767C220.936 266.783 220.672 266.671 220.384 266.431C220.08 266.079 219.76 265.807 219.424 265.615C219.104 265.423 218.76 265.295 218.392 265.231C218.04 265.151 217.648 265.111 217.216 265.111C216.8 265.111 216.408 265.167 216.04 265.279C215.688 265.375 215.376 265.527 215.104 265.735C214.848 265.943 214.648 266.199 214.504 266.503C214.36 266.791 214.288 267.127 214.288 267.511C214.288 267.943 214.4 268.311 214.624 268.615C214.864 268.919 215.176 269.183 215.56 269.407C215.944 269.615 216.376 269.807 216.856 269.983C217.336 270.143 217.84 270.303 218.368 270.463C218.944 270.639 219.512 270.855 220.072 271.111C220.632 271.351 221.136 271.655 221.584 272.023C222.032 272.375 222.392 272.823 222.664 273.367C222.936 273.911 223.072 274.583 223.072 275.383C223.072 276.183 222.912 276.887 222.592 277.495C222.288 278.103 221.864 278.615 221.32 279.031C220.776 279.431 220.152 279.735 219.448 279.943C218.76 280.151 218.032 280.255 217.264 280.255Z" fill="#007CC1"/>
<defs>
<filter id="filter0_d_39_661" x="0.5" y="0.5" width="333" height="334" filterUnits="userSpaceOnUse" color-interpolation-filters="sRGB">
<feFlood flood-opacity="0" result="BackgroundImageFix"/>
<feColorMatrix in="SourceAlpha" type="matrix" values="0 0 0 0 0 0 0 0 0 0 0 0 0 0 0 0 0 0 127 0" result="hardAlpha"/>
<feOffset dx="-17" dy="-13"/>
<feGaussianBlur stdDeviation="8.75"/>
<feComposite in2="hardAlpha" operator="out"/>
<feColorMatrix type="matrix" values="0 0 0 0 0 0 0 0 0 0 0 0 0 0 0 0 0 0 0.07 0"/>
<feBlend mode="normal" in2="BackgroundImageFix" result="effect1_dropShadow_39_661"/>
<feBlend mode="normal" in="SourceGraphic" in2="effect1_dropShadow_39_661" result="shape"/>
</filter>
</defs>
</svg>
