<svg width="335" height="334" viewBox="0 0 335 334" fill="none" xmlns="http://www.w3.org/2000/svg">
<g filter="url(#filter0_d_39_780)">
<path d="M35 199C35 119.804 35 80.2061 59.603 55.603C84.2061 31 123.804 31 203 31H254C291.712 31 310.569 31 322.284 42.7157C334 54.4315 334 73.2876 334 111V173C334 246.539 334 283.309 311.154 306.154C288.309 329 251.539 329 178 329H115C77.2876 329 58.4315 329 46.7157 317.284C35 305.569 35 286.712 35 249V199Z" fill="white"/>
</g>
<rect x="69.5615" y="108.021" width="229.878" height="126.457" stroke="white" stroke-width="2"/>
<mask id="path-3-outside-1_39_780" maskUnits="userSpaceOnUse" x="156.903" y="114.625" width="85" height="91" fill="black">
<rect fill="white" x="156.903" y="114.625" width="85" height="91"/>
<path d="M239.609 129.501V118.467C239.609 118.215 239.557 117.965 239.456 117.734C239.356 117.503 239.209 117.295 239.025 117.123C238.841 116.951 238.624 116.819 238.387 116.734C238.15 116.649 237.899 116.613 237.648 116.628L184.456 120.306C181.939 120.314 179.457 120.901 177.202 122.022C174.946 123.143 172.978 124.769 171.449 126.773C169.919 128.778 168.869 131.108 168.379 133.583C167.89 136.059 167.974 138.614 168.625 141.052L163.738 145.961C162.201 147.494 160.981 149.317 160.151 151.326C159.321 153.335 158.897 155.488 158.903 157.663V166.282C158.905 168.32 159.39 170.328 160.318 172.14C161.246 173.953 162.591 175.518 164.241 176.708L164.213 176.722C164.805 177.869 165.545 178.933 166.414 179.885C168.414 181.968 169.709 184.63 170.114 187.492L171.369 198.197C171.528 199.539 172.173 200.776 173.181 201.673C174.189 202.57 175.49 203.064 176.838 203.063H177.653C179 203.062 180.301 202.566 181.307 201.668C182.314 200.77 182.957 199.533 183.115 198.191L184.474 186.605L182.653 186.39L184.687 186.605L186.046 198.191C186.204 199.534 186.848 200.771 187.855 201.669C188.863 202.567 190.164 203.063 191.512 203.063H192.326C193.673 203.062 194.973 202.567 195.979 201.67C196.986 200.773 197.63 199.538 197.789 198.197L199.043 187.492C199.449 184.632 200.743 181.973 202.741 179.891C203.604 178.937 204.338 177.874 204.924 176.728C206.573 175.534 207.917 173.964 208.845 172.148C209.773 170.333 210.258 168.322 210.261 166.282V157.663C210.256 156.226 210.063 154.795 209.687 153.409H237.775C238.261 153.409 238.728 153.215 239.072 152.87C239.415 152.525 239.609 152.058 239.609 151.57V140.536C239.609 140.048 239.415 139.58 239.072 139.235C238.728 138.89 238.261 138.697 237.775 138.697H200.982C201.053 138.086 201.09 137.472 201.09 136.857C201.086 135.866 200.993 134.877 200.811 133.902L237.901 131.34C238.365 131.308 238.8 131.1 239.117 130.759C239.434 130.417 239.61 129.968 239.609 129.501ZM162.572 166.282V157.663C162.567 155.972 162.897 154.296 163.543 152.734C164.188 151.172 165.136 149.754 166.332 148.561L170.092 144.786C171.484 147.313 173.506 149.435 175.962 150.945L173.045 153.504C172.061 154.367 171.271 155.431 170.73 156.624C170.189 157.818 169.909 159.114 169.909 160.425V175.293C167.838 174.867 165.978 173.738 164.642 172.096C163.305 170.455 162.574 168.401 162.572 166.282ZM190.452 153.409L192.58 155.275C189.783 155.141 187.006 155.818 184.582 157.223C182.162 155.819 179.39 155.142 176.596 155.274L179.602 152.635C181.213 153.148 182.893 153.409 184.582 153.409H190.452ZM200.048 177.401C197.524 180.051 195.899 183.433 195.404 187.063L194.148 197.768C194.094 198.214 193.879 198.625 193.544 198.923C193.209 199.222 192.776 199.386 192.328 199.387H191.514C191.064 199.387 190.63 199.221 190.295 198.921C189.959 198.622 189.745 198.209 189.692 197.761L188.333 186.175C188.226 185.254 187.784 184.404 187.093 183.788C186.402 183.172 185.509 182.831 184.584 182.831C183.659 182.831 182.766 183.172 182.075 183.788C181.384 184.404 180.943 185.254 180.835 186.175L179.476 197.761C179.424 198.209 179.209 198.622 178.874 198.921C178.538 199.221 178.104 199.387 177.655 199.387H176.84C176.392 199.386 175.96 199.222 175.624 198.923C175.289 198.625 175.074 198.214 175.021 197.768L173.761 187.063C173.382 184.167 172.257 181.421 170.496 179.095C170.906 179.133 171.321 179.157 171.741 179.157C172.228 179.157 172.694 178.963 173.038 178.619C173.382 178.274 173.575 177.806 173.575 177.318V160.425C173.583 160.129 173.615 159.834 173.671 159.544C174.099 159.385 174.538 159.254 174.984 159.152C176.453 158.847 177.969 158.846 179.439 159.148C180.908 159.451 182.301 160.051 183.531 160.912C183.839 161.127 184.205 161.243 184.581 161.243C184.956 161.243 185.322 161.127 185.63 160.912C187.851 159.375 190.559 158.71 193.238 159.044C195.916 159.378 198.379 160.687 200.158 162.723C201.937 164.758 202.907 167.379 202.885 170.085C202.863 172.791 201.849 175.395 200.037 177.401H200.048ZM206.593 157.663V166.282C206.587 166.811 206.537 167.339 206.441 167.86C206.441 167.809 206.441 167.757 206.426 167.706C206.074 165.387 205.169 163.187 203.79 161.292C202.411 159.398 200.597 157.864 198.502 156.82C197.965 155.552 197.15 154.42 196.118 153.51L196.015 153.409H205.859C206.343 154.775 206.591 156.213 206.593 157.663ZM235.94 142.375V149.731H184.582C182.043 149.731 179.561 148.976 177.449 147.561C175.338 146.147 173.692 144.136 172.72 141.784C171.748 139.432 171.494 136.843 171.99 134.346C172.485 131.849 173.708 129.555 175.503 127.755C177.299 125.954 179.587 124.728 182.077 124.232C184.568 123.735 187.15 123.99 189.496 124.964C191.842 125.938 193.847 127.588 195.258 129.705C196.669 131.822 197.422 134.311 197.422 136.857C197.416 137.944 197.274 139.026 197 140.078C196.93 140.349 196.924 140.633 196.98 140.908C197.037 141.182 197.155 141.44 197.327 141.662C197.498 141.884 197.718 142.063 197.969 142.187C198.22 142.31 198.496 142.374 198.775 142.375H235.94ZM235.94 127.784L199.727 130.288C198.512 127.494 196.554 125.088 194.067 123.333L235.94 120.437V127.784Z"/>
</mask>
<path d="M239.609 129.501V118.467C239.609 118.215 239.557 117.965 239.456 117.734C239.356 117.503 239.209 117.295 239.025 117.123C238.841 116.951 238.624 116.819 238.387 116.734C238.15 116.649 237.899 116.613 237.648 116.628L184.456 120.306C181.939 120.314 179.457 120.901 177.202 122.022C174.946 123.143 172.978 124.769 171.449 126.773C169.919 128.778 168.869 131.108 168.379 133.583C167.89 136.059 167.974 138.614 168.625 141.052L163.738 145.961C162.201 147.494 160.981 149.317 160.151 151.326C159.321 153.335 158.897 155.488 158.903 157.663V166.282C158.905 168.32 159.39 170.328 160.318 172.14C161.246 173.953 162.591 175.518 164.241 176.708L164.213 176.722C164.805 177.869 165.545 178.933 166.414 179.885C168.414 181.968 169.709 184.63 170.114 187.492L171.369 198.197C171.528 199.539 172.173 200.776 173.181 201.673C174.189 202.57 175.49 203.064 176.838 203.063H177.653C179 203.062 180.301 202.566 181.307 201.668C182.314 200.77 182.957 199.533 183.115 198.191L184.474 186.605L182.653 186.39L184.687 186.605L186.046 198.191C186.204 199.534 186.848 200.771 187.855 201.669C188.863 202.567 190.164 203.063 191.512 203.063H192.326C193.673 203.062 194.973 202.567 195.979 201.67C196.986 200.773 197.63 199.538 197.789 198.197L199.043 187.492C199.449 184.632 200.743 181.973 202.741 179.891C203.604 178.937 204.338 177.874 204.924 176.728C206.573 175.534 207.917 173.964 208.845 172.148C209.773 170.333 210.258 168.322 210.261 166.282V157.663C210.256 156.226 210.063 154.795 209.687 153.409H237.775C238.261 153.409 238.728 153.215 239.072 152.87C239.415 152.525 239.609 152.058 239.609 151.57V140.536C239.609 140.048 239.415 139.58 239.072 139.235C238.728 138.89 238.261 138.697 237.775 138.697H200.982C201.053 138.086 201.09 137.472 201.09 136.857C201.086 135.866 200.993 134.877 200.811 133.902L237.901 131.34C238.365 131.308 238.8 131.1 239.117 130.759C239.434 130.417 239.61 129.968 239.609 129.501ZM162.572 166.282V157.663C162.567 155.972 162.897 154.296 163.543 152.734C164.188 151.172 165.136 149.754 166.332 148.561L170.092 144.786C171.484 147.313 173.506 149.435 175.962 150.945L173.045 153.504C172.061 154.367 171.271 155.431 170.73 156.624C170.189 157.818 169.909 159.114 169.909 160.425V175.293C167.838 174.867 165.978 173.738 164.642 172.096C163.305 170.455 162.574 168.401 162.572 166.282ZM190.452 153.409L192.58 155.275C189.783 155.141 187.006 155.818 184.582 157.223C182.162 155.819 179.39 155.142 176.596 155.274L179.602 152.635C181.213 153.148 182.893 153.409 184.582 153.409H190.452ZM200.048 177.401C197.524 180.051 195.899 183.433 195.404 187.063L194.148 197.768C194.094 198.214 193.879 198.625 193.544 198.923C193.209 199.222 192.776 199.386 192.328 199.387H191.514C191.064 199.387 190.63 199.221 190.295 198.921C189.959 198.622 189.745 198.209 189.692 197.761L188.333 186.175C188.226 185.254 187.784 184.404 187.093 183.788C186.402 183.172 185.509 182.831 184.584 182.831C183.659 182.831 182.766 183.172 182.075 183.788C181.384 184.404 180.943 185.254 180.835 186.175L179.476 197.761C179.424 198.209 179.209 198.622 178.874 198.921C178.538 199.221 178.104 199.387 177.655 199.387H176.84C176.392 199.386 175.96 199.222 175.624 198.923C175.289 198.625 175.074 198.214 175.021 197.768L173.761 187.063C173.382 184.167 172.257 181.421 170.496 179.095C170.906 179.133 171.321 179.157 171.741 179.157C172.228 179.157 172.694 178.963 173.038 178.619C173.382 178.274 173.575 177.806 173.575 177.318V160.425C173.583 160.129 173.615 159.834 173.671 159.544C174.099 159.385 174.538 159.254 174.984 159.152C176.453 158.847 177.969 158.846 179.439 159.148C180.908 159.451 182.301 160.051 183.531 160.912C183.839 161.127 184.205 161.243 184.581 161.243C184.956 161.243 185.322 161.127 185.63 160.912C187.851 159.375 190.559 158.71 193.238 159.044C195.916 159.378 198.379 160.687 200.158 162.723C201.937 164.758 202.907 167.379 202.885 170.085C202.863 172.791 201.849 175.395 200.037 177.401H200.048ZM206.593 157.663V166.282C206.587 166.811 206.537 167.339 206.441 167.86C206.441 167.809 206.441 167.757 206.426 167.706C206.074 165.387 205.169 163.187 203.79 161.292C202.411 159.398 200.597 157.864 198.502 156.82C197.965 155.552 197.15 154.42 196.118 153.51L196.015 153.409H205.859C206.343 154.775 206.591 156.213 206.593 157.663ZM235.94 142.375V149.731H184.582C182.043 149.731 179.561 148.976 177.449 147.561C175.338 146.147 173.692 144.136 172.72 141.784C171.748 139.432 171.494 136.843 171.99 134.346C172.485 131.849 173.708 129.555 175.503 127.755C177.299 125.954 179.587 124.728 182.077 124.232C184.568 123.735 187.15 123.99 189.496 124.964C191.842 125.938 193.847 127.588 195.258 129.705C196.669 131.822 197.422 134.311 197.422 136.857C197.416 137.944 197.274 139.026 197 140.078C196.93 140.349 196.924 140.633 196.98 140.908C197.037 141.182 197.155 141.44 197.327 141.662C197.498 141.884 197.718 142.063 197.969 142.187C198.22 142.31 198.496 142.374 198.775 142.375H235.94ZM235.94 127.784L199.727 130.288C198.512 127.494 196.554 125.088 194.067 123.333L235.94 120.437V127.784Z" fill="#007CC1"/>
<path d="M239.609 129.501V118.467C239.609 118.215 239.557 117.965 239.456 117.734C239.356 117.503 239.209 117.295 239.025 117.123C238.841 116.951 238.624 116.819 238.387 116.734C238.15 116.649 237.899 116.613 237.648 116.628L184.456 120.306C181.939 120.314 179.457 120.901 177.202 122.022C174.946 123.143 172.978 124.769 171.449 126.773C169.919 128.778 168.869 131.108 168.379 133.583C167.89 136.059 167.974 138.614 168.625 141.052L163.738 145.961C162.201 147.494 160.981 149.317 160.151 151.326C159.321 153.335 158.897 155.488 158.903 157.663V166.282C158.905 168.32 159.39 170.328 160.318 172.14C161.246 173.953 162.591 175.518 164.241 176.708L164.213 176.722C164.805 177.869 165.545 178.933 166.414 179.885C168.414 181.968 169.709 184.63 170.114 187.492L171.369 198.197C171.528 199.539 172.173 200.776 173.181 201.673C174.189 202.57 175.49 203.064 176.838 203.063H177.653C179 203.062 180.301 202.566 181.307 201.668C182.314 200.77 182.957 199.533 183.115 198.191L184.474 186.605L182.653 186.39L184.687 186.605L186.046 198.191C186.204 199.534 186.848 200.771 187.855 201.669C188.863 202.567 190.164 203.063 191.512 203.063H192.326C193.673 203.062 194.973 202.567 195.979 201.67C196.986 200.773 197.63 199.538 197.789 198.197L199.043 187.492C199.449 184.632 200.743 181.973 202.741 179.891C203.604 178.937 204.338 177.874 204.924 176.728C206.573 175.534 207.917 173.964 208.845 172.148C209.773 170.333 210.258 168.322 210.261 166.282V157.663C210.256 156.226 210.063 154.795 209.687 153.409H237.775C238.261 153.409 238.728 153.215 239.072 152.87C239.415 152.525 239.609 152.058 239.609 151.57V140.536C239.609 140.048 239.415 139.58 239.072 139.235C238.728 138.89 238.261 138.697 237.775 138.697H200.982C201.053 138.086 201.09 137.472 201.09 136.857C201.086 135.866 200.993 134.877 200.811 133.902L237.901 131.34C238.365 131.308 238.8 131.1 239.117 130.759C239.434 130.417 239.61 129.968 239.609 129.501ZM162.572 166.282V157.663C162.567 155.972 162.897 154.296 163.543 152.734C164.188 151.172 165.136 149.754 166.332 148.561L170.092 144.786C171.484 147.313 173.506 149.435 175.962 150.945L173.045 153.504C172.061 154.367 171.271 155.431 170.73 156.624C170.189 157.818 169.909 159.114 169.909 160.425V175.293C167.838 174.867 165.978 173.738 164.642 172.096C163.305 170.455 162.574 168.401 162.572 166.282ZM190.452 153.409L192.58 155.275C189.783 155.141 187.006 155.818 184.582 157.223C182.162 155.819 179.39 155.142 176.596 155.274L179.602 152.635C181.213 153.148 182.893 153.409 184.582 153.409H190.452ZM200.048 177.401C197.524 180.051 195.899 183.433 195.404 187.063L194.148 197.768C194.094 198.214 193.879 198.625 193.544 198.923C193.209 199.222 192.776 199.386 192.328 199.387H191.514C191.064 199.387 190.63 199.221 190.295 198.921C189.959 198.622 189.745 198.209 189.692 197.761L188.333 186.175C188.226 185.254 187.784 184.404 187.093 183.788C186.402 183.172 185.509 182.831 184.584 182.831C183.659 182.831 182.766 183.172 182.075 183.788C181.384 184.404 180.943 185.254 180.835 186.175L179.476 197.761C179.424 198.209 179.209 198.622 178.874 198.921C178.538 199.221 178.104 199.387 177.655 199.387H176.84C176.392 199.386 175.96 199.222 175.624 198.923C175.289 198.625 175.074 198.214 175.021 197.768L173.761 187.063C173.382 184.167 172.257 181.421 170.496 179.095C170.906 179.133 171.321 179.157 171.741 179.157C172.228 179.157 172.694 178.963 173.038 178.619C173.382 178.274 173.575 177.806 173.575 177.318V160.425C173.583 160.129 173.615 159.834 173.671 159.544C174.099 159.385 174.538 159.254 174.984 159.152C176.453 158.847 177.969 158.846 179.439 159.148C180.908 159.451 182.301 160.051 183.531 160.912C183.839 161.127 184.205 161.243 184.581 161.243C184.956 161.243 185.322 161.127 185.63 160.912C187.851 159.375 190.559 158.71 193.238 159.044C195.916 159.378 198.379 160.687 200.158 162.723C201.937 164.758 202.907 167.379 202.885 170.085C202.863 172.791 201.849 175.395 200.037 177.401H200.048ZM206.593 157.663V166.282C206.587 166.811 206.537 167.339 206.441 167.86C206.441 167.809 206.441 167.757 206.426 167.706C206.074 165.387 205.169 163.187 203.79 161.292C202.411 159.398 200.597 157.864 198.502 156.82C197.965 155.552 197.15 154.42 196.118 153.51L196.015 153.409H205.859C206.343 154.775 206.591 156.213 206.593 157.663ZM235.94 142.375V149.731H184.582C182.043 149.731 179.561 148.976 177.449 147.561C175.338 146.147 173.692 144.136 172.72 141.784C171.748 139.432 171.494 136.843 171.99 134.346C172.485 131.849 173.708 129.555 175.503 127.755C177.299 125.954 179.587 124.728 182.077 124.232C184.568 123.735 187.15 123.99 189.496 124.964C191.842 125.938 193.847 127.588 195.258 129.705C196.669 131.822 197.422 134.311 197.422 136.857C197.416 137.944 197.274 139.026 197 140.078C196.93 140.349 196.924 140.633 196.98 140.908C197.037 141.182 197.155 141.44 197.327 141.662C197.498 141.884 197.718 142.063 197.969 142.187C198.22 142.31 198.496 142.374 198.775 142.375H235.94ZM235.94 127.784L199.727 130.288C198.512 127.494 196.554 125.088 194.067 123.333L235.94 120.437V127.784Z" stroke="white" stroke-width="4" mask="url(#path-3-outside-1_39_780)"/>
<path d="M184.502 127.03H184.5C182.464 127.03 180.471 127.612 178.772 128.707C177.073 129.802 175.744 131.361 174.957 133.193C174.17 135.026 173.963 137.044 174.365 138.992C174.767 140.94 175.757 142.724 177.205 144.12C178.653 145.517 180.493 146.463 182.491 146.847C184.489 147.23 186.56 147.034 188.444 146.281C190.328 145.528 191.945 144.251 193.084 142.606C194.225 140.96 194.836 139.021 194.836 137.034V137.033C194.832 134.369 193.733 131.823 191.792 129.95C189.853 128.079 187.23 127.033 184.502 127.03ZM184.5 141.436C183.582 141.436 182.688 141.173 181.93 140.685C181.173 140.197 180.588 139.507 180.244 138.707C179.901 137.907 179.812 137.029 179.986 136.182C180.161 135.335 180.593 134.552 181.234 133.933C181.875 133.315 182.697 132.89 183.596 132.717C184.496 132.545 185.428 132.634 186.273 132.971C187.118 133.309 187.834 133.878 188.336 134.602C188.837 135.325 189.102 136.171 189.102 137.034C189.102 138.189 188.626 139.305 187.767 140.134C186.906 140.964 185.732 141.436 184.5 141.436Z" fill="#007CC1" stroke="white" stroke-width="2"/>
<path d="M207.544 199.052V190.912H234.935V221.817H134.066V190.912H161.457V199.052V199.053C161.462 203.681 163.312 208.118 166.599 211.389C169.886 214.66 174.342 216.5 178.988 216.505H178.989H190.011H190.012C194.659 216.5 199.114 214.66 202.401 211.389C205.689 208.118 207.538 203.681 207.544 199.053V199.052ZM237.772 185.255H204.707C203.956 185.255 203.235 185.552 202.702 186.082C202.17 186.612 201.87 187.332 201.87 188.083V199.051C201.866 202.177 200.617 205.175 198.394 207.387C196.171 209.6 193.156 210.845 190.01 210.848H178.99C175.845 210.845 172.83 209.6 170.607 207.387C168.384 205.175 167.134 202.177 167.131 199.051V188.083C167.131 187.332 166.831 186.612 166.298 186.082C165.766 185.552 165.045 185.255 164.294 185.255H131.229C130.478 185.255 129.757 185.552 129.224 186.082C128.692 186.612 128.392 187.332 128.392 188.083V224.645C128.392 225.397 128.692 226.117 129.224 226.646C129.757 227.176 130.478 227.473 131.229 227.473H237.772C238.523 227.473 239.244 227.176 239.776 226.647C240.309 226.117 240.609 225.397 240.609 224.645V188.083C240.609 187.332 240.309 186.612 239.776 186.082C239.244 185.552 238.523 185.255 237.772 185.255Z" fill="#007CC1" stroke="white" stroke-width="2"/>
<path d="M140.948 279.309C140.084 279.309 139.244 279.181 138.428 278.925C137.612 278.669 136.852 278.301 136.148 277.821C135.444 277.341 134.82 276.749 134.276 276.045C133.748 275.325 133.332 274.525 133.028 273.645C132.724 272.749 132.572 271.765 132.572 270.693C132.572 269.669 132.724 268.725 133.028 267.861C133.332 266.981 133.748 266.205 134.276 265.533C134.804 264.861 135.42 264.293 136.124 263.829C136.844 263.349 137.612 262.989 138.428 262.749C139.26 262.493 140.108 262.365 140.972 262.365C141.772 262.365 142.46 262.445 143.036 262.605C143.612 262.765 144.084 262.941 144.452 263.133C144.82 263.309 145.068 263.445 145.196 263.541C145.42 263.669 145.636 263.821 145.844 263.997C146.052 264.173 146.164 264.381 146.18 264.621C146.212 264.797 146.196 264.941 146.132 265.053C146.084 265.165 146.02 265.285 145.94 265.413C145.812 265.605 145.676 265.749 145.532 265.845C145.404 265.925 145.26 265.965 145.1 265.965C144.94 265.965 144.796 265.917 144.668 265.821C144.54 265.725 144.372 265.613 144.164 265.485C144.068 265.421 143.876 265.317 143.588 265.173C143.3 265.029 142.932 264.893 142.484 264.765C142.036 264.621 141.492 264.549 140.852 264.549C140.036 264.549 139.252 264.701 138.5 265.005C137.764 265.293 137.116 265.709 136.556 266.253C135.996 266.797 135.556 267.453 135.236 268.221C134.916 268.989 134.756 269.853 134.756 270.813C134.756 271.789 134.916 272.669 135.236 273.453C135.556 274.221 135.996 274.877 136.556 275.421C137.132 275.965 137.788 276.381 138.524 276.669C139.26 276.957 140.036 277.101 140.852 277.101C141.46 277.101 141.988 277.037 142.436 276.909C142.9 276.781 143.276 276.645 143.564 276.501C143.868 276.341 144.076 276.221 144.188 276.141C144.364 276.045 144.516 275.949 144.644 275.853C144.788 275.757 144.94 275.709 145.1 275.709C145.26 275.709 145.404 275.757 145.532 275.853C145.676 275.933 145.812 276.069 145.94 276.261C146.02 276.373 146.084 276.501 146.132 276.645C146.196 276.773 146.212 276.917 146.18 277.077C146.164 277.317 146.052 277.525 145.844 277.701C145.636 277.861 145.42 278.013 145.196 278.157C145.052 278.221 144.796 278.357 144.428 278.565C144.076 278.757 143.612 278.925 143.036 279.069C142.46 279.229 141.764 279.309 140.948 279.309ZM149.972 279.261C149.652 279.261 149.412 279.213 149.252 279.117C149.108 279.037 149.012 278.917 148.964 278.757C148.916 278.581 148.892 278.381 148.892 278.157V263.589C148.892 263.365 148.916 263.173 148.964 263.013C149.028 262.853 149.132 262.733 149.276 262.653C149.436 262.557 149.676 262.509 149.996 262.509C150.316 262.509 150.548 262.557 150.692 262.653C150.852 262.733 150.948 262.853 150.98 263.013C151.028 263.173 151.052 263.373 151.052 263.613V278.181C151.052 278.405 151.028 278.597 150.98 278.757C150.932 278.917 150.828 279.037 150.668 279.117C150.524 279.213 150.292 279.261 149.972 279.261ZM155.463 279.261C155.159 279.261 154.927 279.213 154.767 279.117C154.607 279.037 154.503 278.917 154.455 278.757C154.423 278.581 154.407 278.381 154.407 278.157V263.565C154.407 263.357 154.431 263.181 154.479 263.037C154.543 262.877 154.647 262.749 154.791 262.653C154.951 262.557 155.183 262.509 155.487 262.509H160.791C161.575 262.509 162.287 262.629 162.927 262.869C163.583 263.093 164.151 263.429 164.631 263.877C165.111 264.325 165.479 264.893 165.735 265.581C166.007 266.253 166.143 267.037 166.143 267.933C166.143 268.493 166.055 269.077 165.879 269.685C165.703 270.277 165.431 270.837 165.063 271.365C164.711 271.893 164.255 272.333 163.695 272.685C163.135 273.037 162.455 273.237 161.655 273.285H156.567V278.181C156.567 278.405 156.535 278.597 156.471 278.757C156.423 278.917 156.319 279.037 156.159 279.117C156.015 279.213 155.783 279.261 155.463 279.261ZM165.759 278.997C165.423 279.221 165.135 279.293 164.895 279.213C164.671 279.133 164.455 278.941 164.247 278.637L160.407 272.493L162.783 272.133L166.095 277.413C166.255 277.669 166.351 277.885 166.383 278.061C166.431 278.237 166.399 278.397 166.287 278.541C166.191 278.685 166.015 278.837 165.759 278.997ZM156.567 271.173H161.319C161.687 271.173 162.031 271.109 162.351 270.981C162.671 270.837 162.951 270.629 163.191 270.357C163.431 270.085 163.623 269.749 163.767 269.349C163.911 268.949 163.983 268.469 163.983 267.909C163.983 267.221 163.855 266.637 163.599 266.157C163.359 265.677 162.999 265.317 162.519 265.077C162.039 264.821 161.447 264.693 160.743 264.693H156.567V271.173ZM176.08 279.333C175.008 279.333 174.048 279.149 173.2 278.781C172.368 278.397 171.656 277.869 171.064 277.197C170.488 276.509 170.048 275.701 169.744 274.773C169.44 273.829 169.288 272.805 169.288 271.701V263.589C169.288 263.365 169.312 263.173 169.36 263.013C169.424 262.853 169.528 262.733 169.672 262.653C169.832 262.557 170.072 262.509 170.392 262.509C170.712 262.509 170.952 262.557 171.112 262.653C171.272 262.733 171.376 262.853 171.424 263.013C171.472 263.173 171.496 263.373 171.496 263.613V271.701C171.496 272.773 171.672 273.717 172.024 274.533C172.376 275.349 172.896 275.997 173.584 276.477C174.272 276.941 175.128 277.173 176.152 277.173C177.112 277.173 177.936 276.949 178.624 276.501C179.312 276.053 179.84 275.421 180.208 274.605C180.576 273.789 180.76 272.813 180.76 271.677V263.445C180.76 263.253 180.784 263.093 180.832 262.965C180.896 262.821 181.008 262.709 181.168 262.629C181.328 262.549 181.568 262.509 181.888 262.509C182.192 262.509 182.416 262.557 182.56 262.653C182.72 262.733 182.824 262.853 182.872 263.013C182.92 263.173 182.944 263.373 182.944 263.613V271.749C182.944 272.869 182.792 273.893 182.488 274.821C182.184 275.733 181.736 276.533 181.144 277.221C180.568 277.893 179.848 278.413 178.984 278.781C178.136 279.149 177.168 279.333 176.08 279.333ZM194.149 279.309C192.901 279.309 191.781 279.109 190.789 278.709C189.797 278.293 188.941 277.709 188.221 276.957C187.517 276.189 186.973 275.269 186.589 274.197C186.205 273.125 186.013 271.933 186.013 270.621C186.013 269.373 186.205 268.245 186.589 267.237C186.989 266.229 187.557 265.365 188.293 264.645C189.029 263.925 189.909 263.365 190.933 262.965C191.957 262.549 193.109 262.333 194.389 262.317C194.885 262.317 195.389 262.365 195.901 262.461C196.429 262.557 196.933 262.693 197.413 262.869C197.893 263.045 198.325 263.253 198.709 263.493C198.981 263.669 199.213 263.853 199.405 264.045C199.597 264.221 199.701 264.405 199.717 264.597C199.733 264.693 199.717 264.813 199.669 264.957C199.621 265.101 199.557 265.237 199.477 265.365C199.349 265.557 199.205 265.701 199.045 265.797C198.901 265.877 198.757 265.917 198.613 265.917C198.549 265.917 198.437 265.877 198.277 265.797C198.117 265.717 197.917 265.597 197.677 265.437C197.405 265.277 197.085 265.125 196.717 264.981C196.365 264.837 195.981 264.725 195.565 264.645C195.149 264.565 194.717 264.525 194.269 264.525C193.037 264.525 191.965 264.773 191.053 265.269C190.141 265.765 189.437 266.477 188.941 267.405C188.461 268.333 188.213 269.429 188.197 270.693C188.213 272.005 188.469 273.141 188.965 274.101C189.461 275.061 190.157 275.805 191.053 276.333C191.965 276.861 193.029 277.125 194.245 277.125C194.645 277.125 195.053 277.093 195.469 277.029C195.885 276.965 196.293 276.877 196.693 276.765C197.109 276.637 197.493 276.485 197.845 276.309V271.677H193.645C193.437 271.677 193.253 271.653 193.093 271.605C192.949 271.557 192.837 271.461 192.757 271.317C192.693 271.173 192.661 270.957 192.661 270.669C192.661 270.381 192.701 270.165 192.781 270.021C192.861 269.877 192.973 269.781 193.117 269.733C193.261 269.685 193.437 269.661 193.645 269.661H198.853C199.173 269.661 199.413 269.717 199.573 269.829C199.733 269.941 199.845 270.085 199.909 270.261C199.989 270.421 200.029 270.621 200.029 270.861V276.765C200.029 277.021 199.885 277.293 199.597 277.581C199.325 277.853 198.933 278.109 198.421 278.349C198.053 278.541 197.637 278.709 197.173 278.853C196.725 278.997 196.245 279.109 195.733 279.189C195.221 279.269 194.693 279.309 194.149 279.309ZM204.253 279.261C203.933 279.261 203.693 279.213 203.533 279.117C203.389 279.037 203.293 278.917 203.245 278.757C203.197 278.581 203.173 278.381 203.173 278.157V263.589C203.173 263.365 203.197 263.173 203.245 263.013C203.309 262.853 203.413 262.733 203.557 262.653C203.717 262.557 203.957 262.509 204.277 262.509C204.597 262.509 204.829 262.557 204.973 262.653C205.133 262.733 205.229 262.853 205.261 263.013C205.309 263.173 205.333 263.373 205.333 263.613V278.181C205.333 278.405 205.309 278.597 205.261 278.757C205.213 278.917 205.109 279.037 204.949 279.117C204.805 279.213 204.573 279.261 204.253 279.261ZM223.069 277.725C223.197 277.965 223.261 278.173 223.261 278.349C223.277 278.509 223.229 278.661 223.117 278.805C223.005 278.933 222.829 279.053 222.589 279.165C222.205 279.341 221.901 279.381 221.677 279.285C221.469 279.189 221.277 278.957 221.101 278.589L215.101 265.821L209.149 278.565C208.973 278.933 208.773 279.165 208.549 279.261C208.341 279.357 208.037 279.317 207.637 279.141C207.397 279.045 207.221 278.925 207.109 278.781C207.013 278.637 206.973 278.461 206.989 278.253C207.021 278.045 207.101 277.805 207.229 277.533L214.117 263.157C214.213 262.965 214.349 262.813 214.525 262.701C214.717 262.573 214.917 262.509 215.125 262.509C215.269 262.509 215.405 262.533 215.533 262.581C215.661 262.629 215.773 262.701 215.869 262.797C215.965 262.893 216.045 263.021 216.109 263.181L223.069 277.725ZM210.589 274.485L211.405 272.637H218.845L219.637 274.485H210.589ZM230.079 279.501C229.471 279.501 228.895 279.429 228.351 279.285C227.823 279.141 227.335 278.949 226.887 278.709C226.455 278.453 226.071 278.173 225.735 277.869C225.399 277.565 225.135 277.261 224.943 276.957C224.767 276.701 224.655 276.493 224.607 276.333C224.559 276.157 224.567 275.989 224.631 275.829C224.711 275.669 224.863 275.493 225.087 275.301C225.343 275.109 225.567 275.021 225.759 275.037C225.951 275.037 226.127 275.109 226.287 275.253C226.463 275.397 226.639 275.589 226.815 275.829C227.215 276.373 227.703 276.773 228.279 277.029C228.855 277.269 229.423 277.389 229.983 277.389C230.703 277.389 231.343 277.293 231.903 277.101C232.463 276.909 232.903 276.621 233.223 276.237C233.559 275.837 233.727 275.325 233.727 274.701C233.727 274.189 233.599 273.757 233.343 273.405C233.087 273.053 232.743 272.757 232.311 272.517C231.879 272.261 231.399 272.045 230.871 271.869C230.343 271.677 229.807 271.493 229.263 271.317C228.831 271.173 228.407 271.013 227.991 270.837C227.575 270.645 227.183 270.437 226.815 270.213C226.447 269.973 226.119 269.693 225.831 269.373C225.559 269.053 225.343 268.677 225.183 268.245C225.039 267.813 224.967 267.309 224.967 266.733C224.967 265.853 225.175 265.077 225.591 264.405C226.023 263.733 226.623 263.213 227.391 262.845C228.159 262.461 229.047 262.269 230.055 262.269C230.647 262.269 231.191 262.325 231.687 262.437C232.183 262.549 232.623 262.701 233.007 262.893C233.391 263.069 233.719 263.261 233.991 263.469C234.263 263.661 234.471 263.845 234.615 264.021C234.903 264.325 235.063 264.581 235.095 264.789C235.127 264.997 235.007 265.253 234.735 265.557C234.479 265.845 234.231 265.997 233.991 266.013C233.751 266.029 233.487 265.917 233.199 265.677C232.895 265.325 232.575 265.053 232.239 264.861C231.919 264.669 231.575 264.541 231.207 264.477C230.855 264.397 230.463 264.357 230.031 264.357C229.615 264.357 229.223 264.413 228.855 264.525C228.503 264.621 228.191 264.773 227.919 264.981C227.663 265.189 227.463 265.445 227.319 265.749C227.175 266.037 227.103 266.373 227.103 266.757C227.103 267.189 227.215 267.557 227.439 267.861C227.679 268.165 227.991 268.429 228.375 268.653C228.759 268.861 229.191 269.053 229.671 269.229C230.151 269.389 230.655 269.549 231.183 269.709C231.759 269.885 232.327 270.101 232.887 270.357C233.447 270.597 233.951 270.901 234.399 271.269C234.847 271.621 235.207 272.069 235.479 272.613C235.751 273.157 235.887 273.829 235.887 274.629C235.887 275.429 235.727 276.133 235.407 276.741C235.103 277.349 234.679 277.861 234.135 278.277C233.591 278.677 232.967 278.981 232.263 279.189C231.575 279.397 230.847 279.501 230.079 279.501Z" fill="#007CC1"/>
<defs>
<filter id="filter0_d_39_780" x="0.5" y="0.5" width="334" height="333" filterUnits="userSpaceOnUse" color-interpolation-filters="sRGB">
<feFlood flood-opacity="0" result="BackgroundImageFix"/>
<feColorMatrix in="SourceAlpha" type="matrix" values="0 0 0 0 0 0 0 0 0 0 0 0 0 0 0 0 0 0 127 0" result="hardAlpha"/>
<feOffset dx="-17" dy="-13"/>
<feGaussianBlur stdDeviation="8.75"/>
<feComposite in2="hardAlpha" operator="out"/>
<feColorMatrix type="matrix" values="0 0 0 0 0 0 0 0 0 0 0 0 0 0 0 0 0 0 0.07 0"/>
<feBlend mode="normal" in2="BackgroundImageFix" result="effect1_dropShadow_39_780"/>
<feBlend mode="normal" in="SourceGraphic" in2="effect1_dropShadow_39_780" result="shape"/>
</filter>
</defs>
</svg>
