<svg width="334" height="335" viewBox="0 0 334 335" fill="none" xmlns="http://www.w3.org/2000/svg">
<g filter="url(#filter0_d_39_662)">
<path d="M35 199C35 119.804 35 80.2061 59.603 55.603C84.2061 31 123.804 31 203 31H253C290.712 31 309.569 31 321.284 42.7157C333 54.4315 333 73.2876 333 111V174C333 247.539 333 284.309 310.154 307.154C287.309 330 250.539 330 177 330H115C77.2876 330 58.4315 330 46.7157 318.284C35 306.569 35 287.712 35 250V199Z" fill="white"/>
</g>
<rect x="69.4492" y="108.275" width="229.102" height="126.888" stroke="white" stroke-width="2"/>
<mask id="path-3-outside-1_39_662" maskUnits="userSpaceOnUse" x="98.5914" y="86.6639" width="170.177" height="171.138" fill="black">
<rect fill="white" x="98.5914" y="86.6639" width="170.177" height="171.138"/>
<path d="M258.788 140.301C258.055 139.613 257.192 139.079 256.25 138.732C256.61 137.795 256.78 136.796 256.749 135.793C256.716 134.311 256.238 132.874 255.377 131.669C254.516 130.465 253.313 129.55 251.924 129.043L249.604 128.168C245.683 126.676 241.506 125.979 237.314 126.118C233.123 126.257 229 127.229 225.186 128.977L222.993 129.975C216.051 133.135 210.471 138.691 207.269 145.631C204.647 145.832 202.124 146.722 199.955 148.211L192.085 145.242C189.733 144.347 187.227 143.929 184.713 144.013C182.199 144.096 179.726 144.679 177.438 145.728L117.613 172.947C116.393 173.502 115.329 174.351 114.514 175.417C113.699 176.484 113.159 177.736 112.941 179.062C112.723 180.388 112.834 181.748 113.265 183.02C113.696 184.293 114.433 185.439 115.411 186.358C116.204 187.106 117.136 187.69 118.154 188.077C119.15 188.449 120.21 188.62 121.272 188.578C122.335 188.536 123.378 188.282 124.342 187.832L181.895 161.647C182.658 161.298 183.483 161.104 184.321 161.077C185.159 161.05 185.995 161.189 186.779 161.487L193.963 164.198C194.397 165.904 195.127 167.52 196.12 168.972L193.419 176.18C193.126 176.968 192.679 177.69 192.106 178.305C191.533 178.919 190.844 179.414 190.079 179.76L132.526 205.945C130.559 206.84 129.026 208.483 128.266 210.511C127.505 212.54 127.579 214.789 128.472 216.764C129.364 218.738 131.001 220.276 133.023 221.038C135.046 221.801 137.287 221.727 139.255 220.832L199.079 193.613C201.373 192.578 203.44 191.096 205.159 189.253C206.878 187.41 208.216 185.244 209.095 182.879L212.054 174.983C214.581 174.332 216.895 173.029 218.767 171.205C222.832 172.554 227.127 173.07 231.395 172.721C235.663 172.372 239.817 171.166 243.611 169.174L244.425 168.744C251.346 165.092 256.689 159.016 259.437 151.67L260.666 148.39C261.202 147.009 261.309 145.498 260.974 144.054C260.639 142.61 259.877 141.302 258.788 140.301ZM224.76 133.849L226.953 132.851C230.259 131.34 233.83 130.501 237.461 130.383C241.092 130.265 244.71 130.871 248.106 132.165L250.429 133.041C251.019 133.264 251.531 133.658 251.899 134.173C252.267 134.688 252.474 135.3 252.495 135.933C252.515 136.566 252.348 137.191 252.015 137.729C251.682 138.267 251.197 138.694 250.622 138.955C250.24 139.13 249.828 139.227 249.409 139.241C248.99 139.254 248.572 139.185 248.18 139.035L246.543 138.418C243.667 137.323 240.604 136.812 237.531 136.914C234.457 137.015 231.434 137.727 228.637 139.009L226.641 139.918C222.683 141.709 219.455 144.806 217.496 148.694C215.826 147.384 213.889 146.46 211.822 145.988C214.689 140.63 219.234 136.368 224.756 133.861L224.76 133.849ZM246.752 143.058C246.741 143.086 246.732 143.11 246.722 143.138L246.106 144.781C245.227 147.146 243.889 149.312 242.169 151.155C240.45 152.998 238.384 154.481 236.09 155.517L235.701 155.695C231.639 157.535 227.064 157.894 222.767 156.709C222.33 155.049 221.612 153.478 220.644 152.062C222.038 148.391 224.824 145.424 228.393 143.809L230.388 142.901C232.678 141.852 235.152 141.268 237.668 141.184C240.184 141.101 242.691 141.519 245.045 142.414L246.682 143.032C246.708 143.042 246.734 143.051 246.752 143.058ZM188.277 157.491C186.97 156.993 185.578 156.761 184.181 156.807C182.784 156.853 181.409 157.177 180.138 157.759L122.585 183.944C121.887 184.277 121.105 184.388 120.343 184.262C119.581 184.135 118.875 183.777 118.322 183.237C117.748 182.719 117.345 182.036 117.169 181.282C116.993 180.528 117.051 179.737 117.337 179.017C117.702 178.049 118.433 177.265 119.371 176.835L179.195 149.617C180.975 148.801 182.898 148.348 184.854 148.283C186.809 148.218 188.758 148.543 190.588 149.239L196.537 151.483C194.776 153.794 193.734 156.575 193.541 159.477L188.277 157.491ZM205.112 181.376C204.428 183.215 203.387 184.9 202.05 186.333C200.713 187.766 199.106 188.919 197.322 189.725L137.497 216.944C136.557 217.368 135.487 217.403 134.521 217.041C133.802 216.769 133.179 216.289 132.731 215.662C132.283 215.034 132.03 214.288 132.005 213.517C131.979 212.745 132.182 211.984 132.588 211.328C132.993 210.673 133.583 210.152 134.284 209.833L191.836 183.648C193.111 183.072 194.259 182.248 195.215 181.224C196.17 180.201 196.914 178.997 197.402 177.683L199.378 172.411C201.681 174.177 204.452 175.223 207.345 175.417L205.112 181.376ZM204.638 170.507C202.669 169.763 200.963 168.451 199.737 166.735C198.511 165.019 197.819 162.977 197.75 160.867C197.68 158.757 198.236 156.674 199.347 154.88C200.457 153.087 202.073 151.665 203.989 150.793C205.906 149.921 208.037 149.639 210.113 149.982C212.189 150.325 214.117 151.279 215.654 152.722C217.19 154.164 218.265 156.032 218.744 158.088C219.222 160.144 219.082 162.296 218.341 164.272C217.346 166.92 215.344 169.063 212.775 170.232C210.206 171.401 207.28 171.5 204.638 170.507ZM255.454 150.167C253.072 156.531 248.443 161.795 242.447 164.959L241.633 165.389C235.436 168.648 228.238 169.433 221.487 167.585C222.561 165.627 223.165 163.445 223.253 161.212C228.042 162.169 233.011 161.597 237.459 159.574L237.848 159.397C240.652 158.131 243.178 156.319 245.28 154.067C247.382 151.814 249.017 149.166 250.092 146.276L250.708 144.633C250.855 144.239 251.077 143.878 251.364 143.57C251.65 143.263 251.995 143.016 252.377 142.843C252.952 142.581 253.592 142.496 254.215 142.599C254.838 142.702 255.416 142.988 255.877 143.421C256.338 143.854 256.661 144.415 256.804 145.032C256.948 145.649 256.906 146.294 256.683 146.887L255.454 150.167Z"/>
</mask>
<path d="M258.788 140.301C258.055 139.613 257.192 139.079 256.25 138.732C256.61 137.795 256.78 136.796 256.749 135.793C256.716 134.311 256.238 132.874 255.377 131.669C254.516 130.465 253.313 129.55 251.924 129.043L249.604 128.168C245.683 126.676 241.506 125.979 237.314 126.118C233.123 126.257 229 127.229 225.186 128.977L222.993 129.975C216.051 133.135 210.471 138.691 207.269 145.631C204.647 145.832 202.124 146.722 199.955 148.211L192.085 145.242C189.733 144.347 187.227 143.929 184.713 144.013C182.199 144.096 179.726 144.679 177.438 145.728L117.613 172.947C116.393 173.502 115.329 174.351 114.514 175.417C113.699 176.484 113.159 177.736 112.941 179.062C112.723 180.388 112.834 181.748 113.265 183.02C113.696 184.293 114.433 185.439 115.411 186.358C116.204 187.106 117.136 187.69 118.154 188.077C119.15 188.449 120.21 188.62 121.272 188.578C122.335 188.536 123.378 188.282 124.342 187.832L181.895 161.647C182.658 161.298 183.483 161.104 184.321 161.077C185.159 161.05 185.995 161.189 186.779 161.487L193.963 164.198C194.397 165.904 195.127 167.52 196.12 168.972L193.419 176.18C193.126 176.968 192.679 177.69 192.106 178.305C191.533 178.919 190.844 179.414 190.079 179.76L132.526 205.945C130.559 206.84 129.026 208.483 128.266 210.511C127.505 212.54 127.579 214.789 128.472 216.764C129.364 218.738 131.001 220.276 133.023 221.038C135.046 221.801 137.287 221.727 139.255 220.832L199.079 193.613C201.373 192.578 203.44 191.096 205.159 189.253C206.878 187.41 208.216 185.244 209.095 182.879L212.054 174.983C214.581 174.332 216.895 173.029 218.767 171.205C222.832 172.554 227.127 173.07 231.395 172.721C235.663 172.372 239.817 171.166 243.611 169.174L244.425 168.744C251.346 165.092 256.689 159.016 259.437 151.67L260.666 148.39C261.202 147.009 261.309 145.498 260.974 144.054C260.639 142.61 259.877 141.302 258.788 140.301ZM224.76 133.849L226.953 132.851C230.259 131.34 233.83 130.501 237.461 130.383C241.092 130.265 244.71 130.871 248.106 132.165L250.429 133.041C251.019 133.264 251.531 133.658 251.899 134.173C252.267 134.688 252.474 135.3 252.495 135.933C252.515 136.566 252.348 137.191 252.015 137.729C251.682 138.267 251.197 138.694 250.622 138.955C250.24 139.13 249.828 139.227 249.409 139.241C248.99 139.254 248.572 139.185 248.18 139.035L246.543 138.418C243.667 137.323 240.604 136.812 237.531 136.914C234.457 137.015 231.434 137.727 228.637 139.009L226.641 139.918C222.683 141.709 219.455 144.806 217.496 148.694C215.826 147.384 213.889 146.46 211.822 145.988C214.689 140.63 219.234 136.368 224.756 133.861L224.76 133.849ZM246.752 143.058C246.741 143.086 246.732 143.11 246.722 143.138L246.106 144.781C245.227 147.146 243.889 149.312 242.169 151.155C240.45 152.998 238.384 154.481 236.09 155.517L235.701 155.695C231.639 157.535 227.064 157.894 222.767 156.709C222.33 155.049 221.612 153.478 220.644 152.062C222.038 148.391 224.824 145.424 228.393 143.809L230.388 142.901C232.678 141.852 235.152 141.268 237.668 141.184C240.184 141.101 242.691 141.519 245.045 142.414L246.682 143.032C246.708 143.042 246.734 143.051 246.752 143.058ZM188.277 157.491C186.97 156.993 185.578 156.761 184.181 156.807C182.784 156.853 181.409 157.177 180.138 157.759L122.585 183.944C121.887 184.277 121.105 184.388 120.343 184.262C119.581 184.135 118.875 183.777 118.322 183.237C117.748 182.719 117.345 182.036 117.169 181.282C116.993 180.528 117.051 179.737 117.337 179.017C117.702 178.049 118.433 177.265 119.371 176.835L179.195 149.617C180.975 148.801 182.898 148.348 184.854 148.283C186.809 148.218 188.758 148.543 190.588 149.239L196.537 151.483C194.776 153.794 193.734 156.575 193.541 159.477L188.277 157.491ZM205.112 181.376C204.428 183.215 203.387 184.9 202.05 186.333C200.713 187.766 199.106 188.919 197.322 189.725L137.497 216.944C136.557 217.368 135.487 217.403 134.521 217.041C133.802 216.769 133.179 216.289 132.731 215.662C132.283 215.034 132.03 214.288 132.005 213.517C131.979 212.745 132.182 211.984 132.588 211.328C132.993 210.673 133.583 210.152 134.284 209.833L191.836 183.648C193.111 183.072 194.259 182.248 195.215 181.224C196.17 180.201 196.914 178.997 197.402 177.683L199.378 172.411C201.681 174.177 204.452 175.223 207.345 175.417L205.112 181.376ZM204.638 170.507C202.669 169.763 200.963 168.451 199.737 166.735C198.511 165.019 197.819 162.977 197.75 160.867C197.68 158.757 198.236 156.674 199.347 154.88C200.457 153.087 202.073 151.665 203.989 150.793C205.906 149.921 208.037 149.639 210.113 149.982C212.189 150.325 214.117 151.279 215.654 152.722C217.19 154.164 218.265 156.032 218.744 158.088C219.222 160.144 219.082 162.296 218.341 164.272C217.346 166.92 215.344 169.063 212.775 170.232C210.206 171.401 207.28 171.5 204.638 170.507ZM255.454 150.167C253.072 156.531 248.443 161.795 242.447 164.959L241.633 165.389C235.436 168.648 228.238 169.433 221.487 167.585C222.561 165.627 223.165 163.445 223.253 161.212C228.042 162.169 233.011 161.597 237.459 159.574L237.848 159.397C240.652 158.131 243.178 156.319 245.28 154.067C247.382 151.814 249.017 149.166 250.092 146.276L250.708 144.633C250.855 144.239 251.077 143.878 251.364 143.57C251.65 143.263 251.995 143.016 252.377 142.843C252.952 142.581 253.592 142.496 254.215 142.599C254.838 142.702 255.416 142.988 255.877 143.421C256.338 143.854 256.661 144.415 256.804 145.032C256.948 145.649 256.906 146.294 256.683 146.887L255.454 150.167Z" fill="#007CC1"/>
<path d="M258.788 140.301C258.055 139.613 257.192 139.079 256.25 138.732C256.61 137.795 256.78 136.796 256.749 135.793C256.716 134.311 256.238 132.874 255.377 131.669C254.516 130.465 253.313 129.55 251.924 129.043L249.604 128.168C245.683 126.676 241.506 125.979 237.314 126.118C233.123 126.257 229 127.229 225.186 128.977L222.993 129.975C216.051 133.135 210.471 138.691 207.269 145.631C204.647 145.832 202.124 146.722 199.955 148.211L192.085 145.242C189.733 144.347 187.227 143.929 184.713 144.013C182.199 144.096 179.726 144.679 177.438 145.728L117.613 172.947C116.393 173.502 115.329 174.351 114.514 175.417C113.699 176.484 113.159 177.736 112.941 179.062C112.723 180.388 112.834 181.748 113.265 183.02C113.696 184.293 114.433 185.439 115.411 186.358C116.204 187.106 117.136 187.69 118.154 188.077C119.15 188.449 120.21 188.62 121.272 188.578C122.335 188.536 123.378 188.282 124.342 187.832L181.895 161.647C182.658 161.298 183.483 161.104 184.321 161.077C185.159 161.05 185.995 161.189 186.779 161.487L193.963 164.198C194.397 165.904 195.127 167.52 196.12 168.972L193.419 176.18C193.126 176.968 192.679 177.69 192.106 178.305C191.533 178.919 190.844 179.414 190.079 179.76L132.526 205.945C130.559 206.84 129.026 208.483 128.266 210.511C127.505 212.54 127.579 214.789 128.472 216.764C129.364 218.738 131.001 220.276 133.023 221.038C135.046 221.801 137.287 221.727 139.255 220.832L199.079 193.613C201.373 192.578 203.44 191.096 205.159 189.253C206.878 187.41 208.216 185.244 209.095 182.879L212.054 174.983C214.581 174.332 216.895 173.029 218.767 171.205C222.832 172.554 227.127 173.07 231.395 172.721C235.663 172.372 239.817 171.166 243.611 169.174L244.425 168.744C251.346 165.092 256.689 159.016 259.437 151.67L260.666 148.39C261.202 147.009 261.309 145.498 260.974 144.054C260.639 142.61 259.877 141.302 258.788 140.301ZM224.76 133.849L226.953 132.851C230.259 131.34 233.83 130.501 237.461 130.383C241.092 130.265 244.71 130.871 248.106 132.165L250.429 133.041C251.019 133.264 251.531 133.658 251.899 134.173C252.267 134.688 252.474 135.3 252.495 135.933C252.515 136.566 252.348 137.191 252.015 137.729C251.682 138.267 251.197 138.694 250.622 138.955C250.24 139.13 249.828 139.227 249.409 139.241C248.99 139.254 248.572 139.185 248.18 139.035L246.543 138.418C243.667 137.323 240.604 136.812 237.531 136.914C234.457 137.015 231.434 137.727 228.637 139.009L226.641 139.918C222.683 141.709 219.455 144.806 217.496 148.694C215.826 147.384 213.889 146.46 211.822 145.988C214.689 140.63 219.234 136.368 224.756 133.861L224.76 133.849ZM246.752 143.058C246.741 143.086 246.732 143.11 246.722 143.138L246.106 144.781C245.227 147.146 243.889 149.312 242.169 151.155C240.45 152.998 238.384 154.481 236.09 155.517L235.701 155.695C231.639 157.535 227.064 157.894 222.767 156.709C222.33 155.049 221.612 153.478 220.644 152.062C222.038 148.391 224.824 145.424 228.393 143.809L230.388 142.901C232.678 141.852 235.152 141.268 237.668 141.184C240.184 141.101 242.691 141.519 245.045 142.414L246.682 143.032C246.708 143.042 246.734 143.051 246.752 143.058ZM188.277 157.491C186.97 156.993 185.578 156.761 184.181 156.807C182.784 156.853 181.409 157.177 180.138 157.759L122.585 183.944C121.887 184.277 121.105 184.388 120.343 184.262C119.581 184.135 118.875 183.777 118.322 183.237C117.748 182.719 117.345 182.036 117.169 181.282C116.993 180.528 117.051 179.737 117.337 179.017C117.702 178.049 118.433 177.265 119.371 176.835L179.195 149.617C180.975 148.801 182.898 148.348 184.854 148.283C186.809 148.218 188.758 148.543 190.588 149.239L196.537 151.483C194.776 153.794 193.734 156.575 193.541 159.477L188.277 157.491ZM205.112 181.376C204.428 183.215 203.387 184.9 202.05 186.333C200.713 187.766 199.106 188.919 197.322 189.725L137.497 216.944C136.557 217.368 135.487 217.403 134.521 217.041C133.802 216.769 133.179 216.289 132.731 215.662C132.283 215.034 132.03 214.288 132.005 213.517C131.979 212.745 132.182 211.984 132.588 211.328C132.993 210.673 133.583 210.152 134.284 209.833L191.836 183.648C193.111 183.072 194.259 182.248 195.215 181.224C196.17 180.201 196.914 178.997 197.402 177.683L199.378 172.411C201.681 174.177 204.452 175.223 207.345 175.417L205.112 181.376ZM204.638 170.507C202.669 169.763 200.963 168.451 199.737 166.735C198.511 165.019 197.819 162.977 197.75 160.867C197.68 158.757 198.236 156.674 199.347 154.88C200.457 153.087 202.073 151.665 203.989 150.793C205.906 149.921 208.037 149.639 210.113 149.982C212.189 150.325 214.117 151.279 215.654 152.722C217.19 154.164 218.265 156.032 218.744 158.088C219.222 160.144 219.082 162.296 218.341 164.272C217.346 166.92 215.344 169.063 212.775 170.232C210.206 171.401 207.28 171.5 204.638 170.507ZM255.454 150.167C253.072 156.531 248.443 161.795 242.447 164.959L241.633 165.389C235.436 168.648 228.238 169.433 221.487 167.585C222.561 165.627 223.165 163.445 223.253 161.212C228.042 162.169 233.011 161.597 237.459 159.574L237.848 159.397C240.652 158.131 243.178 156.319 245.28 154.067C247.382 151.814 249.017 149.166 250.092 146.276L250.708 144.633C250.855 144.239 251.077 143.878 251.364 143.57C251.65 143.263 251.995 143.016 252.377 142.843C252.952 142.581 253.592 142.496 254.215 142.599C254.838 142.702 255.416 142.988 255.877 143.421C256.338 143.854 256.661 144.415 256.804 145.032C256.948 145.649 256.906 146.294 256.683 146.887L255.454 150.167Z" stroke="white" stroke-width="4" mask="url(#path-3-outside-1_39_662)"/>
<path d="M210.989 153.671C209.644 153.163 208.179 153.067 206.779 153.395C205.38 153.723 204.109 154.46 203.128 155.512C202.146 156.564 201.498 157.884 201.264 159.306C201.031 160.727 201.223 162.187 201.816 163.5C202.409 164.813 203.378 165.92 204.599 166.681C205.82 167.442 207.238 167.823 208.675 167.776C210.111 167.728 211.501 167.254 212.668 166.414C213.836 165.574 214.728 164.406 215.234 163.058C215.911 161.249 215.846 159.245 215.05 157.484C214.254 155.724 212.794 154.352 210.989 153.671ZM209.177 159.691L209.86 158.962L209.177 159.691C209.335 159.839 209.445 160.03 209.494 160.241L210.467 160.015L209.494 160.241C209.543 160.452 209.529 160.673 209.452 160.877C209.35 161.149 209.144 161.369 208.881 161.489C208.618 161.609 208.318 161.619 208.049 161.517C207.848 161.441 207.673 161.307 207.548 161.132C207.422 160.956 207.351 160.747 207.344 160.53C207.337 160.313 207.394 160.099 207.508 159.914L206.659 159.386L207.508 159.914C207.623 159.73 207.789 159.584 207.985 159.495C208.181 159.405 208.399 159.376 208.611 159.411C208.824 159.447 209.02 159.544 209.177 159.691Z" fill="#007CC1" stroke="white" stroke-width="2"/>
<path d="M97.1214 280.015C96.8014 280.015 96.5614 279.967 96.4014 279.871C96.2574 279.791 96.1614 279.671 96.1134 279.511C96.0654 279.335 96.0414 279.135 96.0414 278.911V264.343C96.0414 263.927 96.1214 263.647 96.2814 263.503C96.4574 263.343 96.7614 263.263 97.1934 263.263H106.841C107.065 263.263 107.257 263.287 107.417 263.335C107.577 263.383 107.697 263.487 107.777 263.647C107.857 263.807 107.897 264.047 107.897 264.367C107.897 264.687 107.849 264.927 107.753 265.087C107.673 265.231 107.553 265.327 107.393 265.375C107.233 265.423 107.041 265.447 106.817 265.447H98.2014V270.415H104.201C104.425 270.415 104.609 270.439 104.753 270.487C104.913 270.535 105.033 270.631 105.113 270.775C105.193 270.919 105.233 271.143 105.233 271.447C105.233 271.735 105.193 271.951 105.113 272.095C105.033 272.239 104.913 272.335 104.753 272.383C104.593 272.415 104.393 272.431 104.153 272.431H98.2014V277.855H106.841C107.065 277.855 107.257 277.879 107.417 277.927C107.577 277.975 107.697 278.079 107.777 278.239C107.857 278.383 107.897 278.615 107.897 278.935C107.897 279.255 107.849 279.495 107.753 279.655C107.673 279.799 107.553 279.895 107.393 279.943C107.233 279.991 107.041 280.015 106.817 280.015H97.1214ZM123.883 279.919C123.659 280.079 123.467 280.183 123.307 280.231C123.147 280.295 122.995 280.279 122.851 280.183C122.707 280.103 122.547 279.959 122.371 279.751L111.019 265.015C110.763 264.695 110.635 264.423 110.635 264.199C110.651 263.975 110.819 263.735 111.139 263.479C111.347 263.287 111.531 263.167 111.691 263.119C111.851 263.071 112.003 263.087 112.147 263.167C112.307 263.247 112.475 263.399 112.651 263.623L124.003 278.407C124.259 278.711 124.379 278.975 124.363 279.199C124.363 279.423 124.203 279.663 123.883 279.919ZM111.139 279.919C110.819 279.663 110.651 279.423 110.635 279.199C110.635 278.975 110.763 278.711 111.019 278.407L122.371 263.623C122.547 263.399 122.707 263.247 122.851 263.167C122.995 263.087 123.147 263.071 123.307 263.119C123.483 263.167 123.675 263.287 123.883 263.479C124.203 263.735 124.363 263.975 124.363 264.199C124.379 264.423 124.259 264.695 124.003 265.015L112.651 279.751C112.475 279.959 112.307 280.103 112.147 280.183C112.003 280.279 111.851 280.295 111.691 280.231C111.531 280.183 111.347 280.079 111.139 279.919ZM139.923 263.263C140.131 263.263 140.299 263.287 140.427 263.335C140.571 263.383 140.683 263.479 140.763 263.623C140.843 263.751 140.883 263.967 140.883 264.271C140.883 264.559 140.835 264.775 140.739 264.919C140.659 265.063 140.547 265.159 140.403 265.207C140.259 265.239 140.083 265.255 139.875 265.255H134.907V278.959C134.907 279.167 134.875 279.351 134.811 279.511C134.763 279.671 134.659 279.791 134.499 279.871C134.355 279.967 134.131 280.015 133.827 280.015C133.507 280.015 133.267 279.967 133.107 279.871C132.963 279.791 132.867 279.671 132.819 279.511C132.787 279.335 132.771 279.143 132.771 278.935V265.255H127.731C127.523 265.255 127.347 265.239 127.203 265.207C127.059 265.159 126.947 265.063 126.867 264.919C126.787 264.775 126.747 264.559 126.747 264.271C126.747 263.967 126.779 263.751 126.843 263.623C126.923 263.479 127.035 263.383 127.179 263.335C127.339 263.287 127.515 263.263 127.707 263.263H139.923ZM144.652 280.015C144.348 280.015 144.116 279.967 143.956 279.871C143.796 279.791 143.692 279.671 143.644 279.511C143.612 279.335 143.596 279.135 143.596 278.911V264.319C143.596 264.111 143.62 263.935 143.668 263.791C143.732 263.631 143.836 263.503 143.98 263.407C144.14 263.311 144.372 263.263 144.676 263.263H149.98C150.764 263.263 151.476 263.383 152.116 263.623C152.772 263.847 153.34 264.183 153.82 264.631C154.3 265.079 154.668 265.647 154.924 266.335C155.196 267.007 155.332 267.791 155.332 268.687C155.332 269.247 155.244 269.831 155.068 270.439C154.892 271.031 154.62 271.591 154.252 272.119C153.9 272.647 153.444 273.087 152.884 273.439C152.324 273.791 151.644 273.991 150.844 274.039H145.756V278.935C145.756 279.159 145.724 279.351 145.66 279.511C145.612 279.671 145.508 279.791 145.348 279.871C145.204 279.967 144.972 280.015 144.652 280.015ZM154.948 279.751C154.612 279.975 154.324 280.047 154.084 279.967C153.86 279.887 153.644 279.695 153.436 279.391L149.596 273.247L151.972 272.887L155.284 278.167C155.444 278.423 155.54 278.639 155.572 278.815C155.62 278.991 155.588 279.151 155.476 279.295C155.38 279.439 155.204 279.591 154.948 279.751ZM145.756 271.927H150.508C150.876 271.927 151.22 271.863 151.54 271.735C151.86 271.591 152.14 271.383 152.38 271.111C152.62 270.839 152.812 270.503 152.956 270.103C153.1 269.703 153.172 269.223 153.172 268.663C153.172 267.975 153.044 267.391 152.788 266.911C152.548 266.431 152.188 266.071 151.708 265.831C151.228 265.575 150.636 265.447 149.932 265.447H145.756V271.927ZM172.953 278.479C173.081 278.719 173.145 278.927 173.145 279.103C173.161 279.263 173.113 279.415 173.001 279.559C172.889 279.687 172.713 279.807 172.473 279.919C172.089 280.095 171.785 280.135 171.561 280.039C171.353 279.943 171.161 279.711 170.985 279.343L164.985 266.575L159.033 279.319C158.857 279.687 158.657 279.919 158.433 280.015C158.225 280.111 157.921 280.071 157.521 279.895C157.281 279.799 157.105 279.679 156.993 279.535C156.897 279.391 156.857 279.215 156.873 279.007C156.905 278.799 156.985 278.559 157.113 278.287L164.001 263.911C164.097 263.719 164.233 263.567 164.409 263.455C164.601 263.327 164.801 263.263 165.009 263.263C165.153 263.263 165.289 263.287 165.417 263.335C165.545 263.383 165.657 263.455 165.753 263.551C165.849 263.647 165.929 263.775 165.993 263.935L172.953 278.479ZM160.473 275.239L161.289 273.391H168.729L169.521 275.239H160.473ZM183.036 280.063C182.172 280.063 181.332 279.935 180.516 279.679C179.7 279.423 178.94 279.055 178.236 278.575C177.532 278.095 176.908 277.503 176.364 276.799C175.836 276.079 175.42 275.279 175.116 274.399C174.812 273.503 174.66 272.519 174.66 271.447C174.66 270.423 174.812 269.479 175.116 268.615C175.42 267.735 175.836 266.959 176.364 266.287C176.892 265.615 177.508 265.047 178.212 264.583C178.932 264.103 179.7 263.743 180.516 263.503C181.348 263.247 182.196 263.119 183.06 263.119C183.86 263.119 184.548 263.199 185.124 263.359C185.7 263.519 186.172 263.695 186.54 263.887C186.908 264.063 187.156 264.199 187.284 264.295C187.508 264.423 187.724 264.575 187.932 264.751C188.14 264.927 188.252 265.135 188.268 265.375C188.3 265.551 188.284 265.695 188.22 265.807C188.172 265.919 188.108 266.039 188.028 266.167C187.9 266.359 187.764 266.503 187.62 266.599C187.492 266.679 187.348 266.719 187.188 266.719C187.028 266.719 186.884 266.671 186.756 266.575C186.628 266.479 186.46 266.367 186.252 266.239C186.156 266.175 185.964 266.071 185.676 265.927C185.388 265.783 185.02 265.647 184.572 265.519C184.124 265.375 183.58 265.303 182.94 265.303C182.124 265.303 181.34 265.455 180.588 265.759C179.852 266.047 179.204 266.463 178.644 267.007C178.084 267.551 177.644 268.207 177.324 268.975C177.004 269.743 176.844 270.607 176.844 271.567C176.844 272.543 177.004 273.423 177.324 274.207C177.644 274.975 178.084 275.631 178.644 276.175C179.22 276.719 179.876 277.135 180.612 277.423C181.348 277.711 182.124 277.855 182.94 277.855C183.548 277.855 184.076 277.791 184.524 277.663C184.988 277.535 185.364 277.399 185.652 277.255C185.956 277.095 186.164 276.975 186.276 276.895C186.452 276.799 186.604 276.703 186.732 276.607C186.876 276.511 187.028 276.463 187.188 276.463C187.348 276.463 187.492 276.511 187.62 276.607C187.764 276.687 187.9 276.823 188.028 277.015C188.108 277.127 188.172 277.255 188.22 277.399C188.284 277.527 188.3 277.671 188.268 277.831C188.252 278.071 188.14 278.279 187.932 278.455C187.724 278.615 187.508 278.767 187.284 278.911C187.14 278.975 186.884 279.111 186.516 279.319C186.164 279.511 185.7 279.679 185.124 279.823C184.548 279.983 183.852 280.063 183.036 280.063ZM198.575 280.063C197.711 280.063 196.871 279.935 196.055 279.679C195.239 279.423 194.479 279.055 193.775 278.575C193.071 278.095 192.447 277.503 191.903 276.799C191.375 276.079 190.959 275.279 190.655 274.399C190.351 273.503 190.199 272.519 190.199 271.447C190.199 270.423 190.351 269.479 190.655 268.615C190.959 267.735 191.375 266.959 191.903 266.287C192.431 265.615 193.047 265.047 193.751 264.583C194.471 264.103 195.239 263.743 196.055 263.503C196.887 263.247 197.735 263.119 198.599 263.119C199.399 263.119 200.087 263.199 200.663 263.359C201.239 263.519 201.711 263.695 202.079 263.887C202.447 264.063 202.695 264.199 202.823 264.295C203.047 264.423 203.263 264.575 203.471 264.751C203.679 264.927 203.791 265.135 203.807 265.375C203.839 265.551 203.823 265.695 203.759 265.807C203.711 265.919 203.647 266.039 203.567 266.167C203.439 266.359 203.303 266.503 203.159 266.599C203.031 266.679 202.887 266.719 202.727 266.719C202.567 266.719 202.423 266.671 202.295 266.575C202.167 266.479 201.999 266.367 201.791 266.239C201.695 266.175 201.503 266.071 201.215 265.927C200.927 265.783 200.559 265.647 200.111 265.519C199.663 265.375 199.119 265.303 198.479 265.303C197.663 265.303 196.879 265.455 196.127 265.759C195.391 266.047 194.743 266.463 194.183 267.007C193.623 267.551 193.183 268.207 192.863 268.975C192.543 269.743 192.383 270.607 192.383 271.567C192.383 272.543 192.543 273.423 192.863 274.207C193.183 274.975 193.623 275.631 194.183 276.175C194.759 276.719 195.415 277.135 196.151 277.423C196.887 277.711 197.663 277.855 198.479 277.855C199.087 277.855 199.615 277.791 200.063 277.663C200.527 277.535 200.903 277.399 201.191 277.255C201.495 277.095 201.703 276.975 201.815 276.895C201.991 276.799 202.143 276.703 202.271 276.607C202.415 276.511 202.567 276.463 202.727 276.463C202.887 276.463 203.031 276.511 203.159 276.607C203.303 276.687 203.439 276.823 203.567 277.015C203.647 277.127 203.711 277.255 203.759 277.399C203.823 277.527 203.839 277.671 203.807 277.831C203.791 278.071 203.679 278.279 203.471 278.455C203.263 278.615 203.047 278.767 202.823 278.911C202.679 278.975 202.423 279.111 202.055 279.319C201.703 279.511 201.239 279.679 200.663 279.823C200.087 279.983 199.391 280.063 198.575 280.063ZM207.598 280.015C207.278 280.015 207.038 279.967 206.878 279.871C206.734 279.791 206.638 279.671 206.59 279.511C206.542 279.335 206.518 279.135 206.518 278.911V264.343C206.518 264.119 206.542 263.927 206.59 263.767C206.654 263.607 206.758 263.487 206.902 263.407C207.062 263.311 207.302 263.263 207.622 263.263C207.942 263.263 208.174 263.311 208.318 263.407C208.478 263.487 208.574 263.607 208.606 263.767C208.654 263.927 208.678 264.127 208.678 264.367V278.935C208.678 279.159 208.654 279.351 208.606 279.511C208.558 279.671 208.454 279.791 208.294 279.871C208.15 279.967 207.918 280.015 207.598 280.015ZM219.114 280.183C217.978 280.183 216.906 279.967 215.898 279.535C214.906 279.103 214.026 278.503 213.258 277.735C212.506 276.951 211.914 276.055 211.482 275.047C211.05 274.039 210.834 272.951 210.834 271.783C210.834 270.599 211.042 269.487 211.458 268.447C211.874 267.391 212.45 266.471 213.186 265.687C213.938 264.903 214.802 264.287 215.778 263.839C216.754 263.391 217.794 263.167 218.898 263.167C220.05 263.167 221.122 263.383 222.114 263.815C223.122 264.247 223.994 264.855 224.73 265.639C225.482 266.407 226.074 267.311 226.506 268.351C226.938 269.391 227.154 270.503 227.154 271.687C227.154 272.855 226.938 273.951 226.506 274.975C226.09 275.983 225.514 276.887 224.778 277.687C224.042 278.471 223.186 279.087 222.21 279.535C221.25 279.967 220.218 280.183 219.114 280.183ZM218.97 277.999C219.802 277.999 220.578 277.839 221.298 277.519C222.034 277.199 222.674 276.751 223.218 276.175C223.762 275.583 224.186 274.911 224.49 274.159C224.81 273.391 224.97 272.559 224.97 271.663C224.97 270.799 224.81 269.991 224.49 269.239C224.186 268.471 223.754 267.799 223.194 267.223C222.65 266.631 222.018 266.167 221.298 265.831C220.578 265.495 219.81 265.327 218.994 265.327C218.178 265.327 217.41 265.495 216.69 265.831C215.97 266.167 215.33 266.623 214.77 267.199C214.226 267.775 213.794 268.447 213.474 269.215C213.17 269.983 213.018 270.807 213.018 271.687C213.018 272.551 213.17 273.367 213.474 274.135C213.794 274.903 214.226 275.575 214.77 276.151C215.33 276.727 215.962 277.183 216.666 277.519C217.386 277.839 218.154 277.999 218.97 277.999ZM230.38 280.015C230.108 280.015 229.892 279.967 229.732 279.871C229.588 279.775 229.484 279.647 229.42 279.487C229.372 279.311 229.348 279.111 229.348 278.887V264.271C229.348 264.063 229.38 263.887 229.444 263.743C229.508 263.599 229.62 263.487 229.78 263.407C229.956 263.311 230.196 263.263 230.5 263.263C230.852 263.263 231.1 263.295 231.244 263.359C231.388 263.423 231.532 263.535 231.676 263.695L240.7 276.463V264.271C240.7 264.063 240.724 263.887 240.772 263.743C240.836 263.599 240.948 263.487 241.108 263.407C241.268 263.311 241.5 263.263 241.804 263.263C242.092 263.263 242.308 263.311 242.452 263.407C242.612 263.503 242.716 263.639 242.764 263.815C242.828 263.975 242.86 264.159 242.86 264.367V278.911C242.86 279.119 242.82 279.311 242.74 279.487C242.676 279.647 242.556 279.775 242.38 279.871C242.22 279.967 241.988 280.015 241.684 280.015C241.428 280.015 241.212 279.983 241.036 279.919C240.876 279.855 240.724 279.735 240.58 279.559L231.508 266.887V278.911C231.508 279.119 231.476 279.311 231.412 279.487C231.348 279.647 231.236 279.775 231.076 279.871C230.916 279.967 230.684 280.015 230.38 280.015ZM247.684 280.015C247.364 280.015 247.124 279.967 246.964 279.871C246.82 279.791 246.724 279.671 246.676 279.511C246.628 279.335 246.604 279.135 246.604 278.911V264.343C246.604 263.927 246.684 263.647 246.844 263.503C247.02 263.343 247.324 263.263 247.756 263.263H257.404C257.628 263.263 257.82 263.287 257.98 263.335C258.14 263.383 258.26 263.487 258.34 263.647C258.42 263.807 258.46 264.047 258.46 264.367C258.46 264.687 258.412 264.927 258.316 265.087C258.236 265.231 258.116 265.327 257.956 265.375C257.796 265.423 257.604 265.447 257.38 265.447H248.764V270.415H254.764C254.988 270.415 255.172 270.439 255.316 270.487C255.476 270.535 255.596 270.631 255.676 270.775C255.756 270.919 255.796 271.143 255.796 271.447C255.796 271.735 255.756 271.951 255.676 272.095C255.596 272.239 255.476 272.335 255.316 272.383C255.156 272.415 254.956 272.431 254.716 272.431H248.764V277.855H257.404C257.628 277.855 257.82 277.879 257.98 277.927C258.14 277.975 258.26 278.079 258.34 278.239C258.42 278.383 258.46 278.615 258.46 278.935C258.46 279.255 258.412 279.495 258.316 279.655C258.236 279.799 258.116 279.895 257.956 279.943C257.796 279.991 257.604 280.015 257.38 280.015H247.684ZM266.237 280.255C265.629 280.255 265.053 280.183 264.509 280.039C263.981 279.895 263.493 279.703 263.045 279.463C262.613 279.207 262.229 278.927 261.893 278.623C261.557 278.319 261.293 278.015 261.101 277.711C260.925 277.455 260.813 277.247 260.765 277.087C260.717 276.911 260.725 276.743 260.789 276.583C260.869 276.423 261.021 276.247 261.245 276.055C261.501 275.863 261.725 275.775 261.917 275.791C262.109 275.791 262.285 275.863 262.445 276.007C262.621 276.151 262.797 276.343 262.973 276.583C263.373 277.127 263.861 277.527 264.437 277.783C265.013 278.023 265.581 278.143 266.141 278.143C266.861 278.143 267.501 278.047 268.061 277.855C268.621 277.663 269.061 277.375 269.381 276.991C269.717 276.591 269.885 276.079 269.885 275.455C269.885 274.943 269.757 274.511 269.501 274.159C269.245 273.807 268.901 273.511 268.469 273.271C268.037 273.015 267.557 272.799 267.029 272.623C266.501 272.431 265.965 272.247 265.421 272.071C264.989 271.927 264.565 271.767 264.149 271.591C263.733 271.399 263.341 271.191 262.973 270.967C262.605 270.727 262.277 270.447 261.989 270.127C261.717 269.807 261.501 269.431 261.341 268.999C261.197 268.567 261.125 268.063 261.125 267.487C261.125 266.607 261.333 265.831 261.749 265.159C262.181 264.487 262.781 263.967 263.549 263.599C264.317 263.215 265.205 263.023 266.213 263.023C266.805 263.023 267.349 263.079 267.845 263.191C268.341 263.303 268.781 263.455 269.165 263.647C269.549 263.823 269.877 264.015 270.149 264.223C270.421 264.415 270.629 264.599 270.773 264.775C271.061 265.079 271.221 265.335 271.253 265.543C271.285 265.751 271.165 266.007 270.893 266.311C270.637 266.599 270.389 266.751 270.149 266.767C269.909 266.783 269.645 266.671 269.357 266.431C269.053 266.079 268.733 265.807 268.397 265.615C268.077 265.423 267.733 265.295 267.365 265.231C267.013 265.151 266.621 265.111 266.189 265.111C265.773 265.111 265.381 265.167 265.013 265.279C264.661 265.375 264.349 265.527 264.077 265.735C263.821 265.943 263.621 266.199 263.477 266.503C263.333 266.791 263.261 267.127 263.261 267.511C263.261 267.943 263.373 268.311 263.597 268.615C263.837 268.919 264.149 269.183 264.533 269.407C264.917 269.615 265.349 269.807 265.829 269.983C266.309 270.143 266.813 270.303 267.341 270.463C267.917 270.639 268.485 270.855 269.045 271.111C269.605 271.351 270.109 271.655 270.557 272.023C271.005 272.375 271.365 272.823 271.637 273.367C271.909 273.911 272.045 274.583 272.045 275.383C272.045 276.183 271.885 276.887 271.565 277.495C271.261 278.103 270.837 278.615 270.293 279.031C269.749 279.431 269.125 279.735 268.421 279.943C267.733 280.151 267.005 280.255 266.237 280.255Z" fill="#007CC1"/>
<defs>
<filter id="filter0_d_39_662" x="0.5" y="0.5" width="333" height="334" filterUnits="userSpaceOnUse" color-interpolation-filters="sRGB">
<feFlood flood-opacity="0" result="BackgroundImageFix"/>
<feColorMatrix in="SourceAlpha" type="matrix" values="0 0 0 0 0 0 0 0 0 0 0 0 0 0 0 0 0 0 127 0" result="hardAlpha"/>
<feOffset dx="-17" dy="-13"/>
<feGaussianBlur stdDeviation="8.75"/>
<feComposite in2="hardAlpha" operator="out"/>
<feColorMatrix type="matrix" values="0 0 0 0 0 0 0 0 0 0 0 0 0 0 0 0 0 0 0.07 0"/>
<feBlend mode="normal" in2="BackgroundImageFix" result="effect1_dropShadow_39_662"/>
<feBlend mode="normal" in="SourceGraphic" in2="effect1_dropShadow_39_662" result="shape"/>
</filter>
</defs>
</svg>
