<svg width="335" height="335" viewBox="0 0 335 335" fill="none" xmlns="http://www.w3.org/2000/svg">
<g filter="url(#filter0_d_39_663)">
<path d="M35 199C35 119.804 35 80.2061 59.603 55.603C84.2061 31 123.804 31 203 31H254C291.712 31 310.569 31 322.284 42.7157C334 54.4315 334 73.2876 334 111V174C334 247.539 334 284.309 311.154 307.154C288.309 330 251.539 330 178 330H115C77.2876 330 58.4315 330 46.7157 318.284C35 306.569 35 287.712 35 250V199Z" fill="white"/>
</g>
<rect x="69.5605" y="108.275" width="229.878" height="126.888" stroke="white" stroke-width="2"/>
<path d="M217.171 139.917C218.146 139.917 218.937 140.708 218.937 141.683V146.983H224.235C225.21 146.983 226.001 147.774 226.001 148.749C226.001 149.725 225.21 150.516 224.235 150.516H218.937V155.815C218.937 156.791 218.146 157.582 217.171 157.582C216.195 157.582 215.405 156.791 215.405 155.815V150.516H210.107C209.131 150.516 208.341 149.725 208.341 148.749C208.341 147.774 209.131 146.983 210.107 146.983H215.405V141.683C215.405 140.708 216.195 139.917 217.171 139.917Z" fill="#007CC1"/>
<path fill-rule="evenodd" clip-rule="evenodd" d="M194.213 118.723C188.706 118.641 183.26 119.866 178.318 122.298C173.377 119.866 167.931 118.641 162.424 118.723C144.187 118.723 132.402 129.816 132.402 146.987C132.537 157.908 136.585 168.419 143.811 176.607L150.687 216.479C151.094 218.83 152.332 220.956 154.177 222.467C156.023 223.979 158.351 224.774 160.736 224.707C163.119 224.641 165.399 223.717 167.159 222.105C168.918 220.493 170.035 218.301 170.309 215.932L174.169 182.493C174.243 181.859 174.461 181.256 174.799 180.727C175.004 180.406 175.252 180.113 175.54 179.856C176.306 179.175 177.294 178.799 178.318 178.799C178.741 178.799 179.158 178.863 179.557 178.987C180.121 179.162 180.647 179.457 181.097 179.856C181.861 180.537 182.349 181.476 182.468 182.493L186.328 215.94C186.602 218.31 187.719 220.502 189.478 222.114C191.238 223.726 193.518 224.649 195.901 224.716C198.286 224.783 200.614 223.987 202.46 222.476C204.305 220.965 205.543 218.839 205.95 216.488L212.826 176.607C215.133 173.993 217.116 171.143 218.751 168.118C228.741 167.313 236.597 158.949 236.597 148.749C236.597 138.546 228.734 130.179 218.738 129.38C213.574 122.624 205.028 118.723 194.213 118.723ZM214.242 129.537C210.316 125.615 205.008 123.461 199.492 122.65C197.555 122.244 195.979 122.253 195.979 122.253L195.88 122.307C195.321 122.281 194.766 122.256 194.213 122.256C188.978 122.157 183.806 123.392 179.181 125.843C178.917 125.991 178.62 126.068 178.318 126.068C178.165 126.068 178.012 126.048 177.863 126.008C177.722 125.971 177.586 125.915 177.456 125.843C172.831 123.392 167.659 122.157 162.424 122.256C162.424 122.256 159.625 122.252 157.147 122.698C157.147 122.69 157.147 122.682 157.146 122.674C157.146 122.666 157.145 122.658 157.145 122.65C146.123 124.271 135.934 131.252 135.934 146.987C136.055 157.197 139.901 167.011 146.751 174.583C146.987 174.835 147.144 175.151 147.203 175.491L154.169 215.88C154.429 217.395 155.226 218.764 156.414 219.738C157.604 220.712 159.103 221.224 160.638 221.181C162.174 221.138 163.642 220.543 164.775 219.504C165.906 218.466 166.627 217.054 166.802 215.527L170.659 182.078C170.877 180.199 171.777 178.465 173.189 177.207C174.602 175.949 176.427 175.253 178.318 175.253C180.21 175.253 182.035 175.949 183.447 177.207C184.86 178.465 185.76 180.199 185.978 182.078L189.837 215.527C190.013 217.052 190.734 218.463 191.865 219.5C192.997 220.537 194.464 221.132 195.999 221.175C197.534 221.218 199.033 220.706 200.221 219.734C201.409 218.762 202.206 217.393 202.468 215.88L209.434 175.491C209.493 175.151 209.65 174.835 209.886 174.583C211.726 172.549 213.35 170.353 214.742 168.031C205.16 166.835 197.745 158.659 197.745 148.749C197.745 139.014 204.903 130.95 214.242 129.537ZM233.065 148.749C233.065 157.53 225.949 164.648 217.171 164.648C208.393 164.648 201.277 157.53 201.277 148.749C201.277 139.969 208.393 132.851 217.171 132.851C225.949 132.851 233.065 139.969 233.065 148.749Z" fill="#007CC1"/>
<path fill-rule="evenodd" clip-rule="evenodd" d="M150.686 216.479L143.81 176.607C136.584 168.419 132.536 157.908 132.402 146.987C132.402 129.816 144.186 118.723 162.424 118.723C167.931 118.641 173.377 119.866 178.318 122.298C183.259 119.866 188.705 118.641 194.212 118.723C205.027 118.723 213.573 122.624 218.738 129.38C228.733 130.179 236.596 138.546 236.596 148.749C236.596 158.949 228.74 167.313 218.751 168.118C217.115 171.143 215.133 173.993 212.826 176.607L205.95 216.488C205.543 218.839 204.304 220.965 202.459 222.476C200.614 223.987 198.286 224.783 195.9 224.716C193.517 224.649 191.237 223.726 189.478 222.114C187.719 220.502 186.601 218.31 186.327 215.94L182.467 182.493C182.348 181.476 181.86 180.537 181.096 179.856C180.646 179.457 180.12 179.162 179.556 178.987C179.158 178.863 178.741 178.799 178.318 178.799C177.294 178.799 176.305 179.175 175.54 179.856C175.252 180.113 175.003 180.406 174.798 180.726C174.46 181.256 174.243 181.859 174.169 182.493L170.309 215.932C170.035 218.301 168.917 220.493 167.158 222.105C165.399 223.717 163.119 224.641 160.736 224.707C158.35 224.774 156.022 223.979 154.177 222.467C152.331 220.956 151.093 218.83 150.686 216.479ZM175.365 182.633C175.365 182.633 175.365 182.633 175.365 182.633L171.505 216.07C171.198 218.727 169.945 221.185 167.972 222.993C165.999 224.8 163.442 225.837 160.769 225.911C158.094 225.986 155.483 225.094 153.414 223.399C151.344 221.704 149.956 219.32 149.499 216.685L142.681 177.146C135.405 168.779 131.334 158.097 131.197 147.002L131.197 146.994V146.987C131.197 138.115 134.249 130.715 139.748 125.539C145.238 120.37 153.057 117.52 162.415 117.518C167.912 117.438 173.351 118.617 178.318 120.961C183.285 118.617 188.724 117.438 194.221 117.518C205.104 117.52 213.902 121.378 219.367 128.229C229.729 129.327 237.801 138.095 237.801 148.749C237.801 159.358 229.798 168.097 219.5 169.255C217.938 172.052 216.084 174.698 213.955 177.146L207.137 216.694C206.68 219.329 205.292 221.713 203.222 223.408C201.153 225.103 198.542 225.995 195.867 225.92C193.194 225.845 190.637 224.809 188.664 223.002C186.691 221.194 185.438 218.736 185.131 216.079L181.271 182.633C181.271 182.633 181.271 182.634 181.271 182.633C181.186 181.909 180.839 181.241 180.296 180.756C179.975 180.472 179.6 180.262 179.2 180.137C178.916 180.049 178.618 180.004 178.318 180.004C177.589 180.004 176.886 180.271 176.341 180.756M175.365 182.633C175.418 182.182 175.573 181.752 175.813 181.375C175.96 181.146 176.137 180.938 176.34 180.756M189.837 215.527C190.013 217.052 190.733 218.463 191.865 219.5C192.996 220.537 194.464 221.132 195.999 221.175C197.534 221.218 199.032 220.706 200.221 219.734C201.409 218.762 202.206 217.393 202.468 215.88L209.433 175.491C209.492 175.151 209.649 174.835 209.885 174.583C211.427 172.879 212.817 171.061 214.046 169.15C214.284 168.781 214.516 168.407 214.742 168.031C214.309 167.977 213.88 167.908 213.456 167.826C204.504 166.093 197.744 158.211 197.744 148.749C197.744 139.525 204.17 131.801 212.789 129.814C213.266 129.704 213.751 129.611 214.241 129.537C213.883 129.18 213.514 128.837 213.134 128.508C209.345 125.234 204.504 123.387 199.491 122.65C197.554 122.244 195.978 122.253 195.978 122.253L195.88 122.307C195.321 122.281 194.766 122.256 194.212 122.256C188.978 122.157 183.806 123.392 179.18 125.843C178.916 125.991 178.62 126.068 178.318 126.068C178.164 126.068 178.011 126.048 177.863 126.008C177.721 125.971 177.585 125.915 177.456 125.843C172.83 123.392 167.658 122.157 162.424 122.256C162.424 122.256 160.45 122.253 158.349 122.516C158.043 122.555 157.733 122.599 157.427 122.65C157.4 122.654 157.374 122.658 157.347 122.663C157.347 122.663 157.347 122.663 157.347 122.663C157.282 122.674 157.217 122.685 157.152 122.697C157.15 122.697 157.148 122.698 157.147 122.698C157.147 122.69 157.146 122.682 157.146 122.674L157.145 122.665C157.145 122.66 157.145 122.655 157.145 122.65C157.143 122.65 157.14 122.65 157.138 122.651C157.057 122.662 156.977 122.675 156.896 122.687C156.896 122.687 156.896 122.687 156.896 122.687C156.873 122.691 156.85 122.694 156.827 122.698C156.531 122.744 156.236 122.794 155.942 122.849C145.393 124.792 135.934 131.827 135.934 146.987C136.055 157.197 139.9 167.011 146.751 174.583C146.987 174.835 147.144 175.151 147.202 175.491L154.168 215.88C154.429 217.395 155.225 218.764 156.414 219.738C157.604 220.712 159.102 221.224 160.637 221.181C162.174 221.138 163.641 220.543 164.775 219.504C165.906 218.466 166.627 217.054 166.801 215.527L170.659 182.078C170.876 180.199 171.777 178.465 173.189 177.207C174.601 175.949 176.426 175.253 178.318 175.253C180.21 175.253 182.035 175.949 183.447 177.207C184.859 178.465 185.76 180.199 185.977 182.078L189.837 215.527ZM163.961 218.616C164.879 217.773 165.463 216.628 165.604 215.39L169.462 181.94C169.714 179.768 170.754 177.763 172.388 176.307C174.021 174.853 176.13 174.049 178.318 174.049C180.506 174.049 182.615 174.853 184.248 176.307C185.881 177.763 186.922 179.767 187.174 181.94L191.033 215.389C191.176 216.626 191.761 217.77 192.679 218.612C193.597 219.454 194.787 219.936 196.032 219.971C197.278 220.006 198.494 219.591 199.458 218.802C200.421 218.013 201.068 216.904 201.281 215.676C201.281 215.675 201.281 215.675 201.281 215.675L208.246 175.287C208.344 174.718 208.605 174.19 208.998 173.768C210.381 172.238 211.638 170.615 212.763 168.913C203.486 166.894 196.539 158.633 196.539 148.749C196.539 139.259 202.943 131.266 211.665 128.856C208.196 126.113 203.862 124.51 199.316 123.841L199.28 123.836L199.244 123.828C198.339 123.639 197.515 123.546 196.917 123.5C196.653 123.48 196.434 123.47 196.275 123.464L196.161 123.527L195.823 123.511C195.261 123.484 194.733 123.46 194.212 123.46H194.201L194.189 123.46C189.163 123.365 184.197 124.55 179.754 126.902C179.314 127.145 178.821 127.272 178.318 127.272C178.06 127.272 177.802 127.239 177.553 127.172L177.552 127.172C177.318 127.11 177.094 127.019 176.882 126.903C172.44 124.55 167.473 123.365 162.447 123.46L162.435 123.46M162.423 123.46L162.417 123.46L162.397 123.46C162.378 123.46 162.349 123.46 162.31 123.461C162.234 123.462 162.12 123.463 161.974 123.466C161.684 123.473 161.27 123.486 160.78 123.512C159.794 123.566 158.53 123.673 157.36 123.883L155.942 124.138V124.074C151.127 124.996 146.632 127.013 143.257 130.379C139.585 134.04 137.14 139.398 137.138 146.98C137.257 156.891 140.99 166.417 147.638 173.768C148.031 174.191 148.292 174.718 148.39 175.286C148.39 175.286 148.389 175.286 148.39 175.286L155.355 215.676C155.567 216.905 156.213 218.017 157.177 218.806C158.143 219.597 159.359 220.012 160.604 219.977C161.85 219.942 163.04 219.46 163.96 218.617M217.17 138.712C218.811 138.712 220.141 140.043 220.141 141.683V145.778H224.234C225.875 145.778 227.205 147.109 227.205 148.749C227.205 150.39 225.875 151.72 224.234 151.72H220.141V155.815C220.141 157.456 218.811 158.786 217.17 158.786C215.529 158.786 214.2 157.456 214.2 155.815V151.72H210.106C208.465 151.72 207.136 150.39 207.136 148.749C207.136 147.109 208.465 145.778 210.106 145.778H214.2V141.683C214.2 140.043 215.529 138.712 217.17 138.712ZM215.404 146.983H210.106C209.131 146.983 208.34 147.774 208.34 148.749C208.34 149.725 209.131 150.516 210.106 150.516H215.404V155.815C215.404 156.791 216.195 157.582 217.17 157.582C218.145 157.582 218.936 156.791 218.936 155.815V150.516H224.234C225.209 150.516 226 149.725 226 148.749C226 147.774 225.209 146.983 224.234 146.983H218.936V141.683C218.936 140.708 218.145 139.917 217.17 139.917C216.195 139.917 215.404 140.708 215.404 141.683V146.983ZM217.17 163.443C225.283 163.443 231.86 156.865 231.86 148.749C231.86 140.634 225.283 134.055 217.17 134.055C209.058 134.055 202.481 140.634 202.481 148.749C202.481 156.865 209.058 163.443 217.17 163.443ZM217.17 164.648C225.948 164.648 233.064 157.53 233.064 148.749C233.064 139.969 225.948 132.851 217.17 132.851C208.392 132.851 201.276 139.969 201.276 148.749C201.276 157.53 208.392 164.648 217.17 164.648Z" fill="white"/>
<path d="M147.929 280.015C147.609 280.015 147.369 279.967 147.209 279.871C147.065 279.791 146.969 279.671 146.921 279.511C146.873 279.335 146.849 279.135 146.849 278.911V264.343C146.849 263.927 146.929 263.647 147.089 263.503C147.265 263.343 147.569 263.263 148.001 263.263H157.649C157.873 263.263 158.057 263.287 158.201 263.335C158.361 263.383 158.481 263.487 158.561 263.647C158.641 263.807 158.681 264.047 158.681 264.367C158.681 264.687 158.633 264.927 158.537 265.087C158.457 265.231 158.337 265.327 158.177 265.375C158.017 265.423 157.825 265.447 157.601 265.447H149.009V270.415H154.985C155.209 270.415 155.393 270.439 155.537 270.487C155.697 270.535 155.817 270.631 155.897 270.775C155.977 270.919 156.017 271.143 156.017 271.447C156.017 271.735 155.977 271.951 155.897 272.095C155.817 272.239 155.697 272.335 155.537 272.383C155.393 272.415 155.201 272.431 154.961 272.431H149.009V278.935C149.009 279.159 148.985 279.351 148.937 279.511C148.889 279.671 148.785 279.791 148.625 279.871C148.481 279.967 148.249 280.015 147.929 280.015ZM162.854 280.015C162.534 280.015 162.294 279.967 162.134 279.871C161.974 279.791 161.862 279.671 161.798 279.511C161.75 279.351 161.726 279.159 161.726 278.935V264.367C161.726 264.127 161.75 263.927 161.798 263.767C161.846 263.607 161.942 263.487 162.086 263.407C162.246 263.311 162.486 263.263 162.806 263.263C163.126 263.263 163.358 263.311 163.502 263.407C163.662 263.487 163.766 263.607 163.814 263.767C163.862 263.927 163.886 264.119 163.886 264.343V277.999H171.926C172.134 277.999 172.31 278.023 172.454 278.071C172.598 278.119 172.71 278.215 172.79 278.359C172.886 278.503 172.934 278.719 172.934 279.007C172.934 279.279 172.894 279.495 172.814 279.655C172.734 279.799 172.622 279.895 172.478 279.943C172.334 279.991 172.158 280.015 171.95 280.015H162.854ZM182.069 280.087C180.997 280.087 180.037 279.903 179.189 279.535C178.357 279.151 177.645 278.623 177.053 277.951C176.477 277.263 176.037 276.455 175.733 275.527C175.429 274.583 175.277 273.559 175.277 272.455V264.343C175.277 264.119 175.301 263.927 175.349 263.767C175.413 263.607 175.517 263.487 175.661 263.407C175.821 263.311 176.061 263.263 176.381 263.263C176.701 263.263 176.941 263.311 177.101 263.407C177.261 263.487 177.365 263.607 177.413 263.767C177.461 263.927 177.485 264.127 177.485 264.367V272.455C177.485 273.527 177.661 274.471 178.013 275.287C178.365 276.103 178.885 276.751 179.573 277.231C180.261 277.695 181.117 277.927 182.141 277.927C183.101 277.927 183.925 277.703 184.613 277.255C185.301 276.807 185.829 276.175 186.197 275.359C186.565 274.543 186.749 273.567 186.749 272.431V264.199C186.749 264.007 186.773 263.847 186.821 263.719C186.885 263.575 186.997 263.463 187.157 263.383C187.317 263.303 187.557 263.263 187.877 263.263C188.181 263.263 188.405 263.311 188.549 263.407C188.709 263.487 188.813 263.607 188.861 263.767C188.909 263.927 188.933 264.127 188.933 264.367V272.503C188.933 273.623 188.781 274.647 188.477 275.575C188.173 276.487 187.725 277.287 187.133 277.975C186.557 278.647 185.837 279.167 184.973 279.535C184.125 279.903 183.157 280.087 182.069 280.087ZM199.562 280.183C198.426 280.183 197.354 279.967 196.346 279.535C195.354 279.103 194.474 278.503 193.706 277.735C192.954 276.951 192.362 276.055 191.93 275.047C191.498 274.039 191.282 272.951 191.282 271.783C191.282 270.599 191.49 269.487 191.906 268.447C192.322 267.391 192.898 266.471 193.634 265.687C194.386 264.903 195.25 264.287 196.226 263.839C197.202 263.391 198.242 263.167 199.346 263.167C200.498 263.167 201.57 263.383 202.562 263.815C203.57 264.247 204.442 264.855 205.178 265.639C205.93 266.407 206.522 267.311 206.954 268.351C207.386 269.391 207.602 270.503 207.602 271.687C207.602 272.855 207.386 273.951 206.954 274.975C206.538 275.983 205.962 276.887 205.226 277.687C204.49 278.471 203.634 279.087 202.658 279.535C201.698 279.967 200.666 280.183 199.562 280.183ZM199.418 277.999C200.25 277.999 201.026 277.839 201.746 277.519C202.482 277.199 203.122 276.751 203.666 276.175C204.21 275.583 204.634 274.911 204.938 274.159C205.258 273.391 205.418 272.559 205.418 271.663C205.418 270.799 205.258 269.991 204.938 269.239C204.634 268.471 204.202 267.799 203.642 267.223C203.098 266.631 202.466 266.167 201.746 265.831C201.026 265.495 200.258 265.327 199.442 265.327C198.626 265.327 197.858 265.495 197.138 265.831C196.418 266.167 195.778 266.623 195.218 267.199C194.674 267.775 194.242 268.447 193.922 269.215C193.618 269.983 193.466 270.807 193.466 271.687C193.466 272.551 193.618 273.367 193.922 274.135C194.242 274.903 194.674 275.575 195.218 276.151C195.778 276.727 196.41 277.183 197.114 277.519C197.834 277.839 198.602 277.999 199.418 277.999ZM211.116 280.015C210.812 280.015 210.58 279.967 210.42 279.871C210.26 279.791 210.156 279.671 210.108 279.511C210.076 279.335 210.06 279.135 210.06 278.911V264.319C210.06 264.111 210.084 263.935 210.132 263.791C210.196 263.631 210.3 263.503 210.444 263.407C210.604 263.311 210.836 263.263 211.14 263.263H216.444C217.228 263.263 217.94 263.383 218.58 263.623C219.236 263.847 219.804 264.183 220.284 264.631C220.764 265.079 221.132 265.647 221.388 266.335C221.66 267.007 221.796 267.791 221.796 268.687C221.796 269.247 221.708 269.831 221.532 270.439C221.356 271.031 221.084 271.591 220.716 272.119C220.364 272.647 219.908 273.087 219.348 273.439C218.788 273.791 218.108 273.991 217.308 274.039H212.22V278.935C212.22 279.159 212.188 279.351 212.124 279.511C212.076 279.671 211.972 279.791 211.812 279.871C211.668 279.967 211.436 280.015 211.116 280.015ZM221.412 279.751C221.076 279.975 220.788 280.047 220.548 279.967C220.324 279.887 220.108 279.695 219.9 279.391L216.06 273.247L218.436 272.887L221.748 278.167C221.908 278.423 222.004 278.639 222.036 278.815C222.084 278.991 222.052 279.151 221.94 279.295C221.844 279.439 221.668 279.591 221.412 279.751ZM212.22 271.927H216.972C217.34 271.927 217.684 271.863 218.004 271.735C218.324 271.591 218.604 271.383 218.844 271.111C219.084 270.839 219.276 270.503 219.42 270.103C219.564 269.703 219.636 269.223 219.636 268.663C219.636 267.975 219.508 267.391 219.252 266.911C219.012 266.431 218.652 266.071 218.172 265.831C217.692 265.575 217.1 265.447 216.396 265.447H212.22V271.927Z" fill="#007CC1"/>
<defs>
<filter id="filter0_d_39_663" x="0.5" y="0.5" width="334" height="334" filterUnits="userSpaceOnUse" color-interpolation-filters="sRGB">
<feFlood flood-opacity="0" result="BackgroundImageFix"/>
<feColorMatrix in="SourceAlpha" type="matrix" values="0 0 0 0 0 0 0 0 0 0 0 0 0 0 0 0 0 0 127 0" result="hardAlpha"/>
<feOffset dx="-17" dy="-13"/>
<feGaussianBlur stdDeviation="8.75"/>
<feComposite in2="hardAlpha" operator="out"/>
<feColorMatrix type="matrix" values="0 0 0 0 0 0 0 0 0 0 0 0 0 0 0 0 0 0 0.07 0"/>
<feBlend mode="normal" in2="BackgroundImageFix" result="effect1_dropShadow_39_663"/>
<feBlend mode="normal" in="SourceGraphic" in2="effect1_dropShadow_39_663" result="shape"/>
</filter>
</defs>
</svg>
