<svg width="335" height="334" viewBox="0 0 335 334" fill="none" xmlns="http://www.w3.org/2000/svg">
<g filter="url(#filter0_d_39_782)">
<path d="M35 199C35 119.804 35 80.2061 59.603 55.603C84.2061 31 123.804 31 203 31H254C291.712 31 310.569 31 322.284 42.7157C334 54.4315 334 73.2876 334 111V173C334 246.539 334 283.309 311.154 306.154C288.309 329 251.539 329 178 329H115C77.2876 329 58.4315 329 46.7157 317.284C35 305.569 35 286.712 35 249V199Z" fill="white"/>
</g>
<rect x="69.5615" y="108.021" width="229.878" height="126.457" stroke="white" stroke-width="2"/>
<mask id="path-3-outside-1_39_782" maskUnits="userSpaceOnUse" x="137.027" y="114.625" width="95" height="114" fill="black">
<rect fill="white" x="137.027" y="114.625" width="95" height="114"/>
<path d="M229.737 142.276C228.866 135.852 225.831 129.884 221.102 125.292C216.372 120.7 210.209 117.74 203.566 116.869C199.164 116.315 194.689 116.707 190.461 118.017C186.579 119.211 182.409 119.211 178.526 118.017C174.317 116.711 169.862 116.318 165.478 116.865C160.217 117.515 155.225 119.489 151.001 122.588C146.777 125.688 143.469 129.805 141.408 134.528C139.347 139.25 138.605 144.413 139.257 149.5C139.909 154.586 141.931 159.418 145.122 163.512C145.974 164.611 146.751 165.763 147.448 166.96C147.613 167.242 147.853 167.477 148.142 167.64C148.432 167.803 148.761 167.89 149.097 167.89H153.014L156.279 174.2C156.436 174.505 156.678 174.761 156.978 174.939C157.277 175.118 157.622 175.213 157.974 175.213H169.341V178.874H165.552V182.536H169.341V186.197H165.552V189.859H169.341V193.52H165.552V197.181H169.341V200.843H165.552V204.504H169.341V208.166H165.552V211.827H169.341V215.489H165.552V219.15H170.408L176.863 225.886C177.039 226.07 177.253 226.217 177.491 226.318C177.729 226.419 177.986 226.472 178.246 226.473H190.749C191.011 226.473 191.269 226.421 191.508 226.32C191.748 226.219 191.963 226.071 192.14 225.886L198.587 219.15H203.443V215.489H199.654V211.827H203.443V208.166H199.654V204.504H203.443V200.843H199.654V197.181H203.443V193.52H199.654V189.859H203.443V186.197H199.654V182.536H203.443V178.874H199.654V175.213H211.021C211.374 175.215 211.722 175.121 212.023 174.942C212.324 174.763 212.568 174.506 212.726 174.2L215.981 167.89H219.898C220.234 167.89 220.563 167.803 220.853 167.64C221.142 167.477 221.382 167.242 221.547 166.96C222.244 165.763 223.021 164.611 223.873 163.512C228.612 157.44 230.715 149.822 229.737 142.276ZM189.914 222.812H179.081L175.572 219.15H193.423L189.914 222.812ZM195.865 215.489H173.13V211.827H195.865V215.489ZM195.865 208.166H173.13V204.504H195.865V208.166ZM195.865 200.843H173.13V197.181H195.865V200.843ZM195.865 193.52H173.13V189.859H195.865V193.52ZM195.865 186.197H173.13V182.536H195.865V186.197ZM195.865 178.874H173.13V175.213H195.865V178.874ZM209.85 171.551H159.145L157.251 167.89H211.744L209.85 171.551ZM220.85 161.308C220.118 162.247 219.437 163.222 218.809 164.228H150.184C149.557 163.222 148.877 162.247 148.145 161.308C144.762 156.967 142.895 151.698 142.815 146.264C142.735 140.83 144.446 135.512 147.7 131.08C150.955 126.647 155.584 123.33 160.919 121.609C166.253 119.887 172.016 119.85 177.374 121.503C182.008 122.927 186.985 122.927 191.619 121.503C195.319 120.358 199.236 120.016 203.088 120.503C207.686 121.079 212.047 122.811 215.736 125.525C219.425 128.239 222.312 131.841 224.109 135.971C225.907 140.101 226.552 144.614 225.98 149.06C225.408 153.506 223.639 157.729 220.85 161.308Z"/>
</mask>
<path d="M229.737 142.276C228.866 135.852 225.831 129.884 221.102 125.292C216.372 120.7 210.209 117.74 203.566 116.869C199.164 116.315 194.689 116.707 190.461 118.017C186.579 119.211 182.409 119.211 178.526 118.017C174.317 116.711 169.862 116.318 165.478 116.865C160.217 117.515 155.225 119.489 151.001 122.588C146.777 125.688 143.469 129.805 141.408 134.528C139.347 139.25 138.605 144.413 139.257 149.5C139.909 154.586 141.931 159.418 145.122 163.512C145.974 164.611 146.751 165.763 147.448 166.96C147.613 167.242 147.853 167.477 148.142 167.64C148.432 167.803 148.761 167.89 149.097 167.89H153.014L156.279 174.2C156.436 174.505 156.678 174.761 156.978 174.939C157.277 175.118 157.622 175.213 157.974 175.213H169.341V178.874H165.552V182.536H169.341V186.197H165.552V189.859H169.341V193.52H165.552V197.181H169.341V200.843H165.552V204.504H169.341V208.166H165.552V211.827H169.341V215.489H165.552V219.15H170.408L176.863 225.886C177.039 226.07 177.253 226.217 177.491 226.318C177.729 226.419 177.986 226.472 178.246 226.473H190.749C191.011 226.473 191.269 226.421 191.508 226.32C191.748 226.219 191.963 226.071 192.14 225.886L198.587 219.15H203.443V215.489H199.654V211.827H203.443V208.166H199.654V204.504H203.443V200.843H199.654V197.181H203.443V193.52H199.654V189.859H203.443V186.197H199.654V182.536H203.443V178.874H199.654V175.213H211.021C211.374 175.215 211.722 175.121 212.023 174.942C212.324 174.763 212.568 174.506 212.726 174.2L215.981 167.89H219.898C220.234 167.89 220.563 167.803 220.853 167.64C221.142 167.477 221.382 167.242 221.547 166.96C222.244 165.763 223.021 164.611 223.873 163.512C228.612 157.44 230.715 149.822 229.737 142.276ZM189.914 222.812H179.081L175.572 219.15H193.423L189.914 222.812ZM195.865 215.489H173.13V211.827H195.865V215.489ZM195.865 208.166H173.13V204.504H195.865V208.166ZM195.865 200.843H173.13V197.181H195.865V200.843ZM195.865 193.52H173.13V189.859H195.865V193.52ZM195.865 186.197H173.13V182.536H195.865V186.197ZM195.865 178.874H173.13V175.213H195.865V178.874ZM209.85 171.551H159.145L157.251 167.89H211.744L209.85 171.551ZM220.85 161.308C220.118 162.247 219.437 163.222 218.809 164.228H150.184C149.557 163.222 148.877 162.247 148.145 161.308C144.762 156.967 142.895 151.698 142.815 146.264C142.735 140.83 144.446 135.512 147.7 131.08C150.955 126.647 155.584 123.33 160.919 121.609C166.253 119.887 172.016 119.85 177.374 121.503C182.008 122.927 186.985 122.927 191.619 121.503C195.319 120.358 199.236 120.016 203.088 120.503C207.686 121.079 212.047 122.811 215.736 125.525C219.425 128.239 222.312 131.841 224.109 135.971C225.907 140.101 226.552 144.614 225.98 149.06C225.408 153.506 223.639 157.729 220.85 161.308Z" fill="#007CC1"/>
<path d="M229.737 142.276C228.866 135.852 225.831 129.884 221.102 125.292C216.372 120.7 210.209 117.74 203.566 116.869C199.164 116.315 194.689 116.707 190.461 118.017C186.579 119.211 182.409 119.211 178.526 118.017C174.317 116.711 169.862 116.318 165.478 116.865C160.217 117.515 155.225 119.489 151.001 122.588C146.777 125.688 143.469 129.805 141.408 134.528C139.347 139.25 138.605 144.413 139.257 149.5C139.909 154.586 141.931 159.418 145.122 163.512C145.974 164.611 146.751 165.763 147.448 166.96C147.613 167.242 147.853 167.477 148.142 167.64C148.432 167.803 148.761 167.89 149.097 167.89H153.014L156.279 174.2C156.436 174.505 156.678 174.761 156.978 174.939C157.277 175.118 157.622 175.213 157.974 175.213H169.341V178.874H165.552V182.536H169.341V186.197H165.552V189.859H169.341V193.52H165.552V197.181H169.341V200.843H165.552V204.504H169.341V208.166H165.552V211.827H169.341V215.489H165.552V219.15H170.408L176.863 225.886C177.039 226.07 177.253 226.217 177.491 226.318C177.729 226.419 177.986 226.472 178.246 226.473H190.749C191.011 226.473 191.269 226.421 191.508 226.32C191.748 226.219 191.963 226.071 192.14 225.886L198.587 219.15H203.443V215.489H199.654V211.827H203.443V208.166H199.654V204.504H203.443V200.843H199.654V197.181H203.443V193.52H199.654V189.859H203.443V186.197H199.654V182.536H203.443V178.874H199.654V175.213H211.021C211.374 175.215 211.722 175.121 212.023 174.942C212.324 174.763 212.568 174.506 212.726 174.2L215.981 167.89H219.898C220.234 167.89 220.563 167.803 220.853 167.64C221.142 167.477 221.382 167.242 221.547 166.96C222.244 165.763 223.021 164.611 223.873 163.512C228.612 157.44 230.715 149.822 229.737 142.276ZM189.914 222.812H179.081L175.572 219.15H193.423L189.914 222.812ZM195.865 215.489H173.13V211.827H195.865V215.489ZM195.865 208.166H173.13V204.504H195.865V208.166ZM195.865 200.843H173.13V197.181H195.865V200.843ZM195.865 193.52H173.13V189.859H195.865V193.52ZM195.865 186.197H173.13V182.536H195.865V186.197ZM195.865 178.874H173.13V175.213H195.865V178.874ZM209.85 171.551H159.145L157.251 167.89H211.744L209.85 171.551ZM220.85 161.308C220.118 162.247 219.437 163.222 218.809 164.228H150.184C149.557 163.222 148.877 162.247 148.145 161.308C144.762 156.967 142.895 151.698 142.815 146.264C142.735 140.83 144.446 135.512 147.7 131.08C150.955 126.647 155.584 123.33 160.919 121.609C166.253 119.887 172.016 119.85 177.374 121.503C182.008 122.927 186.985 122.927 191.619 121.503C195.319 120.358 199.236 120.016 203.088 120.503C207.686 121.079 212.047 122.811 215.736 125.525C219.425 128.239 222.312 131.841 224.109 135.971C225.907 140.101 226.552 144.614 225.98 149.06C225.408 153.506 223.639 157.729 220.85 161.308Z" stroke="white" stroke-width="4" mask="url(#path-3-outside-1_39_782)"/>
<path d="M121.273 279.261C120.953 279.261 120.713 279.213 120.553 279.117C120.409 279.037 120.313 278.917 120.265 278.757C120.217 278.581 120.193 278.381 120.193 278.157V263.589C120.193 263.365 120.217 263.173 120.265 263.013C120.329 262.853 120.433 262.733 120.577 262.653C120.737 262.557 120.977 262.509 121.297 262.509C121.617 262.509 121.849 262.557 121.993 262.653C122.153 262.733 122.249 262.853 122.281 263.013C122.329 263.173 122.353 263.373 122.353 263.613V278.181C122.353 278.405 122.329 278.597 122.281 278.757C122.233 278.917 122.129 279.037 121.969 279.117C121.825 279.213 121.593 279.261 121.273 279.261ZM126.62 279.261C126.332 279.261 126.108 279.213 125.948 279.117C125.804 279.021 125.7 278.893 125.636 278.733C125.572 278.557 125.54 278.365 125.54 278.157V263.565C125.54 263.357 125.572 263.181 125.636 263.037C125.7 262.877 125.812 262.749 125.972 262.653C126.132 262.557 126.364 262.509 126.668 262.509C126.908 262.509 127.1 262.525 127.244 262.557C127.388 262.589 127.5 262.637 127.58 262.701C127.676 262.749 127.772 262.829 127.868 262.941L134.132 272.013H133.388L139.724 262.869C139.82 262.757 139.916 262.677 140.012 262.629C140.108 262.581 140.228 262.549 140.372 262.533C140.532 262.517 140.716 262.509 140.924 262.509C141.228 262.509 141.452 262.557 141.596 262.653C141.756 262.749 141.868 262.885 141.932 263.061C141.996 263.221 142.028 263.405 142.028 263.613V278.205C142.028 278.397 141.996 278.573 141.932 278.733C141.868 278.893 141.756 279.021 141.596 279.117C141.436 279.213 141.204 279.261 140.9 279.261C140.612 279.261 140.388 279.213 140.228 279.117C140.084 279.021 139.98 278.893 139.916 278.733C139.868 278.557 139.844 278.365 139.844 278.157V266.109L134.708 273.669C134.66 273.749 134.596 273.829 134.516 273.909C134.436 273.973 134.332 274.029 134.204 274.077C134.092 274.125 133.948 274.149 133.772 274.149C133.58 274.149 133.428 274.125 133.316 274.077C133.22 274.029 133.132 273.973 133.052 273.909C132.972 273.829 132.892 273.741 132.812 273.645L127.7 266.133V278.205C127.7 278.397 127.668 278.573 127.604 278.733C127.556 278.893 127.452 279.021 127.292 279.117C127.148 279.213 126.924 279.261 126.62 279.261ZM146.401 279.261C146.097 279.261 145.865 279.213 145.705 279.117C145.561 279.037 145.465 278.917 145.417 278.757C145.369 278.581 145.345 278.381 145.345 278.157V263.589C145.345 263.381 145.369 263.197 145.417 263.037C145.481 262.877 145.593 262.749 145.753 262.653C145.913 262.557 146.137 262.509 146.425 262.509H151.681C152.449 262.509 153.153 262.629 153.793 262.869C154.449 263.093 155.017 263.445 155.497 263.925C155.993 264.389 156.377 264.957 156.649 265.629C156.921 266.301 157.057 267.077 157.057 267.957C157.057 268.821 156.921 269.589 156.649 270.261C156.377 270.933 155.993 271.501 155.497 271.965C155.001 272.413 154.425 272.757 153.769 272.997C153.129 273.237 152.425 273.357 151.657 273.357H147.529V278.181C147.529 278.405 147.497 278.597 147.433 278.757C147.385 278.917 147.281 279.037 147.121 279.117C146.977 279.213 146.737 279.261 146.401 279.261ZM147.529 271.173H151.681C152.321 271.173 152.881 271.053 153.361 270.813C153.841 270.557 154.217 270.189 154.489 269.709C154.761 269.213 154.897 268.613 154.897 267.909C154.897 267.237 154.769 266.661 154.513 266.181C154.257 265.701 153.881 265.333 153.385 265.077C152.905 264.821 152.329 264.693 151.657 264.693H147.529V271.173ZM160.791 279.261C160.471 279.261 160.231 279.213 160.071 279.117C159.911 279.037 159.799 278.917 159.735 278.757C159.687 278.597 159.663 278.405 159.663 278.181V263.613C159.663 263.373 159.687 263.173 159.735 263.013C159.783 262.853 159.879 262.733 160.023 262.653C160.183 262.557 160.423 262.509 160.743 262.509C161.063 262.509 161.295 262.557 161.439 262.653C161.599 262.733 161.703 262.853 161.751 263.013C161.799 263.173 161.823 263.365 161.823 263.589V277.245H169.863C170.071 277.245 170.247 277.269 170.391 277.317C170.535 277.365 170.647 277.461 170.727 277.605C170.823 277.749 170.871 277.965 170.871 278.253C170.871 278.525 170.831 278.741 170.751 278.901C170.671 279.045 170.559 279.141 170.415 279.189C170.271 279.237 170.095 279.261 169.887 279.261H160.791ZM187.877 277.725C188.005 277.965 188.069 278.173 188.069 278.349C188.085 278.509 188.037 278.661 187.925 278.805C187.813 278.933 187.637 279.053 187.397 279.165C187.013 279.341 186.709 279.381 186.485 279.285C186.277 279.189 186.085 278.957 185.909 278.589L179.909 265.821L173.957 278.565C173.781 278.933 173.581 279.165 173.357 279.261C173.149 279.357 172.845 279.317 172.445 279.141C172.205 279.045 172.029 278.925 171.917 278.781C171.821 278.637 171.781 278.461 171.797 278.253C171.829 278.045 171.909 277.805 172.037 277.533L178.925 263.157C179.021 262.965 179.157 262.813 179.333 262.701C179.525 262.573 179.725 262.509 179.933 262.509C180.077 262.509 180.213 262.533 180.341 262.581C180.469 262.629 180.581 262.701 180.677 262.797C180.773 262.893 180.853 263.021 180.917 263.181L187.877 277.725ZM175.397 274.485L176.213 272.637H183.653L184.445 274.485H175.397ZM190.976 279.261C190.704 279.261 190.488 279.213 190.328 279.117C190.184 279.021 190.08 278.893 190.016 278.733C189.968 278.557 189.944 278.357 189.944 278.133V263.517C189.944 263.309 189.976 263.133 190.04 262.989C190.104 262.845 190.216 262.733 190.376 262.653C190.552 262.557 190.792 262.509 191.096 262.509C191.448 262.509 191.696 262.541 191.84 262.605C191.984 262.669 192.128 262.781 192.272 262.941L201.296 275.709V263.517C201.296 263.309 201.32 263.133 201.368 262.989C201.432 262.845 201.544 262.733 201.704 262.653C201.864 262.557 202.096 262.509 202.4 262.509C202.688 262.509 202.904 262.557 203.048 262.653C203.208 262.749 203.312 262.885 203.36 263.061C203.424 263.221 203.456 263.405 203.456 263.613V278.157C203.456 278.365 203.416 278.557 203.336 278.733C203.272 278.893 203.152 279.021 202.976 279.117C202.816 279.213 202.584 279.261 202.28 279.261C202.024 279.261 201.808 279.229 201.632 279.165C201.472 279.101 201.32 278.981 201.176 278.805L192.104 266.133V278.157C192.104 278.365 192.072 278.557 192.008 278.733C191.944 278.893 191.832 279.021 191.672 279.117C191.512 279.213 191.28 279.261 190.976 279.261ZM219.464 262.509C219.672 262.509 219.84 262.533 219.968 262.581C220.112 262.629 220.224 262.725 220.304 262.869C220.384 262.997 220.424 263.213 220.424 263.517C220.424 263.805 220.376 264.021 220.28 264.165C220.2 264.309 220.088 264.405 219.944 264.453C219.8 264.485 219.624 264.501 219.416 264.501H214.448V278.205C214.448 278.413 214.416 278.597 214.352 278.757C214.304 278.917 214.2 279.037 214.04 279.117C213.896 279.213 213.672 279.261 213.368 279.261C213.048 279.261 212.808 279.213 212.648 279.117C212.504 279.037 212.408 278.917 212.36 278.757C212.328 278.581 212.312 278.389 212.312 278.181V264.501H207.272C207.064 264.501 206.888 264.485 206.744 264.453C206.6 264.405 206.488 264.309 206.408 264.165C206.328 264.021 206.288 263.805 206.288 263.517C206.288 263.213 206.32 262.997 206.384 262.869C206.464 262.725 206.576 262.629 206.72 262.581C206.88 262.533 207.056 262.509 207.248 262.509H219.464ZM224.218 279.261C223.898 279.261 223.658 279.213 223.498 279.117C223.354 279.037 223.258 278.917 223.21 278.757C223.162 278.581 223.138 278.381 223.138 278.157V263.589C223.138 263.173 223.218 262.893 223.378 262.749C223.554 262.589 223.858 262.509 224.29 262.509H233.938C234.162 262.509 234.354 262.533 234.514 262.581C234.674 262.629 234.794 262.733 234.874 262.893C234.954 263.053 234.994 263.293 234.994 263.613C234.994 263.933 234.946 264.173 234.85 264.333C234.77 264.477 234.65 264.573 234.49 264.621C234.33 264.669 234.138 264.693 233.914 264.693H225.298V269.661H231.298C231.522 269.661 231.706 269.685 231.85 269.733C232.01 269.781 232.13 269.877 232.21 270.021C232.29 270.165 232.33 270.389 232.33 270.693C232.33 270.981 232.29 271.197 232.21 271.341C232.13 271.485 232.01 271.581 231.85 271.629C231.69 271.661 231.49 271.677 231.25 271.677H225.298V277.101H233.938C234.162 277.101 234.354 277.125 234.514 277.173C234.674 277.221 234.794 277.325 234.874 277.485C234.954 277.629 234.994 277.861 234.994 278.181C234.994 278.501 234.946 278.741 234.85 278.901C234.77 279.045 234.65 279.141 234.49 279.189C234.33 279.237 234.138 279.261 233.914 279.261H224.218ZM242.771 279.501C242.163 279.501 241.587 279.429 241.043 279.285C240.515 279.141 240.027 278.949 239.579 278.709C239.147 278.453 238.763 278.173 238.427 277.869C238.091 277.565 237.827 277.261 237.635 276.957C237.459 276.701 237.347 276.493 237.299 276.333C237.251 276.157 237.259 275.989 237.323 275.829C237.403 275.669 237.555 275.493 237.779 275.301C238.035 275.109 238.259 275.021 238.451 275.037C238.643 275.037 238.819 275.109 238.979 275.253C239.155 275.397 239.331 275.589 239.507 275.829C239.907 276.373 240.395 276.773 240.971 277.029C241.547 277.269 242.115 277.389 242.675 277.389C243.395 277.389 244.035 277.293 244.595 277.101C245.155 276.909 245.595 276.621 245.915 276.237C246.251 275.837 246.419 275.325 246.419 274.701C246.419 274.189 246.291 273.757 246.035 273.405C245.779 273.053 245.435 272.757 245.003 272.517C244.571 272.261 244.091 272.045 243.563 271.869C243.035 271.677 242.499 271.493 241.955 271.317C241.523 271.173 241.099 271.013 240.683 270.837C240.267 270.645 239.875 270.437 239.507 270.213C239.139 269.973 238.811 269.693 238.523 269.373C238.251 269.053 238.035 268.677 237.875 268.245C237.731 267.813 237.659 267.309 237.659 266.733C237.659 265.853 237.867 265.077 238.283 264.405C238.715 263.733 239.315 263.213 240.083 262.845C240.851 262.461 241.739 262.269 242.747 262.269C243.339 262.269 243.883 262.325 244.379 262.437C244.875 262.549 245.315 262.701 245.699 262.893C246.083 263.069 246.411 263.261 246.683 263.469C246.955 263.661 247.163 263.845 247.307 264.021C247.595 264.325 247.755 264.581 247.787 264.789C247.819 264.997 247.699 265.253 247.427 265.557C247.171 265.845 246.923 265.997 246.683 266.013C246.443 266.029 246.179 265.917 245.891 265.677C245.587 265.325 245.267 265.053 244.931 264.861C244.611 264.669 244.267 264.541 243.899 264.477C243.547 264.397 243.155 264.357 242.723 264.357C242.307 264.357 241.915 264.413 241.547 264.525C241.195 264.621 240.883 264.773 240.611 264.981C240.355 265.189 240.155 265.445 240.011 265.749C239.867 266.037 239.795 266.373 239.795 266.757C239.795 267.189 239.907 267.557 240.131 267.861C240.371 268.165 240.683 268.429 241.067 268.653C241.451 268.861 241.883 269.053 242.363 269.229C242.843 269.389 243.347 269.549 243.875 269.709C244.451 269.885 245.019 270.101 245.579 270.357C246.139 270.597 246.643 270.901 247.091 271.269C247.539 271.621 247.899 272.069 248.171 272.613C248.443 273.157 248.579 273.829 248.579 274.629C248.579 275.429 248.419 276.133 248.099 276.741C247.795 277.349 247.371 277.861 246.827 278.277C246.283 278.677 245.659 278.981 244.955 279.189C244.267 279.397 243.539 279.501 242.771 279.501Z" fill="#007CC1"/>
<defs>
<filter id="filter0_d_39_782" x="0.5" y="0.5" width="334" height="333" filterUnits="userSpaceOnUse" color-interpolation-filters="sRGB">
<feFlood flood-opacity="0" result="BackgroundImageFix"/>
<feColorMatrix in="SourceAlpha" type="matrix" values="0 0 0 0 0 0 0 0 0 0 0 0 0 0 0 0 0 0 127 0" result="hardAlpha"/>
<feOffset dx="-17" dy="-13"/>
<feGaussianBlur stdDeviation="8.75"/>
<feComposite in2="hardAlpha" operator="out"/>
<feColorMatrix type="matrix" values="0 0 0 0 0 0 0 0 0 0 0 0 0 0 0 0 0 0 0.07 0"/>
<feBlend mode="normal" in2="BackgroundImageFix" result="effect1_dropShadow_39_782"/>
<feBlend mode="normal" in="SourceGraphic" in2="effect1_dropShadow_39_782" result="shape"/>
</filter>
</defs>
</svg>
