<svg width="335" height="334" viewBox="0 0 335 334" fill="none" xmlns="http://www.w3.org/2000/svg">
<g filter="url(#filter0_d_39_781)">
<path d="M35 199C35 119.804 35 80.2061 59.603 55.603C84.2061 31 123.804 31 203 31H254C291.712 31 310.569 31 322.284 42.7157C334 54.4315 334 73.2876 334 111V173C334 246.539 334 283.309 311.154 306.154C288.309 329 251.539 329 178 329H115C77.2876 329 58.4315 329 46.7157 317.284C35 305.569 35 286.712 35 249V199Z" fill="white"/>
</g>
<path d="M238.978 191.549C239.781 186.874 240.414 185.267 238.662 183.229C236.91 181.191 236.229 181.527 220.78 181.527C186.72 181.527 187.62 180.904 184.798 183.421C181.952 180.88 182.73 181.527 149.473 181.527H149.035H148.816C133.854 181.527 132.832 181 130.935 183.229C129.037 185.459 129.791 186.826 130.618 191.549C125.753 193.372 126.41 197.783 126.41 201.572C126.41 211.019 134.876 213.057 141.81 215.958C155.391 221.707 170.017 224.672 184.798 224.672C199.579 224.672 214.206 221.707 227.787 215.958C234.964 212.937 243.187 210.875 243.187 201.572C243.187 197.951 243.893 193.516 238.978 191.549ZM233.869 192.628C232.774 197.424 227.787 196.393 227.252 193.204C226.789 190.494 228.055 189.272 226.984 186.322H234.94L233.869 192.628ZM210.1 186.322C224.697 186.322 223.067 184.884 221.705 195.673C221.522 197.06 220.834 198.333 219.768 199.255C218.703 200.178 217.333 200.687 215.915 200.687C214.496 200.687 213.127 200.178 212.061 199.255C210.995 198.333 210.307 197.06 210.124 195.673C209.735 192.461 211.219 189.392 210.1 186.322ZM203.239 186.322C203.58 186.321 203.918 186.39 204.23 186.525C204.542 186.66 204.822 186.859 205.052 187.107C205.281 187.356 205.455 187.649 205.562 187.969C205.669 188.288 205.706 188.626 205.672 188.96L204.723 198.119C204.502 200.129 203.535 201.987 202.008 203.337C200.482 204.687 198.503 205.434 196.452 205.434C194.401 205.434 192.422 204.687 190.895 203.337C189.368 201.987 188.401 200.129 188.18 198.119C186.745 183.925 184.239 186.322 203.239 186.322ZM181.733 187.114C182.706 188.169 182.438 188.217 181.417 198.119C181.195 200.129 180.228 201.987 178.702 203.337C177.175 204.687 175.196 205.434 173.145 205.434C171.094 205.434 169.115 204.687 167.588 203.337C166.062 201.987 165.095 200.129 164.873 198.119C163.438 183.925 160.981 186.322 179.933 186.322C180.272 186.323 180.608 186.394 180.918 186.53C181.228 186.667 181.505 186.865 181.733 187.114ZM147.04 189.032C146.995 188.692 147.024 188.346 147.126 188.018C147.228 187.69 147.4 187.388 147.631 187.131C147.861 186.874 148.145 186.669 148.463 186.53C148.781 186.39 149.125 186.32 149.473 186.322H159.497C158.377 189.392 159.886 192.197 159.497 195.649C159.314 197.036 158.625 198.309 157.56 199.231C156.494 200.154 155.125 200.663 153.706 200.663C152.288 200.663 150.918 200.154 149.853 199.231C148.787 198.309 148.099 197.036 147.916 195.649L147.04 189.032ZM142.612 186.322C141.518 189.368 142.807 190.447 142.345 193.204C142.195 193.959 141.78 194.637 141.172 195.119C140.565 195.602 139.803 195.857 139.023 195.84C138.243 195.822 137.494 195.534 136.909 195.025C136.324 194.517 135.94 193.821 135.825 193.06C135.317 190.836 134.927 188.587 134.657 186.322H142.612ZM238.321 201.572C238.321 207.518 233.042 208.549 225.865 211.594C212.888 217.077 198.917 219.904 184.798 219.904C170.68 219.904 156.708 217.077 143.732 211.594C136.652 208.597 131.275 207.542 131.275 201.572C131.275 197.352 131.081 196.968 131.884 196.297C132.406 197.338 133.155 198.254 134.076 198.979C134.998 199.705 136.069 200.222 137.216 200.494C138.362 200.766 139.555 200.787 140.71 200.554C141.866 200.322 142.955 199.843 143.902 199.15C144.583 200.713 145.641 202.09 146.983 203.16C148.325 204.23 149.912 204.962 151.605 205.293C153.299 205.623 155.048 205.542 156.703 205.057C158.358 204.572 159.868 203.696 161.102 202.507C162.095 204.743 163.707 206.658 165.754 208.032C167.801 209.406 170.2 210.182 172.675 210.272C175.15 210.362 177.601 209.763 179.745 208.542C181.89 207.321 183.641 205.528 184.798 203.37C185.955 205.528 187.707 207.321 189.851 208.542C191.996 209.763 194.446 210.362 196.921 210.272C199.396 210.182 201.795 209.406 203.842 208.032C205.89 206.658 207.502 204.743 208.494 202.507C209.726 203.702 211.236 204.582 212.892 205.071C214.548 205.559 216.3 205.642 217.995 205.311C219.691 204.98 221.279 204.246 222.62 203.172C223.962 202.098 225.018 200.718 225.695 199.15C226.641 199.843 227.731 200.322 228.886 200.554C230.042 200.787 231.235 200.766 232.381 200.494C233.527 200.222 234.599 199.705 235.52 198.979C236.442 198.254 237.19 197.338 237.713 196.297C238.516 196.968 238.321 197.376 238.321 201.572Z" fill="#007CC1"/>
<path fill-rule="evenodd" clip-rule="evenodd" d="M238.302 191.926L238.384 191.448C238.5 190.775 238.61 190.174 238.71 189.631C238.964 188.242 239.149 187.234 239.176 186.381C239.194 185.812 239.138 185.349 238.993 184.925C238.848 184.502 238.604 184.085 238.204 183.62C237.784 183.131 237.481 182.849 237.048 182.648C236.597 182.439 235.952 182.297 234.813 182.213C233.168 182.092 230.648 182.1 226.486 182.115C224.853 182.121 222.966 182.127 220.78 182.127C213.992 182.127 208.597 182.103 204.286 182.083C197.768 182.053 193.728 182.035 191.097 182.13C188.906 182.209 187.771 182.367 187.021 182.63C186.31 182.878 185.92 183.226 185.216 183.855L184.798 184.227L184.396 183.868C183.679 183.228 183.275 182.872 182.555 182.619C181.802 182.356 180.675 182.199 178.518 182.121C175.965 182.029 172.08 182.048 165.867 182.079C161.605 182.101 156.248 182.127 149.473 182.127H148.816C145.976 182.127 143.645 182.109 141.718 182.093C138.546 182.068 136.469 182.051 135.014 182.141C133.853 182.213 133.166 182.351 132.67 182.571C132.192 182.783 131.842 183.092 131.394 183.618C130.952 184.137 130.688 184.578 130.536 185.006C130.385 185.432 130.332 185.878 130.356 186.427C130.382 186.986 130.487 187.632 130.644 188.458C130.692 188.71 130.744 188.978 130.8 189.264C130.926 189.902 131.068 190.627 131.212 191.446L131.298 191.936L130.83 192.111C129.696 192.536 128.914 193.099 128.367 193.741C127.818 194.383 127.479 195.133 127.274 195.966C126.944 197.307 126.97 198.779 126.997 200.3C127.004 200.721 127.012 201.145 127.012 201.572C127.012 206.065 129.002 208.764 131.852 210.726C134.056 212.242 136.731 213.294 139.434 214.357C140.306 214.7 141.18 215.043 142.043 215.404L142.045 215.405C155.552 221.123 170.098 224.072 184.798 224.072C199.499 224.072 214.045 221.123 227.551 215.405L227.553 215.405C228.41 215.044 229.273 214.7 230.127 214.359C232.917 213.246 235.626 212.165 237.833 210.628C239.257 209.637 240.438 208.475 241.266 207.023C242.092 205.574 242.585 203.805 242.585 201.572C242.585 201.144 242.593 200.716 242.602 200.29C242.632 198.837 242.661 197.407 242.34 196.081C241.944 194.445 241.014 193.011 238.754 192.107L238.302 191.926ZM234.46 192.745L234.456 192.762C234.16 194.062 233.585 195.021 232.836 195.649C232.086 196.278 231.194 196.544 230.327 196.51C228.614 196.443 226.976 195.2 226.658 193.303C226.444 192.046 226.576 191.066 226.694 190.196C226.713 190.055 226.731 189.916 226.748 189.78C226.866 188.821 226.909 187.881 226.418 186.527L226.126 185.722H235.652L234.46 192.745ZM227.252 193.204C227.787 196.393 232.774 197.424 233.869 192.628L234.94 186.322H226.984C227.06 186.531 227.124 186.731 227.177 186.923C227.558 188.285 227.426 189.272 227.29 190.285C227.173 191.154 227.054 192.042 227.252 193.204ZM209.24 185.722H210.1C211.819 185.722 213.328 185.702 214.64 185.684C216.085 185.665 217.29 185.648 218.274 185.666C219.221 185.683 220.01 185.731 220.652 185.845C221.29 185.959 221.839 186.146 222.262 186.482C223.157 187.192 223.235 188.339 223.119 189.711C223.054 190.484 222.912 191.448 222.741 192.606C222.605 193.53 222.45 194.577 222.302 195.748L222.302 195.752C222.1 197.284 221.339 198.69 220.163 199.708C218.987 200.726 217.477 201.287 215.915 201.287C214.352 201.287 212.842 200.726 211.666 199.708C210.49 198.69 209.729 197.284 209.527 195.752L209.526 195.745C209.353 194.313 209.532 192.901 209.699 191.591C209.73 191.348 209.76 191.109 209.788 190.874C209.969 189.333 210.042 187.921 209.534 186.528L209.24 185.722ZM204.723 198.119C204.502 200.129 203.535 201.987 202.008 203.337C200.482 204.687 198.503 205.434 196.452 205.434C194.401 205.434 192.422 204.687 190.895 203.337C189.368 201.987 188.401 200.129 188.18 198.119C187.515 191.542 186.62 188.528 187.741 187.186C189.039 185.632 193.042 186.322 203.239 186.322C203.58 186.321 203.918 186.39 204.23 186.525C204.542 186.66 204.822 186.859 205.052 187.107C205.281 187.356 205.455 187.649 205.562 187.969C205.669 188.288 205.706 188.626 205.672 188.96L204.723 198.119ZM203.238 185.722C200.87 185.722 198.836 185.685 197.091 185.647C196.776 185.64 196.47 185.633 196.172 185.627C194.827 185.597 193.665 185.571 192.669 185.569C191.457 185.568 190.461 185.603 189.66 185.718C188.863 185.833 188.195 186.036 187.684 186.418C186.609 187.223 186.517 188.592 186.655 190.335C186.724 191.206 186.86 192.249 187.02 193.475L187.038 193.614C187.207 194.907 187.402 196.414 187.581 198.179L187.581 198.185C187.819 200.343 188.858 202.338 190.495 203.786C192.133 205.234 194.254 206.034 196.452 206.034C198.649 206.034 200.771 205.234 202.408 203.786C204.046 202.338 205.084 200.343 205.322 198.185L206.271 189.022L206.271 189.021C206.314 188.602 206.267 188.178 206.133 187.779C205.999 187.379 205.782 187.012 205.495 186.701C205.209 186.39 204.859 186.143 204.47 185.974C204.082 185.806 203.662 185.72 203.238 185.722ZM182.016 198.181L182.015 198.185C181.777 200.343 180.739 202.338 179.101 203.786C177.464 205.234 175.342 206.034 173.145 206.034C170.947 206.034 168.826 205.234 167.188 203.786C165.551 202.338 164.512 200.343 164.274 198.185L164.274 198.179C164.095 196.414 163.901 194.906 163.733 193.614L163.722 193.526C163.56 192.277 163.423 191.218 163.355 190.333C163.221 188.589 163.319 187.221 164.397 186.417C164.908 186.036 165.577 185.833 166.374 185.718C167.176 185.603 168.172 185.568 169.383 185.569C170.378 185.571 171.539 185.597 172.883 185.627C173.179 185.633 173.484 185.64 173.798 185.647C175.54 185.685 177.57 185.722 179.933 185.722H179.934C180.356 185.723 180.774 185.811 181.161 185.981C181.547 186.151 181.893 186.398 182.177 186.708C182.428 186.981 182.675 187.265 182.813 187.708C182.942 188.124 182.961 188.629 182.924 189.33C182.879 190.191 182.738 191.477 182.518 193.483C182.38 194.742 182.211 196.283 182.016 198.181ZM159.309 186.923C158.906 188.465 159.103 189.954 159.31 191.511C159.483 192.819 159.663 194.175 159.497 195.649C159.314 197.036 158.625 198.309 157.56 199.231C156.494 200.154 155.125 200.663 153.706 200.663C152.288 200.663 150.918 200.154 149.853 199.231C148.787 198.309 148.099 197.036 147.916 195.649L147.04 189.032C146.995 188.692 147.024 188.346 147.126 188.018C147.228 187.69 147.4 187.388 147.631 187.131C147.861 186.874 148.145 186.669 148.463 186.53C148.781 186.39 149.125 186.32 149.473 186.322H159.497C159.423 186.524 159.361 186.724 159.309 186.923ZM149.475 185.722H160.356L160.063 186.528C159.555 187.92 159.634 189.266 159.821 190.768C159.847 190.982 159.876 191.199 159.905 191.42C160.079 192.727 160.27 194.163 160.095 195.717L160.094 195.722L160.094 195.728C159.892 197.26 159.131 198.666 157.955 199.684C156.779 200.702 155.269 201.263 153.706 201.263C152.144 201.263 150.633 200.702 149.458 199.684C148.282 198.666 147.521 197.26 147.319 195.728L146.443 189.111M149.475 185.722C149.043 185.719 148.615 185.807 148.22 185.98C147.824 186.154 147.47 186.41 147.182 186.731C146.894 187.052 146.678 187.43 146.551 187.841C146.423 188.251 146.387 188.685 146.443 189.111M143.468 185.722L143.179 186.525C142.674 187.931 142.719 188.86 142.839 189.795C142.856 189.931 142.876 190.069 142.896 190.209C143.016 191.063 143.153 192.027 142.939 193.303L142.937 193.311L142.936 193.32C142.759 194.215 142.266 195.019 141.548 195.589C140.829 196.159 139.93 196.46 139.01 196.44C138.09 196.419 137.205 196.079 136.513 195.478C135.827 194.881 135.373 194.066 135.233 193.172C134.722 190.934 134.33 188.672 134.059 186.393L133.979 185.722H143.468ZM135.825 193.06C135.94 193.821 136.324 194.517 136.909 195.025C137.494 195.534 138.243 195.822 139.023 195.84C139.803 195.857 140.565 195.602 141.172 195.119C141.78 194.637 142.195 193.959 142.345 193.204C142.542 192.025 142.42 191.153 142.3 190.302C142.159 189.301 142.023 188.329 142.419 186.923C142.473 186.731 142.537 186.531 142.612 186.322H134.657C134.681 186.523 134.706 186.723 134.731 186.923C134.997 188.984 135.362 191.032 135.825 193.06ZM226.101 212.146L226.1 212.147C213.049 217.661 198.998 220.504 184.798 220.504C170.599 220.504 156.547 217.661 143.496 212.147C142.419 211.691 141.396 211.285 140.416 210.897C139.783 210.647 139.169 210.404 138.57 210.159C137.065 209.543 135.69 208.928 134.53 208.207C133.366 207.484 132.393 206.64 131.715 205.552C131.032 204.458 130.673 203.16 130.673 201.572C130.673 200.803 130.666 200.152 130.66 199.6C130.651 198.67 130.644 198.022 130.678 197.56C130.706 197.177 130.764 196.847 130.907 196.551C131.054 196.245 131.265 196.031 131.496 195.837L132.081 195.348L132.422 196.028C132.905 196.991 133.597 197.837 134.449 198.508C135.302 199.179 136.294 199.658 137.355 199.91C138.417 200.162 139.521 200.181 140.591 199.966C141.661 199.751 142.67 199.307 143.545 198.666L144.154 198.221L144.454 198.911C145.096 200.384 146.093 201.682 147.359 202.691C148.625 203.701 150.122 204.392 151.721 204.704C153.319 205.016 154.971 204.939 156.533 204.481C158.095 204.023 159.519 203.197 160.684 202.075L161.304 201.478L161.653 202.264C162.599 204.396 164.137 206.223 166.09 207.534C168.044 208.845 170.334 209.586 172.697 209.672C175.06 209.758 177.4 209.186 179.446 208.02C181.493 206.855 183.164 205.145 184.267 203.087L184.798 202.096L185.329 203.087C186.433 205.145 188.103 206.855 190.15 208.02C192.197 209.186 194.536 209.758 196.899 209.672C199.262 209.586 201.552 208.845 203.506 207.534C205.46 206.223 206.997 204.396 207.944 202.264L208.294 201.475L208.914 202.077C210.076 203.203 211.5 204.034 213.063 204.495C214.625 204.956 216.279 205.034 217.879 204.722C219.48 204.409 220.978 203.717 222.243 202.704C223.509 201.691 224.504 200.39 225.141 198.913L225.441 198.22L226.051 198.666C226.927 199.307 227.935 199.751 229.005 199.966C230.075 200.181 231.18 200.162 232.241 199.91C233.303 199.658 234.295 199.179 235.147 198.508C235.999 197.837 236.691 196.991 237.174 196.028L237.516 195.348L238.1 195.837C238.334 196.032 238.544 196.249 238.691 196.556C238.832 196.853 238.891 197.185 238.919 197.569C238.953 198.033 238.946 198.683 238.936 199.611C238.93 200.161 238.924 200.808 238.924 201.572C238.924 203.152 238.571 204.444 237.897 205.533C237.226 206.617 236.262 207.458 235.104 208.18C233.95 208.899 232.578 209.515 231.069 210.135C230.466 210.382 229.847 210.628 229.209 210.882C228.223 211.274 227.191 211.684 226.101 212.146ZM227.787 215.958C214.206 221.707 199.579 224.672 184.798 224.672C170.017 224.672 155.391 221.707 141.81 215.958C140.977 215.609 140.122 215.273 139.262 214.936C132.964 212.46 126.41 209.884 126.41 201.572C126.41 201.172 126.402 200.766 126.395 200.356C126.332 196.882 126.266 193.179 130.618 191.549C130.476 190.736 130.336 190.023 130.211 189.387C129.61 186.33 129.364 185.076 130.935 183.229C132.476 181.418 133.439 181.426 141.762 181.493C143.687 181.508 146.006 181.527 148.816 181.527H149.473C177.975 181.527 181.479 181.052 183.69 182.515C184.058 182.76 184.391 183.058 184.798 183.421C185.198 183.065 185.523 182.771 185.884 182.53C188.067 181.068 191.545 181.527 220.78 181.527C222.946 181.527 224.821 181.521 226.45 181.515C236.441 181.48 237.156 181.477 238.662 183.229C240.173 184.988 239.91 186.425 239.293 189.788C239.195 190.323 239.088 190.908 238.978 191.549C243.352 193.299 243.274 197.005 243.204 200.351C243.196 200.765 243.187 201.173 243.187 201.572C243.187 209.799 236.756 212.363 230.305 214.935C229.461 215.272 228.617 215.608 227.787 215.958ZM210.737 186.322C218.109 186.301 221.125 185.943 222.131 187.193C223.024 188.302 222.336 190.676 221.705 195.673C221.522 197.06 220.834 198.333 219.768 199.255C218.703 200.178 217.333 200.687 215.915 200.687C214.496 200.687 213.127 200.178 212.061 199.255C210.995 198.333 210.307 197.06 210.124 195.673C209.961 194.321 210.129 192.995 210.295 191.683C210.497 190.081 210.697 188.5 210.287 186.923C210.235 186.723 210.173 186.523 210.1 186.322C210.316 186.322 210.528 186.322 210.737 186.322ZM226.202 199.492C226.029 199.385 225.86 199.271 225.695 199.15C225.614 199.338 225.527 199.522 225.436 199.704C224.761 201.043 223.802 202.227 222.62 203.172C221.279 204.246 219.691 204.98 217.995 205.311C216.3 205.642 214.548 205.559 212.892 205.071C211.44 204.642 210.1 203.913 208.962 202.934C208.802 202.796 208.646 202.654 208.494 202.507C208.409 202.7 208.318 202.891 208.223 203.079C207.22 205.07 205.713 206.777 203.842 208.032C201.795 209.406 199.396 210.182 196.921 210.272C194.446 210.362 191.996 209.763 189.851 208.542C187.913 207.438 186.295 205.867 185.148 203.981C185.026 203.781 184.909 203.577 184.798 203.37C184.687 203.577 184.571 203.781 184.449 203.981C183.301 205.867 181.684 207.438 179.745 208.542C177.601 209.763 175.15 210.362 172.675 210.272C170.2 210.182 167.801 209.406 165.754 208.032C163.884 206.777 162.376 205.07 161.373 203.078C161.278 202.89 161.188 202.7 161.102 202.507C160.95 202.653 160.794 202.795 160.634 202.932C159.494 203.906 158.154 204.631 156.703 205.057C155.048 205.542 153.299 205.623 151.605 205.293C149.912 204.962 148.325 204.23 146.983 203.16C145.801 202.218 144.84 201.038 144.162 199.703C144.07 199.522 143.983 199.337 143.902 199.15C143.737 199.271 143.568 199.385 143.395 199.492C142.574 200.002 141.665 200.363 140.71 200.554C139.555 200.787 138.362 200.766 137.216 200.494C136.069 200.222 134.998 199.705 134.076 198.979C133.317 198.382 132.675 197.655 132.181 196.835C132.075 196.66 131.976 196.48 131.884 196.297C131.691 196.458 131.555 196.603 131.461 196.788C131.238 197.227 131.245 197.894 131.262 199.55C131.268 200.104 131.275 200.768 131.275 201.572C131.275 206.632 135.137 208.161 140.624 210.334C141.612 210.725 142.652 211.137 143.732 211.594C156.708 217.077 170.68 219.904 184.798 219.904C198.917 219.904 212.888 217.077 225.865 211.594C226.958 211.131 228.006 210.714 228.999 210.319C234.527 208.121 238.321 206.613 238.321 201.572C238.321 200.774 238.328 200.112 238.334 199.56C238.352 197.906 238.359 197.233 238.135 196.79C238.041 196.604 237.905 196.458 237.713 196.297C237.621 196.48 237.522 196.66 237.416 196.836C236.921 197.655 236.279 198.382 235.52 198.979C234.599 199.705 233.527 200.222 232.381 200.494C231.235 200.766 230.042 200.787 228.886 200.554C227.932 200.363 227.023 200.002 226.202 199.492ZM181.923 193.386C182.496 188.16 182.517 187.964 181.733 187.114C181.505 186.865 181.228 186.667 180.918 186.53C180.608 186.394 180.272 186.323 179.933 186.322C169.758 186.322 165.754 185.631 164.45 187.188C163.324 188.53 164.208 191.545 164.873 198.119C165.095 200.129 166.062 201.987 167.588 203.337C169.115 204.687 171.094 205.434 173.145 205.434C175.196 205.434 177.175 204.687 178.702 203.337C180.228 201.987 181.195 200.129 181.417 198.119C181.615 196.196 181.785 194.645 181.923 193.386Z" fill="white"/>
<path d="M130.624 162.953C129.822 167.629 129.189 169.235 130.941 171.273C132.692 173.311 133.374 172.976 148.822 172.976C182.882 172.976 181.982 173.599 184.804 171.082C187.651 173.623 186.872 172.976 220.129 172.976L220.567 172.976L220.786 172.976C235.748 172.976 236.77 173.503 238.668 171.273C240.565 169.044 239.811 167.677 238.984 162.953C243.85 161.131 243.193 156.72 243.193 152.931C243.193 143.484 234.727 141.446 227.793 138.545C214.212 132.796 199.585 129.83 184.804 129.83C170.023 129.83 155.397 132.796 141.816 138.545C134.639 141.566 126.416 143.628 126.416 152.931C126.416 156.552 125.71 160.987 130.624 162.953ZM135.733 161.875C136.828 157.079 141.816 158.11 142.351 161.299C142.813 164.008 141.548 165.231 142.618 168.18L134.663 168.18L135.733 161.875ZM159.502 168.18C144.905 168.18 146.535 169.619 147.898 158.829C148.08 157.443 148.769 156.17 149.834 155.248C150.9 154.325 152.27 153.816 153.688 153.816C155.106 153.816 156.476 154.325 157.542 155.248C158.607 156.17 159.295 157.443 159.478 158.829C159.867 162.042 158.383 165.111 159.502 168.18ZM166.363 168.18C166.022 168.182 165.685 168.113 165.372 167.978C165.06 167.843 164.78 167.644 164.551 167.396C164.321 167.147 164.148 166.853 164.041 166.534C163.934 166.215 163.896 165.877 163.93 165.543L164.879 156.384C165.101 154.374 166.068 152.516 167.594 151.166C169.121 149.816 171.1 149.069 173.151 149.069C175.202 149.069 177.181 149.816 178.708 151.166C180.234 152.516 181.201 154.374 181.423 156.384C182.858 170.578 185.364 168.18 166.363 168.18ZM187.87 167.389C186.897 166.334 187.164 166.286 188.186 156.384C188.407 154.374 189.374 152.516 190.901 151.166C192.428 149.816 194.407 149.069 196.458 149.069C198.509 149.069 200.488 149.816 202.014 151.166C203.541 152.516 204.508 154.374 204.729 156.384C206.165 170.578 208.622 168.18 189.67 168.18C189.33 168.18 188.995 168.109 188.685 167.973C188.375 167.836 188.097 167.638 187.87 167.389ZM222.562 165.471C222.608 165.811 222.578 166.157 222.476 166.485C222.375 166.812 222.203 167.115 221.972 167.372C221.741 167.629 221.458 167.834 221.14 167.973C220.822 168.113 220.477 168.183 220.129 168.18L210.106 168.18C211.225 165.111 209.717 162.306 210.106 158.853C210.289 157.467 210.977 156.194 212.043 155.272C213.108 154.349 214.478 153.84 215.896 153.84C217.315 153.84 218.684 154.349 219.75 155.272C220.815 156.194 221.504 157.467 221.686 158.853L222.562 165.471ZM226.99 168.18C228.085 165.135 226.795 164.056 227.258 161.299C227.407 160.544 227.822 159.866 228.43 159.384C229.038 158.901 229.799 158.646 230.579 158.663C231.359 158.681 232.108 158.969 232.693 159.478C233.279 159.986 233.663 160.682 233.778 161.443C234.286 163.667 234.676 165.916 234.946 168.18L226.99 168.18ZM131.281 152.931C131.281 146.985 136.561 145.954 143.738 142.909C156.714 137.426 170.686 134.599 184.804 134.599C198.923 134.599 212.894 137.426 225.871 142.909C232.951 145.906 238.327 146.961 238.327 152.931C238.327 157.151 238.522 157.535 237.719 158.206C237.196 157.164 236.448 156.249 235.526 155.524C234.605 154.798 233.533 154.281 232.387 154.009C231.241 153.737 230.048 153.716 228.892 153.949C227.737 154.181 226.647 154.66 225.701 155.353C225.019 153.789 223.962 152.413 222.62 151.343C221.277 150.273 219.691 149.541 217.997 149.21C216.304 148.88 214.554 148.961 212.899 149.446C211.245 149.931 209.735 150.807 208.5 151.996C207.508 149.76 205.896 147.845 203.848 146.471C201.801 145.097 199.402 144.321 196.927 144.231C194.452 144.141 192.002 144.74 189.857 145.961C187.713 147.182 185.961 148.975 184.804 151.133C183.647 148.975 181.896 147.182 179.751 145.961C177.607 144.74 175.156 144.141 172.681 144.231C170.206 144.321 167.807 145.097 165.76 146.471C163.713 147.845 162.1 149.76 161.108 151.996C159.876 150.801 158.367 149.921 156.711 149.432C155.055 148.944 153.303 148.861 151.607 149.192C149.912 149.523 148.324 150.257 146.982 151.331C145.64 152.405 144.585 153.785 143.908 155.353C142.961 154.66 141.872 154.181 140.716 153.949C139.561 153.716 138.368 153.737 137.222 154.009C136.075 154.281 135.004 154.798 134.082 155.524C133.161 156.249 132.412 157.164 131.889 158.206C131.087 157.535 131.281 157.127 131.281 152.931Z" fill="#007CC1"/>
<path fill-rule="evenodd" clip-rule="evenodd" d="M131.3 162.577L131.218 163.055C131.103 163.728 130.992 164.329 130.893 164.872C130.638 166.261 130.454 167.269 130.427 168.122C130.408 168.691 130.464 169.153 130.609 169.578C130.754 170.001 130.999 170.418 131.398 170.883C131.818 171.372 132.121 171.654 132.555 171.855C133.006 172.063 133.65 172.206 134.789 172.29C136.434 172.411 138.955 172.403 143.116 172.388C144.75 172.382 146.636 172.376 148.822 172.376C155.61 172.376 161.005 172.4 165.316 172.42C171.834 172.45 175.875 172.468 178.506 172.373C180.697 172.294 181.831 172.136 182.582 171.873C183.293 171.625 183.683 171.277 184.387 170.648L184.804 170.276L185.206 170.635C185.924 171.275 186.328 171.631 187.048 171.884C187.8 172.147 188.928 172.304 191.085 172.382C193.638 172.474 197.523 172.455 203.736 172.424C207.998 172.402 213.355 172.376 220.129 172.376L220.786 172.376C223.627 172.376 225.958 172.394 227.884 172.41C231.057 172.435 233.134 172.452 234.589 172.362C235.749 172.29 236.436 172.152 236.933 171.932C237.411 171.72 237.761 171.411 238.209 170.885C238.651 170.366 238.914 169.925 239.066 169.497C239.218 169.071 239.271 168.624 239.246 168.076C239.221 167.517 239.116 166.871 238.959 166.044C238.911 165.793 238.858 165.524 238.802 165.239C238.677 164.601 238.534 163.876 238.391 163.057L238.305 162.567L238.772 162.392C239.907 161.967 240.688 161.404 241.236 160.762C241.785 160.12 242.123 159.37 242.328 158.537C242.658 157.196 242.632 155.724 242.606 154.203C242.598 153.782 242.591 153.358 242.591 152.931C242.591 148.438 240.601 145.739 237.751 143.777C235.547 142.261 232.872 141.209 230.168 140.146C229.297 139.803 228.423 139.459 227.56 139.099L227.557 139.098C214.051 133.38 199.505 130.431 184.804 130.431C170.104 130.431 155.558 133.38 142.051 139.098L142.05 139.098C141.192 139.459 140.33 139.803 139.475 140.144C136.686 141.257 133.976 142.338 131.769 143.874C130.346 144.866 129.164 146.028 128.336 147.48C127.51 148.929 127.018 150.698 127.018 152.931C127.018 153.359 127.009 153.787 127 154.213C126.971 155.666 126.941 157.096 127.263 158.422C127.659 160.057 128.588 161.492 130.849 162.396L131.3 162.577ZM135.142 161.758L135.146 161.741C135.443 160.441 136.017 159.482 136.766 158.854C137.517 158.225 138.408 157.959 139.276 157.993C140.988 158.06 142.626 159.303 142.945 161.2C143.159 162.457 143.027 163.437 142.909 164.307C142.89 164.448 142.871 164.587 142.854 164.723C142.736 165.682 142.693 166.621 143.185 167.976L143.477 168.781L133.95 168.781L135.142 161.758ZM142.351 161.299C141.816 158.11 136.828 157.079 135.733 161.875L134.663 168.18L142.618 168.18C142.543 167.972 142.479 167.772 142.425 167.58C142.044 166.218 142.177 165.231 142.313 164.217C142.43 163.349 142.549 162.461 142.351 161.299ZM160.362 168.781L159.502 168.781C157.783 168.781 156.274 168.801 154.962 168.819C153.518 168.838 152.313 168.854 151.329 168.837C150.381 168.82 149.592 168.772 148.951 168.658C148.312 168.544 147.764 168.357 147.34 168.021C146.445 167.311 146.368 166.164 146.483 164.792C146.548 164.019 146.691 163.055 146.861 161.897C146.998 160.973 147.152 159.926 147.3 158.755L147.301 158.751C147.503 157.219 148.264 155.813 149.439 154.794C150.615 153.777 152.125 153.216 153.688 153.216C155.251 153.216 156.761 153.777 157.937 154.794C159.112 155.813 159.873 157.219 160.075 158.751L160.076 158.757C160.25 160.19 160.07 161.602 159.904 162.912C159.873 163.155 159.842 163.394 159.815 163.629C159.634 165.17 159.561 166.582 160.069 167.975L160.362 168.781ZM164.879 156.384C165.101 154.374 166.068 152.516 167.594 151.166C169.121 149.816 171.1 149.069 173.151 149.069C175.202 149.069 177.181 149.816 178.708 151.166C180.234 152.516 181.201 154.374 181.423 156.384C182.088 162.961 182.983 165.975 181.862 167.317C180.563 168.871 176.56 168.18 166.363 168.18C166.022 168.182 165.685 168.113 165.372 167.978C165.06 167.843 164.78 167.644 164.551 167.396C164.321 167.147 164.148 166.853 164.041 166.534C163.934 166.215 163.896 165.877 163.93 165.543L164.879 156.384ZM166.365 168.781C168.733 168.781 170.766 168.818 172.511 168.856C172.827 168.863 173.133 168.87 173.43 168.876C174.775 168.906 175.938 168.932 176.933 168.934C178.146 168.935 179.142 168.9 179.943 168.785C180.739 168.67 181.408 168.467 181.918 168.085C182.994 167.28 183.085 165.911 182.947 164.168C182.879 163.297 182.743 162.254 182.582 161.028L182.564 160.889C182.395 159.596 182.2 158.089 182.022 156.324L182.021 156.318C181.783 154.16 180.745 152.165 179.107 150.717C177.47 149.269 175.348 148.469 173.151 148.469C170.953 148.469 168.832 149.269 167.194 150.717C165.557 152.165 164.518 154.16 164.28 156.318L163.331 165.481L163.331 165.482C163.288 165.901 163.336 166.325 163.469 166.724C163.603 167.124 163.821 167.491 164.107 167.802C164.394 168.113 164.743 168.36 165.132 168.528C165.521 168.697 165.941 168.783 166.365 168.781ZM187.587 156.322L187.587 156.318C187.825 154.16 188.864 152.165 190.501 150.717C192.139 149.269 194.26 148.469 196.458 148.469C198.655 148.469 200.777 149.269 202.414 150.717C204.052 152.165 205.09 154.16 205.328 156.318L205.329 156.324C205.507 158.089 205.702 159.597 205.869 160.889L205.88 160.977C206.042 162.225 206.18 163.285 206.248 164.169C206.382 165.914 206.284 167.282 205.206 168.086C204.694 168.467 204.025 168.67 203.228 168.785C202.427 168.9 201.431 168.935 200.22 168.934C199.225 168.932 198.063 168.906 196.72 168.876C196.423 168.87 196.118 168.863 195.804 168.856C194.062 168.818 192.033 168.781 189.67 168.781L189.669 168.781C189.246 168.78 188.828 168.692 188.442 168.522C188.056 168.352 187.71 168.105 187.426 167.795C187.174 167.522 186.928 167.238 186.79 166.795C186.66 166.379 186.641 165.874 186.678 165.173C186.724 164.312 186.865 163.025 187.084 161.019C187.222 159.761 187.391 158.22 187.587 156.322ZM210.293 167.58C210.697 166.038 210.499 164.549 210.293 162.992C210.12 161.683 209.94 160.327 210.106 158.853C210.289 157.467 210.977 156.194 212.043 155.272C213.108 154.349 214.478 153.84 215.896 153.84C217.315 153.84 218.684 154.349 219.75 155.272C220.815 156.194 221.504 157.467 221.686 158.853L222.562 165.471C222.608 165.811 222.578 166.157 222.476 166.485C222.375 166.812 222.203 167.115 221.972 167.372C221.741 167.629 221.458 167.834 221.14 167.973C220.822 168.113 220.477 168.183 220.129 168.18L210.106 168.18C210.179 167.979 210.241 167.779 210.293 167.58ZM220.127 168.781L209.246 168.781L209.54 167.975C210.048 166.583 209.969 165.237 209.782 163.735C209.755 163.521 209.727 163.304 209.697 163.083C209.523 161.775 209.332 160.339 209.508 158.786L209.508 158.781L209.509 158.775C209.711 157.243 210.472 155.836 211.648 154.818C212.823 153.801 214.334 153.24 215.896 153.24C217.459 153.24 218.969 153.801 220.145 154.818C221.321 155.836 222.082 157.243 222.284 158.775L223.159 165.392M220.127 168.781C220.559 168.784 220.987 168.696 221.382 168.523C221.779 168.349 222.133 168.093 222.421 167.772C222.709 167.451 222.924 167.073 223.052 166.662C223.179 166.251 223.216 165.818 223.159 165.392M226.135 168.781L226.423 167.978C226.929 166.572 226.884 165.643 226.764 164.708C226.746 164.572 226.727 164.434 226.707 164.293C226.586 163.44 226.45 162.476 226.664 161.2L226.665 161.192L226.667 161.183C226.844 160.288 227.336 159.484 228.055 158.914C228.774 158.344 229.672 158.043 230.593 158.063C231.513 158.084 232.397 158.424 233.089 159.025C233.776 159.622 234.229 160.437 234.37 161.331C234.88 163.569 235.272 165.831 235.544 168.11L235.624 168.781L226.135 168.781ZM233.778 161.443C233.663 160.682 233.279 159.986 232.693 159.478C232.108 158.969 231.359 158.681 230.579 158.663C229.799 158.646 229.038 158.901 228.43 159.384C227.822 159.866 227.407 160.544 227.258 161.299C227.06 162.478 227.183 163.35 227.302 164.201C227.443 165.202 227.58 166.173 227.183 167.58C227.129 167.772 227.065 167.971 226.99 168.18L234.946 168.18C234.922 167.98 234.897 167.78 234.871 167.58C234.606 165.519 234.241 163.471 233.778 161.443ZM143.502 142.357L143.502 142.356C156.553 136.842 170.605 133.999 184.804 133.999C199.004 133.999 213.055 136.842 226.106 142.356C227.183 142.812 228.207 143.218 229.187 143.606C229.82 143.856 230.434 144.099 231.033 144.344C232.538 144.96 233.913 145.575 235.073 146.296C236.236 147.018 237.209 147.863 237.888 148.951C238.57 150.045 238.93 151.343 238.93 152.931C238.93 153.7 238.936 154.351 238.942 154.902C238.952 155.832 238.959 156.481 238.925 156.943C238.897 157.326 238.838 157.656 238.696 157.952C238.548 158.257 238.338 158.472 238.106 158.666L237.522 159.155L237.18 158.475C236.697 157.512 236.005 156.665 235.153 155.995C234.301 155.324 233.309 154.845 232.247 154.593C231.186 154.341 230.081 154.322 229.011 154.537C227.941 154.752 226.933 155.196 226.057 155.837L225.449 156.282L225.148 155.592C224.506 154.119 223.509 152.821 222.243 151.812C220.977 150.802 219.48 150.111 217.882 149.799C216.283 149.487 214.631 149.564 213.07 150.022C211.508 150.48 210.083 151.306 208.919 152.428L208.299 153.025L207.95 152.239C207.003 150.107 205.466 148.28 203.512 146.969C201.558 145.658 199.268 144.917 196.905 144.831C194.542 144.744 192.203 145.317 190.156 146.483C188.109 147.648 186.439 149.358 185.335 151.416L184.804 152.406L184.273 151.416C183.17 149.358 181.499 147.648 179.452 146.483C177.406 145.317 175.066 144.744 172.703 144.831C170.34 144.917 168.05 145.658 166.096 146.969C164.143 148.28 162.605 150.107 161.659 152.239L161.309 153.028L160.688 152.426C159.526 151.3 158.102 150.469 156.54 150.008C154.977 149.547 153.323 149.469 151.723 149.781C150.123 150.093 148.625 150.786 147.359 151.799C146.094 152.812 145.099 154.113 144.461 155.59L144.162 156.283L143.551 155.837C142.676 155.196 141.667 154.752 140.597 154.537C139.527 154.322 138.423 154.341 137.361 154.593C136.3 154.845 135.308 155.324 134.455 155.995C133.603 156.665 132.911 157.512 132.428 158.475L132.087 159.155L131.502 158.666C131.269 158.471 131.059 158.254 130.912 157.947C130.77 157.65 130.712 157.318 130.684 156.934C130.65 156.47 130.657 155.82 130.666 154.892C130.672 154.342 130.679 153.695 130.679 152.931C130.679 151.351 131.031 150.059 131.706 148.97C132.377 147.886 133.341 147.045 134.499 146.323C135.653 145.604 137.025 144.988 138.534 144.368C139.136 144.121 139.755 143.875 140.394 143.621C141.379 143.229 142.411 142.819 143.502 142.357ZM141.816 138.545C155.397 132.796 170.023 129.83 184.804 129.83C199.585 129.83 214.212 132.796 227.793 138.545C228.626 138.894 229.481 139.23 230.34 139.567C236.638 142.043 243.193 144.619 243.193 152.931C243.193 153.331 243.2 153.737 243.208 154.147C243.27 157.621 243.337 161.323 238.984 162.953C239.126 163.767 239.267 164.48 239.392 165.116C239.992 168.173 240.239 169.427 238.668 171.273C237.127 173.084 236.163 173.077 227.841 173.01C225.916 172.994 223.597 172.976 220.786 172.976L220.129 172.976C191.627 172.976 188.124 173.451 185.913 171.987C185.544 171.743 185.211 171.445 184.804 171.082C184.404 171.438 184.079 171.732 183.719 171.973C181.536 173.435 178.057 172.976 148.822 172.976C146.657 172.976 144.781 172.982 143.152 172.988C133.162 173.023 132.447 173.026 130.941 171.273C129.43 169.515 129.693 168.078 130.309 164.715C130.407 164.179 130.514 163.595 130.624 162.953C126.251 161.204 126.328 157.498 126.398 154.152C126.407 153.738 126.416 153.33 126.416 152.931C126.416 144.704 132.846 142.14 139.297 139.568C140.141 139.231 140.985 138.895 141.816 138.545ZM158.865 168.181C151.494 168.202 148.478 168.56 147.471 167.31C146.578 166.201 147.267 163.827 147.898 158.829C148.08 157.443 148.769 156.17 149.834 155.248C150.9 154.325 152.27 153.816 153.688 153.816C155.106 153.816 156.476 154.325 157.542 155.248C158.607 156.17 159.295 157.443 159.478 158.829C159.642 160.182 159.474 161.508 159.308 162.82C159.105 164.422 158.905 166.003 159.316 167.58C159.368 167.78 159.43 167.98 159.502 168.18C159.287 168.18 159.074 168.181 158.865 168.181ZM143.401 155.01C143.574 155.118 143.743 155.232 143.908 155.353C143.989 155.165 144.075 154.981 144.167 154.799C144.841 153.46 145.801 152.276 146.982 151.331C148.324 150.257 149.912 149.523 151.607 149.192C153.303 148.861 155.055 148.944 156.711 149.432C158.163 149.861 159.502 150.59 160.641 151.569C160.801 151.707 160.956 151.849 161.108 151.996C161.194 151.803 161.284 151.612 161.379 151.424C162.382 149.433 163.89 147.726 165.76 146.471C167.807 145.097 170.206 144.321 172.681 144.231C175.156 144.141 177.607 144.74 179.751 145.961C181.69 147.065 183.307 148.636 184.455 150.522C184.577 150.722 184.693 150.926 184.804 151.133C184.915 150.926 185.032 150.722 185.154 150.522C186.301 148.636 187.919 147.065 189.857 145.961C192.002 144.74 194.452 144.141 196.927 144.231C199.402 144.321 201.801 145.097 203.848 146.471C205.719 147.726 207.227 149.433 208.23 151.424C208.324 151.613 208.415 151.803 208.5 151.996C208.652 151.85 208.809 151.708 208.969 151.571C210.109 150.597 211.449 149.872 212.899 149.446C214.554 148.961 216.304 148.88 217.997 149.21C219.691 149.541 221.277 150.273 222.62 151.343C223.801 152.285 224.762 153.465 225.44 154.8C225.532 154.981 225.619 155.166 225.701 155.353C225.865 155.232 226.035 155.118 226.208 155.011C227.029 154.501 227.938 154.14 228.892 153.949C230.048 153.716 231.241 153.737 232.387 154.009C233.533 154.281 234.605 154.798 235.526 155.524C236.285 156.121 236.927 156.848 237.422 157.667C237.528 157.843 237.627 158.023 237.719 158.206C237.912 158.045 238.047 157.9 238.142 157.715C238.365 157.276 238.358 156.609 238.34 154.953C238.334 154.399 238.327 153.735 238.327 152.931C238.327 147.871 234.466 146.342 228.978 144.169C227.991 143.778 226.951 143.366 225.871 142.909C212.894 137.426 198.923 134.599 184.804 134.599C170.686 134.599 156.714 137.426 143.738 142.909C142.645 143.372 141.596 143.789 140.603 144.184C135.075 146.382 131.281 147.89 131.281 152.931C131.281 153.729 131.274 154.391 131.268 154.942C131.251 156.596 131.244 157.27 131.468 157.713C131.562 157.899 131.697 158.045 131.89 158.206C131.982 158.022 132.081 157.843 132.187 157.667C132.682 156.848 133.323 156.121 134.082 155.524C135.004 154.798 136.075 154.281 137.222 154.009C138.368 153.737 139.561 153.716 140.716 153.949C141.67 154.14 142.58 154.501 143.401 155.01ZM187.68 161.117C187.107 166.343 187.085 166.539 187.87 167.389C188.097 167.638 188.375 167.836 188.685 167.973C188.995 168.109 189.33 168.18 189.67 168.18C199.845 168.18 203.849 168.872 205.153 167.315C206.278 165.973 205.394 162.958 204.729 156.384C204.508 154.374 203.541 152.516 202.014 151.166C200.488 149.816 198.509 149.069 196.458 149.069C194.407 149.069 192.428 149.816 190.901 151.166C189.374 152.516 188.407 154.374 188.186 156.384C187.988 158.307 187.818 159.858 187.68 161.117Z" fill="white"/>
<rect x="69.5615" y="108.021" width="229.878" height="126.457" stroke="white" stroke-width="2"/>
<path d="M132.842 279.261C132.538 279.261 132.306 279.213 132.146 279.117C132.002 279.037 131.906 278.917 131.858 278.757C131.81 278.581 131.786 278.381 131.786 278.157V263.589C131.786 263.381 131.81 263.197 131.858 263.037C131.922 262.877 132.034 262.749 132.194 262.653C132.354 262.557 132.578 262.509 132.866 262.509H138.122C138.89 262.509 139.594 262.629 140.234 262.869C140.89 263.093 141.458 263.445 141.938 263.925C142.434 264.389 142.818 264.957 143.09 265.629C143.362 266.301 143.498 267.077 143.498 267.957C143.498 268.821 143.362 269.589 143.09 270.261C142.818 270.933 142.434 271.501 141.938 271.965C141.442 272.413 140.866 272.757 140.21 272.997C139.57 273.237 138.866 273.357 138.098 273.357H133.97V278.181C133.97 278.405 133.938 278.597 133.874 278.757C133.826 278.917 133.722 279.037 133.562 279.117C133.418 279.213 133.178 279.261 132.842 279.261ZM133.97 271.173H138.122C138.762 271.173 139.322 271.053 139.802 270.813C140.282 270.557 140.658 270.189 140.93 269.709C141.202 269.213 141.338 268.613 141.338 267.909C141.338 267.237 141.21 266.661 140.954 266.181C140.698 265.701 140.322 265.333 139.826 265.077C139.346 264.821 138.77 264.693 138.098 264.693H133.97V271.173ZM147.424 279.261C147.12 279.261 146.888 279.213 146.728 279.117C146.568 279.037 146.464 278.917 146.416 278.757C146.384 278.581 146.368 278.381 146.368 278.157V263.565C146.368 263.357 146.392 263.181 146.44 263.037C146.504 262.877 146.608 262.749 146.752 262.653C146.912 262.557 147.144 262.509 147.448 262.509H152.752C153.536 262.509 154.248 262.629 154.888 262.869C155.544 263.093 156.112 263.429 156.592 263.877C157.072 264.325 157.44 264.893 157.696 265.581C157.968 266.253 158.104 267.037 158.104 267.933C158.104 268.493 158.016 269.077 157.84 269.685C157.664 270.277 157.392 270.837 157.024 271.365C156.672 271.893 156.216 272.333 155.656 272.685C155.096 273.037 154.416 273.237 153.616 273.285H148.528V278.181C148.528 278.405 148.496 278.597 148.432 278.757C148.384 278.917 148.28 279.037 148.12 279.117C147.976 279.213 147.744 279.261 147.424 279.261ZM157.72 278.997C157.384 279.221 157.096 279.293 156.856 279.213C156.632 279.133 156.416 278.941 156.208 278.637L152.368 272.493L154.744 272.133L158.056 277.413C158.216 277.669 158.312 277.885 158.344 278.061C158.392 278.237 158.36 278.397 158.248 278.541C158.152 278.685 157.976 278.837 157.72 278.997ZM148.528 271.173H153.28C153.648 271.173 153.992 271.109 154.312 270.981C154.632 270.837 154.912 270.629 155.152 270.357C155.392 270.085 155.584 269.749 155.728 269.349C155.872 268.949 155.944 268.469 155.944 267.909C155.944 267.221 155.816 266.637 155.56 266.157C155.32 265.677 154.96 265.317 154.48 265.077C154 264.821 153.408 264.693 152.704 264.693H148.528V271.173ZM168.19 279.429C167.054 279.429 165.982 279.213 164.974 278.781C163.982 278.349 163.102 277.749 162.334 276.981C161.582 276.197 160.99 275.301 160.558 274.293C160.126 273.285 159.91 272.197 159.91 271.029C159.91 269.845 160.118 268.733 160.534 267.693C160.95 266.637 161.526 265.717 162.262 264.933C163.014 264.149 163.878 263.533 164.854 263.085C165.83 262.637 166.87 262.413 167.974 262.413C169.126 262.413 170.198 262.629 171.19 263.061C172.198 263.493 173.07 264.101 173.806 264.885C174.558 265.653 175.15 266.557 175.582 267.597C176.014 268.637 176.23 269.749 176.23 270.933C176.23 272.101 176.014 273.197 175.582 274.221C175.166 275.229 174.59 276.133 173.854 276.933C173.118 277.717 172.262 278.333 171.286 278.781C170.326 279.213 169.294 279.429 168.19 279.429ZM168.046 277.245C168.878 277.245 169.654 277.085 170.374 276.765C171.11 276.445 171.75 275.997 172.294 275.421C172.838 274.829 173.262 274.157 173.566 273.405C173.886 272.637 174.046 271.805 174.046 270.909C174.046 270.045 173.886 269.237 173.566 268.485C173.262 267.717 172.83 267.045 172.27 266.469C171.726 265.877 171.094 265.413 170.374 265.077C169.654 264.741 168.886 264.573 168.07 264.573C167.254 264.573 166.486 264.741 165.766 265.077C165.046 265.413 164.406 265.869 163.846 266.445C163.302 267.021 162.87 267.693 162.55 268.461C162.246 269.229 162.094 270.053 162.094 270.933C162.094 271.797 162.246 272.613 162.55 273.381C162.87 274.149 163.302 274.821 163.846 275.397C164.406 275.973 165.038 276.429 165.742 276.765C166.462 277.085 167.23 277.245 168.046 277.245ZM167.134 261.429C166.878 261.477 166.678 261.453 166.534 261.357C166.39 261.261 166.27 261.061 166.174 260.757C166.062 260.421 166.038 260.165 166.102 259.989C166.182 259.813 166.374 259.677 166.678 259.581L170.518 258.285C170.758 258.237 170.95 258.269 171.094 258.381C171.238 258.477 171.358 258.677 171.454 258.981C171.566 259.317 171.574 259.573 171.478 259.749C171.398 259.909 171.206 260.045 170.902 260.157L167.134 261.429ZM189.523 262.509C189.731 262.509 189.899 262.533 190.027 262.581C190.171 262.629 190.283 262.725 190.363 262.869C190.443 262.997 190.483 263.213 190.483 263.517C190.483 263.805 190.435 264.021 190.339 264.165C190.259 264.309 190.147 264.405 190.003 264.453C189.859 264.485 189.683 264.501 189.475 264.501H184.507V278.205C184.507 278.413 184.475 278.597 184.411 278.757C184.363 278.917 184.259 279.037 184.099 279.117C183.955 279.213 183.731 279.261 183.427 279.261C183.107 279.261 182.867 279.213 182.707 279.117C182.563 279.037 182.467 278.917 182.419 278.757C182.387 278.581 182.371 278.389 182.371 278.181V264.501H177.331C177.123 264.501 176.947 264.485 176.803 264.453C176.659 264.405 176.547 264.309 176.467 264.165C176.387 264.021 176.347 263.805 176.347 263.517C176.347 263.213 176.379 262.997 176.443 262.869C176.523 262.725 176.635 262.629 176.779 262.581C176.939 262.533 177.115 262.509 177.307 262.509H189.523ZM194.276 279.261C193.956 279.261 193.716 279.213 193.556 279.117C193.412 279.037 193.316 278.917 193.268 278.757C193.22 278.581 193.196 278.381 193.196 278.157V263.589C193.196 263.173 193.276 262.893 193.436 262.749C193.612 262.589 193.916 262.509 194.348 262.509H203.996C204.22 262.509 204.412 262.533 204.572 262.581C204.732 262.629 204.852 262.733 204.932 262.893C205.012 263.053 205.052 263.293 205.052 263.613C205.052 263.933 205.004 264.173 204.908 264.333C204.828 264.477 204.708 264.573 204.548 264.621C204.388 264.669 204.196 264.693 203.972 264.693H195.356V269.661H201.356C201.58 269.661 201.764 269.685 201.908 269.733C202.068 269.781 202.188 269.877 202.268 270.021C202.348 270.165 202.388 270.389 202.388 270.693C202.388 270.981 202.348 271.197 202.268 271.341C202.188 271.485 202.068 271.581 201.908 271.629C201.748 271.661 201.548 271.677 201.308 271.677H195.356V277.101H203.996C204.22 277.101 204.412 277.125 204.572 277.173C204.732 277.221 204.852 277.325 204.932 277.485C205.012 277.629 205.052 277.861 205.052 278.181C205.052 278.501 205.004 278.741 204.908 278.901C204.828 279.045 204.708 279.141 204.548 279.189C204.388 279.237 204.196 279.261 203.972 279.261H194.276ZM212.829 279.501C212.221 279.501 211.645 279.429 211.101 279.285C210.573 279.141 210.085 278.949 209.637 278.709C209.205 278.453 208.821 278.173 208.485 277.869C208.149 277.565 207.885 277.261 207.693 276.957C207.517 276.701 207.405 276.493 207.357 276.333C207.309 276.157 207.317 275.989 207.381 275.829C207.461 275.669 207.613 275.493 207.837 275.301C208.093 275.109 208.317 275.021 208.509 275.037C208.701 275.037 208.877 275.109 209.037 275.253C209.213 275.397 209.389 275.589 209.565 275.829C209.965 276.373 210.453 276.773 211.029 277.029C211.605 277.269 212.173 277.389 212.733 277.389C213.453 277.389 214.093 277.293 214.653 277.101C215.213 276.909 215.653 276.621 215.973 276.237C216.309 275.837 216.477 275.325 216.477 274.701C216.477 274.189 216.349 273.757 216.093 273.405C215.837 273.053 215.493 272.757 215.061 272.517C214.629 272.261 214.149 272.045 213.621 271.869C213.093 271.677 212.557 271.493 212.013 271.317C211.581 271.173 211.157 271.013 210.741 270.837C210.325 270.645 209.933 270.437 209.565 270.213C209.197 269.973 208.869 269.693 208.581 269.373C208.309 269.053 208.093 268.677 207.933 268.245C207.789 267.813 207.717 267.309 207.717 266.733C207.717 265.853 207.925 265.077 208.341 264.405C208.773 263.733 209.373 263.213 210.141 262.845C210.909 262.461 211.797 262.269 212.805 262.269C213.397 262.269 213.941 262.325 214.437 262.437C214.933 262.549 215.373 262.701 215.757 262.893C216.141 263.069 216.469 263.261 216.741 263.469C217.013 263.661 217.221 263.845 217.365 264.021C217.653 264.325 217.813 264.581 217.845 264.789C217.877 264.997 217.757 265.253 217.485 265.557C217.229 265.845 216.981 265.997 216.741 266.013C216.501 266.029 216.237 265.917 215.949 265.677C215.645 265.325 215.325 265.053 214.989 264.861C214.669 264.669 214.325 264.541 213.957 264.477C213.605 264.397 213.213 264.357 212.781 264.357C212.365 264.357 211.973 264.413 211.605 264.525C211.253 264.621 210.941 264.773 210.669 264.981C210.413 265.189 210.213 265.445 210.069 265.749C209.925 266.037 209.853 266.373 209.853 266.757C209.853 267.189 209.965 267.557 210.189 267.861C210.429 268.165 210.741 268.429 211.125 268.653C211.509 268.861 211.941 269.053 212.421 269.229C212.901 269.389 213.405 269.549 213.933 269.709C214.509 269.885 215.077 270.101 215.637 270.357C216.197 270.597 216.701 270.901 217.149 271.269C217.597 271.621 217.957 272.069 218.229 272.613C218.501 273.157 218.637 273.829 218.637 274.629C218.637 275.429 218.477 276.133 218.157 276.741C217.853 277.349 217.429 277.861 216.885 278.277C216.341 278.677 215.717 278.981 215.013 279.189C214.325 279.397 213.597 279.501 212.829 279.501ZM222.206 279.261C221.886 279.261 221.646 279.213 221.486 279.117C221.342 279.037 221.246 278.917 221.198 278.757C221.15 278.581 221.126 278.381 221.126 278.157V263.589C221.126 263.365 221.15 263.173 221.198 263.013C221.262 262.853 221.366 262.733 221.51 262.653C221.67 262.557 221.91 262.509 222.23 262.509C222.55 262.509 222.782 262.557 222.926 262.653C223.086 262.733 223.182 262.853 223.214 263.013C223.262 263.173 223.286 263.373 223.286 263.613V278.181C223.286 278.405 223.262 278.597 223.214 278.757C223.166 278.917 223.062 279.037 222.902 279.117C222.758 279.213 222.526 279.261 222.206 279.261ZM231.321 279.501C230.713 279.501 230.137 279.429 229.593 279.285C229.065 279.141 228.577 278.949 228.129 278.709C227.697 278.453 227.313 278.173 226.977 277.869C226.641 277.565 226.377 277.261 226.185 276.957C226.009 276.701 225.897 276.493 225.849 276.333C225.801 276.157 225.809 275.989 225.873 275.829C225.953 275.669 226.105 275.493 226.329 275.301C226.585 275.109 226.809 275.021 227.001 275.037C227.193 275.037 227.369 275.109 227.529 275.253C227.705 275.397 227.881 275.589 228.057 275.829C228.457 276.373 228.945 276.773 229.521 277.029C230.097 277.269 230.665 277.389 231.225 277.389C231.945 277.389 232.585 277.293 233.145 277.101C233.705 276.909 234.145 276.621 234.465 276.237C234.801 275.837 234.969 275.325 234.969 274.701C234.969 274.189 234.841 273.757 234.585 273.405C234.329 273.053 233.985 272.757 233.553 272.517C233.121 272.261 232.641 272.045 232.113 271.869C231.585 271.677 231.049 271.493 230.505 271.317C230.073 271.173 229.649 271.013 229.233 270.837C228.817 270.645 228.425 270.437 228.057 270.213C227.689 269.973 227.361 269.693 227.073 269.373C226.801 269.053 226.585 268.677 226.425 268.245C226.281 267.813 226.209 267.309 226.209 266.733C226.209 265.853 226.417 265.077 226.833 264.405C227.265 263.733 227.865 263.213 228.633 262.845C229.401 262.461 230.289 262.269 231.297 262.269C231.889 262.269 232.433 262.325 232.929 262.437C233.425 262.549 233.865 262.701 234.249 262.893C234.633 263.069 234.961 263.261 235.233 263.469C235.505 263.661 235.713 263.845 235.857 264.021C236.145 264.325 236.305 264.581 236.337 264.789C236.369 264.997 236.249 265.253 235.977 265.557C235.721 265.845 235.473 265.997 235.233 266.013C234.993 266.029 234.729 265.917 234.441 265.677C234.137 265.325 233.817 265.053 233.481 264.861C233.161 264.669 232.817 264.541 232.449 264.477C232.097 264.397 231.705 264.357 231.273 264.357C230.857 264.357 230.465 264.413 230.097 264.525C229.745 264.621 229.433 264.773 229.161 264.981C228.905 265.189 228.705 265.445 228.561 265.749C228.417 266.037 228.345 266.373 228.345 266.757C228.345 267.189 228.457 267.557 228.681 267.861C228.921 268.165 229.233 268.429 229.617 268.653C230.001 268.861 230.433 269.053 230.913 269.229C231.393 269.389 231.897 269.549 232.425 269.709C233.001 269.885 233.569 270.101 234.129 270.357C234.689 270.597 235.193 270.901 235.641 271.269C236.089 271.621 236.449 272.069 236.721 272.613C236.993 273.157 237.129 273.829 237.129 274.629C237.129 275.429 236.969 276.133 236.649 276.741C236.345 277.349 235.921 277.861 235.377 278.277C234.833 278.677 234.209 278.981 233.505 279.189C232.817 279.397 232.089 279.501 231.321 279.501Z" fill="#007CC1"/>
<defs>
<filter id="filter0_d_39_781" x="0.5" y="0.5" width="334" height="333" filterUnits="userSpaceOnUse" color-interpolation-filters="sRGB">
<feFlood flood-opacity="0" result="BackgroundImageFix"/>
<feColorMatrix in="SourceAlpha" type="matrix" values="0 0 0 0 0 0 0 0 0 0 0 0 0 0 0 0 0 0 127 0" result="hardAlpha"/>
<feOffset dx="-17" dy="-13"/>
<feGaussianBlur stdDeviation="8.75"/>
<feComposite in2="hardAlpha" operator="out"/>
<feColorMatrix type="matrix" values="0 0 0 0 0 0 0 0 0 0 0 0 0 0 0 0 0 0 0.07 0"/>
<feBlend mode="normal" in2="BackgroundImageFix" result="effect1_dropShadow_39_781"/>
<feBlend mode="normal" in="SourceGraphic" in2="effect1_dropShadow_39_781" result="shape"/>
</filter>
</defs>
</svg>
