<svg width="32" height="30" viewBox="0 0 32 30" fill="none" xmlns="http://www.w3.org/2000/svg">
<path fill-rule="evenodd" clip-rule="evenodd" d="M16 0.492676C7.7213 0.492676 1 6.80756 1 14.5857C1 22.3638 7.7213 28.6787 16 28.6787C24.2787 28.6787 31 22.3638 31 14.5857C31 6.80756 24.2787 0.492676 16 0.492676ZM16 2.94363C22.8387 2.94363 28.3913 8.16049 28.3913 14.5857C28.3913 21.0108 22.8387 26.2277 16 26.2277C9.1613 26.2277 3.6087 21.0108 3.6087 14.5857C3.6087 8.16049 9.1613 2.94363 16 2.94363Z" fill="#FCA721" stroke="#FCA721"/>
<path fill-rule="evenodd" clip-rule="evenodd" d="M14.6953 6.00722V14.5856C14.6953 14.9103 14.8329 15.2222 15.0775 15.452L20.2949 20.3539C20.8036 20.8324 21.6305 20.8324 22.1392 20.3539C22.6486 19.876 22.6486 19.099 22.1392 18.6211L17.304 14.0782V6.00722C17.304 5.33075 16.7197 4.78174 15.9997 4.78174C15.2797 4.78174 14.6953 5.33075 14.6953 6.00722Z" fill="#FCA721"/>
</svg>
