<svg width="30" height="35" viewBox="0 0 30 35" fill="none" xmlns="http://www.w3.org/2000/svg">
<path fill-rule="evenodd" clip-rule="evenodd" d="M15 0C6.72163 0 0 6.31445 0 14.093C0 17.1419 1.57987 20.4224 3.83398 23.5006C6.97856 27.7939 11.3958 31.7184 13.8717 34.0439C14.171 34.325 14.5771 34.4832 15 34.4832C15.4237 34.4832 15.829 34.325 16.1283 34.0439C18.3385 31.9673 22.8084 27.9948 26.0376 23.6228C28.3507 20.4899 30 17.1396 30 14.093C30 6.31445 23.2792 0 15 0ZM15 2.99867C21.5174 2.99867 26.8083 7.96971 26.8083 14.093C26.8083 16.6074 25.3242 19.3272 23.4148 21.9128C20.7897 25.4684 17.3004 28.7407 15.0008 30.8735C12.5544 28.6043 9.05394 25.3373 6.46311 21.8003C4.60636 19.2649 3.19166 16.6044 3.19166 14.093C3.19166 7.96971 8.48343 2.99867 15 2.99867Z" fill="#FCA721"/>
<path fill-rule="evenodd" clip-rule="evenodd" d="M15.0003 8.771C11.8741 8.771 9.33594 11.1557 9.33594 14.0929C9.33594 17.0301 11.8741 19.4148 15.0003 19.4148C18.1266 19.4148 20.6647 17.0301 20.6647 14.0929C20.6647 11.1557 18.1266 8.771 15.0003 8.771ZM15.0003 11.7697C16.3648 11.7697 17.4731 12.811 17.4731 14.0929C17.4731 15.3748 16.3648 16.4161 15.0003 16.4161C13.6359 16.4161 12.5276 15.3748 12.5276 14.0929C12.5276 12.811 13.6359 11.7697 15.0003 11.7697Z" fill="#FCA721"/>
</svg>
