<svg width="30" height="29" viewBox="0 0 30 29" fill="none" xmlns="http://www.w3.org/2000/svg">
<path fill-rule="evenodd" clip-rule="evenodd" d="M0.017385 4.00124L0.0188539 4.02337C0.0511739 4.33399 0.0886355 4.64253 0.131974 4.94968C1.82289 16.9502 11.9008 26.4734 24.6253 28.1392C24.632 28.1399 24.6378 28.1406 24.6444 28.1413C26.0011 28.3018 27.3645 27.9047 28.3899 27.0524C29.4138 26.2015 30.0007 24.9749 30 23.6868C30 22.6761 30 21.572 29.9699 20.5897C29.9589 18.3856 28.254 16.5116 25.9409 16.165L25.9468 16.1657C25.2027 16.0515 24.4755 15.8883 23.7762 15.6607C23.7696 15.6579 23.7623 15.6558 23.7549 15.6538C22.0647 15.1308 20.2049 15.5396 18.9334 16.7129L18.0482 17.5299C15.3444 15.7804 13.0122 13.5556 11.1891 10.9849C11.441 10.76 11.7223 10.5061 11.9993 10.2529C13.3192 9.08589 13.818 7.31215 13.284 5.68229C13.0923 5.07974 12.9395 4.45989 12.855 3.82275C12.8528 3.80823 12.8506 3.7937 12.8484 3.77917C12.4841 1.59796 10.4883 -0.00976562 8.14291 -0.00976562H3.90239C2.80131 -0.00976562 1.75238 0.428138 1.01269 1.19603C0.273006 1.96322 -0.0876549 2.98915 0.0181195 4.0213L0.017385 4.00124ZM2.94454 3.77848L2.94307 3.75427C2.91663 3.49969 3.00551 3.2458 3.18841 3.05556C3.37131 2.86601 3.62987 2.7574 3.90239 2.7574H8.14291C9.03171 2.7574 9.78902 3.35995 9.94107 4.1811C10.0476 4.97113 10.2334 5.73555 10.4699 6.47854C10.4714 6.48338 10.4729 6.48822 10.4751 6.49376C10.6815 7.11637 10.4898 7.79571 9.98294 8.24053C9.97633 8.24675 9.96972 8.25298 9.96238 8.2592C9.14777 9.00288 8.29643 9.75001 8.29643 9.75001C7.78813 10.1962 7.68162 10.9171 8.04081 11.4774C10.3811 15.1287 13.6153 18.2168 17.4562 20.4714C18.0321 20.8097 18.7776 20.7322 19.2624 20.2853C19.2624 20.2853 20.1483 19.4662 20.9901 18.6886C21.4719 18.2438 22.1749 18.0854 22.8169 18.2763C23.6829 18.5565 24.5673 18.7571 25.4737 18.8969C25.4752 18.8969 25.4774 18.8976 25.4796 18.8976C26.3736 19.0318 27.0317 19.7581 27.0317 20.6111C27.0317 20.6243 27.0317 20.6381 27.0324 20.6512C27.0618 21.6135 27.0618 22.6962 27.0618 23.6882V23.6896C27.0626 24.1821 26.8371 24.6519 26.4448 24.9784C26.0555 25.3022 25.5391 25.4543 25.0242 25.3976C13.6028 23.8971 4.56201 15.3528 3.04518 4.5858V4.58511C3.00624 4.31047 2.97172 4.03513 2.94381 3.75773L2.94454 3.77848ZM0.0129777 3.91338L0.0122432 3.90438L0.0115083 3.88778L0.0129777 3.91338ZM2.94895 3.86426L2.94968 3.87395L2.95042 3.89055L2.94895 3.86426Z" fill="#FCA721"/>
</svg>
